<svg width="888" height="437" viewBox="0 0 888 437" xmlns="http://www.w3.org/2000/svg" xmlns:sketch="http://www.bohemiancoding.com/sketch/ns"><title>Zanata</title><desc>Created with Sketch.</desc><g sketch:type="MSArtboardGroup" fill="none"><path fill="#1BA7D9" sketch:type="MSShapeGroup" d="M-2-3h890v442h-890z"/><g sketch:type="MSShapeGroup"><path d="M452.47 161.561c2.112-.04 4.239.945 5.515 2.642-2.953.849-6.35.144-8.624-1.955.958-.485 2.041-.687 3.109-.687zm-40.822-36.437l-17.595.303c.13 7.526.261 15.053.392 22.578-2.717-5.229-5.229-10.568-8.07-15.731-2.362-3.469-6.498-5.263-10.545-5.79-4.78-.671-9.604-.063-14.401-.016-3.021.102-6.04.204-9.06.305l.242 7.235c-1.054-.986-1.835-2.218-2.804-3.283-.792-.969-1.586-1.937-2.403-2.884-.391-1.183-1.838-.719-2.763-.709-9.299.442-18.596.904-27.895 1.354l.597 12.24c-3.406-2.734-6.652-5.667-10.164-8.265-3.78-2.322-8.358-2.81-12.702-2.595-6.145.329-12.284.781-18.427 1.156l.233 3.671c-1.297-.784-2.529-1.674-3.819-2.469-.693-.685-1.608-1.031-2.57-.771-2.995.238-5.99.486-8.985.726.304 3.768.609 7.534.914 11.302-1.065-.377-1.972-1.083-2.99-1.564-3.211-1.804-6.434-3.582-9.645-5.385-1.193-.598-2.284-1.375-3.489-1.953-.958-.544-1.93-1.291-3.088-.91l-9.411.763c.221 2.723.442 5.445.662 8.167-4.091-1.917-8.054-4.117-12.245-5.815-6.467-2.281-14.123-1.492-19.667 2.679-3.507 2.675-5.839 7.042-5.568 11.511.165 4.526 2.811 8.892 6.815 11.028 3.057 1.712 6.505 2.487 9.758 3.723 2.338.794 4.685 1.564 6.986 2.46 2.192 1.511 2.02 5.272-.274 6.606-1.402.946-3.134 1.356-4.804 1.365-1.239-.34-2.417-.88-3.674-1.158-2.69-.818-5.392-1.606-8.074-2.441-.743.068-.867 1.002-1.319 1.471l-4.323 6.452c3.534 2.78 7.894 4.222 12.235 5.158 19.346 4.898 38.671 9.885 58.029 14.731 4.731.906 9.947.182 13.882-2.733 1.471-1.133 2.699-2.61 3.435-4.325 4.429 1.403 8.81 2.968 13.27 4.269 4.014.8 8.339.378 12.009-1.489 1.345-.744 2.558-1.753 3.465-3.001 2.231.873 4.448 1.781 6.668 2.681 1.321.188 2.647-.112 3.971-.128l4.393-.283c-.259-4.068-.52-8.137-.78-12.206 1.127.033 2.412-.486 3.401.289 6.184 3.392 12.369 6.783 18.533 10.213.775.578 1.776.212 2.663.241l21.012-1.023-.128-2.62c.969.769 1.952 1.522 2.898 2.319 1.164.378 2.384-.018 3.574.06l4.788-.162c-.147-4.333-.292-8.664-.438-12.997 1.19.027 1.496 1.416 2.334 2.011 3.169 3.529 6.314 7.078 9.489 10.602 3.033-.11 6.068-.19 9.1-.319-2.885-4.715-5.766-9.433-8.649-14.15 1.066-.816 1.556.957 2.099 1.582 2.806 4.109 5.587 8.236 8.405 12.337 1.074.544 2.301-.026 3.443.159 1.598-.028 3.197-.049 4.795-.082-.071-4.076-.143-8.152-.212-12.228 4.035-.117 8.266.209 12.047-1.488 3.305-1.4 5.982-4.412 6.596-8.004.684-3.461-.227-6.951-.564-10.395-.954-7.683-1.805-15.379-2.856-23.048-.797-4.091-3.612-7.791-7.486-9.399-3.504-1.613-7.431-2.014-11.246-1.928zm43.837-1.242c-5.756-.082-11.708 1.979-15.659 6.284-3.791 4.067-5.641 9.601-6.113 15.068-.516 5.535.566 11.035 1.049 16.532.6 5.577 1.115 11.167 1.869 16.726.862 4.389 3.226 8.663 7.078 11.077 4.638 2.883 10.684 3.134 15.666 1.006 3.813-1.706 6.741-5.121 8.075-9.063 1.519-4.041 3.022-8.089 4.548-12.129l3.54 22.021c3.351.074 6.701.171 10.053.231 2.622-3.337 5.226-6.688 7.852-10.021.806.528.287 1.736.731 2.509.495 2.586.99 5.173 1.484 7.76 3.407.073 6.814.176 10.222.231 3.35-2.869 6.699-5.739 10.062-8.594.625.566-.047 1.576.14 2.325l-.312 6.675c7.691.358 15.381.733 23.072 1.081 1.025-.572 2.052-1.139 3.088-1.692-.185.86-.157 2.304 1.105 1.936 2.305.153 4.61.321 6.918.45 2.883-1.407 5.779-2.787 8.677-4.165 1.223.257.964 1.957 1.695 2.766.563.81.529 2.487 1.832 2.231 2.748.183 5.496.372 8.245.548.683-.1 1.768-1.113 2.222-.575-.165 1.128 1.143.945 1.849.965 7.053.621 14.105 1.255 21.16 1.865.794-.044 1.931-1.045 2.522-.484-.095 1.258 1.589.781 2.364.978 3.95.407 7.89 1.067 11.868 1.082 3.584-.139 6.965-1.467 10.417-2.297 17.88-4.797 35.773-9.555 53.651-14.364 4.874-1.603 9.027-5.259 11.222-9.906 2.478-4.986 3.292-10.646 3.194-16.168-.172-4.84-1.594-9.82-4.874-13.484-3.532-3.977-8.657-6.193-13.822-7.065-4.096-.714-8.252-.974-12.374-1.499l-4.07-.454c-.581.701-1.576.828-2.296 1.353-1.023.425-1.93 1.183-2.962 1.503-.588-.782.286-2.066.009-3.049-.572-.671-1.91-.314-2.793-.546-9.059-.797-18.119-1.601-27.179-2.402-.624.794-1.678 1.042-2.419 1.703-1.913 1.272-3.885 2.45-5.787 3.739-.876.963-1.415-.629-1.874-1.2-2.428-2.918-6.041-4.56-9.693-5.312-4.534-.913-9.18-.867-13.772-1.268-2.897-.193-5.795-.386-8.693-.578-.751 1.021-1.891 1.648-2.77 2.542-1.042.89-2.072 1.793-3.1 2.697-.169-1.209.155-2.42.066-3.633 0-.577.495-1.918-.43-1.935l-29.583-1.394c-.466.95-1.338 1.605-1.938 2.465-1.907 2.269-3.809 4.541-5.687 6.834-.106-.812.284-1.578.372-2.377l1.475-7.288-10.421-.25c-.939 1.63-2.142 3.086-3.156 4.669-2.39 3.455-4.814 6.886-7.176 10.36-.571-.442-.334-1.265-.586-1.867-.919-4.498-1.837-8.996-2.755-13.494l-9.24-.22c-1.545 3.264-3.205 6.472-4.805 9.709-2.017 4.02-4.015 8.048-6.018 12.074-.403-2.298-.6-4.627-.909-6.94l-1.866-15.168-11.164-.267c-.583 2.661-1.511 5.23-2.224 7.856-.349 1.201-.69 2.405-1.022 3.61-.788.009-.623-1.3-1.156-1.757-2.683-5.012-7.591-8.814-13.173-9.956-1.811-.409-3.668-.59-5.522-.6h.001z" id="Shape" fill="#54667A"/><path d="M666.051 143.952l2.062.229c8.177.911 13.238 5.06 11.96 16.573-1.277 11.514-7.173 14.892-15.35 13.982l-2.062-.229 3.39-30.555zm-370.883-5.683c4.487.137 6.994 1.955 7.275 6.364.322 5.04-2.393 7.892-8.386 8.276l-6.063.39-.934-14.6 6.064-.39c.722-.046 1.403-.06 2.044-.04zm293.668-.987l5.622.373c5.694.379 8.691 2.215 8.376 6.957-.314 4.742-3.583 6.981-9.277 6.602l-5.621-.374.9-13.558zm-375.28-2.039c-.703.002-1.403.04-2.094.112-10.028 1.034-16.453 8.118-15.634 16.096.721 7.018 5.866 10.667 11.011 12.152l6.541 2.014c4.384 1.34 7.212 2.017 7.522 5.046.297 2.881-1.735 4.882-6.233 5.345-3.981.411-8.618-1.199-12.387-3.797l-5.425 8.099c5.336 4.078 12.214 5.758 18.481 5.111 11.503-1.186 17.425-8.814 16.606-16.791-.699-6.796-4.789-10.332-10.856-12.096l-6.451-1.872c-4.304-1.274-7.578-1.982-7.882-4.936-.281-2.734 1.909-4.601 5.67-4.989 3.834-.395 6.928.702 10.349 2.813l4.824-7.439c-3.984-3.247-9.116-4.89-14.042-4.868zm155.393-.643c5.704-.193 8.87 1.334 9.03 6.084.16 4.75-2.869 7.303-8.573 7.496l-5.63.191-.457-13.584 5.63-.187zm287.247-.638l-5.338 48.123 14.145 1.575c14.07 1.567 24.359-5.133 26.193-21.665 1.834-16.533-6.785-24.891-21.445-26.523l-13.555-1.51zm-245.146-.445c5.78-.1 8.923 1.704 9.011 6.753.086 5.048-2.756 7.771-8.759 7.875l-6.078.106-.252-14.627 6.078-.107zm44.454-.512c6.596.007 10.741 5.804 10.73 15.459-.011 9.728-4.169 15.888-10.766 15.881-6.596-.008-10.741-6.178-10.73-15.906.011-9.654 4.169-15.441 10.766-15.434zm-184.559-1.968l-10.491.85 2.187 27.019c.767 9.475-2.072 12.982-7.465 13.42-5.394.438-8.611-2.577-9.378-12.051l-2.188-27.017-10.934.889 2.097 25.907c1.312 16.21 8.679 22.688 21.164 21.673 12.412-1.009 18.419-8.573 17.106-24.783l-2.098-25.907zm349.941-.224l-4.249 48.232 30.864 2.729.808-9.173-20.011-1.769.979-11.097 16.39 1.45.803-9.099-16.393-1.45.854-9.691 19.271 1.704.809-9.172-30.124-2.664h-.001zm-325.715-1.295c-.637.01-1.283.038-1.935.079l-17.603 1.129 3.086 48.319 10.874-.698-1.047-16.377 6.731-.43c10.208-.655 18.539-6.252 17.815-17.59-.702-10.978-8.371-14.576-17.921-14.432zm283.367-1.63l-3.202 48.311 10.872.726 1.153-17.414 5.992.398 8.088 18.027 12.206.812-9.665-20.068c5.33-1.952 9.03-6.246 9.502-13.359.761-11.486-7.36-15.597-17.566-16.277l-17.38-1.156zm-231.899-1.177l-30.206 1.475 2.348 48.359 30.946-1.507-.446-9.2-20.063.979-.541-11.124 16.436-.802-.444-9.124-16.436.802-.471-9.718 19.323-.94-.446-9.2zm195.994-.548l-2.269 48.365 30.948 1.459.433-9.2-20.066-.943.522-11.127 16.436.774.428-9.127-16.436-.771.454-9.717 19.326.907.432-9.197-30.208-1.423zm-171.192-.3c-.624-.008-1.257 0-1.896.022l-17.408.588 1.63 48.391 10.888-.368-.587-17.441 6.002-.204 9.846 17.129 12.222-.414-11.615-19c5.108-2.476 8.364-7.117 8.124-14.242-.363-10.785-7.848-14.343-17.206-14.461zm40.125-1.044l-17.638.306.835 48.411 10.894-.188-.283-16.41 6.745-.117c10.227-.178 18.811-5.377 18.615-16.737-.203-11.732-8.718-15.446-19.168-15.265zm67.042-.406l7.817 48.618 13.487.322 5.041-21.867c.903-3.692 1.589-7.613 2.266-11.162l.297.005c.434 3.576.933 7.527 1.66 11.258l4.223 22.088 13.707.327 9.745-48.199-10.447-.251-3.872 22.565c-.785 4.958-1.574 10.065-2.365 15.246l-.296-.008c-.84-5.22-1.681-10.44-2.528-15.364l-4.649-22.765-9.262-.221-5.724 22.517c-1.084 5.026-2.17 10.128-3.255 15.227l-.296-.008c-.471-5.137-1.091-10.276-1.564-15.339l-2.794-22.723-11.191-.267v.001zm-23.093-.84c-13.046-.014-21.95 9.037-21.968 24.855-.018 15.817 8.865 25.333 21.911 25.348 13.045.014 21.952-9.482 21.969-25.299.018-15.743-8.867-24.889-21.912-24.904z" id="Shape" fill="#fff"/><path d="M445.924 181.489c-.296 18.009-.735 36.016-.887 54.027.131 4.77.952 9.699 3.542 13.791 2.367 3.674 6.428 6.074 10.707 6.744 3.872.714 7.915.605 11.722-.418 3.708-1.096 7.023-3.628 8.828-7.08 1.388-2.48 2.555-5.074 3.899-7.579 1.06-2.083 2.122-4.166 3.189-6.247l-.802 21.406c3.432.124 6.862.267 10.295.378 3.156-3.84 6.345-7.652 9.522-11.475.262-.909 1.127-.05 1.131.522 1.833 3.855 3.666 7.71 5.5 11.564 3.702.133 7.402.292 11.103.408 1.2-.938 2.385-1.895 3.594-2.821.529.906-.263 1.955.121 2.879.715.498 1.712.087 2.541.279 2.73.124 5.459.253 8.19.358 5.428-3.579 10.866-7.141 16.317-10.684.822-.714.68.862.552 1.314-.162 3.377-.318 6.755-.477 10.132 3.627.168 7.252.357 10.879.511 8.727-4.387 17.493-8.698 26.232-13.06.664-.402 1.947-.571 1.699-1.634l.373-7.736 2.808 6.854c-.278 5.687-.563 11.374-.837 17.062 3.603.172 7.204.366 10.808.526 11.674-4.253 23.389-8.396 35.075-12.617.739-.497 2.354-.234 2.255-1.512.358-6.701.64-13.405 1.011-20.105.163-.509.495-.968.725-1.456 6.307-11.899 12.614-23.798 18.92-35.696-4.634-.23-9.268-.459-13.901-.688-1.013.855-2.232 1.409-3.31 2.17-4.304 2.685-8.583 5.408-12.89 8.087-.682.687-1.039-.606-1.114-1.125-1.12-3.387-2.239-6.774-3.358-10.161l-14.267-.705c-.515.806-1.448 1.197-2.16 1.795-.355.397-1.609 1.471-1.348.257-.141-.732.664-2.27-.529-2.266-8.778-.4-17.555-.833-26.333-1.245l-18.706-.89c-.847 1.21-1.974 2.186-2.925 3.311-.479.331-.873 1.326-1.401 1.241-.208-.679.132-1.422.024-2.135l.116-2.594-13.274-.588c-.91 1.456-2.099 2.709-3.118 4.085-.603.785-1.184 1.588-1.828 2.34-.522-.48.082-1.419-.112-2.077l.173-4.629-12.642-.474c-1.363 2.395-2.983 4.629-4.44 6.965-1.956 3.024-3.935 6.035-5.878 9.068-.208.752-1.204 1.574-1.385.364-1.528-3.27-3.103-6.519-4.651-9.779-1.17-2.454-2.341-4.908-3.512-7.361l-13.639-.511c-1.632 4.397-3.456 8.72-5.162 13.089-.145.326-.365 1.176-.416.348-.028-.83.08-1.659.045-2.492.068-3.73.136-7.459.205-11.189l-12.834-.234c-1.444 5.725-3.014 11.418-4.497 17.133-.742 2.804-1.486 5.607-2.23 8.409-.162 4.371-.171 8.745-.276 13.117-.056 3.042-.112 6.083-.166 9.124-3.075 1.002-6.632.876-9.45-.8-2.231-1.466-3.44-4.037-3.957-6.585-.991-4.395-.525-8.924-.526-13.384l.499-27.392-13.373-.245.01.011h.001zm-5.985-.1c-4.671.058-9.341.116-14.011.175-4.249 12.319-8.657 24.584-12.653 36.99-.928-.39-.769-1.547-1.134-2.318-.475-1.009-.755-2.11-1.161-3.152-2.528-7.134-5.35-14.156-8.05-21.225l-3.842-9.966-14.102.174.188 15.269c-2.028-4.409-4.176-8.763-6.248-13.152-.438-.558-.35-1.521-1.101-1.763-.614-.149-1.231.072-1.853.039l-11.846.441-8.013 25.047c-6.123-7.761-12.205-15.554-18.298-23.338-.259-.738-1.164-.807-1.816-.663-4.264.161-8.527.321-12.79.48.231 6.284.462 12.568.694 18.852-4.516-4.351-8.901-8.841-13.535-13.068-5.007-4.072-11.649-5.758-18.021-5.361-6.179.293-12.429 2.487-16.917 6.853-1.52 1.458-2.843 3.122-3.927 4.928-3.697-2.504-7.12-5.46-11.14-7.456-4.722-2.243-10.178-2.842-15.283-1.742-7.486 1.451-14.353 6.165-18.122 12.84-3.509 6.019-4.656 13.181-4.117 20.068.456 6.523 2.444 13.114 6.598 18.253 3.005 3.734 7.103 6.566 11.66 8.046 9.974 3.594 19.944 7.197 29.914 10.802 2.922 1.035 5.828 2.12 8.769 3.099 5.542 1.565 11.779 1.22 16.83-1.694 2.298-1.327 4.322-3.123 5.928-5.236l-1.122-1.124c4.388 2.002 8.666 4.25 13.133 6.074 5.312 1.802 11.275 1.532 16.443-.62 2.927-1.26 5.583-3.215 7.515-5.764 1.039-.208 1.573.949 2.457 1.232 2.164 1.395 4.318 2.806 6.47 4.219 3.306-.124 6.612-.243 9.918-.372-.169-4.601-.345-9.201-.51-13.802 3.478 2.976 6.872 6.05 10.312 9.07.712.354 1.674.005 2.487.076.651-.144 1.642.174 2.091-.245l1.728-4.901c2.881 2.943 5.731 5.916 8.581 8.888 3.356-.124 6.712-.249 10.068-.374-.078-2.206-.174-4.412-.238-6.619 1.42 2.042 2.937 4.014 4.369 6.048.751.728 1.852.182 2.765.312 2.474-.031 4.948-.061 7.423-.091-.155-7.261-.027-14.53-.42-21.784-.289-3.876-.807-7.731-1.253-11.591 3.822 9.725 7.817 19.38 11.767 29.052 1.447-.019 2.893-.032 4.34-.055 2.418-6.374 4.865-12.736 7.264-19.118.137 2.911.002 5.834.234 8.74.897 4.822 1.865 9.632 2.773 14.453 3.357-.047 6.715-.075 10.072-.134-.265-18.158-.349-36.318-.758-54.473-.169-6.44-.335-12.88-.51-19.319z" id="Shape" fill="#54667A"/><path d="M292.79 196.1c8.05-.376 13.446 6.451 13.995 18.225.554 11.865-4.16 19.617-12.211 19.994-8.05.377-13.467-6.903-14.02-18.768-.55-11.774 4.186-19.074 12.236-19.451zm323.174-8.623l15.944 38.913-1.036 21.01 13.297.657 1.033-21.009 19.694-37.154-13.929-.687-6.005 13.318c-1.847 4.357-3.678 8.352-5.619 12.796l-.361-.018c-1.406-4.608-2.74-8.759-4.149-13.277l-4.579-13.845-14.29-.704zm-365.63-.816c-.45-.006-.905.002-1.363.024-15.195.744-27.572 12.79-26.616 32.35.968 19.833 13.959 29.634 29.245 28.886 7.326-.359 13.69-3.664 18.296-9.609l-7.718-7.703c-2.739 3.312-6.166 5.567-10.959 5.802-8.683.425-14.636-6.363-15.228-18.498-.579-11.863 5.492-19.333 13.723-19.736 4.07-.199 7.047 1.38 10.164 3.951l6.925-8.599c-3.918-3.637-9.722-6.785-16.469-6.869v.001zm316.462-1.539l-.533 11.231 16.192.77-2.268 47.817 13.386.638 2.268-47.82 16.192.772.533-11.232-45.77-2.176zm-273.064-.561c-.489.001-.983.014-1.48.037-15.92.745-26.258 12.302-25.358 31.593.901 19.292 12.298 30.376 28.218 29.63 15.92-.745 26.233-12.845 25.333-32.136-.869-18.6-11.572-29.16-26.713-29.124zm255.576-.208l-2.62 59.057 13.3.592 2.619-59.059-13.299-.59zm-51.135-2.018l-2.214 59.074 12.67.474.784-20.929c.26-6.978-.53-14.9-.829-21.444l.362.015 5.309 13.083 14.281 30.022 13.664.513 2.213-59.073-12.668-.474-.78 20.838c-.262 6.976.512 15.352.82 21.624l-.362-.013-5.304-13.264-14.283-29.935-13.663-.511zm-120.176-.209l-14.026.522-8.605 26.905-3.145 10.463-.362.012-3.913-10.197-10.852-26.18-14.117.528 2.199 59.074 12.216-.456-.806-21.655c-.215-5.798-1.53-14.369-2.376-20.053l.361-.013 5.215 13.505 9.902 22.585 5.338-.199 8.196-23.26 4.38-13.864.362-.013c-.422 5.731-1.188 14.379-.972 20.178l.806 21.654 12.397-.461-2.198-59.075zm67.932-.896l-.58 31.727c-.363 19.854 7.808 28.618 23.109 28.899 15.21.279 23.425-8.184 23.788-28.037l.583-31.729-12.858-.236-.605 33.089c-.212 11.604-4.088 15.522-10.697 15.401-6.609-.122-10.158-4.177-9.946-15.781l.604-33.086-13.398-.247zm-5.998-.098l-14.036.173-9.272 26.682-3.405 10.379-.362.004-3.658-10.291-10.194-26.444-14.127.174.726 59.111 12.224-.149-.266-21.669c-.07-5.802-1.171-14.401-1.876-20.105l.362-.006 4.876 13.632 9.336 22.825 5.344-.064 8.771-23.049 4.721-13.751.364-.004c-.563 5.719-1.545 14.345-1.474 20.147l.265 21.67 12.405-.154-.724-59.111z" id="Shape" fill="#fff"/><path d="M346.708 309.087c.275-.115-.038.319 0 0zm64.377-9.32c.166.041-.163.119 0 0zm74.282-48.862c.029 1.239-.778 2.274-1.063 3.444-4.733 13.148-9.02 26.45-13.518 39.678-1.667 4.958-3.334 9.914-5.004 14.871 2.589.246 5.192.252 7.787.393.847-.383.579-1.471.942-2.169.582-1.761.965-3.588 1.685-5.303.123-.587.543-1.037 1.178-.977.627-.001 1.251.149 1.877.06l8.003.105 2.133 8.524 8.535.287c1.323-1.414 2.646-2.827 3.969-4.239l-.255 4.394c2.727.074 5.455.147 8.182.22 1.223-1.347 2.616-2.524 3.887-3.824 2.494-2.429 5.032-4.815 7.58-7.186.223-.439 1.156-.991.962-.081-.118 1.725-.095 3.458-.172 5.187-.06 2.09-.121 4.181-.184 6.272 2.708.078 5.414.157 8.12.236 1.751-1.472 3.704-2.68 5.484-4.112.91-.126 1.109 1.018 1.773 1.391 1.144.967 2.378 1.838 3.755 2.44 5.057 2.31 11.236 1.942 15.981-.961 3.074-1.747 6.178-3.441 9.275-5.147l-.235 7.475c2.578.079 5.156.158 7.734.236 1.153-.706 2.439-1.156 3.636-1.778 1.689-.79 3.378-1.58 5.056-2.391.523-.622 1.272.058 1.453.638.363 1.049.939 2.017 1.395 3.031.218.512.401 1.082 1.075.889 2.562.076 5.124.152 7.687.227.939-.56 2.018-.81 2.998-1.283 9.218-3.69 18.401-7.465 27.657-11.055.829-.323 1.643-.713 2.509-.915 1.03-.458.636-1.67.722-2.542.406-13.964.831-27.927 1.244-41.89-3.174-.088-6.348-.198-9.523-.275-3.608 2.348-7.15 4.797-10.704 7.226-.865-.256-.711-1.361-1.238-1.929-.93-1.914-1.863-3.828-2.792-5.743-3.413-.096-6.825-.216-10.238-.302-2.251 1.792-4.543 3.532-6.759 5.368-.48.759-1.23-.079-1.516-.579-.778-1.034-1.797-1.873-2.828-2.648-3.337-2.431-7.477-3.612-11.581-3.639-4.561-.097-9.292 1.151-12.824 4.14-2.043 1.738-3.814 3.766-5.766 5.601-1.083 1.074-2.165 2.148-3.252 3.216.123-4.258.246-8.517.368-12.775-3.32-.091-6.641-.204-9.962-.286-1.049 1.289-2.157 2.53-3.161 3.855-.364-.818.1-1.706-.095-2.551.043-.485.338-1.493-.47-1.421-11.216-.303-22.431-.607-33.646-.911-.232.949-.988 1.649-1.307 2.562-.899 1.707-1.732 3.45-2.518 5.212-.75-.371-.395-1.432-.828-2.05l-1.693-5.856c-3.986-.087-7.97-.175-11.955-.263l.443-.097h.002zm-43.244-.606c0 11.237-.235 22.471-.287 33.707-.054 8.126-.077 16.25-.068 24.376-.207.895 1.009.501 1.516.587 6.953.067 13.905.136 20.858.204 1.261-3.668 2.601-7.309 3.935-10.951.344-.877.888-1.675 1.166-2.573.154-1.014-.032-2.042.065-3.061.029-2.064.043-4.128.063-6.192l-17.432-.173.346-35.746-9.928-.101-.232-.077h-.002zm-18.239-.797c-4.42-.016-8.979 1.477-12.13 4.669-3.138 3.121-4.31 8.039-2.948 12.251.227.988.33 2.011.733 2.952 1.432 4.023 2.665 8.113 3.915 12.195.191.619.387 1.237.585 1.853-.702-.255-1.199-1.416-2.058-.956-.269.236-.723 1.301-1.015.733l-.352-10.314c-1.506-4.914-2.689-9.923-4.249-14.821-.709-2.262-1.286-4.577-2.28-6.736.319-1.015-1.022-1.064-1.667-.866-2.605.048-5.21.089-7.814.148.138 6.507.115 13.02.468 19.52.298 4.032.869 8.035 1.297 12.053-1.677-3.496-3.599-6.871-5.191-10.409-3.775-6.959-7.602-13.89-11.386-20.844-1.13-.177-2.272.045-3.408-.017-2.265.039-4.53.077-6.794.127l.464 25.775-1.036-3.057c-2.612-3.459-5.055-7.044-7.656-10.513-2.417-3.291-4.856-6.565-7.315-9.826-.662-.509-1.145-1.219-1.588-1.861-.698-.226-1.431.118-2.151.017-3.178.091-6.358.177-9.535.279-1.825 6.498-3.657 12.995-5.485 19.492-5.038-4.881-10.187-9.649-15.08-14.678-2.58-2.381-6.124-3.326-9.542-3.608-3.983-.333-7.976.065-11.961.134-2.675.09-5.35.175-8.025.266l.083 2.563c-1.069-.748-2.015-1.66-3.111-2.371-1.1-.213-2.215.093-3.323.019-10.311.368-20.623.726-30.934 1.102l.291 8.39c3.509 1.961 6.936 4.064 10.393 6.114.57.544 1.795.646 1.748 1.65.334 9.179.648 18.359.976 27.539 7.683 3.185 15.286 6.561 22.91 9.887 2.766 1.202 5.545 2.384 8.295 3.619 1.007.294 2.057.006 3.083.047l5.312-.186-.236-6.803c2.393 1.12 4.686 2.44 7.057 3.605 1.757.89 3.487 1.848 5.273 2.671 1.002.195 2.015-.082 3.024-.023 1.673-.058 3.347-.106 5.02-.166-.094-2.504-.186-5.01-.281-7.514 3.804 2.3 7.598 4.616 11.387 6.94.908.402 1.91.056 2.86.099l6.501-.216c-.063-.317-.915-1.001-.356-1.091.66.449 1.315 1.164 2.191 1.022 2.491-.072 4.983-.143 7.474-.213l1.964-8.648 4.41-.168c2.944 2.733 5.899 5.458 8.884 8.142.816.499 1.778.048 2.661.154l6.12-.174-1.343-3.903c1.116 1.187 2.193 2.412 3.292 3.616.874.5 1.892.082 2.832.175l5.063-.095c-.157-5.464-.048-10.938-.448-16.392-.226-2.374-.571-4.733-.848-7.1 1.616 2.979 3.26 5.943 4.864 8.928.5 1.291 1.392 2.376 1.986 3.621 1.875 3.316 3.692 6.667 5.493 10.026.123.686.929.788 1.502.722 1.889-.116 3.787-.085 5.679-.14.477-.096 1.312.155 1.552-.171-.058-2.988-.109-5.976-.166-8.965.729 1.511 1.178 3.144 1.975 4.623.744.842 1.743 1.392 2.639 2.049 5.18 3.255 11.978 4.042 17.629 1.557 3.141-1.454 5.728-4.371 6.287-7.853.365-2.442.091-4.916.178-7.372v-11.872c-.069-1.454-.366-2.887-.751-4.284-.212-2.421-.139-4.855-.255-7.281-.103-4.175-.214-8.351-.334-12.525.028-.719.186-1.587-.404-2.135-.537-.534-1.188-.932-1.764-1.419-3.469-2.537-7.754-3.931-12.049-3.928l.925.17h-.006z" id="Shape" fill="#54667A"/><path d="M573.066 260.894c6.012.18 9.636 5.57 9.374 14.368-.263 8.866-4.214 14.373-10.225 14.194-6.011-.18-9.621-5.912-9.357-14.777.261-8.798 4.197-13.964 10.208-13.785zm-267.105-.139c5.199-.174 8.088 1.22 8.232 5.552.144 4.33-2.618 6.656-7.818 6.83l-5.133.174-.414-12.389 5.133-.168v.001zm41.006-1.627c1.278 4.57 2.643 9.745 3.984 14.11l1.125 4.032-9.386.269.964-4.094c1.091-4.434 2.095-9.611 3.044-14.312l.269-.005zm144.284-.684l.275.006c1.048 4.628 2.147 9.868 3.268 14.294l.929 4.083-9.391-.207 1.17-4.038c1.311-4.374 2.568-9.491 3.749-14.138zm104.599-4.655l-1.309 44.129 9.452.28.464-15.634c.155-5.211-.478-11.12-.738-16.005l.269.005 4.035 9.741 10.83 22.337 10.197.308 1.314-44.129-9.458-.28-.459 15.567c-.154 5.212.467 11.458.734 16.14l-.27-.005-4.03-9.876-10.829-22.269-10.202-.309zm-308.285-.341l-34.167 1.21.29 8.39 12.089-.426 1.259 35.728 9.996-.353-1.26-35.728 12.089-.427-.296-8.394zm18.944-.64l-15.871.532 1.465 44.118 9.929-.331-.527-15.904 5.469-.179 8.971 15.618 11.143-.37-10.584-17.328c4.658-2.256 7.627-6.487 7.411-12.983-.349-10.489-8.086-13.484-17.405-13.173h-.001zm266.815-.511c-11.887-.355-20.239 7.664-20.668 22.079-.429 14.415 7.421 23.316 19.308 23.671 11.888.355 20.25-8.061 20.679-22.477.427-14.347-7.431-22.917-19.319-23.273zm-31.737-.123l-1.282 44.129 9.928.286 1.282-44.123-9.928-.292zm-188.755-.802l-11.955.342-12.53 44.522 10.13-.292 2.406-10.565 13.443-.382 2.994 10.414 10.538-.302-15.026-43.737zm151.386-.229l-.224 8.394 12.089.326-.957 35.739 9.995.269.957-35.74 12.095.326.223-8.39-34.178-.925v.001zm-18.407-.404l-14.741 43.837 10.135.219 2.933-10.431 13.443.292 2.473 10.548 10.538.23-12.826-44.432-11.954-.263h-.001zm-81.648-.477l-9.457.174.286 15.568c.094 5.212 1.015 11.425 1.505 16.089l-.269.006-4.5-9.669-11.881-21.725-10.203.185.801 44.14 9.458-.174-.287-15.635c-.094-5.212-1.011-11.088-1.505-15.955l.269-.005 4.499 9.533 11.888 21.793 10.196-.185-.8-44.14zm38.403-.129l-.43 44.146 27.361.268.083-8.395-17.432-.173.346-35.745-9.928-.101zm-18.239-.796c-9.189.035-15.653 5.882-15.626 13.195.029 6.433 4.365 10.207 8.899 12.018l5.753 2.417c3.858 1.61 6.364 2.478 6.375 5.255 0 2.64-2.012 4.274-6.134 4.29-3.649.014-7.71-1.864-10.896-4.56l-5.653 6.859c4.476 4.181 10.565 6.325 16.308 6.303 10.542-.04 16.6-6.433 16.571-13.745-.028-6.229-3.411-9.805-8.758-11.951l-5.686-2.276c-3.79-1.543-6.7-2.479-6.71-5.188 0-2.505 2.145-4.008 5.591-4.02 3.514-.015 6.225 1.264 9.139 3.487l5.042-6.314c-3.798-3.777-9.147-5.79-14.215-5.77z" fill="#fff"/></g></g></svg>