<?xml version="1.0" encoding="UTF-8" standalone="no"?>
<svg width="888px" height="437px" viewBox="0 0 888 437" version="1.1" xmlns="http://www.w3.org/2000/svg" xmlns:xlink="http://www.w3.org/1999/xlink" xmlns:sketch="http://www.bohemiancoding.com/sketch/ns">
    <!-- Generator: Sketch 3.4.4 (17249) - http://www.bohemiancoding.com/sketch -->
    <title>Zanata</title>
    <desc>Created with Sketch.</desc>
    <defs></defs>
    <g id="Page-1" stroke="none" stroke-width="1" fill="none" fill-rule="evenodd" sketch:type="MSPage">
        <g id="Zanata" sketch:type="MSArtboardGroup">
            <rect id="Rectangle-1" fill="#1BA7D9" sketch:type="MSShapeGroup" x="-2" y="-3" width="890" height="442"></rect>
            <g id="superpowered" sketch:type="MSLayerGroup" transform="translate(195.000000, 123.000000)">
                <g id="Group" sketch:type="MSShapeGroup">
                    <path d="M257.47,38.561 C259.582,38.521 261.709,39.506 262.985,41.203 C260.032,42.052 256.635,41.347 254.361,39.248 C255.319,38.763 256.402,38.561 257.47,38.561 L257.47,38.561 Z M216.648,2.124 L199.053,2.427 C199.183,9.953 199.314,17.48 199.445,25.005 C196.728,19.776 194.216,14.437 191.375,9.274 C189.013,5.805 184.877,4.011 180.83,3.484 C176.05,2.813 171.226,3.421 166.429,3.468 C163.408,3.57 160.389,3.672 157.369,3.773 C157.449,6.185 157.53,8.596 157.611,11.008 C156.557,10.022 155.776,8.79 154.807,7.725 C154.015,6.756 153.221,5.788 152.404,4.841 C152.013,3.658 150.566,4.122 149.641,4.132 C140.342,4.574 131.045,5.036 121.746,5.486 C121.945,9.566 122.144,13.646 122.343,17.726 C118.937,14.992 115.691,12.059 112.179,9.461 C108.399,7.139 103.821,6.651 99.477,6.866 C93.332,7.195 87.193,7.647 81.05,8.022 C81.128,9.246 81.205,10.469 81.283,11.693 C79.986,10.909 78.754,10.019 77.464,9.224 C76.771,8.539 75.856,8.193 74.894,8.453 C71.899,8.691 68.904,8.939 65.909,9.179 C66.213,12.947 66.518,16.713 66.823,20.481 C65.758,20.104 64.851,19.398 63.833,18.917 C60.622,17.113 57.399,15.335 54.188,13.532 C52.995,12.934 51.904,12.157 50.699,11.579 C49.741,11.035 48.769,10.288 47.611,10.669 C44.474,10.923 41.338,11.178 38.2,11.432 C38.421,14.155 38.642,16.877 38.862,19.599 C34.771,17.682 30.808,15.482 26.617,13.784 C20.15,11.503 12.494,12.292 6.95,16.463 C3.443,19.138 1.111,23.505 1.382,27.974 C1.547,32.5 4.193,36.866 8.197,39.002 C11.254,40.714 14.702,41.489 17.955,42.725 C20.293,43.519 22.64,44.289 24.941,45.185 C27.133,46.696 26.961,50.457 24.667,51.791 C23.265,52.737 21.533,53.147 19.863,53.156 C18.624,52.816 17.446,52.276 16.189,51.998 C13.499,51.18 10.797,50.392 8.115,49.557 C7.372,49.625 7.248,50.559 6.796,51.028 C5.355,53.178 3.914,55.329 2.473,57.48 C6.007,60.26 10.367,61.702 14.708,62.638 C34.054,67.536 53.379,72.523 72.737,77.369 C77.468,78.275 82.684,77.551 86.619,74.636 C88.09,73.503 89.318,72.026 90.054,70.311 C94.483,71.714 98.864,73.279 103.324,74.58 C107.338,75.38 111.663,74.958 115.333,73.091 C116.678,72.347 117.891,71.338 118.798,70.09 C121.029,70.963 123.246,71.871 125.466,72.771 C126.787,72.959 128.113,72.659 129.437,72.643 C130.901,72.548 132.366,72.454 133.83,72.36 C133.571,68.292 133.31,64.223 133.05,60.154 C134.177,60.187 135.462,59.668 136.451,60.443 C142.635,63.835 148.82,67.226 154.984,70.656 C155.759,71.234 156.76,70.868 157.647,70.897 C164.651,70.556 171.655,70.215 178.659,69.874 C178.616,69.001 178.573,68.128 178.531,67.254 C179.5,68.023 180.483,68.776 181.429,69.573 C182.593,69.951 183.813,69.555 185.003,69.633 L189.791,69.471 C189.644,65.138 189.499,60.807 189.353,56.474 C190.543,56.501 190.849,57.89 191.687,58.485 C194.856,62.014 198.001,65.563 201.176,69.087 C204.209,68.977 207.244,68.897 210.276,68.768 C207.391,64.053 204.51,59.335 201.627,54.618 C202.693,53.802 203.183,55.575 203.726,56.2 C206.532,60.309 209.313,64.436 212.131,68.537 C213.205,69.081 214.432,68.511 215.574,68.696 C217.172,68.668 218.771,68.647 220.369,68.614 C220.298,64.538 220.226,60.462 220.157,56.386 C224.192,56.269 228.423,56.595 232.204,54.898 C235.509,53.498 238.186,50.486 238.8,46.894 C239.484,43.433 238.573,39.943 238.236,36.499 C237.282,28.816 236.431,21.12 235.38,13.451 C234.583,9.36 231.768,5.66 227.894,4.052 C224.39,2.439 220.463,2.038 216.648,2.124 L216.648,2.124 Z M260.485,0.882 C254.729,0.8 248.777,2.861 244.826,7.166 C241.035,11.233 239.185,16.767 238.713,22.234 C238.197,27.769 239.279,33.269 239.762,38.766 C240.362,44.343 240.877,49.933 241.631,55.492 C242.493,59.881 244.857,64.155 248.709,66.569 C253.347,69.452 259.393,69.703 264.375,67.575 C268.188,65.869 271.116,62.454 272.45,58.512 C273.969,54.471 275.472,50.423 276.998,46.383 C278.178,53.724 279.358,61.063 280.538,68.404 C283.889,68.478 287.239,68.575 290.591,68.635 C293.213,65.298 295.817,61.947 298.443,58.614 C299.249,59.142 298.73,60.35 299.174,61.123 C299.669,63.709 300.164,66.296 300.658,68.883 C304.065,68.956 307.472,69.059 310.88,69.114 C314.23,66.245 317.579,63.375 320.942,60.52 C321.567,61.086 320.895,62.096 321.082,62.845 C320.979,65.07 320.874,67.295 320.77,69.52 C328.461,69.878 336.151,70.253 343.842,70.601 C344.867,70.029 345.894,69.462 346.93,68.909 C346.745,69.769 346.773,71.213 348.035,70.845 C350.34,70.998 352.645,71.166 354.953,71.295 C357.836,69.888 360.732,68.508 363.63,67.13 C364.853,67.387 364.594,69.087 365.325,69.896 C365.888,70.706 365.854,72.383 367.157,72.127 C369.905,72.31 372.653,72.499 375.402,72.675 C376.085,72.575 377.17,71.562 377.624,72.1 C377.459,73.228 378.767,73.045 379.473,73.065 C386.526,73.686 393.578,74.32 400.633,74.93 C401.427,74.886 402.564,73.885 403.155,74.446 C403.06,75.704 404.744,75.227 405.519,75.424 C409.469,75.831 413.409,76.491 417.387,76.506 C420.971,76.367 424.352,75.039 427.804,74.209 C445.684,69.412 463.577,64.654 481.455,59.845 C486.329,58.242 490.482,54.586 492.677,49.939 C495.155,44.953 495.969,39.293 495.871,33.771 C495.699,28.931 494.277,23.951 490.997,20.287 C487.465,16.31 482.34,14.094 477.175,13.222 C473.079,12.508 468.923,12.248 464.801,11.723 C463.444,11.572 462.088,11.421 460.731,11.269 C460.15,11.97 459.155,12.097 458.435,12.622 C457.412,13.047 456.505,13.805 455.473,14.125 C454.885,13.343 455.759,12.059 455.482,11.076 C454.91,10.405 453.572,10.762 452.689,10.53 C443.63,9.733 434.57,8.929 425.51,8.128 C424.886,8.922 423.832,9.17 423.091,9.831 C421.178,11.103 419.206,12.281 417.304,13.57 C416.428,14.533 415.889,12.941 415.43,12.37 C413.002,9.452 409.389,7.81 405.737,7.058 C401.203,6.145 396.557,6.191 391.965,5.79 C389.068,5.597 386.17,5.404 383.272,5.212 C382.521,6.233 381.381,6.86 380.502,7.754 C379.46,8.644 378.43,9.547 377.402,10.451 C377.233,9.242 377.557,8.031 377.468,6.818 C377.468,6.241 377.963,4.9 377.038,4.883 C367.177,4.418 357.316,3.954 347.455,3.489 C346.989,4.439 346.117,5.094 345.517,5.954 C343.61,8.223 341.708,10.495 339.83,12.788 C339.724,11.976 340.114,11.21 340.202,10.411 C340.693,7.982 341.185,5.552 341.677,3.123 C338.203,3.04 334.73,2.956 331.256,2.873 C330.317,4.503 329.114,5.959 328.1,7.542 C325.71,10.997 323.286,14.428 320.924,17.902 C320.353,17.46 320.59,16.637 320.338,16.035 C319.419,11.537 318.501,7.039 317.583,2.541 C314.502,2.468 311.423,2.394 308.343,2.321 C306.798,5.585 305.138,8.793 303.538,12.03 C301.521,16.05 299.523,20.078 297.52,24.104 C297.117,21.806 296.92,19.477 296.611,17.164 C295.989,12.108 295.367,7.052 294.745,1.996 C291.024,1.907 287.303,1.818 283.581,1.729 C282.998,4.39 282.07,6.959 281.357,9.585 C281.008,10.786 280.667,11.99 280.335,13.195 C279.547,13.204 279.712,11.895 279.179,11.438 C276.496,6.426 271.588,2.624 266.006,1.482 C264.195,1.073 262.338,0.892 260.484,0.882 L260.485,0.882 L260.485,0.882 Z" id="Shape" fill="#54667A"></path>
                    <path d="M471.051,20.952 L473.113,21.181 C481.29,22.092 486.351,26.241 485.073,37.754 C483.796,49.268 477.9,52.646 469.723,51.736 L467.661,51.507 L471.051,20.952 L471.051,20.952 Z M100.168,15.269 C104.655,15.406 107.162,17.224 107.443,21.633 C107.765,26.673 105.05,29.525 99.057,29.909 L92.994,30.299 L92.06,15.699 L98.124,15.309 C98.846,15.263 99.527,15.249 100.168,15.269 L100.168,15.269 Z M393.836,14.282 L399.458,14.655 C405.152,15.034 408.149,16.87 407.834,21.612 C407.52,26.354 404.251,28.593 398.557,28.214 L392.936,27.84 L393.836,14.282 L393.836,14.282 Z M18.556,12.243 C17.853,12.245 17.153,12.283 16.462,12.355 C6.434,13.389 0.009,20.473 0.828,28.451 C1.549,35.469 6.694,39.118 11.839,40.603 L18.38,42.617 C22.764,43.957 25.592,44.634 25.902,47.663 C26.199,50.544 24.167,52.545 19.669,53.008 C15.688,53.419 11.051,51.809 7.282,49.211 L1.857,57.31 C7.193,61.388 14.071,63.068 20.338,62.421 C31.841,61.235 37.763,53.607 36.944,45.63 C36.245,38.834 32.155,35.298 26.088,33.534 L19.637,31.662 C15.333,30.388 12.059,29.68 11.755,26.726 C11.474,23.992 13.664,22.125 17.425,21.737 C21.259,21.342 24.353,22.439 27.774,24.55 L32.598,17.111 C28.614,13.864 23.482,12.221 18.556,12.243 L18.556,12.243 Z M173.949,11.6 C179.653,11.407 182.819,12.934 182.979,17.684 C183.139,22.434 180.11,24.987 174.406,25.18 L168.776,25.371 L168.319,11.787 L173.949,11.6 L173.949,11.6 Z M461.196,10.962 L455.858,59.085 L470.003,60.66 C484.073,62.227 494.362,55.527 496.196,38.995 C498.03,22.462 489.411,14.104 474.751,12.472 L461.196,10.962 L461.196,10.962 Z M216.05,10.517 C221.83,10.417 224.973,12.221 225.061,17.27 C225.147,22.318 222.305,25.041 216.302,25.145 L210.224,25.251 L209.972,10.624 L216.05,10.517 L216.05,10.517 Z M260.504,10.005 C267.1,10.012 271.245,15.809 271.234,25.464 C271.223,35.192 267.065,41.352 260.468,41.345 C253.872,41.337 249.727,35.167 249.738,25.439 C249.749,15.785 253.907,9.998 260.504,10.005 L260.504,10.005 Z M75.945,8.037 L65.454,8.887 L67.641,35.906 C68.408,45.381 65.569,48.888 60.176,49.326 C54.782,49.764 51.565,46.749 50.798,37.275 L48.61,10.258 L37.676,11.147 L39.773,37.054 C41.085,53.264 48.452,59.742 60.937,58.727 C73.349,57.718 79.356,50.154 78.043,33.944 L75.945,8.037 L75.945,8.037 Z M425.886,7.813 L421.637,56.045 L452.501,58.774 L453.309,49.601 L433.298,47.832 L434.277,36.735 L450.667,38.185 L451.47,29.086 L435.077,27.636 L435.931,17.945 L455.202,19.649 L456.011,10.477 L425.887,7.813 L425.886,7.813 L425.886,7.813 Z M100.171,6.518 C99.534,6.528 98.888,6.556 98.236,6.597 L80.633,7.726 L83.719,56.045 L94.593,55.347 L93.546,38.97 L100.277,38.54 C110.485,37.885 118.816,32.288 118.092,20.95 C117.39,9.972 109.721,6.374 100.171,6.518 L100.171,6.518 Z M383.538,4.888 L380.336,53.199 L391.208,53.925 L392.361,36.511 L398.353,36.909 L406.441,54.936 L418.647,55.748 L408.982,35.68 C414.312,33.728 418.012,29.434 418.484,22.321 C419.245,10.835 411.124,6.724 400.918,6.044 L383.538,4.888 L383.538,4.888 Z M151.639,3.711 L121.433,5.186 L123.781,53.545 L154.727,52.038 L154.281,42.838 L134.218,43.817 L133.677,32.693 L150.113,31.891 L149.669,22.767 L133.233,23.569 L132.762,13.851 L152.085,12.911 L151.639,3.711 L151.639,3.711 Z M347.633,3.163 L345.364,51.528 L376.312,52.987 L376.745,43.787 L356.679,42.844 L357.201,31.717 L373.637,32.491 L374.065,23.364 L357.629,22.593 L358.083,12.876 L377.409,13.783 L377.841,4.586 L347.633,3.163 L347.633,3.163 Z M176.441,2.863 C175.817,2.855 175.184,2.863 174.545,2.885 L157.137,3.473 L158.767,51.864 L169.655,51.496 L169.068,34.055 L175.07,33.851 L184.916,50.98 L197.138,50.566 L185.523,31.566 C190.631,29.09 193.887,24.449 193.647,17.324 C193.284,6.539 185.799,2.981 176.441,2.863 L176.441,2.863 Z M216.566,1.819 L198.928,2.125 L199.763,50.536 L210.657,50.348 L210.374,33.938 L217.119,33.821 C227.346,33.643 235.93,28.444 235.734,17.084 C235.531,5.352 227.016,1.638 216.566,1.819 L216.566,1.819 Z M283.608,1.413 L291.425,50.031 L304.912,50.353 L309.953,28.486 C310.856,24.794 311.542,20.873 312.219,17.324 L312.516,17.329 C312.95,20.905 313.449,24.856 314.176,28.587 L318.399,50.675 L332.106,51.002 L341.851,2.803 L331.404,2.552 L327.532,25.117 C326.747,30.075 325.958,35.182 325.167,40.363 L324.871,40.355 C324.031,35.135 323.19,29.915 322.343,24.991 L317.694,2.226 L308.432,2.005 L302.708,24.522 C301.624,29.548 300.538,34.65 299.453,39.749 L299.157,39.741 C298.686,34.604 298.066,29.465 297.593,24.402 L294.799,1.679 L283.608,1.412 L283.608,1.413 L283.608,1.413 Z M260.515,0.573 C247.469,0.559 238.565,9.61 238.547,25.428 C238.529,41.245 247.412,50.761 260.458,50.776 C273.503,50.79 282.41,41.294 282.427,25.477 C282.445,9.734 273.56,0.588 260.515,0.573 L260.515,0.573 Z" id="Shape" fill="#FFFFFF"></path>
                    <path d="M250.924,58.489 C250.628,76.498 250.189,94.505 250.037,112.516 C250.168,117.286 250.989,122.215 253.579,126.307 C255.946,129.981 260.007,132.381 264.286,133.051 C268.158,133.765 272.201,133.656 276.008,132.633 C279.716,131.537 283.031,129.005 284.836,125.553 C286.224,123.073 287.391,120.479 288.735,117.974 C289.795,115.891 290.857,113.808 291.924,111.727 C291.657,118.863 291.389,125.998 291.122,133.133 C294.554,133.257 297.984,133.4 301.417,133.511 C304.573,129.671 307.762,125.859 310.939,122.036 C311.201,121.127 312.066,121.986 312.07,122.558 C313.903,126.413 315.736,130.268 317.57,134.122 C321.272,134.255 324.972,134.414 328.673,134.53 C329.873,133.592 331.058,132.635 332.267,131.709 C332.796,132.615 332.004,133.664 332.388,134.588 C333.103,135.086 334.1,134.675 334.929,134.867 C337.659,134.991 340.388,135.12 343.119,135.225 C348.547,131.646 353.985,128.084 359.436,124.541 C360.258,123.827 360.116,125.403 359.988,125.855 C359.826,129.232 359.67,132.61 359.511,135.987 C363.138,136.155 366.763,136.344 370.39,136.498 C379.117,132.111 387.883,127.8 396.622,123.438 C397.286,123.036 398.569,122.867 398.321,121.804 C398.445,119.226 398.569,116.647 398.694,114.068 C399.63,116.353 400.566,118.638 401.502,120.922 C401.224,126.609 400.939,132.296 400.665,137.984 C404.268,138.156 407.869,138.35 411.473,138.51 C423.147,134.257 434.862,130.114 446.548,125.893 C447.287,125.396 448.902,125.659 448.803,124.381 C449.161,117.68 449.443,110.976 449.814,104.276 C449.977,103.767 450.309,103.308 450.539,102.82 C456.846,90.921 463.153,79.022 469.459,67.124 C464.825,66.894 460.191,66.665 455.558,66.436 C454.545,67.291 453.326,67.845 452.248,68.606 C447.944,71.291 443.665,74.014 439.358,76.693 C438.676,77.38 438.319,76.087 438.244,75.568 C437.124,72.181 436.005,68.794 434.886,65.407 C430.13,65.172 425.375,64.937 420.619,64.702 C420.104,65.508 419.171,65.899 418.459,66.497 C418.104,66.894 416.85,67.968 417.111,66.754 C416.97,66.022 417.775,64.484 416.582,64.488 C407.804,64.088 399.027,63.655 390.249,63.243 C384.014,62.946 377.779,62.65 371.543,62.353 C370.696,63.563 369.569,64.539 368.618,65.664 C368.139,65.995 367.745,66.99 367.217,66.905 C367.009,66.226 367.349,65.483 367.241,64.77 C367.279,63.905 367.321,63.041 367.357,62.176 C362.932,61.98 358.508,61.784 354.083,61.588 C353.173,63.044 351.984,64.297 350.965,65.673 C350.362,66.458 349.781,67.261 349.137,68.013 C348.615,67.533 349.219,66.594 349.025,65.936 C349.085,64.393 349.138,62.85 349.198,61.307 L336.556,60.833 C335.193,63.228 333.573,65.462 332.116,67.798 C330.16,70.822 328.181,73.833 326.238,76.866 C326.03,77.618 325.034,78.44 324.853,77.23 C323.325,73.96 321.75,70.711 320.202,67.451 C319.032,64.997 317.861,62.543 316.69,60.09 C312.144,59.92 307.597,59.749 303.051,59.579 C301.419,63.976 299.595,68.299 297.889,72.668 C297.744,72.994 297.524,73.844 297.473,73.016 C297.445,72.186 297.553,71.357 297.518,70.524 C297.586,66.794 297.654,63.065 297.723,59.335 C293.445,59.257 289.167,59.179 284.889,59.101 C283.445,64.826 281.875,70.519 280.392,76.234 C279.65,79.038 278.906,81.841 278.162,84.643 C278,89.014 277.991,93.388 277.886,97.76 C277.83,100.802 277.774,103.843 277.72,106.884 C274.645,107.886 271.088,107.76 268.27,106.084 C266.039,104.618 264.83,102.047 264.313,99.499 C263.322,95.104 263.788,90.575 263.787,86.115 C263.952,76.984 264.121,67.854 264.286,58.723 C259.829,58.641 255.37,58.56 250.913,58.478 L250.923,58.489 C250.927,58.487 250.924,58.489 250.924,58.489 L250.924,58.489 Z M244.939,58.389 C240.268,58.447 235.598,58.505 230.928,58.564 C226.679,70.883 222.271,83.148 218.275,95.554 C217.347,95.164 217.506,94.007 217.141,93.236 C216.666,92.227 216.386,91.126 215.98,90.084 C213.452,82.95 210.63,75.928 207.93,68.859 C206.649,65.537 205.369,62.215 204.088,58.893 C199.388,58.951 194.687,59.009 189.986,59.067 C190.049,64.157 190.111,69.246 190.174,74.336 C188.146,69.927 185.998,65.573 183.926,61.184 C183.488,60.626 183.576,59.663 182.825,59.421 C182.211,59.272 181.594,59.493 180.972,59.46 C177.023,59.607 173.074,59.754 169.126,59.901 C166.455,68.25 163.784,76.599 161.113,84.948 C154.99,77.187 148.908,69.394 142.815,61.61 C142.556,60.872 141.651,60.803 140.999,60.947 C136.735,61.108 132.472,61.268 128.209,61.427 C128.44,67.711 128.671,73.995 128.903,80.279 C124.387,75.928 120.002,71.438 115.368,67.211 C110.361,63.139 103.719,61.453 97.347,61.85 C91.168,62.143 84.918,64.337 80.43,68.703 C78.91,70.161 77.587,71.825 76.503,73.631 C72.806,71.127 69.383,68.171 65.363,66.175 C60.641,63.932 55.185,63.333 50.08,64.433 C42.594,65.884 35.727,70.598 31.958,77.273 C28.449,83.292 27.302,90.454 27.841,97.341 C28.297,103.864 30.285,110.455 34.439,115.594 C37.444,119.328 41.542,122.16 46.099,123.64 C56.073,127.234 66.043,130.837 76.013,134.442 C78.935,135.477 81.841,136.562 84.782,137.541 C90.324,139.106 96.561,138.761 101.612,135.847 C103.91,134.52 105.934,132.724 107.54,130.611 C107.167,130.236 106.792,129.861 106.418,129.487 C110.806,131.489 115.084,133.737 119.551,135.561 C124.863,137.363 130.826,137.093 135.994,134.941 C138.921,133.681 141.577,131.726 143.509,129.177 C144.548,128.969 145.082,130.126 145.966,130.409 C148.13,131.804 150.284,133.215 152.436,134.628 C155.742,134.504 159.048,134.385 162.354,134.256 C162.185,129.655 162.009,125.055 161.844,120.454 C165.322,123.43 168.716,126.504 172.156,129.524 C172.868,129.878 173.83,129.529 174.643,129.6 C175.294,129.456 176.285,129.774 176.734,129.355 C177.31,127.722 177.886,126.089 178.462,124.454 C181.343,127.397 184.193,130.37 187.043,133.342 C190.399,133.218 193.755,133.093 197.111,132.968 C197.033,130.762 196.937,128.556 196.873,126.349 C198.293,128.391 199.81,130.363 201.242,132.397 C201.993,133.125 203.094,132.579 204.007,132.709 C206.481,132.678 208.955,132.648 211.43,132.618 C211.275,125.357 211.403,118.088 211.01,110.834 C210.721,106.958 210.203,103.103 209.757,99.243 C213.579,108.968 217.574,118.623 221.524,128.295 C222.971,128.276 224.417,128.263 225.864,128.24 C228.282,121.866 230.729,115.504 233.128,109.122 C233.265,112.033 233.13,114.956 233.362,117.862 C234.259,122.684 235.227,127.494 236.135,132.315 C239.492,132.268 242.85,132.24 246.207,132.181 C245.942,114.023 245.858,95.863 245.449,77.708 C245.28,71.268 245.114,64.828 244.939,58.389 L244.939,58.389 Z" id="Shape" fill="#54667A"></path>
                    <path d="M97.79,73.1 C105.84,72.724 111.236,79.551 111.785,91.325 C112.339,103.19 107.625,110.942 99.574,111.319 C91.524,111.696 86.107,104.416 85.554,92.551 C85.004,80.777 89.74,73.477 97.79,73.1 L97.79,73.1 Z M420.964,64.477 L436.908,103.39 L435.872,124.4 L449.169,125.057 L450.202,104.048 L469.896,66.894 L455.967,66.207 L449.962,79.525 C448.115,83.882 446.284,87.877 444.343,92.321 L443.982,92.303 C442.576,87.695 441.242,83.544 439.833,79.026 L435.254,65.181 L420.964,64.477 L420.964,64.477 Z M55.334,63.661 C54.884,63.655 54.429,63.663 53.971,63.685 C38.776,64.429 26.399,76.475 27.355,96.035 C28.323,115.868 41.314,125.669 56.6,124.921 C63.926,124.562 70.29,121.257 74.896,115.312 L67.178,107.609 C64.439,110.921 61.012,113.176 56.219,113.411 C47.536,113.836 41.583,107.048 40.991,94.913 C40.412,83.05 46.483,75.58 54.714,75.177 C58.784,74.978 61.761,76.557 64.878,79.128 L71.803,70.529 C67.885,66.892 62.081,63.744 55.334,63.66 L55.334,63.661 L55.334,63.661 Z M371.796,62.122 L371.263,73.353 L387.455,74.123 L385.187,121.94 L398.573,122.578 L400.841,74.758 L417.033,75.53 L417.566,64.298 L371.796,62.122 L371.796,62.122 Z M98.732,61.561 C98.243,61.562 97.749,61.575 97.252,61.598 C81.332,62.343 70.994,73.9 71.894,93.191 C72.795,112.483 84.192,123.567 100.112,122.821 C116.032,122.076 126.345,109.976 125.445,90.685 C124.576,72.085 113.873,61.525 98.732,61.561 L98.732,61.561 Z M354.308,61.353 L351.688,120.41 L364.988,121.002 L367.607,61.943 L354.308,61.353 L354.308,61.353 Z M303.173,59.335 L300.959,118.409 L313.629,118.883 L314.413,97.954 C314.673,90.976 313.883,83.054 313.584,76.51 L313.946,76.525 L319.255,89.608 L333.536,119.63 L347.2,120.143 L349.413,61.07 L336.745,60.596 L335.965,81.434 C335.703,88.41 336.477,96.786 336.785,103.058 L336.423,103.045 L331.119,89.781 L316.836,59.846 L303.173,59.335 L303.173,59.335 L303.173,59.335 Z M182.997,59.126 L168.971,59.648 L160.366,86.553 L157.221,97.016 L156.859,97.028 L152.946,86.831 L142.094,60.651 L127.977,61.179 L130.176,120.253 L142.392,119.797 L141.586,98.142 C141.371,92.344 140.056,83.773 139.21,78.089 L139.571,78.076 L144.786,91.581 L154.688,114.166 L160.026,113.967 L168.222,90.707 L172.602,76.843 L172.964,76.83 C172.542,82.561 171.776,91.209 171.992,97.008 L172.798,118.662 L185.195,118.201 L182.997,59.126 L182.997,59.126 Z M250.929,58.23 L250.349,89.957 C249.986,109.811 258.157,118.575 273.458,118.856 C288.668,119.135 296.883,110.672 297.246,90.819 L297.829,59.09 L284.971,58.854 L284.366,91.943 C284.154,103.547 280.278,107.465 273.669,107.344 C267.06,107.222 263.511,103.167 263.723,91.563 L264.327,58.477 L250.929,58.23 L250.929,58.23 Z M244.931,58.132 L230.895,58.305 L221.623,84.987 L218.218,95.366 L217.856,95.37 L214.198,85.079 L204.004,58.635 L189.877,58.809 L190.603,117.92 L202.827,117.771 L202.561,96.102 C202.491,90.3 201.39,81.701 200.685,75.997 L201.047,75.991 L205.923,89.623 L215.259,112.448 L220.603,112.384 L229.374,89.335 L234.095,75.584 L234.459,75.58 C233.896,81.299 232.914,89.925 232.985,95.727 L233.25,117.397 L245.655,117.243 L244.931,58.132 L244.931,58.132 Z" id="Shape" fill="#FFFFFF"></path>
                    <path d="M151.708,186.087 C151.983,185.972 151.67,186.406 151.708,186.087 L151.708,186.087 Z M216.085,176.767 C216.251,176.808 215.922,176.886 216.085,176.767 L216.085,176.767 Z M290.367,127.905 C290.396,129.144 289.589,130.179 289.304,131.349 C284.571,144.497 280.284,157.799 275.786,171.027 C274.119,175.985 272.452,180.941 270.782,185.898 C273.371,186.144 275.974,186.15 278.569,186.291 C279.416,185.908 279.148,184.82 279.511,184.122 C280.093,182.361 280.476,180.534 281.196,178.819 C281.319,178.232 281.739,177.782 282.374,177.842 C283.001,177.841 283.625,177.991 284.251,177.902 C286.919,177.937 289.586,177.972 292.254,178.007 C292.965,180.848 293.676,183.69 294.387,186.531 C297.232,186.627 300.076,186.722 302.922,186.818 C304.245,185.404 305.568,183.991 306.891,182.579 C306.805,184.044 306.722,185.509 306.636,186.973 C309.363,187.047 312.091,187.12 314.818,187.193 C316.041,185.846 317.434,184.669 318.705,183.369 C321.199,180.94 323.737,178.554 326.285,176.183 C326.508,175.744 327.441,175.192 327.247,176.102 C327.129,177.827 327.152,179.56 327.075,181.289 C327.015,183.379 326.954,185.47 326.891,187.561 C329.599,187.639 332.305,187.718 335.011,187.797 C336.762,186.325 338.715,185.117 340.495,183.685 C341.405,183.559 341.604,184.703 342.268,185.076 C343.412,186.043 344.646,186.914 346.023,187.516 C351.08,189.826 357.259,189.458 362.004,186.555 C365.078,184.808 368.182,183.114 371.279,181.408 C371.201,183.9 371.121,186.392 371.044,188.883 C373.622,188.962 376.2,189.041 378.778,189.119 C379.931,188.413 381.217,187.963 382.414,187.341 C384.103,186.551 385.792,185.761 387.47,184.95 C387.993,184.328 388.742,185.008 388.923,185.588 C389.286,186.637 389.862,187.605 390.318,188.619 C390.536,189.131 390.719,189.701 391.393,189.508 C393.955,189.584 396.517,189.66 399.08,189.735 C400.019,189.175 401.098,188.925 402.078,188.452 C411.296,184.762 420.479,180.987 429.735,177.397 C430.564,177.074 431.378,176.684 432.244,176.482 C433.274,176.024 432.88,174.812 432.966,173.94 C433.372,159.976 433.797,146.013 434.21,132.05 C431.036,131.962 427.862,131.852 424.687,131.775 C421.079,134.123 417.537,136.572 413.983,139.001 C413.118,138.745 413.272,137.64 412.745,137.072 C411.815,135.158 410.882,133.244 409.953,131.329 C406.54,131.233 403.128,131.113 399.715,131.027 C397.464,132.819 395.172,134.559 392.956,136.395 C392.476,137.154 391.726,136.316 391.44,135.816 C390.662,134.782 389.643,133.943 388.612,133.168 C385.275,130.737 381.135,129.556 377.031,129.529 C372.47,129.432 367.739,130.68 364.207,133.669 C362.164,135.407 360.393,137.435 358.441,139.27 C357.358,140.344 356.276,141.418 355.189,142.486 C355.312,138.228 355.435,133.969 355.557,129.711 C352.237,129.62 348.916,129.507 345.595,129.425 C344.546,130.714 343.438,131.955 342.434,133.28 C342.07,132.462 342.534,131.574 342.339,130.729 C342.382,130.244 342.677,129.236 341.869,129.308 C330.653,129.005 319.438,128.701 308.223,128.397 C307.991,129.346 307.235,130.046 306.916,130.959 C306.017,132.666 305.184,134.409 304.398,136.171 C303.648,135.8 304.003,134.739 303.57,134.121 C303.007,132.169 302.44,130.218 301.877,128.265 C297.891,128.178 293.907,128.09 289.922,128.002 C290.071,127.971 290.217,127.936 290.365,127.905 L290.367,127.905 L290.367,127.905 Z M247.123,127.299 C247.123,138.536 246.888,149.77 246.836,161.006 C246.782,169.132 246.759,177.256 246.768,185.382 C246.561,186.277 247.777,185.883 248.284,185.969 C255.237,186.036 262.189,186.105 269.142,186.173 C270.403,182.505 271.743,178.864 273.077,175.222 C273.421,174.345 273.965,173.547 274.243,172.649 C274.397,171.635 274.211,170.607 274.308,169.588 C274.337,167.524 274.351,165.46 274.371,163.396 C268.561,163.338 262.749,163.281 256.939,163.223 C257.053,151.307 257.171,139.392 257.285,127.477 C253.976,127.444 250.667,127.409 247.357,127.376 C247.288,127.324 247.194,127.35 247.125,127.299 L247.123,127.299 L247.123,127.299 Z M228.884,126.502 C224.464,126.486 219.905,127.979 216.754,131.171 C213.616,134.292 212.444,139.21 213.806,143.422 C214.033,144.41 214.136,145.433 214.539,146.374 C215.971,150.397 217.204,154.487 218.454,158.569 C218.645,159.188 218.841,159.806 219.039,160.422 C218.337,160.167 217.84,159.006 216.981,159.466 C216.712,159.702 216.258,160.767 215.966,160.199 C215.846,156.761 215.734,153.323 215.614,149.885 C214.108,144.971 212.925,139.962 211.365,135.064 C210.656,132.802 210.079,130.487 209.085,128.328 C209.404,127.313 208.063,127.264 207.418,127.462 C204.813,127.51 202.208,127.551 199.604,127.61 C199.742,134.117 199.719,140.63 200.072,147.13 C200.37,151.162 200.941,155.165 201.369,159.183 C199.692,155.687 197.77,152.312 196.178,148.774 C192.403,141.815 188.576,134.884 184.792,127.93 C183.662,127.753 182.52,127.975 181.384,127.913 C179.119,127.952 176.854,127.99 174.59,128.04 C174.744,136.632 174.9,145.223 175.054,153.815 C174.709,152.796 174.364,151.777 174.018,150.758 C171.406,147.299 168.963,143.714 166.362,140.245 C163.945,136.954 161.506,133.68 159.047,130.419 C158.385,129.91 157.902,129.2 157.459,128.558 C156.761,128.332 156.028,128.676 155.308,128.575 C152.13,128.666 148.95,128.752 145.773,128.854 C143.948,135.352 142.116,141.849 140.288,148.346 C135.25,143.465 130.101,138.697 125.208,133.668 C122.628,131.287 119.084,130.342 115.666,130.06 C111.683,129.727 107.69,130.125 103.705,130.194 C101.03,130.284 98.355,130.369 95.68,130.46 C95.709,131.314 95.734,132.169 95.763,133.023 C94.694,132.275 93.748,131.363 92.652,130.652 C91.552,130.439 90.437,130.745 89.329,130.671 C79.018,131.039 68.706,131.397 58.395,131.773 C58.492,134.569 58.589,137.366 58.686,140.163 C62.195,142.124 65.622,144.227 69.079,146.277 C69.649,146.821 70.874,146.923 70.827,147.927 C71.161,157.106 71.475,166.286 71.803,175.466 C79.486,178.651 87.089,182.027 94.713,185.353 C97.479,186.555 100.258,187.737 103.008,188.972 C104.015,189.266 105.065,188.978 106.091,189.019 C107.862,188.957 109.632,188.895 111.403,188.833 C111.326,186.565 111.245,184.297 111.167,182.03 C113.56,183.15 115.853,184.47 118.224,185.635 C119.981,186.525 121.711,187.483 123.497,188.306 C124.499,188.501 125.512,188.224 126.521,188.283 C128.194,188.225 129.868,188.177 131.541,188.117 C131.447,185.613 131.355,183.107 131.26,180.603 C135.064,182.903 138.858,185.219 142.647,187.543 C143.555,187.945 144.557,187.599 145.507,187.642 C147.674,187.57 149.841,187.498 152.008,187.426 C151.945,187.109 151.093,186.425 151.652,186.335 C152.312,186.784 152.967,187.499 153.843,187.357 C156.334,187.285 158.826,187.214 161.317,187.144 C161.972,184.261 162.626,181.379 163.281,178.496 C164.751,178.44 166.222,178.384 167.691,178.328 C170.635,181.061 173.59,183.786 176.575,186.47 C177.391,186.969 178.353,186.518 179.236,186.624 C181.276,186.561 183.316,186.514 185.356,186.45 L184.013,182.547 C185.129,183.734 186.206,184.959 187.305,186.163 C188.179,186.663 189.197,186.245 190.137,186.338 C191.824,186.306 193.513,186.274 195.2,186.243 C195.043,180.779 195.152,175.305 194.752,169.851 C194.526,167.477 194.181,165.118 193.904,162.751 C195.52,165.73 197.164,168.694 198.768,171.679 C199.268,172.97 200.16,174.055 200.754,175.3 C202.629,178.616 204.446,181.967 206.247,185.326 C206.37,186.012 207.176,186.114 207.749,186.048 C209.638,185.932 211.536,185.963 213.428,185.908 C213.905,185.812 214.74,186.063 214.98,185.737 C214.922,182.749 214.871,179.761 214.814,176.772 C215.543,178.283 215.992,179.916 216.789,181.395 C217.533,182.237 218.532,182.787 219.428,183.444 C224.608,186.699 231.406,187.486 237.057,185.001 C240.198,183.547 242.785,180.63 243.344,177.148 C243.709,174.706 243.435,172.232 243.522,169.776 L243.522,157.904 C243.453,156.45 243.156,155.017 242.771,153.62 C242.559,151.199 242.632,148.765 242.516,146.339 C242.413,142.164 242.302,137.988 242.182,133.814 C242.21,133.095 242.368,132.227 241.778,131.679 C241.241,131.145 240.59,130.747 240.014,130.26 C236.545,127.723 232.26,126.329 227.965,126.332 C228.268,126.388 228.614,126.445 228.89,126.502 L228.884,126.502 L228.884,126.502 Z" id="Shape" fill="#54667A"></path>
                    <path d="M378.066,137.894 C384.078,138.074 387.702,143.464 387.44,152.262 C387.177,161.128 383.226,166.635 377.215,166.456 C371.204,166.276 367.594,160.544 367.858,151.679 C368.119,142.881 372.055,137.715 378.066,137.894 L378.066,137.894 Z M110.961,137.755 C116.16,137.581 119.049,138.975 119.193,143.307 C119.337,147.637 116.575,149.963 111.375,150.137 L106.242,150.311 L105.828,137.922 L110.961,137.754 L110.961,137.755 L110.961,137.755 Z M151.967,136.128 C153.245,140.698 154.61,145.873 155.951,150.238 L157.076,154.27 L147.69,154.539 L148.654,150.445 C149.745,146.011 150.749,140.834 151.698,136.133 L151.967,136.128 L151.967,136.128 L151.967,136.128 Z M296.251,135.444 L296.526,135.45 C297.574,140.078 298.673,145.318 299.794,149.744 L300.723,153.827 L291.332,153.62 L292.502,149.582 C293.813,145.208 295.07,140.091 296.251,135.444 L296.251,135.444 L296.251,135.444 Z M400.85,130.789 L399.541,174.918 L408.993,175.198 L409.457,159.564 C409.612,154.353 408.979,148.444 408.719,143.559 L408.988,143.564 L413.023,153.305 L423.853,175.642 L434.05,175.95 L435.364,131.821 L425.906,131.541 L425.447,147.108 C425.293,152.32 425.914,158.566 426.181,163.248 L425.911,163.243 L421.881,153.367 L411.052,131.098 L400.85,130.789 L400.85,130.789 Z M92.565,130.448 L58.398,131.658 L58.688,140.048 L70.777,139.622 L72.036,175.35 L82.032,174.997 L80.772,139.269 L92.861,138.842 L92.565,130.448 L92.565,130.448 Z M111.509,129.808 L95.638,130.34 L97.103,174.458 L107.032,174.127 L106.505,158.223 L111.974,158.044 L120.945,173.662 L132.088,173.292 L121.504,155.964 C126.162,153.708 129.131,149.477 128.915,142.981 C128.566,132.492 120.829,129.497 111.51,129.808 L111.509,129.808 L111.509,129.808 Z M378.324,129.297 C366.437,128.942 358.085,136.961 357.656,151.376 C357.227,165.791 365.077,174.692 376.964,175.047 C388.852,175.402 397.214,166.986 397.643,152.57 C398.07,138.223 390.212,129.653 378.324,129.297 L378.324,129.297 Z M346.587,129.174 L345.305,173.303 L355.233,173.589 L356.515,129.466 L346.587,129.174 L346.587,129.174 Z M157.832,128.372 L145.877,128.714 L133.347,173.236 L143.477,172.944 L145.883,162.379 L159.326,161.997 L162.32,172.411 L172.858,172.109 L157.832,128.372 L157.832,128.372 Z M309.218,128.143 L308.994,136.537 L321.083,136.863 L320.126,172.602 L330.121,172.871 L331.078,137.131 L343.173,137.457 L343.396,129.067 L309.218,128.142 L309.218,128.143 L309.218,128.143 Z M290.811,127.739 L276.07,171.576 L286.205,171.795 L289.138,161.364 L302.581,161.656 L305.054,172.204 L315.592,172.434 L302.766,128.002 L290.812,127.739 L290.811,127.739 L290.811,127.739 Z M209.163,127.262 L199.706,127.436 L199.992,143.004 C200.086,148.216 201.007,154.429 201.497,159.093 L201.228,159.099 L196.728,149.43 L184.847,127.705 L174.644,127.89 L175.445,172.03 L184.903,171.856 L184.616,156.221 C184.522,151.009 183.605,145.133 183.111,140.266 L183.38,140.261 L187.879,149.794 L199.767,171.587 L209.963,171.402 L209.163,127.262 L209.163,127.262 Z M247.566,127.133 L247.136,171.279 L274.497,171.547 L274.58,163.152 L257.148,162.979 L257.494,127.234 L247.566,127.133 L247.566,127.133 L247.566,127.133 Z M229.327,126.337 C220.138,126.372 213.674,132.219 213.701,139.532 C213.73,145.965 218.066,149.739 222.6,151.55 L228.353,153.967 C232.211,155.577 234.717,156.445 234.728,159.222 C234.728,161.862 232.716,163.496 228.594,163.512 C224.945,163.526 220.884,161.648 217.698,158.952 L212.045,165.811 C216.521,169.992 222.61,172.136 228.353,172.114 C238.895,172.074 244.953,165.681 244.924,158.369 C244.896,152.14 241.513,148.564 236.166,146.418 L230.48,144.142 C226.69,142.599 223.78,141.663 223.77,138.954 C223.77,136.449 225.915,134.946 229.361,134.934 C232.875,134.919 235.586,136.198 238.5,138.421 L243.542,132.107 C239.744,128.33 234.395,126.317 229.327,126.337 L229.327,126.337 Z" id="Shape" fill="#FFFFFF"></path>
                </g>
            </g>
        </g>
    </g>
</svg>