<?xml version="1.0" encoding="UTF-8" standalone="no"?>
<svg width="888px" height="437px" viewBox="0 0 888 437" version="1.1" xmlns="http://www.w3.org/2000/svg" xmlns:xlink="http://www.w3.org/1999/xlink" xmlns:sketch="http://www.bohemiancoding.com/sketch/ns">
    <!-- Generator: Sketch 3.4.4 (17249) - http://www.bohemiancoding.com/sketch -->
    <title>Zanata</title>
    <desc>Created with Sketch.</desc>
    <defs>
        <path id="path-1" d="M43.5249254,0.127002583 C19.516017,0.127002583 0.00096016615,20.1202775 0.000951630268,44.6969771 C0.00096016615,69.2737639 19.516017,89.2670388 43.5249254,89.2670388 C67.5338337,89.2670388 87.0488906,69.2737639 87.0488991,44.6969771 C87.0488906,20.1202775 67.5338337,0.127002583 43.5249254,0.127002583 L43.5249254,0.127002583 Z"></path>
    </defs>
    <g id="Page-1" stroke="none" stroke-width="1" fill="none" fill-rule="evenodd" sketch:type="MSPage">
        <g id="Zanata" sketch:type="MSArtboardGroup">
            <rect id="Rectangle-1" fill="#1BA7D9" sketch:type="MSShapeGroup" x="-2" y="-3" width="890" height="442"></rect>
            <g sketch:type="MSLayerGroup" transform="translate(377.000000, 194.000000)" fill="#FFFFFF">
                <path d="M207.50488,30.5314177 L212.989737,17.9210564 L218.589261,30.5314177 L207.50488,30.5314177 L207.50488,30.5314177 Z M214.630895,0.0914339614 L211.747522,0.0669763174 L211.747522,0.0743136106 L190.519976,47.0696765 L200.24031,47.0696765 L203.9359,38.7956556 L222.163019,38.7956556 L226.018663,47.0696765 L235.555054,47.0696765 L214.630895,0.0914339614 L214.630895,0.0914339614 Z" id="Fill-14" sketch:type="MSShapeGroup"></path>
                <path d="M196.52322,0.653959773 L165.410507,0.653959773 L165.410507,9.51740996 L176.284668,9.51740996 L176.284668,47.064785 L185.627559,47.064785 L185.627559,9.51740996 L196.52322,9.51740996 L196.52322,0.653959773" id="Fill-17" sketch:type="MSShapeGroup"></path>
                <path d="M143.693241,30.5314177 L149.180488,17.9210564 L154.780012,30.5314177 L143.693241,30.5314177 L143.693241,30.5314177 Z M147.935884,0.0669763174 L147.935884,0.0743136106 L126.708337,47.0696765 L136.43106,47.0696765 L140.12665,38.7956556 L158.353769,38.7956556 L162.207025,47.0696765 L171.745804,47.0696765 L150.821645,0.0914339614 L147.935884,0.0669763174 L147.935884,0.0669763174 Z" id="Fill-15" sketch:type="MSShapeGroup"></path>
                <path d="M113.125192,27.9046667 C104.546741,18.6645688 96.1235663,9.27283352 87.5164484,0.0596390242 L83.9928573,0.0596390242 C83.8686358,15.3676784 83.8996912,31.4705912 83.959413,47.0696765 L93.178083,47.0696765 L93.1876385,18.7966401 L118.540773,47.0721223 L122.405973,47.0721223 L122.405973,0.690646239 L113.10847,0.690646239 C113.15147,9.45626585 113.125192,18.8944707 113.125192,27.9046667" id="Fill-12" sketch:type="MSShapeGroup"></path>
                <path d="M51.8887615,30.5314177 L57.3736193,17.9210564 L62.9731431,30.5314177 L51.8887615,30.5314177 L51.8887615,30.5314177 Z M56.1290152,0.0669763174 L56.1290152,0.0743136106 L34.9038577,47.0696765 L44.6241915,47.0696765 L48.3197817,38.7956556 L66.5469006,38.7956556 L70.4025454,47.0696765 L79.9389358,47.0696765 L59.0147766,0.0914339614 L56.1290152,0.0669763174 L56.1290152,0.0669763174 Z" id="Fill-13" sketch:type="MSShapeGroup"></path>
                <path d="M32.445705,0.653959773 C22.6823714,0.653959773 12.5200957,0.727332705 2.57281875,0.678417417 C2.57042988,3.67937034 2.55370775,6.93223699 2.55131887,9.61279477 C6.89429426,9.61279477 13.7527554,9.59078289 19.3427237,9.59078289 L0.800273242,43.8803998 L0.733384732,44.1420966 C0.728606982,45.1204023 0.747717984,47.064785 0.747717984,47.064785 C10.8048832,47.0427731 25.4009116,47.0892427 31.1891566,47.064785 C31.1748233,44.1249762 31.1748233,41.0139639 31.1819899,38.2551417 C25.5800772,38.2062264 19.8252765,38.1670941 14.1469198,38.1670941 L32.3812054,3.55219059 L32.445705,3.29538532 L32.445705,0.651514009 L32.445705,0.653959773" id="Fill-16" sketch:type="MSShapeGroup"></path>
            </g>
            <g id="Logo" sketch:type="MSLayerGroup" transform="translate(276.000000, 170.000000)">
                <path d="M45.4148168,4.06236612 C21.4101423,4.06236612 1.89516221,24.0564255 1.89516221,48.6282438 C1.89516221,73.2001492 21.4101423,93.1942087 45.4148168,93.1942087 C69.4194998,93.1942087 88.9344714,73.2001492 88.9344799,48.6282438 C88.9344714,24.0564255 69.4194998,4.06236612 45.4148168,4.06236612 Z M45.4148168,11.7011271 C65.4554364,11.7011271 81.6482087,28.2812838 81.6482172,48.8220558 C81.6482087,69.3629149 65.4554364,85.9430717 45.4148168,85.9430717 C25.3741971,85.9430717 9.18142489,69.3629149 9.18142489,48.8220558 C9.18142489,28.2812838 25.3741971,11.7011271 45.4148168,11.7011271 Z" id="Circle" fill="#FFFFFF" sketch:type="MSShapeGroup"></path>
                <g id="Shadow" transform="translate(1.895162, 3.675474)">
                    <mask id="mask-2" sketch:name="Clip" fill="white">
                        <use xlink:href="#path-1"></use>
                    </mask>
                    <g id="Clip"></g>
                    <path d="M70.1891672,39.6573194 C70.1891672,39.6573194 61.5910846,50.4251685 53.2439058,65.3656234 L85.5508007,99.9729992 C85.5508007,99.9729992 55.2493855,85.2311112 23.8130993,67.1080953 C29.4407549,57.1439276 36.9262621,47.0607768 36.9262621,47.0607768 C36.9262621,47.0607768 21.6452586,40.7085556 0.864262159,29.4796793 C9.88659512,15.5891531 20.9884908,4.08909965 20.9884908,4.08909965 C20.9884908,4.08909965 43.8805814,21.92089 70.1891672,39.6573194 Z" id="Z-shadow" opacity="0.1" fill="#000000" sketch:type="MSShapeGroup" mask="url(#mask-2)"></path>
                </g>
                <path d="M69.324905,35.5682197 C69.324905,35.5682197 60.7268225,46.3360688 52.3796436,61.2765237 L84.6865385,95.8838996 C84.6865385,95.8838996 54.3851234,81.1420115 22.9488372,63.0189957 C28.5764927,53.054828 36.0619999,42.9716771 36.0619999,42.9716771 C36.0619999,42.9716771 20.7809964,36.6194559 -2.13162821e-14,25.3905796 C9.02233296,11.5000534 20.1242286,0 20.1242286,0 C20.1242286,1.98195224e-13 43.0163193,17.8317903 69.324905,35.5682197 Z" id="Z" fill="#FFFFFF" sketch:type="MSShapeGroup"></path>
            </g>
        </g>
    </g>
</svg>