<svg width="888" height="437" viewBox="0 0 888 437" xmlns="http://www.w3.org/2000/svg" xmlns:xlink="http://www.w3.org/1999/xlink" xmlns:sketch="http://www.bohemiancoding.com/sketch/ns"><title>Zanata</title><desc>Created with Sketch.</desc><defs><path id="a" d="M43.525.127c-24.009 0-43.524 19.993-43.524 44.57s19.515 44.57 43.524 44.57 43.524-19.993 43.524-44.57-19.515-44.57-43.524-44.57z"/></defs><g sketch:type="MSArtboardGroup" fill="none"><path fill="#1BA7D9" sketch:type="MSShapeGroup" d="M-2-3h890v442h-890z"/><g sketch:type="MSLayerGroup" fill="#fff"><path d="M584.505 224.531l5.485-12.61 5.6 12.61h-11.084zm7.126-30.44l-2.883-.024v.007l-21.228 46.995h9.72l3.696-8.274h18.227l3.856 8.274h9.536l-20.924-46.978z" sketch:type="MSShapeGroup"/><path d="M573.523 194.654h-31.113v8.863h10.874v37.547h9.343v-37.547h10.896v-8.863" sketch:type="MSShapeGroup"/><path d="M520.693 224.531l5.487-12.61 5.6 12.61h-11.087zm4.243-30.464v.007l-21.228 46.995h9.723l3.696-8.274h18.227l3.853 8.274h9.539l-20.924-46.978-2.886-.024z" sketch:type="MSShapeGroup"/><path d="M490.125 221.905c-8.578-9.24-17.002-18.632-25.609-27.845h-3.524c-.124 15.308-.093 31.411-.033 47.01h9.219l.01-28.273 25.353 28.275h3.865v-46.381h-9.298c.043 8.766.017 18.204.017 27.214" sketch:type="MSShapeGroup"/><path d="M428.889 224.531l5.485-12.61 5.6 12.61h-11.084zm4.24-30.464v.007l-21.225 46.995h9.72l3.696-8.274h18.227l3.856 8.274h9.536l-20.924-46.978-2.886-.024z" sketch:type="MSShapeGroup"/><path d="M409.446 194.654c-9.763 0-19.926.073-29.873.024-.002 3.001-.019 6.254-.021 8.934 4.343 0 11.201-.022 16.791-.022l-18.542 34.29-.067.262c-.005.978.014 2.923.014 2.923 10.057-.022 24.653.024 30.441 0-.014-2.94-.014-6.051-.007-8.81-5.602-.049-11.357-.088-17.035-.088l18.234-34.615.064-.257v-2.644.002" sketch:type="MSShapeGroup"/></g><g sketch:type="MSLayerGroup"><path d="M321.415 174.062c-24.005 0-43.52 19.994-43.52 44.566 0 24.572 19.515 44.566 43.52 44.566 24.005 0 43.52-19.994 43.52-44.566 0-24.572-19.515-44.566-43.52-44.566zm0 7.639c20.041 0 36.233 16.58 36.233 37.121 0 20.541-16.193 37.121-36.233 37.121-20.041 0-36.233-16.58-36.233-37.121 0-20.541 16.193-37.121 36.233-37.121z" fill="#fff" sketch:type="MSShapeGroup"/><g transform="translate(276 170) translate(1.895 3.675)"><mask id="b" sketch:name="Clip"><use xlink:href="#a"/></mask><path d="M70.189 39.657s-8.598 10.768-16.945 25.708l32.307 34.607s-30.301-14.742-61.738-32.865c5.628-9.964 13.113-20.047 13.113-20.047s-15.281-6.352-36.062-17.581c9.022-13.891 20.124-25.391 20.124-25.391s22.892 17.832 49.201 35.568z" opacity=".1" fill="#000" sketch:type="MSShapeGroup" mask="url(#b)"/></g><path d="M345.325 205.568s-8.598 10.768-16.945 25.708l32.307 34.607s-30.301-14.742-61.738-32.865c5.628-9.964 13.113-20.047 13.113-20.047s-15.281-6.352-36.062-17.581c9.022-13.891 20.124-25.391 20.124-25.391s22.892 17.832 49.201 35.568z" fill="#fff" sketch:type="MSShapeGroup"/></g></g></svg>