<svg xmlns="http://www.w3.org/2000/svg" width="180" height="180" fill="none"><path fill="#C7F031" d="M180 0H0v180h180z"/><path fill="#200C04" fill-rule="evenodd" d="M60.929 72.5v-.166c0-1.58-.038-3.11-.077-4.635-.037-1.51-.075-3.014-.075-4.553V30H30v63.75h106.431c2.242 0 4.208-.453 5.899-1.36a13.237 13.237 0 0 0 4.248-3.825 17.83 17.83 0 0 0 2.537-5.44 21.35 21.35 0 0 0 .885-6.12c0-2.833-.511-5.525-1.534-8.075-1.023-2.55-2.576-4.647-4.661-6.29-2.084-1.643-4.719-2.465-7.905-2.465h-.059v-.085h.059c2.753 0 5.034-.737 6.843-2.21 1.849-1.473 3.226-3.372 4.13-5.695a20.408 20.408 0 0 0 1.357-7.31c0-2.493-.452-4.873-1.357-7.14-.865-2.267-2.163-4.108-3.894-5.525-1.73-1.473-3.913-2.21-6.548-2.21H90v42.5H60.929Zm52.316-9.01.059-.085h8.908c.433 0 .807.113 1.121.34.354.17.63.453.826.85.236.34.413.737.531 1.19.118.397.177.85.177 1.36 0 1.02-.275 1.927-.826 2.72-.511.793-1.298 1.19-2.36 1.19h-8.436V63.49Zm0-11.9c0-.057.02-.085.059-.085h8.613c.866 0 1.515.397 1.947 1.19.472.737.708 1.587.708 2.55 0 .68-.118 1.332-.354 1.955a3.74 3.74 0 0 1-1.062 1.445c-.472.34-1.062.51-1.77.51h-8.141V51.59Z" clip-rule="evenodd"/><path fill="#200C04" d="M30 119.349c15.536 5.003 34.746 8.139 56 8.139 25.068 0 47.293-4.363 64-11.005v23.924c-18.344 6.055-40.345 9.581-64 9.581-20.308 0-39.398-2.599-56-7.166v-23.473Z"/></svg>