<?xml version="1.0" encoding="utf-8"?>
<!DOCTYPE svg PUBLIC "-//W3C//DTD SVG 1.1//EN" "http://www.w3.org/Graphics/SVG/1.1/DTD/svg11.dtd">
<svg version="1.1" id="Layer_1" xmlns="http://www.w3.org/2000/svg" xmlns:xlink="http://www.w3.org/1999/xlink" x="0px" y="0px"
	 viewBox="0 0 1280 800" enable-background="new 0 0 1280 800" xml:space="preserve">
<g>
	<g>
		<path d="M460.9,101.5c12.6-3.6,26.4-3,38.3,2.6c1.5,0.7,1.9,2.2,0.9,3.5c-3.6,5-5.4,7.6-8.9,12.6c-0.8,1.1-2.4,1.4-3.6,0.9
			c-6-2.9-13.9-3.2-20.9-1.2c-14.4,4-24.5,18.8-19.5,33.4c4.6,13.8,20,20.6,33.8,16.7c6.1-1.7,12.3-5.6,16.1-10.6
			c0.7-1,2.5-1.4,3.5-0.7c5.1,3.1,7.7,4.7,12.7,7.9c1.1,0.7,1.3,2.3,0.6,3.4c-6.6,9.7-16.8,16.6-28.1,19.8
			c-23.8,6.7-52.1-4.1-61.2-28C414.3,134.9,435.6,108.8,460.9,101.5z"/>
		<path d="M509.4,93.6c-0.3-1.3,0.7-2.6,2.4-2.9c14.9-2.8,29.7-5.1,44.7-7.1c15.6-1.9,33.7,7.4,34.8,24.3
			c0.8,12.1-8.1,22.3-18.6,27.4c7.4,10,14.5,20.2,21.3,30.6c1,1.6,0.3,3.7-1.9,3.9c-6.9,0.5-10.3,0.9-17.2,1.6
			c-1,0.1-1.9-0.4-2.2-0.9c-7.1-10.6-14.4-21-22.1-31.2c-3.8,0.5-5.7,0.8-9.5,1.4c1.7,10.7,3.5,21.4,5.2,32.1
			c0.2,1.3-0.8,2.6-2.1,2.8c-6.1,1-9.2,1.6-15.3,2.8c-1.4,0.3-2.7-0.6-2.9-1.9C520.5,148.8,515,121.2,509.4,93.6z M559.3,121.6
			c5.8-0.7,10.2-6.1,9.6-11.4c-0.6-5.3-6.2-9.1-12.1-8.3c-8.6,1.1-12.9,1.7-21.6,3.1c1.3,7.9,1.9,11.8,3.2,19.6
			C546.8,123.3,551,122.7,559.3,121.6z"/>
		<path d="M604.4,165.5c12.5-29.7,26.7-58.4,42.6-86.5c0.5-0.8,1.5-1.4,2.6-1.3c0.6,0,0.9,0,1.5,0c1.1,0,2.1,0.7,2.5,1.5
			c14.5,28.8,27.2,58.2,38.2,88.5c0.6,1.7-0.6,3.3-2.5,3.1c-5.7-0.6-8.6-0.8-14.4-1.3c-2.3-0.2-3.3-1-4.3-3.5
			c-1.6-4.1-2.4-6.2-4.1-10.3c-12-0.7-24.1-1-36.2-0.9c-1.9,4.1-2.8,6.1-4.6,10.3c-0.6,1.5-2,3.1-4.6,3.2c-5.7,0.1-8.6,0.2-14.3,0.5
			C604.8,168.8,603.7,167.2,604.4,165.5z M659.3,138c-3.8-8.6-5.8-12.9-9.9-21.4c-0.1,0-0.1,0-0.1,0c-4.5,8.3-6.6,12.5-10.8,20.9
			C646.8,137.5,650.9,137.6,659.3,138z"/>
		<path d="M709.9,85.7c0.2-1.3,1.5-2.3,3.1-2.1c20.8,2.8,41.3,6.4,61.8,10.8c1.6,0.4,2.6,1.8,2.3,3c-1.3,5.4-1.9,8.1-3.1,13.5
			c-0.3,1.2-1.7,2.1-3.3,1.7c-13.3-3-26.6-5.6-40.1-7.7c-1.1,7.3-1.7,10.9-2.9,18.1c10.7,1.8,21.4,3.8,32,5.9
			c1.4,0.3,2.4,1.7,2.1,2.9c-1.2,5.4-1.8,8.1-3,13.6c-0.3,1.2-1.7,2.1-3.1,1.8c-10.3-2.2-20.6-4.1-31-5.8
			c-1.6,10.2-3.2,20.4-4.8,30.6c-0.2,1.3-1.5,2.2-2.8,2c-6.1-0.9-9.1-1.4-15.2-2.1c-1.4-0.2-2.3-1.4-2.2-2.7
			C703.2,141.6,706.5,113.7,709.9,85.7z"/>
		<path d="M807.9,122.4c-8.1-2.4-12.2-3.5-20.4-5.6c-1.6-0.4-2.4-1.8-2.1-3c1.4-5.4,2-8.1,3.4-13.5c0.3-1.2,1.8-2.1,3.4-1.6
			c21.9,5.8,43.4,12.6,64.7,20.3c1.6,0.6,2.3,2.1,1.9,3.3c-2,5.2-2.9,7.8-4.9,13c-0.5,1.2-2,1.8-3.5,1.3c-8-3-12-4.4-20.1-7.1
			c-7.2,21.5-14.4,43.1-21.6,64.6c-0.4,1.2-1.9,1.9-3.1,1.5c-6-2-9-2.9-15-4.7c-1.3-0.4-2.1-1.8-1.7-3
			C795.2,166,801.5,144.2,807.9,122.4z"/>
	</g>
</g>
<g>
	<path fill="#1A1A1A" d="M589,212.3c1.7,0.5,4.1,1.2,4.1,2.4c0,2.8-1.3,11.4-1.3,18.2c0,5.9,0.9,8.1,2,8.1c2.3,0,5.9-8,7.9-13.1
		c4-9.7,6.1-20.4,6.5-24.4c0.2-2.1,4.4-3.9,5.8-3.9c0.3,0,0.8,0.1,0.8,0.5c0,0.1-1.4,6.3-1.4,13.6c0,6.9,5.9,21.6,5.9,29.4
		c0,5.8-4.3,9.1-8.3,9.1c-3.4,0-6.7-2.4-6.7-7.5c0-2.8,1.2-5.2,1.6-5.2c0.1,0,0.1,0.1,0.1,0.3c0,4.1,1,6.1,3.1,6.1
		c2.9,0,3.9-2.6,3.9-6.1c0-7.6-4.5-19.8-4.5-22.1c-1,2-2.5,6.8-4.4,11.8c-3.1,8-9.2,16.4-13.6,16.4c-2.7,0-4.9-3.1-5.4-11
		c-2.6,6.5-6.1,11.5-9.8,11.5c-6.6,0-9.4-7-9.4-15.2c0-11.9,5.9-26.5,15-26.5C585.9,204.6,588.4,207.9,589,212.3z M585.8,215.1
		c-1.6-2.1-3.1-3.1-4.6-3.1c-5.9,0-9.8,15.4-9.8,22.9c0,3.9,1,6.7,2.9,6.7C582.1,241.7,584.9,222.7,585.8,215.1z"/>
	<path fill="#1A1A1A" d="M683.8,205.6c1,0,4.4,2.2,4.4,3.3c0,0.2,0,0.3-0.1,0.5c-2.4,5.3-3.3,13.8-3.3,19.6c0,5.7,2.9,10.9,8,10.9
		c4.9,0,9.3-3.1,12.6-5.4c1.1-0.9,3.3-2.3,4.2-2.3c0.2,0,0.4,0.1,0.4,0.3c0,0.5-0.6,1.5-2.1,3.6l0.4,1.9
		c-4.3,7.9-10.1,11.7-15.3,11.7c-13.6,0-15.5-13.4-15.5-27.7c-4.6,5-6.9,18-9,24.3c-0.1,0.7-0.7,1-1.4,1c-2,0-4.5-2.3-4.5-2.6
		c0-0.2,0.7-6.4,1.2-14.1c0.3-4.1,1-11.4,1-15.9c0-0.9-0.1-1.3-0.2-1.3c-1.7,0-5.2,33-17,33c-5.3,0-7-6.9-7-14.9
		c0-9.5,2.1-23.2,3.8-23.2c1.6,0,3.2-0.1,5.8-0.7c1.1,0,1.1,0.8,1.1,0.8c-2.5,13.8-3.8,19.4-3.8,28.9c0,3.1,0.8,4.4,1.7,4.4
		c7,0,10.2-18.5,13-26.9c1.5-4.5,2.9-8,4.1-8c1.7,0,3-1,3.7-1c0.8,0,0.9,4.3,0.9,8.2c0,4.7,0,9.3-0.1,15.1
		c3.1-6.7,6.6-17.8,12.1-23.1C683.3,205.7,683.5,205.6,683.8,205.6z M656.3,186.9c0,3.6-2.8,8.2-6.1,8.2c-3.1,0-4.4-2.3-4.4-4.9
		c0-3.5,2.5-7.7,6.3-7.7C655,182.5,656.3,184.5,656.3,186.9z"/>
</g>
<g>
	<path fill="#603813" d="M576.6,689.5c0.6-4.3-0.9-10.4-0.6-16.3c0.3-6.8,0.5-13.7,0.6-20.5c0.2-12.1,0.3-24.3,0-36.4
		c-0.4-16.3,0.8-32.5,0.6-48.8c-0.2-16.3,0.5-32.6-0.1-48.8c-0.5-13.7,0-27.2,3-40.5c0.8-3.3,2.6-6.4,3.9-9.6
		c3.5-9.4,9.1-17.6,13.8-26.3c1-1.8,2-3.5,1-5.6c-0.4-0.8-0.1-1.8,0.7-2.2c2.4-1.1,2.3-3.3,2.5-5.4c0.7-7.6,1.5-15.1,2.3-22.7
		c1.3-13.6,3.1-27.3,3.7-40.9c0.3-7,1.7-13.8,1.5-20.9c-0.1-4,0.9-8.6,1.6-13c0.7-4.3,1.1-8.6,1.6-12.9c0.1-0.8,0.4-1.9,0-2.5
		c-3.1-4.5-1.9-8.9,0.2-13.3c0.6-1.2,0.6-2.4-0.4-3.6c-0.8-0.9-1.4-1.9-0.1-3c0.4-0.4,0.3-1,0.1-1.5c-1.8-5.6,0.6-10.2,6.4-12.1
		c3-1,6.2-1.3,9.4-1.6c8.2-0.6,16.4-0.8,24.6,1c6.7,1.5,12.5,8.9,10,15.2c-1.9,4.7-0.6,7.9,0.7,11.8c0.3,1,0.5,2.3,0,3.1
		c-3,4.8-1.4,9.9-0.8,14.9c1.2,11.5,1.9,22.9,2.9,34.4c1.4,15.8,2.9,31.5,4.3,47.3c0.5,5.4,0.7,10.7,1.3,16.1
		c1.1,9.5,3.4,18.5,10.1,26c3.5,4,4.9,9.5,7.2,14.3c8,17,9.8,35,8,53.5c-0.4,4-0.7,8,0.5,12c0.1,0.4,0.2,0.8,0.1,1.2
		c-1.3,12.3-0.6,24.7-0.8,37c0,1.6-0.2,3.1,1.1,4.5c0.6,0.6,0.4,0.8-0.8,1.4c-0.8,0.4-0.3,1-0.3,1.5c0,6.5,0.6,13.1,0.6,19.6
		c0.1,13.6-0.5,27.3,0,40.9c0.2,5.5,0.4,11.1,0.7,16.7c0.2,4.4,0,8.9,0.1,13.4c0.2,6.5-0.9,12.9-0.4,19.5c0.5,7.5-0.1,15.1-2.1,22.3
		c-1.6,5.6-5,9.9-11.3,11.1c-5.9,1.1-11.9,1.4-17.9,1.5c-5.7,0.1-11.5,0.5-17.2,0.4c-4.4-0.1-8.8,0-13.3-0.1
		c-5.4-0.1-10.8-0.1-16.2-0.1c-7.7,0-15.4-0.1-23.1-1c-2-0.2-4-0.5-6-0.8c-6.2-0.8-9.4-4.9-11-10.4
		C577.3,703.4,576.4,697.4,576.6,689.5z"/>
	<path fill="#FFFFFF" d="M697,632c0,0-15.4,5-60.5,5c-45.7,0-60.5-5-60.5-5v-79c0,0,12.7,4.7,60.5,5c44.4-0.3,60.5-5,60.5-5V632z"/>
	<g>
		<g>
			<path d="M586,580.9c0-0.4,0.3-0.8,0.8-0.7c4.1,0.4,6.1,0.6,10.1,1c5.2,0.4,9.4,4.3,9.4,8.8c0,3.4-5.1,6.5-5.1,6.5
				c0,0.2,5.9,3.5,5.9,7.5c0,4.9-4.3,8.2-9.5,7.7c-4.3-0.4-6.4-0.6-10.8-1c-0.5-0.1-0.8-0.5-0.8-0.9C586,600.2,586,590.5,586,580.9z
				 M596.2,593.5c1.7,0.1,3-1.1,3-2.9c0-1.7-1.3-3.1-2.9-3.2c-1.4-0.1-2.3-0.2-3.3-0.3c0,2.4,0,3.7,0,6.1
				C594,593.3,594.9,593.3,596.2,593.5z M596.8,605.4c1.7,0.1,3.1-1.1,3.1-2.9c0-1.7-1.8-3.2-3.5-3.4c-1.4-0.1-2.4-0.2-3.4-0.3
				c0,2.5,0,3.8,0,6.3C594,605.2,595.2,605.3,596.8,605.4z"/>
			<path d="M613,583c0-0.4,0.1-0.8,0.6-0.8c7.2,0.4,10.6,0.5,17.8,0.6c0.5,0,0.5,0.4,0.5,0.8c0,1.9,0,2.9,0,4.8
				c0,0.4-0.4,0.8-0.9,0.8c-4.9-0.1-7.1-0.1-12.1-0.3c0,2.2,0,3.3,0,5.4c4,0.1,6.1,0.2,10.1,0.3c0.4,0,0.9,0.4,0.9,0.8
				c0,1.9,0,2.9,0,4.8c0,0.5-0.5,0.8-0.9,0.8c-4-0.1-6.1-0.1-10.1-0.3c0,2.4,0,3.5,0,5.9c5,0.2,7.3,0.2,12.1,0.3
				c0.5,0,0.9,0.4,0.9,0.8c0,1.9,0,2.9,0,4.8c0,0.4-0.2,0.8-0.6,0.8c-7.2-0.1-10.6-0.2-17.8-0.6c-0.5,0-0.5-0.4-0.5-0.9
				C613,602.3,613,592.7,613,583z"/>
			<path d="M638,583.6c0-0.4,0.5-0.8,1-0.8c7.3,0,10.9-0.1,18.2-0.5c0.5,0,0.9,0.4,0.9,0.8c0,1.9,0,2.9,0,4.8c0,0.4-0.4,0.8-0.9,0.9
				c-4.8,0.2-7.1,0.3-12.1,0.4c0,2.2,0,3.3,0,5.4c4-0.1,6.1-0.1,10.1-0.3c0.4,0,0.9,0.4,0.9,0.8c0,1.9,0,2.9,0,4.8
				c0,0.5-0.5,0.8-0.9,0.9c-4,0.2-6.1,0.2-10.1,0.3c0,2.4,0,3.5,0,5.9c5-0.1,7.3-0.2,12.1-0.4c0.5,0,0.9,0.4,0.9,0.8
				c0,1.9,0,2.9,0,4.8c0,0.4-0.3,0.8-0.8,0.9c-7.2,0.3-11,0.4-18.2,0.5c-0.5,0-0.9-0.4-0.9-0.8C638,602.9,638,593.3,638,583.6z"/>
			<path d="M664,582.8c0-0.4,0.3-0.9,0.8-0.9c5.2-0.3,7.8-0.5,13-1c5.2-0.5,9.5,3.3,9.5,8.5c0,4-2.7,7.6-6.5,9.5
				c2.4,4.2,3.6,6.3,6,10.5c0.3,0.5,0,1.3-0.7,1.3c-2.3,0.2-3.5,0.4-5.8,0.6c-0.3,0-0.6-0.2-0.7-0.3c-2.3-4.4-3.4-6.6-5.7-11.1
				c-1.2,0.1-1.9,0.1-2.9,0.2c0,4.5,0,6.7,0,11.1c0,0.4-0.5,0.9-1,0.9c-2.1,0.2-3.1,0.2-5.2,0.3c-0.5,0-0.8-0.3-0.8-0.8
				C664,602.1,664,592.5,664,582.8z M677.3,594.1c1.8-0.2,3.3-2,3.3-3.8c0-1.8-1.4-3.2-3.2-3c-2.6,0.2-4.4,0.3-6.4,0.5
				c0,2.7,0,4.1,0,6.8C673,594.4,674.8,594.3,677.3,594.1z"/>
		</g>
	</g>
</g>
</svg>
