<?xml version="1.0" encoding="utf-8"?>
<!-- Generator: Adobe Illustrator 17.1.0, SVG Export Plug-In . SVG Version: 6.00 Build 0)  -->
<!DOCTYPE svg PUBLIC "-//W3C//DTD SVG 1.1//EN" "http://www.w3.org/Graphics/SVG/1.1/DTD/svg11.dtd">
<svg version="1.1" id="Layer_1" xmlns="http://www.w3.org/2000/svg" xmlns:xlink="http://www.w3.org/1999/xlink" x="0px" y="0px" viewBox="0 0 1280 800" enable-background="new 0 0 1280 800" xml:space="preserve">
	<ellipse fill="#1A1A1A" cx="648.9" cy="309.2" rx="165" ry="30.8"/>
	<g>
		<g id="rXktoL.tif">
			<g>
				<path fill="#543829" d="M542.9,305.1c0.1-1.5-0.6-2.9-0.9-4.4c-4.7-21.5,4.1-42.9,22.7-54.6c5.9-3.7,12.3-6.3,19.5-5.9
				c8.7,0.5,15.5,4.5,21,11.1c0.6,0.7,1,0.9,1.9,0.8c1.2-0.3,2.5-0.4,3.7-0.3c0.9,0,1.1-0.3,1.2-1.1c1.8-11.4,7.9-19.5,18.4-24.3
				c1.5-0.7,3.2-1.1,5-1.1c0.2,0.3,0,0.5-0.1,0.7c-2.7,6-3,12.1-1.4,18.5c0.7,2.7,0.9,5.4,0.7,8.2c-0.5,7-4.2,11.8-10.1,15.1
				c-1.4,0.8-2.9,1.4-4.4,2c-0.7,0.3-1.2,0.2-1.7-0.4c0,0-0.1-0.1-0.1-0.1c-0.8-0.6-1.3-2.1-2.2-1.9c-1.3,0.4-2.5,1.5-3.3,2.7
				c-0.6,1-0.1,2.4,0,3.6c0,0.5,0.7,0.1,1,0.1c3-0.7,6-1.5,9-2.1c10.5-2.3,21-4.6,31.7-5.2c1.9-0.1,3.7-0.1,5.6,0.1
				c4.6,0.3,7.2,2.6,8.8,7.6c1.6,5.1-0.3,9-5.1,11.5c-0.4,0.2-0.8,0.3-0.5,1c0.9,1.6,0.6,3.2-0.3,4.7c-2.1,3.8-5.6,5.7-9.7,6.7
				c-1,0.3-1.6,0.5-1.9,1.7c-0.6,2.5-2.7,3.9-4.8,5c-2.9,1.5-6,2.1-9.3,1.3c-0.6-0.1-0.9-0.2-1,0.6c-0.4,1.6-1.7,2.5-3.1,3.1
				c-3,1.5-6.2,1.9-9.6,1.6c-0.1-0.2-0.3-0.2-0.4,0c-0.1,0.2,0.2,0.2,0.3,0.3c3.3,2.8,6.8,5.4,9.8,8.5c1.6,1.6,2.3,3.6,2.3,5.9
				c0,1.4-0.4,2.7-1.6,3.6c-0.3,0.2-0.4,0.3-0.3,0.7c0.6,3.8-1.3,6.2-4.2,8.2c-1.1,0.8-2.5,1-3.8,1.5c-1.2,0.5-1.1,2.4-2.2,3.3
				c-0.7,0.6-1.4,1.2-2.1,1.8c-0.9,0.3-1.8,0.7-2.6,1c-1.8,0.2-3.9-0.9-5.2,1.3c-0.2,0.3-0.5,0.4-0.8,0.5c-2.1,1.1-6.2,1-8.1-1.4
				c-2.1-2.6-4.4-5.1-6.7-7.6c0,0.2-0.1,0.3-0.1,0.4c-0.8,6.2-5.6,10.1-11.8,9.5c-3.4-0.4-6.5-1.5-9.5-3.1
				c-12.3-6.4-21.4-16-28.2-28c-0.8-1.3-1.2-2.9-2.3-4C545,310.7,544,307.9,542.9,305.1z M625.8,236.8c0.1,0,0.1,0.1,0.2,0.1
				c-2.3,4.8-3.2,10-3.9,15.3c-0.1,0.7,0,1,0.7,1.1c2.2,0.6,4.3,1.3,6.4,2.3c1,0.4,1.2,0.2,1.4-0.7c0.6-3.2,0.3-6.3-0.2-9.4
				c-0.8-5.1-2.2-10.1,0-15.3c-1.3,0.4-2.3,1.1-3.3,1.7c-6.7,4.6-10.5,11-11.7,19c-0.1,0.8,0,1.1,0.8,1.1c0.9,0.1,1.9,0.2,2.8,0.4
				c0.7,0.2,1-0.1,1-0.8c0.2-2,0.5-4,1.1-5.9C622.2,242.5,623.4,239.3,625.8,236.8z M608.9,285.8L608.9,285.8
				c-0.6,0.3-0.7,0.9-1.1,1.4c-4.4,5.7-10.5,8.9-17.3,11.7c0.4-0.4,0.6-0.6,0.8-0.8c2.2-1.5,4.3-3.2,6.2-5.1c4.1-4,7.3-8.6,8.8-14.3
				c0.2-0.9,0.1-1.5-0.7-2.2c-3.7-3.3-6.2-7.3-7-12.3c-0.5-3-0.2-6,0.9-8.9c0.2-0.7,0.7-1.3,0-2.1c-4.9-4.9-10.6-7.6-17.6-7.4
				c-4.8,0.2-9,2-13.1,4.3c-9.4,5.3-15.9,13-19.5,23.1c-5.1,14.5-3.4,28.4,4.1,41.7c1.7,3,3.7,5.7,6.2,8c0.5,0.8,1.2,1.4,1.9,2
				c13,11.1,27.6,14.6,44.1,9.6c7.2-2.2,12-7,14.1-14.2c1.2-4.2,1.9-8.6-1.1-12.5c4.1,1.4,7.9,0.8,11.5-1.6c1-0.7,1.8-1.5,1.7-2.8
				c0-0.6,0.2-0.7,0.7-0.6c0.4,0,0.8,0,1.1,0c3.5,0,6.7-0.7,9.2-3.3c0.9-0.9,1.6-2.1,1-3.5c-0.4-1-0.1-1.2,0.9-1.3
				c2.2-0.2,4.2-0.9,6-2.4c2.7-2.2,2.9-4.3,0.9-7c0.2-0.3,0.5-0.2,0.8-0.3c3.1-0.7,5.7-2,7.3-4.9c0.2-0.4,0.6-1,0.3-1.4
				c-0.2-0.3-0.8-0.1-1.2,0c-5.6,0.9-11.2,1.8-16.7,2.7c-6.6,1.1-13.2,2.2-20.2,3.4c2.1-1,4.1-1.3,6-2c1,0,1.8-0.5,2.7-0.7
				c4.3-1.2,8.7-2.4,13-3.5c2.7-0.7,5.5-1.4,8.3-2.1c2.3-0.6,4.6-1.1,6.9-1.7c1-0.2,0.9-0.6,0.3-1.3c-1.1-1.1-2.4-1.8-4.1-1.7
				c-1.5,0.1-3,0.3-4.6,0.4c-0.5,0.1-0.9,0.1-1.4,0.2c-6.6,0.8-13.1,2-19.6,3.3c-5.8,1.2-11.5,2.4-17.1,4.1c-0.5,0.1-1,0.2-1.2,0.8
				c-0.4,1.7-1.2,3.2-2,4.7C609,285.5,608.9,285.6,608.9,285.8z M625.3,258.1c-0.2-0.1-0.2-0.3-0.3-0.3c-6.9-2.5-14-3.5-21.3-1.4
				c-0.7,0.2-1,0.6-1.2,1.3c-0.3,1.3-0.5,2.7-0.4,4c0.1,3.5,1.2,6.6,3.6,9.3c0.2,0.3,0.5,1,1,0.3c2.2-2.6,4.4-5,7.2-7
				c0.5-0.4,0.2-0.8,0-1.1c-0.2-0.4-0.5,0-0.7,0.1c-1.2,0.8-2.4,1.8-3.7,2.5c-1.8,1-3.7,1.8-6,1c0.4-0.2,0.6-0.4,0.9-0.4
				c3.2-0.7,5.9-2.4,8.3-4.6c1.3-1.1,2.8-1.9,4.5-2.4C619.6,258.6,622.4,258.3,625.3,258.1z M621.1,262c-0.9-1.7-0.9-1.7-3.1-1.2
				c-0.2,0-0.3,0.1-0.5,0.1c-0.7,0.1-0.8,0.5-0.5,1.1c0.6,1.2,1.4,2.2,2.2,3.3c0.5,0.6,0.9,0.6,1.5,0.3c2.6-1.2,4.9-2.7,6.8-4.8
				c0.3-0.3,0.8-0.6,0.7-1.2c-0.3,0-0.7-0.1-1,0c-1.2,0.1-2.4,0.1-3.5,0.3C621.6,260,621.6,260,621.1,262z"/>
				<path fill="#EB5732" d="M559.6,322.9c-2.6-2.3-4.5-5.1-6.2-8c-7.5-13.3-9.2-27.2-4.1-41.7c3.6-10.1,10.1-17.8,19.5-23.1
				c4.1-2.3,8.3-4.1,13.1-4.3c7-0.2,12.8,2.4,17.6,7.4c0.8,0.8,0.3,1.4,0,2.1c-1.1,2.9-1.4,5.9-0.9,8.9c0.8,5,3.3,9,7,12.3
				c0.8,0.7,0.9,1.2,0.7,2.2c-1.5,5.7-4.7,10.2-8.8,14.3c-1.9,1.9-4,3.6-6.2,5.1c-0.2,0.2-0.4,0.4-0.8,0.8c6.8-2.7,12.8-6,17.3-11.7
				c0.4-0.5,0.5-1.1,1.1-1.4c0.3,0.5,0.1,1.1,0,1.6c-0.4,2.4-0.9,4.8-1.7,7.2c-4,11.3-11.5,18.5-23.8,19.9c-1.9,0.2-3.9,0.3-4.9,2.3
				c-0.1,0.2-0.3,0.3-0.5,0.4c-2.5,2.2-5.4,3.5-8.6,4.6C566.2,322.8,563,323.2,559.6,322.9z M572.3,273.3c2.2,5.8,8.7,8.9,14.5,6.7
				c5.7-2.1,8.7-8.7,6.6-14.4c-2.2-6-8.8-8.7-14.5-6.7C573.5,260.8,570,267.5,572.3,273.3z"/>
				<path fill="#FCC90C" d="M559.6,322.9c3.3,0.3,6.6-0.1,9.8-1.2c3.1-1,6.1-2.4,8.6-4.6c0.2-0.1,0.4-0.2,0.5-0.4
				c1-2.1,2.9-2.1,4.9-2.3c12.3-1.4,19.8-8.5,23.8-19.9c0.8-2.3,1.3-4.7,1.7-7.2c0.1-0.5,0.3-1.1,0-1.6l0,0c0-0.1,0.1-0.2,0.1-0.4
				c0.8-1.5,1.5-3,2-4.7c0.2-0.7,0.7-0.7,1.2-0.8c5.6-1.7,11.4-3,17.1-4.1c6.5-1.3,13-2.5,19.6-3.3c0.5-0.1,0.9-0.1,1.4-0.2
				c-0.2,0.1-0.3,0.3-0.5,0.4c-7.3,3.5-14.6,7-22,10.2c-1.8,0.7-3.9,1-6,2c7-1.2,13.6-2.3,20.2-3.4c0.5,0.8,0.4,1.7,0,2.5
				c-0.5,1.2-1.4,2.1-2.4,2.9c-1.3,1-2.9,1.2-4.4,1.6c0,0-0.1,0-0.1-0.1c0,0,0.1,0,0.1,0c0.8,1.5,1,2.9,0.2,4.5
				c-0.5,0.9-1.2,1.8-2,2.5c-2.2,1.9-4.7,2.9-7.7,2.4c0.3,4.3-3.8,6.9-10.4,6.5c1.1,1.3,2.1,2.5,3.3,3.5c3,3.9,2.3,8.3,1.1,12.5
				c-2,7.2-6.8,12-14.1,14.2c-16.5,5-31.1,1.6-44.1-9.6C560.9,324.4,560.1,323.8,559.6,322.9z M615.3,304
				C615.3,304,615.3,304,615.3,304c-0.1,0-0.1,0-0.1,0S615.3,304.1,615.3,304C615.3,304.1,615.3,304,615.3,304z"/>
				<path fill="#38AC14" d="M618.6,307.8c-1.2-1-2.2-2.2-3.3-3.5c6.5,0.4,10.7-2.2,10.4-6.5c3,0.6,5.5-0.5,7.7-2.4
				c0.8-0.7,1.5-1.5,2-2.5c0.9-1.5,0.7-3-0.2-4.5l0,0c1.5-0.4,3.1-0.6,4.4-1.6c1-0.8,1.8-1.7,2.4-2.9c0.4-0.9,0.5-1.7,0-2.5
				c5.6-0.9,11.1-1.8,16.7-2.7c0.4-0.1,1-0.3,1.2,0c0.3,0.4,0,1-0.3,1.4c-1.6,2.9-4.2,4.2-7.3,4.9c-0.3,0.1-0.6,0-0.8,0.3
				c2,2.7,1.8,4.8-0.9,7c-1.7,1.4-3.8,2.1-6,2.4c-0.9,0.1-1.3,0.3-0.9,1.3c0.6,1.4-0.1,2.5-1,3.5c-2.5,2.6-5.7,3.3-9.2,3.3
				c-0.4,0-0.8,0-1.1,0c-0.5,0-0.7,0.1-0.7,0.6c0.1,1.3-0.7,2.2-1.7,2.8C626.6,308.6,622.7,309.2,618.6,307.8z"/>
				<path fill="#1BABEC" d="M625.8,236.8c-2.5,2.5-3.7,5.7-4.6,9c-0.6,1.9-0.9,3.9-1.1,5.9c-0.1,0.7-0.3,1-1,0.8
				c-0.9-0.2-1.8-0.4-2.8-0.4c-0.8-0.1-1-0.3-0.8-1.1c1.2-8,5.1-14.4,11.7-19c1-0.7,2-1.3,3.3-1.7c-2.2,5.2-0.8,10.2,0,15.3
				c0.5,3.1,0.8,6.2,0.2,9.4c-0.2,0.9-0.4,1.2-1.4,0.7c-2-1-4.2-1.7-6.4-2.3c-0.7-0.2-0.8-0.5-0.7-1.1c0.7-5.3,1.6-10.4,3.9-15.3
				c0-0.1,0.3-0.3,0.1-0.4C626,236.5,625.9,236.6,625.8,236.8z"/>
				<path fill="#FEFEFD" d="M625.3,258.1c-2.9,0.2-5.6,0.5-8.3,1.4c-1.7,0.5-3.2,1.2-4.5,2.4c-2.4,2.2-5,3.9-8.3,4.6
				c-0.2,0-0.5,0.2-0.9,0.4c2.3,0.8,4.2,0,6-1c1.3-0.7,2.5-1.6,3.7-2.5c0.2-0.1,0.5-0.5,0.7-0.1c0.2,0.3,0.6,0.7,0,1.1
				c-2.7,2-5,4.5-7.2,7c-0.6,0.7-0.8,0-1-0.3c-2.3-2.7-3.5-5.8-3.6-9.3c0-1.4,0.1-2.7,0.4-4c0.2-0.7,0.5-1.1,1.2-1.3
				c7.3-2.1,14.3-1.1,21.3,1.4C625,257.8,625.1,257.9,625.3,258.1z"/>
				<path fill="#38AC14" d="M627.8,282.9c7.5-3.1,14.8-6.6,22-10.2c0.2-0.1,0.3-0.3,0.5-0.4c1.5-0.1,3-0.3,4.6-0.4
				c1.7-0.1,3,0.6,4.1,1.7c0.6,0.6,0.7,1-0.3,1.3c-2.3,0.5-4.6,1.1-6.9,1.7c-2.8,0.7-5.5,1.4-8.3,2.1c-4.3,1.2-8.7,2.4-13,3.5
				C629.5,282.4,628.7,282.9,627.8,282.9z"/>
				<path fill="#1BABEC" d="M621.1,262c0.5-1.9,0.5-1.9,2.7-2.2c1.2-0.1,2.4-0.2,3.5-0.3c0.3,0,0.7,0,1,0c0.1,0.6-0.4,0.9-0.7,1.2
				c-1.9,2.1-4.3,3.6-6.8,4.8c-0.6,0.3-1.1,0.3-1.5-0.3c-0.8-1-1.6-2.1-2.2-3.3c-0.3-0.6-0.2-1,0.5-1.1c0.2,0,0.3-0.1,0.5-0.1
				C620.2,260.2,620.2,260.2,621.1,262z"/>
				<path fill="#FEFEFD" d="M623.5,311.6c-0.1-0.1-0.4,0-0.3-0.3c0.1-0.1,0.3-0.2,0.4,0C623.6,311.4,623.5,311.5,623.5,311.6z"/>
				<path fill="#EB5732" d="M609,285.4c0,0.1-0.1,0.2-0.1,0.4C608.9,285.6,609,285.5,609,285.4z"/>
				<path fill="#FCC90C" d="M572.3,273.3c-2.3-5.8,1.2-12.5,6.7-14.5c5.6-2,12.3,0.7,14.5,6.7c2.1,5.7-0.9,12.3-6.6,14.4
				C581,282.2,574.5,279.1,572.3,273.3z M589.1,267.1c-1.3-3.5-5.1-5.3-8.6-4.1c-3.5,1.3-5.3,5.3-4,8.8c1.3,3.4,5.2,5.2,8.7,3.9
				C588.7,274.4,590.5,270.6,589.1,267.1z"/>
				<path fill="#38AC14" d="M635.3,288.5c0,0-0.1,0-0.1,0C635.2,288.5,635.2,288.5,635.3,288.5L635.3,288.5z"/>
				<path fill="#38AC14" d="M615.3,304C615.3,304,615.3,304.1,615.3,304c-0.1,0.1-0.1,0.1-0.1,0S615.2,304,615.3,304
				C615.3,304,615.3,304,615.3,304z"/>
				<path fill="#543829" d="M625.8,236.8c0-0.2,0.2-0.4,0.3-0.3c0.2,0.1,0,0.3-0.1,0.4C626,236.9,625.9,236.9,625.8,236.8z"/>
				<path fill="#543829" d="M589.1,267.1c1.3,3.5-0.4,7.3-3.9,8.6c-3.5,1.3-7.4-0.5-8.7-3.9c-1.3-3.5,0.5-7.5,4-8.8
				C584,261.8,587.8,263.6,589.1,267.1z M581,264.3c-1,0.4-1.9,0.9-2.5,1.8c-0.9,1.3-0.4,2.6,1.1,3c1.9,0.6,4.7-0.5,5.7-2.2
				c0.7-1.3,0.3-2.5-1.1-2.9C583,263.8,582,264,581,264.3z"/>
				<path fill="#FEFEFD" d="M581,264.3c1-0.4,2.1-0.5,3.1-0.2c1.4,0.4,1.9,1.6,1.1,2.9c-1,1.7-3.8,2.8-5.7,2.2
				c-1.5-0.4-1.9-1.7-1.1-3C579.1,265.2,580,264.7,581,264.3z"/>
			</g>
		</g>
		<g id="z1jLka.tif">
			<g>
				<path fill="#B4B1B1" d="M818.7,294c-5.9,10.5-12,21.3-18.1,32.2c-4.2,7.6-8.5,15.2-12.6,22.9c-0.8,1.4-1.7,1.9-3.1,2
				c-15.4,1.7-30.8,3.4-46.2,5.1c-1.7,0.2-3-0.2-4.1-1.6c-9.3-11.8-18.6-23.6-27.9-35.3c-1-1.3-0.8-2.5-0.5-3.8
				c4.2-15.1,8.4-30.2,12.6-45.3c1.4-5.1,2.7-10.3,4-15.4c0.5-2.2,1.5-3.1,4-2.9c16.3,0.9,32.7,1.7,49,2.4c2.2,0.1,3.8,0.8,5.4,2.2
				c12.6,11.1,25.1,22.1,37.8,33C821.3,291.3,819.2,292.2,818.7,294z M737.7,349.9c0.5,1.3,1.4,0.9,2.4,0.8
				c13.3-1.6,26.5-3.2,39.8-4.6c2.4-0.3,3.8-1.2,5-3.3c9.1-16.3,18.2-32.5,27.4-48.7c0.8-1.4,0.7-2.4-0.6-3.4
				c-3.5-2.9-6.9-5.9-10.3-8.9c-8.4-7.3-16.9-14.5-25.3-21.8c-0.3-0.6-1-0.5-1.5-0.6c-4.2-0.2-8.5-0.5-12.7-0.7
				c-10.8-0.5-21.6-1-32.5-1.5c-1.3-0.1-2.5-0.2-3,1.8c-5,18.3-10.1,36.5-15.2,54.7c-0.5,1.8-0.2,3.1,0.9,4.5
				c4.5,5.5,8.9,11.1,13.3,16.6C729.4,339.9,733.6,344.9,737.7,349.9z"/>
				<path fill="#B62B34" d="M776,260c8.4,7.3,16.9,14.5,25.3,21.8c3.4,3,6.8,6,10.3,8.9c1.3,1.1,1.4,2,0.6,3.4
				c-9.2,16.2-18.3,32.5-27.4,48.7c-1.1,2-2.6,3-5,3.3c-13.3,1.4-26.5,3-39.8,4.6c-1,0.1-1.9,0.5-2.4-0.8c3-0.2,2-2.9,2.7-4.5
				c4.4-10.4,8.6-21,12.9-31.4c1.8,0.7,3.6,1.3,5.4,2.1c2.8,1.1,6.3,1.7,8.1,3.7c1.9,2.2,0.6,5.9,0.7,9c0.2,8.6,0.2,8.6,8.1,11.8
				c2.3,1,2.8,0.5,2.6-1.9c-0.6-9.3-1-18.6-1.5-27.8c-0.8-16-1.7-32.1-2.5-48.1C774.8,261.9,775.4,260.9,776,260z"/>
				<path fill="#E12D3A" d="M753.3,314c-4.3,10.5-8.5,21-12.9,31.4c-0.7,1.5,0.3,4.3-2.7,4.5c-4.1-5-8.3-10-12.3-15
				c-4.5-5.5-8.8-11.1-13.3-16.6c-1.1-1.4-1.5-2.6-0.9-4.5c5.2-18.2,10.2-36.5,15.2-54.7c0.5-2,1.7-1.8,3-1.8
				c10.8,0.5,21.6,1,32.5,1.5c4.2,0.2,8.5,0.4,12.7,0.7c0.6,0,1.2-0.1,1.5,0.6c-0.6,0.9-1.2,1.9-1.8,2.8c-0.3,0.3-0.6,0.5-0.8,0.8
				c-14.5,13.8-29,27.6-43.5,41.4c-4,3.8-8.1,7.7-12.2,11.7c3.5,1.4,6.6,2.7,9.7,4c1.2,0.5,1.8-0.1,2.5-0.8c2.6-2.7,5.4-5.3,7.8-8.2
				c2-2.4,3.9-3.3,6.8-1.5c1.7,1,3.8,1.5,5.6,2.3l0.2,0.2l0.3,0c0.9,0.4,1.8,0.7,2.7,1.1C753.3,313.8,753.3,313.9,753.3,314z"/>
				<path fill="#B4B0B0" d="M773.4,263.6c0.3-0.3,0.6-0.5,0.8-0.8c0.8,16,1.7,32.1,2.5,48.1c0.5,9.3,0.9,18.6,1.5,27.8
				c0.2,2.4-0.3,2.8-2.6,1.9c-7.9-3.3-7.9-3.2-8.1-11.8c-0.1-3.1,1.2-6.8-0.7-9c-1.8-2-5.3-2.6-8.1-3.7c-1.8-0.7-3.6-1.4-5.4-2.1
				c0-0.1,0-0.2,0.1-0.3c1.2-2.9,2.4-5.9,3.6-8.8c2.7,1,5.4,2.1,8.1,3.2c1.3,0.5,2.2,0.7,2-1.2c-0.6-7.5-1.1-15-1.6-22.5
				c2.1-5.3,4.3-10.6,6.4-15.9C772.5,266.9,773.7,265.5,773.4,263.6z"/>
				<path fill="#F1EEEE" d="M757,304.9c-1.2,2.9-2.4,5.9-3.6,8.8c-0.9-0.4-1.8-0.7-2.7-1.1c-0.1-0.3-0.2-0.4-0.5-0.2
				c-1.9-0.7-3.9-1.3-5.6-2.3c-2.9-1.8-4.8-0.9-6.8,1.5c-2.4,2.9-5.2,5.5-7.8,8.2c-0.7,0.7-1.3,1.3-2.5,0.8c-3.1-1.3-6.2-2.6-9.7-4
				c4.2-4,8.2-7.8,12.2-11.7c14.5-13.8,29-27.6,43.5-41.4c0.3,1.9-0.9,3.3-1.5,4.9c-2.1,5.3-4.2,10.6-6.4,15.9
				c-0.1,0.1-0.2,0.3-0.3,0.4c-0.3-0.1-0.6,0-0.6,0.4c-0.2,0.3-0.4,0.6-0.6,0.9c-4.8,4.6-9.6,9.2-14.3,13.8c-1,1-0.8,1.7,0.6,2.2
				c2.3,0.8,4.5,1.8,6.8,2.6L757,304.9z"/>
				<path fill="#B4B0B0" d="M750.2,312.4c0.3-0.2,0.4-0.1,0.5,0.2c0,0-0.3,0-0.3,0L750.2,312.4z"/>
				<path fill="#B62B34" d="M765.2,284.8c0.1-0.1,0.2-0.3,0.3-0.4c0.5,7.5,1,15,1.6,22.5c0.2,2-0.7,1.8-2,1.2
				c-2.7-1.1-5.4-2.1-8.1-3.2c0,0,0.1-0.2,0.1-0.2c2.6-5.4,4.1-11.3,7.2-16.5c0.4-0.7,0.2-1.5-0.2-2.2c0.2-0.3,0.4-0.6,0.6-0.9
				C764.8,285,765,284.9,765.2,284.8z"/>
				<path fill="#E12D3A" d="M764,286c0.4,0.7,0.6,1.5,0.2,2.2c-3,5.2-4.6,11.1-7.2,16.5c-2.2-0.9-4.5-1.8-6.8-2.6
				c-1.4-0.5-1.6-1.2-0.6-2.2C754.4,295.3,759.2,290.7,764,286z"/>
				<path fill="#E12D3A" d="M765.2,284.8c-0.2,0.1-0.4,0.3-0.6,0.4C764.6,284.8,764.8,284.7,765.2,284.8z"/>
			</g>
		</g>
		<g id="nlHga9.tif">
			<g>
				<path fill="#4C254A" d="M654.3,251.8c19.9-2.1,39.8-4.2,59.8-6.3c0.1,0.2,0.2,0.1,0.4,0.1c1.1,0,2.2,0.1,3.3,0.3
				c8.9,1.6,15.5,8.8,16.5,17.9c2,19,4,38.1,6,57.1c0,0.2,0,0.4,0,0.6c-0.2,0-0.3-0.1-0.5-0.2c-1.3-1-2.6-2.1-4-3.1
				c-3.1-2.4-6.1-4.9-9.2-7.3c-3.6-2.8-7.2-5.8-10.8-8.6c-3.2-2.5-6.3-5-9.5-7.6c-0.2-0.2-0.4-0.4-0.7-0.3c0-2.4-0.2-4.7-0.8-7
				c-1.1-4.4-3.3-8.1-7.3-10.6c-2.2-1.4-4.7-2.2-7.2-2.7c-3.2-0.6-6.3-0.8-9.6-0.8c0-0.3-0.2-0.5-0.4-0.7c-1-0.8-2-1.6-3-2.3
				c-3.1-2.4-6-4.9-9.1-7.2c-3.1-2.3-5.9-4.9-9-7.1c-1.6-1.2-3-2.4-4.5-3.6C654.5,252.2,654.3,252.1,654.3,251.8z"/>
				<path fill="#170C3B" d="M619.4,363.3c-1.9-18.1-3.8-36.3-5.7-54.4c0.2,0,0.4,0.1,0.5,0.3c1.7,1.3,3.4,2.7,5.1,4.1
				c3.1,2.3,6,4.9,9,7.2c3.2,2.4,6.2,5,9.4,7.4c3.4,2.6,6.6,5.4,10.1,8c0.2,0.2,0.4,0.4,0.7,0.3c0,0.3,0.1,0.5,0.1,0.8
				c0.6,5.5,1.2,11.1,1.7,16.6c0.1,0.6,0.2,0.7,0.8,0.7c4.9-0.5,9.8-1,14.6-1.6c0.2,0,0.5,0,0.8,0c0,0.3,0.3,0.5,0.5,0.6
				c1.2,0.9,2.4,1.9,3.6,2.8c3.2,2.5,6.3,5.1,9.5,7.6c2.6,2,5.1,4.1,7.6,6.2c0.2,0.2,0.5,0.3,0.7,0.5c1.2,1,2.4,1.9,3.6,2.9
				c0.1,0.1,0.2,0.3,0.3,0.5c-0.2,0-0.5,0.1-0.7,0.1c-16.9,1.8-33.8,3.6-50.6,5.3c-9.2,1-18-4.7-21-13.4
				C619.9,364.9,619.8,364,619.4,363.3z"/>
				<path fill="#24123F" d="M648.5,336.1c-0.3,0.1-0.5-0.1-0.7-0.3c-3.4-2.6-6.7-5.4-10.1-8c-3.2-2.4-6.2-5-9.4-7.4
				c-3.1-2.3-6-4.9-9-7.2c-1.7-1.3-3.4-2.7-5.1-4.1c-0.2-0.1-0.3-0.3-0.5-0.3c-1.1-10.5-2.2-20.9-3.3-31.4c0.3-0.1,0.5,0.1,0.7,0.2
				c1,0.8,2,1.5,2.9,2.3c3.1,2.4,6.1,5,9.3,7.4c3,2.3,5.8,4.7,8.8,7c4.2,3.2,8.3,6.6,12.5,9.9c0.2,0.2,0.4,0.4,0.7,0.3
				c0,0.2,0.1,0.3,0.1,0.5c1.1,10.1,2.1,20.3,3.2,30.4C648.5,335.8,648.5,335.9,648.5,336.1z"/>
				<path fill="#311842" d="M645.2,304.7c-0.3,0-0.5-0.2-0.7-0.3c-4.2-3.3-8.3-6.7-12.5-9.9c-3-2.3-5.8-4.8-8.8-7
				c-3.2-2.4-6.2-5-9.3-7.4c-1-0.8-2-1.5-2.9-2.3c-0.2-0.2-0.4-0.3-0.7-0.2c-0.1-1-0.2-1.9-0.3-2.9c0.2-0.1,0.1-0.3,0.1-0.4
				c0.1-1.8,0.3-3.5,0.8-5.2c1.9-6.2,5.9-10.5,11.8-13c0.1,0.3,0.4,0.4,0.6,0.6c2.1,1.6,4.1,3.3,6.1,4.9c3.7,2.8,7.2,5.9,10.9,8.7
				c2.4,1.9,4.7,4,7.3,5.8c0.2,0.2,0.5,0.3,0.5,0.6c-1.7,0.2-3.4,0.4-5.2,0.6c-0.6,0.1-0.7,0.2-0.7,0.8c0.9,8.7,1.9,17.4,2.8,26.1
				C645.2,304.1,645.2,304.4,645.2,304.7z"/>
				<path fill="#3E1E46" d="M648.2,276.4c0-0.3-0.3-0.5-0.5-0.6c-2.5-1.8-4.8-3.9-7.3-5.8c-3.7-2.8-7.3-5.8-10.9-8.7
				c-2.1-1.6-4.1-3.3-6.1-4.9c-0.2-0.2-0.5-0.3-0.6-0.6c0.1,0,0.1-0.1,0.2-0.1c1.1-0.4,2.2-0.7,3.3-1.1c9.3-1,18.6-2,28-3
				c0,0.3,0.3,0.4,0.5,0.6c1.5,1.2,3,2.5,4.5,3.6c3.1,2.3,5.9,4.8,9,7.1c3.1,2.3,6,4.9,9.1,7.2c1,0.8,2,1.5,3,2.3
				c0.2,0.2,0.4,0.3,0.4,0.7c-0.3,0-0.5,0.1-0.8,0.1c-2,0-4,0.1-6,0.3c-8.3,0.9-16.6,1.7-25,2.6
				C648.8,276.4,648.5,276.4,648.2,276.4z"/>
				<path fill="#FEFDFE" d="M648.2,276.4c0.3,0,0.6,0,0.8,0c8.3-0.9,16.6-1.7,25-2.6c2-0.2,4-0.4,6-0.3c0.3,0,0.5-0.1,0.8-0.1
				c3.2,0,6.4,0.2,9.6,0.8c2.5,0.5,5,1.3,7.2,2.7c4,2.5,6.2,6.1,7.3,10.6c0.6,2.3,0.8,4.6,0.8,7c0,0.2-0.1,0.4-0.1,0.6
				c-0.4,4.2-2.1,7.6-5.4,10.3c-1,0.8-2.1,1.5-3.4,2.2c0.3,0.1,0.5,0.1,0.8,0.2c6.7,1.5,11.2,5.5,13.5,12c1.2,3.3,1.5,6.8,1.4,10.3
				c0,0.1,0,0.1,0,0.2c-0.5,6.7-3.8,11.7-9.6,15.1c-1.3,0.8-2.7,1.3-4.1,2c-0.9,0.3-1.8,0.7-2.7,0.9c-3,0.9-6,1.6-9.1,2
				c-6.5,0.8-13.1,1.4-19.6,2.1c-0.3,0-0.5,0.1-0.8,0.1c-0.3,0-0.5,0-0.8,0c-4.9,0.5-9.8,1-14.6,1.6c-0.6,0.1-0.7-0.1-0.8-0.7
				c-0.6-5.5-1.2-11.1-1.7-16.6c0-0.3-0.1-0.5-0.1-0.8c0-0.2,0-0.3,0-0.5c-1.1-10.1-2.1-20.3-3.2-30.4c0-0.2-0.1-0.3-0.1-0.5
				c0-0.3,0-0.6-0.1-0.8c-0.9-8.7-1.8-17.4-2.8-26.1c-0.1-0.6,0.1-0.8,0.7-0.8C644.8,276.8,646.5,276.6,648.2,276.4z M669.1,338.4
				c0,0.1,0,0.1,0.1,0.1c0.3,0,0.5,0,0.8-0.1c4.1-0.4,8.2-0.8,12.2-1.3c2-0.2,4-0.9,5.7-2c1.8-1,2.9-2.4,3.6-4.3
				c0.9-2.7,0.7-5.4-0.2-8.1c-0.9-2.6-2.7-4.2-5.2-5.1c-1.3-0.5-2.7-0.7-4.1-0.7c-4.9,0.1-9.7,0.9-14.6,1.3c-0.3,0-0.5,0.1-0.3,0.4
				c0.2,2.2,0.4,4.4,0.7,6.6C668.2,329.7,668.7,334,669.1,338.4z M664.7,296.6c0.3,2.5,0.5,5,0.8,7.6c0,0.5,0.2,0.6,0.7,0.6
				c3.5-0.4,7.1-0.8,10.6-1.1c1.1-0.1,2.1-0.3,3.1-0.6c2.9-0.9,5-2.7,5.5-5.9c0.2-1.1,0.1-2.3-0.1-3.4c-0.6-3.6-2.8-5.8-6.5-6.3
				c-1-0.2-2-0.2-3-0.1c-3.8,0.4-7.6,0.8-11.4,1.2c-0.5,0-0.6,0.2-0.5,0.7C664.2,291.6,664.4,294.1,664.7,296.6z"/>
				<path fill="#3E1E46" d="M712.4,330c0.1-3.5-0.2-7-1.4-10.3c-2.3-6.5-6.8-10.5-13.5-12c-0.2,0-0.4-0.1-0.8-0.2
				c1.2-0.7,2.3-1.4,3.4-2.2c3.3-2.7,5-6.1,5.4-10.3c0-0.2,0.1-0.4,0.1-0.6c0.3-0.1,0.5,0.1,0.7,0.3c3.2,2.5,6.3,5.1,9.5,7.6
				c3.6,2.8,7.2,5.8,10.8,8.6c3.1,2.4,6.1,4.9,9.2,7.3c1.3,1,2.6,2.1,4,3.1c0.1,0.1,0.3,0.2,0.5,0.2c0.1,1.2,0.3,2.4,0.4,3.6
				c0.8,7.6,1.6,15.1,2.4,22.7c0.2,2,0.2,3.9-0.2,5.8c-0.4,0.1-0.6-0.2-0.8-0.4c-2.8-2.2-5.4-4.4-8.2-6.5c-3.2-2.4-6.3-5.1-9.5-7.6
				c-3.8-2.9-7.4-6-11.1-8.9C712.9,330.2,712.7,330,712.4,330z"/>
				<path fill="#24123F" d="M666.6,352.5c0.3,0,0.5-0.1,0.8-0.1c6.5-0.7,13.1-1.3,19.6-2.1c3.1-0.4,6.1-1.1,9.1-2
				c0.9-0.3,1.7-0.7,2.7-0.9c0.1,0.3,0.4,0.5,0.6,0.7c2.8,2.2,5.5,4.4,8.3,6.6c2,1.6,4,3.2,6,4.8c4.2,3.3,8.4,6.6,12.5,10
				c0.2,0.2,0.4,0.3,0.5,0.6c-0.3,0.1-0.6,0.1-0.9,0.2c-11,1.2-21.9,2.3-32.9,3.5c-0.1,0-0.3,0-0.4,0c-0.1-0.2-0.2-0.4-0.3-0.5
				c-1.2-1-2.4-1.9-3.6-2.9c-0.2-0.2-0.5-0.3-0.7-0.5c-2.5-2.1-5-4.2-7.6-6.2c-3.2-2.5-6.3-5.1-9.5-7.6c-1.2-0.9-2.4-1.9-3.6-2.8
				C666.9,353,666.6,352.9,666.6,352.5z"/>
				<path fill="#311842" d="M726.6,370c-0.1-0.3-0.3-0.5-0.5-0.6c-4.2-3.3-8.3-6.7-12.5-10c-2-1.6-4-3.2-6-4.8
				c-2.8-2.2-5.5-4.4-8.3-6.6c-0.2-0.2-0.5-0.3-0.6-0.7c1.3-0.7,2.8-1.3,4.1-2c5.8-3.4,9.1-8.4,9.6-15.1c0-0.1,0-0.1,0-0.2
				c0.3-0.1,0.5,0.1,0.7,0.3c3.8,2.9,7.4,6,11.1,8.9c3.2,2.5,6.3,5.1,9.5,7.6c2.8,2.1,5.5,4.4,8.2,6.5c0.3,0.2,0.5,0.5,0.8,0.4
				c-0.4,2.7-1.4,5.2-3,7.5C736.7,366,732.3,368.9,726.6,370z"/>
				<path fill="#3E1E46" d="M664.7,296.6c-0.3-2.5-0.5-5-0.8-7.5c-0.1-0.5,0.1-0.6,0.5-0.7c3.8-0.4,7.6-0.8,11.4-1.2
				c1-0.1,2-0.1,3,0.1c3.6,0.6,5.8,2.7,6.5,6.3c0.2,1.1,0.3,2.3,0.1,3.4c-0.5,3.2-2.6,5-5.5,5.9c-1,0.3-2.1,0.5-3.1,0.6
				c-3.5,0.4-7.1,0.7-10.6,1.1c-0.5,0.1-0.7-0.1-0.7-0.6C665.3,301.6,665,299.1,664.7,296.6z"/>
				<path fill="#311842" d="M667.1,318.7c-0.1-0.3,0.1-0.4,0.3-0.4c4.9-0.4,9.7-1.3,14.6-1.3c1.4,0,2.8,0.2,4.1,0.7
				c2.6,0.9,4.4,2.6,5.2,5.1c0.9,2.7,1.1,5.4,0.2,8.1c-0.6,1.9-1.8,3.3-3.6,4.3c-0.1-0.4-0.3-0.6-0.6-0.8c-0.8-0.6-1.5-1.1-2.3-1.7
				c-5.6-4.5-11.2-9-16.9-13.5c-0.1,0-0.1-0.1-0.2-0.1C667.8,318.7,667.5,318.6,667.1,318.7z"/>
				<path fill="#24123F" d="M667.1,318.7c0.4-0.1,0.7,0,1,0.3c0.1,0,0.1,0.1,0.2,0.1c5.6,4.5,11.2,9,16.9,13.5
				c0.7,0.6,1.5,1.1,2.3,1.7c0.3,0.2,0.5,0.4,0.6,0.8c-1.8,1.1-3.7,1.7-5.7,2c-4.1,0.5-8.2,0.9-12.2,1.3c-0.3,0-0.5,0-0.8,0.1
				c0,0-0.1-0.1-0.1-0.1c-0.5-4.4-0.9-8.7-1.4-13.1C667.5,323.1,667.3,320.9,667.1,318.7z"/>
				<path fill="#311842" d="M669.1,338.4c0,0,0.1,0.1,0.1,0.1C669.2,338.5,669.1,338.5,669.1,338.4z"/>
			</g>
		</g>
		<g>
			<path fill="#FFFFFF" d="M544,305.7L544,305.7l-3.5,3.7L544,305.7L544,305.7z"/>
			<path fill="#FFFFFF" d="M545.3,318.3l-1.3-0.7L545.3,318.3z"/>
			<path fill="#FFFFFF" d="M546.7,319l-1.3-0.7L546.7,319z"/>
			<path fill="#FFFFFF" d="M542.6,324.4l4.2-4.6L542.6,324.4L542.6,324.4L542.6,324.4z"/>
			<path fill="#FFFFFF" d="M585,315.2l-9,10.9L585,315.2z"/>
			<path fill="#FFFFFF" d="M578.3,311.7l-6.7,8.1L578.3,311.7L578.3,311.7z"/>
			<path fill="#FFFFFF" d="M584.8,314.4l-5.6-2.9c-0.3-0.2-0.7-0.1-1,0.2l-6.7,8.1l-6.7,8.1c-0.2,0.3-0.7,0.4-1,0.2l-3.4-1.8
			l-0.6-0.3c-3.9-2-2-4.5,0.7-7.8c0,0,0.1-0.1,0.1-0.1l0.3-0.4c0,0,0-0.1,0.1-0.1l0.7-0.9l0.7-0.9c0.2-0.3,0.5-0.7,0.7-0.9l3.2-3.9
			l3.2-3.9c0.2-0.3,0.1-0.6-0.2-0.8l-5.7-3c-0.3-0.2-0.7-0.1-1,0.2l-4.3,5.2l-4.3,5.2c0,0,0,0,0,0l-0.4,0.5
			c-4.8,5.7-7.6,12.1,0,16.3c0.1,0.1,0.2,0.1,0.2,0.1l12.1,6.3c0.3,0.2,0.7,0.1,1-0.2l9-10.9l9-10.9
			C585.2,315,585.1,314.6,584.8,314.4L584.8,314.4z"/>
			<path fill="#FFFFFF" d="M596.9,345.5c0.3,0.2,0.4,0.5,0.2,0.8l-1.9,2.4"/>
			<path fill="#FFFFFF" d="M583.8,334.3c0.1-0.3,0.7-0.6,1-0.5l-0.7-0.4C582.2,336.5,583.8,334.3,583.8,334.3L583.8,334.3z"/>
			<path fill="#FFFFFF" d="M596.9,345.5c0.3,0.2,0.4,0.5,0.2,0.8l-1.9,2.4l-0.3,0.4"/>
			<path fill="#FFFFFF" d="M506.4,294.1l2.9-3.4l-3.3,3.9l-3.3,4l2.9-3.5C505.8,294.8,506.2,294.4,506.4,294.1L506.4,294.1z"/>
			<path fill="#FFFFFF" d="M525.2,283.3l-6.1-3.2c-0.3-0.2-0.7-0.1-1,0.2l-1.9,2.3l-1.9,2.3c-0.2,0.3-0.2,0.6,0.2,0.8l6.2,3.2
			c0.3,0.2,0.7,0.1,1-0.2l1.9-2.3l1.9-2.3l0,0C525.6,283.8,525.5,283.5,525.2,283.3L525.2,283.3z"/>
			<path fill="#FFFFFF" d="M519.4,291.2L519.4,291.2l-6.1,7.4L519.4,291.2z"/>
			<path fill="#131B28" d="M512.1,287.4l-2.9,3.4L512.1,287.4z"/>
			<path fill="#FFFFFF" d="M519.3,290.4l-6.2-3.2c-0.3-0.2-0.7-0.1-1,0.2l-2.9,3.4l-2.9,3.4c-0.2,0.3-0.6,0.7-0.8,1l-2.9,3.5
			l-2.9,3.5c-0.2,0.3-0.6,0.7-0.9,0.9c0,0-2.9,2.8-4.9,1.8c-0.1,0-0.2-0.1-0.2-0.1c-0.9-0.5-1.7-0.9-1.7-0.9l0,0
			c-0.3-0.2-0.7-0.1-1,0.2l-2,2.4l-2,2.4c-0.2,0.3-0.2,0.6,0.1,0.8c1.1,0.6,3.5,1.9,5,2.7c4.8,2.5,8.8,1.2,14.4-5.7l6.5-7.9l6.1-7.4
			C519.6,290.9,519.6,290.5,519.3,290.4L519.3,290.4z"/>
			<path fill="#FFFFFF" d="M597.6,353.6c-0.3-0.2-0.4-0.5-0.2-0.8l15.9-19.3"/>
			<path fill="#FFFFFF" d="M604.4,356.4l6.7-8.3L604.4,356.4z"/>
			<path fill="#FFFFFF" d="M597.4,353.2c0-0.2,0.3-0.5,0.5-0.8l7.6-9.2l-8,9.7c-0.2,0.3-0.2,0.6,0.2,0.8l0.6,0.3
			C597.9,353.8,597.4,353.3,597.4,353.2L597.4,353.2z"/>
			<path fill="#FFFFFF" d="M607.7,352.3l3-3.7c0,0,0,0,0,0L607.7,352.3L607.7,352.3z"/>
			<path fill="#FFFFFF" d="M634.2,346.2l-0.3,1.2c-0.1,0.3-0.4,0.5-0.7,0.3"/>
			<path fill="#FFFFFF" d="M604.8,356l3-3.7L604.8,356z"/>
			<path fill="#FFFFFF" d="M634.5,345l-0.3,1.2L634.5,345z"/>
			<path fill="#FFFFFF" d="M610.7,348.6c0.2-0.3,0.6-0.7,0.8-1l3-3.7l-3.4,4.2L610.7,348.6L610.7,348.6z"/>
			<path fill="#FFFFFF" d="M613.7,333.2c-0.2,0.3-0.5,0.6-0.7,0.8l-7.6,9.2l8-9.7L613.7,333.2L613.7,333.2z"/>
			<path fill="#FFFFFF" d="M633.9,347.4l0.3-1.2l0.3-1.2l0.2-0.6c0.5-2.2-0.4-4.1-3.6-5.8l-5-2.6l-4.6-2.4l-0.4-0.2l-4.8-2.5
			c-0.3-0.2-0.7-0.1-1,0.2l0,0l-0.8,1l-0.9,1.1l-0.3,0.3l-8,9.7l-7.6,9.2c-0.2,0.3-0.4,0.6-0.5,0.8c0,0.2,0.5,0.6,0.8,0.8l4.6,2.4
			c0.3,0.2,0.7,0.3,0.9,0.3c0.2,0,0.8-0.5,1-0.7l3-3.7l3-3.7c0,0,0,0,0,0l0.4-0.5l3.4-4.2l3-3.7c0.2-0.3,0.7-0.4,1-0.2l14.6,7.6
			C633.5,347.9,633.8,347.7,633.9,347.4L633.9,347.4z"/>
			<path fill="#FFFFFF" d="M657.7,347.6c-0.3-0.2-0.8-0.4-1.1-0.6l-4.7-2.4c-0.3-0.2-0.8-0.2-1.1,0l-18.2,9.8c-0.3,0.2-0.5,0-0.4-0.3
			l1-3.7c0.1-0.3-0.1-0.7-0.4-0.9L626,346c-0.3-0.2-0.6,0-0.7,0.3l-2.5,12c-0.1,0.3-0.3,0.8-0.6,1.1l-3.9,4.4
			c-0.2,0.3-0.2,0.6,0.1,0.8l6.6,3.4c0.3,0.2,0.8,0.1,1-0.2l3.9-4.4c0.2-0.3,0.7-0.6,1-0.7l28.4-13.6c0.3-0.2,0.3-0.4,0-0.6
			L657.7,347.6L657.7,347.6z"/>
			<path fill="#FFFFFF" d="M598,333.2L598,333.2c-0.2,0.3-0.6,0.4-1,0.2l-8.4-4.4c-0.3-0.2-0.3-0.4-0.2-0.6c0,0,0,0,0,0c0,0,0,0,0,0
			c0,0,0,0,0,0c0,0,0-0.1,0.1-0.1c1.9-1.7,4.3-2.3,7.4-0.7C599.4,329.4,599.2,331.4,598,333.2L598,333.2z M600.6,322.2
			c-10.8-5.6-16.8-0.4-21.7,5.5c-5,6-8.1,12.4,3.1,18.2l0.4,0.2c0,0,0.1,0,0.1,0.1l0.3,0.2l0.1,0.1l0.3,0.2c0,0,0.1,0,0.1,0.1
			c0.1,0.1,0.2,0.1,0.3,0.2l0.1,0c0.4,0.2,0.9,0.5,1.3,0.7l0,0c3,1.5,5.9,3.1,7.1,3.7c0.3,0.2,0.7,0.1,1-0.2l1.6-2l0.3-0.4l1.9-2.4
			c0.2-0.3,0.1-0.6-0.2-0.8l-10.1-5.2c-4-2.1-4.6-3.8-2.6-6.7l16.1,8.4l0,0c0,0,0,0,0,0c0.3,0.1,0.6,0.1,0.8-0.1
			c0,0,0.1-0.1,0.1-0.1l0,0C608.4,333.9,610.8,327.5,600.6,322.2L600.6,322.2z"/>
			<path fill="#FFFFFF" d="M544.4,305.3l-0.4,0.5c0,0,0,0,0,0l-3.5,3.7l-3.5,3.7c-0.2,0.3-0.7,0.3-1,0.2l-6.4-3.3
			c-4.9-2.5-4.1-7,0-12c4.2-5.1,8.4-7.5,13.4-5.4C549.8,295.4,548.7,300.7,544.4,305.3L544.4,305.3z M543.9,316.9
			c0,0,6.9-5.8,9.8-9.7c3.9-5.2,5.4-14.9-5.7-20.7c-11-5.7-19.8-0.3-26.1,7.3c-6.3,7.7-7.9,16.5,3,22.1l8.6,4.4l8,4.1
			c0.3,0.2,0.8,0.1,1-0.2l4.2-4.6c0.2-0.3,0.2-0.6-0.1-0.8l-1.3-0.7l-1.3-0.7c-0.3-0.1-0.3-0.4-0.2-0.6
			C543.9,317,543.9,316.9,543.9,316.9L543.9,316.9z"/>
			<path fill="#FFFFFF" d="M600.7,340.2c-0.1,0.2-0.4,0.3-0.6,0.2c-0.2-0.1-0.3-0.4-0.2-0.6c0.1-0.2,0.4-0.3,0.6-0.2
			C600.7,339.7,600.8,340,600.7,340.2z"/>
			<path fill="#0868AC" d="M467.9,258.9c-5.3,2.8-7.9,8.6-7.9,14.4c0,0.1,0,0.3,0,0.4c0,0.1,0,0.2,0,0.3c0,0.1,0,0.1,0,0.2
			c0,0.1,0,0.2,0,0.3c0,0.2,0,0.3,0,0.5c0,0.1,0,0.2,0,0.3c0,0.2,0,0.4,0,0.5c0,0.1,0,0.2,0,0.2c0,0.2,0.1,0.5,0.1,0.7c0,0,0,0,0,0
			c0,0,0,0.1,0,0.1c0,0.2,0.1,0.4,0.1,0.6c0,0.1,0,0.2,0,0.2c0,0.2,0.1,0.4,0.1,0.5c0,0.1,0,0.1,0,0.2c0.1,0.2,0.1,0.5,0.2,0.7
			c0,0,0,0,0,0c0,0,0,0,0,0c0.1,0.2,0.1,0.5,0.2,0.7c0,0.1,0,0.1,0.1,0.2c0.1,0.2,0.1,0.4,0.2,0.5c0,0.1,0,0.1,0.1,0.2
			c0.1,0.2,0.2,0.5,0.3,0.7c0,0,0,0,0,0c0,0,0,0.1,0,0.1c0.1,0.2,0.2,0.4,0.2,0.6c0,0.1,0.1,0.2,0.1,0.2c0.1,0.2,0.1,0.3,0.2,0.5
			c0,0.1,0.1,0.2,0.1,0.3c0.1,0.2,0.2,0.3,0.3,0.5c0,0.1,0.1,0.1,0.1,0.2c0,0,0,0,0,0.1c0.1,0.2,0.2,0.3,0.3,0.5
			c0,0.1,0.1,0.1,0.1,0.2c0.1,0.2,0.3,0.5,0.4,0.7c0,0.1,0.1,0.1,0.1,0.2c0.1,0.2,0.2,0.3,0.3,0.5c0.1,0.1,0.1,0.2,0.2,0.3
			c0.1,0.1,0.2,0.2,0.2,0.3c0,0,0,0.1,0.1,0.1c0,0,0.1,0.1,0.1,0.1c0.1,0.2,0.3,0.4,0.4,0.5c0,0,0.1,0.1,0.1,0.1
			c0.2,0.2,0.3,0.4,0.5,0.6c0,0,0.1,0.1,0.1,0.1c0.2,0.2,0.3,0.4,0.5,0.5c0,0,0,0,0.1,0.1c0.2,0.2,0.4,0.4,0.5,0.6
			c0,0,0.1,0.1,0.1,0.1c0.2,0.2,0.4,0.4,0.6,0.5c13.2,10.3,23.4,1,23.4,1c-6,2.8-13,0.7-18.2-3.8c-0.2-0.2-0.4-0.4-0.6-0.5
			c0,0-0.1-0.1-0.1-0.1c-0.2-0.2-0.4-0.4-0.5-0.5c0,0,0-0.1-0.1-0.1c-0.2-0.2-0.3-0.3-0.5-0.5c0,0-0.1-0.1-0.1-0.1
			c-0.2-0.2-0.3-0.4-0.5-0.6c0,0-0.1-0.1-0.1-0.1c-0.1-0.2-0.3-0.3-0.4-0.5c0,0-0.1-0.1-0.1-0.1c-0.1-0.1-0.2-0.3-0.3-0.4
			c-0.1-0.1-0.1-0.2-0.2-0.3c-0.1-0.2-0.2-0.3-0.3-0.5c0-0.1-0.1-0.1-0.1-0.2c-0.1-0.2-0.3-0.5-0.4-0.7c0-0.1-0.1-0.1-0.1-0.2
			c-0.1-0.2-0.2-0.3-0.3-0.5c0-0.1-0.1-0.1-0.1-0.2c-0.1-0.2-0.2-0.3-0.3-0.5c0-0.1-0.1-0.2-0.1-0.2c-0.1-0.2-0.2-0.3-0.2-0.5
			c0-0.1-0.1-0.1-0.1-0.2c-0.1-0.2-0.2-0.4-0.3-0.6c0,0,0,0,0-0.1c-0.1-0.2-0.2-0.5-0.3-0.7c0-0.1,0-0.1-0.1-0.2
			c-0.1-0.2-0.1-0.4-0.2-0.5c0-0.1,0-0.1-0.1-0.2c-0.1-0.2-0.1-0.5-0.2-0.7c0,0,0,0,0,0c-0.1-0.2-0.1-0.5-0.2-0.7c0-0.1,0-0.1,0-0.2
			c0-0.2-0.1-0.4-0.1-0.6c0-0.1,0-0.1,0-0.2c0-0.2-0.1-0.5-0.1-0.7c-1-6.3,1.1-13.2,6.4-16.9"/>
			<path fill="#0868AC" d="M479.2,260.1c-3.8,2-5.9,6.3-5.9,10.5c0,0.7,0,1.4,0.1,2.1c0.1,0.6,0.2,1.4,0.4,2c0.1,0.3,0.1,0.5,0.2,0.8
			c0,0.1,0,0.1,0.1,0.2c0.1,0.2,0.2,0.5,0.3,0.7c0,0,0,0,0,0c0,0,0,0,0,0c0.1,0.3,0.2,0.5,0.3,0.8c0,0.1,0.1,0.1,0.1,0.2
			c0.1,0.3,0.2,0.5,0.4,0.8c0,0,0,0,0,0c0.1,0.1,0.1,0.2,0.2,0.3c0,0.1,0.1,0.1,0.1,0.2c0.1,0.2,0.2,0.3,0.3,0.5c0,0,0,0,0,0.1
			c0.1,0.1,0.2,0.3,0.3,0.4c0,0.1,0.1,0.1,0.1,0.1c0.1,0.1,0.1,0.2,0.2,0.3c0,0,0,0,0,0c0.1,0.2,0.3,0.4,0.4,0.6
			c0,0,0.1,0.1,0.1,0.1c0.1,0.1,0.2,0.3,0.4,0.4c0.1,0.1,0.1,0.1,0.2,0.2c0.1,0.1,0.2,0.3,0.4,0.4c0.1,0.1,0.1,0.1,0.2,0.2
			c0.2,0.2,0.3,0.4,0.5,0.5c10.3,7.7,17.4,0.4,17.4,0.4c-4.1,2.2-9.5,1.4-13.7-2.4c-0.2-0.2-0.4-0.3-0.5-0.5
			c-0.1-0.1-0.1-0.1-0.2-0.2c-0.1-0.1-0.2-0.3-0.4-0.4c-0.1-0.1-0.1-0.1-0.2-0.2c-0.1-0.1-0.3-0.3-0.4-0.4c0,0-0.1-0.1-0.1-0.1
			c-0.2-0.2-0.3-0.4-0.4-0.6c-0.1-0.1-0.1-0.2-0.2-0.3c0-0.1-0.1-0.1-0.1-0.2c-0.1-0.1-0.2-0.3-0.3-0.4c0,0,0-0.1-0.1-0.1
			c-0.1-0.2-0.2-0.3-0.3-0.5c0-0.1-0.1-0.1-0.1-0.2c-0.1-0.1-0.1-0.2-0.2-0.3c-0.1-0.3-0.3-0.5-0.4-0.8c0-0.1-0.1-0.1-0.1-0.2
			c-1.3-2.8-1.7-6-1.2-9c0.6-3.1,2.3-6.1,5.1-7.8"/>
			<path fill="#0868AC" d="M488.5,261.5c-2.3,1.2-3.6,3.5-3.8,6.1c-0.2,2.7,0.8,5.5,2.6,7.5c0.1,0.1,0.2,0.2,0.2,0.2
			c0,0,0.1,0.1,0.1,0.1c0.1,0.1,0.2,0.2,0.3,0.3c5.6,4.4,9.6,0.9,10.4,0.5c-2.6,1.4-5.3,0.6-8-1.8c-0.2-0.2-0.4-0.4-0.6-0.6
			c-0.2-0.3-0.5-0.5-0.7-0.8c-0.4-0.5-0.8-1.1-1-1.7c-1.7-3.5-1.3-8.3,2.2-10.6"/>
		</g>
	</g>
	<g>
		<g>
			<path fill="#333333" d="M813.9,307.1c0,0-0.1,0-0.1,0c0,0.1,0.1,0.3,0.1,0.4C813.8,307.4,813.8,307.2,813.9,307.1z"/>
			<path fill="#333333" d="M648.9,339c-86.8,0-158-12.5-164.5-28.4c3.6,25.5,26.2,184.2,49,296.5c136.5,54,247.5,0,247.5,0
			s10.4-89.1,32.7-297C808.3,326.2,736.6,339,648.9,339z"/>
			<path fill="#333333" d="M484,307.1c-0.1,0-0.1-0.1-0.1-0.1s0,0.1,0.1,0.4C483.9,307.4,484,307.3,484,307.1z"/>
		</g>
		<polygon fill="#4D4D4D" points="507.8,380.5 535.2,554.6 549.5,556.7 522.9,384.5 	"/>
	</g>
</svg>
