<?xml version="1.0" encoding="utf-8"?>
<!-- Generator: Adobe Illustrator 17.1.0, SVG Export Plug-In . SVG Version: 6.00 Build 0)  -->
<!DOCTYPE svg PUBLIC "-//W3C//DTD SVG 1.1//EN" "http://www.w3.org/Graphics/SVG/1.1/DTD/svg11.dtd">
<svg version="1.1" id="Layer_1" xmlns="http://www.w3.org/2000/svg" xmlns:xlink="http://www.w3.org/1999/xlink" x="0px" y="0px" viewBox="0 0 1280 800" enable-background="new 0 0 1280 800" xml:space="preserve">
	<path fill="#1A1A1A" d="M707.6,622.1c25.7-25.7,25.7-67.3,0-92.9c-25.7-25.7-67.3-25.7-92.9,0c-23.6,23.6-25.3,60.7-5.8,86.3
	l-78.4,78.4l0,0c-0.7,1.1,0.9,4.9,4.2,8.2c3.3,3.3,7.1,4.9,8.2,4.2l0,0l78.4-78.4C646.8,647.4,684,645.6,707.6,622.1z M623.5,613.2
	c-20.7-20.7-20.7-54.5,0-75.2c20.7-20.7,54.5-20.7,75.2,0s20.7,54.5,0,75.2S644.2,634,623.5,613.2z"/>
	<g id="j6LZDH.tif">
		<g>
			<path d="M153.3,131.9c-2.9-0.4-5.9-1.3-8.8-0.3c-1.2,0.4-2.5,1.4-3.3,2.5c-1.7,2.5-4,3.5-6.9,3.7c-0.1,3.2-0.3,6.4-0.4,9.6
			c-0.3,7.5-0.5,15-0.8,22.5c0,0.5-0.1,1-0.2,1.5c-0.3,1.7,0,2.9,1.9,3.7c1.6,0.7,2.3,2.4,2.2,4.1c0,7.4-0.2,14.9-0.3,22.3
			c-0.1,5.4-0.2,10.7-0.3,16.1c-0.1,6.2-0.1,12.5-0.3,18.7c0,1.6-0.1,3.3-1.3,4.5c-1.7,1.6-3.7,2.6-6.1,2.3
			c-1.5-0.2-3.1-0.1-4.7-0.1c-2.3-0.1-4.6,0-6.9-0.3c-1.3-0.2-2.6-0.6-3.8-1.3c-1.1-0.6-1.7-1.7-1.6-3c0.2-4.1,0.4-8.2,0.6-12.3
			c0.1-2.5,0.2-5,0.4-7.5c0.3-5.2,0.7-10.4,1.1-15.6c0.1-1.5,0.2-3.1,0.3-4.6c0.2-4,0.4-8,0.6-12.1c0.1-2.8,0.3-5.7,0.6-8.5
			c0.2-1.9,1.6-3,3.2-3.8c0.4-0.2,0.8-0.3,1.3-0.5c0.1-4.4,0.3-8.9,0.4-13.3c0.2-4.8,0.3-9.6,0.6-14.4c0.1-2.5,0.4-4.9,0.5-7.4
			c0-0.4-0.4-1-0.8-1.3c-1.8-1.1-3.3-2.2-4-4.5c-0.9-2.9-3.3-4.5-6.3-5.4c-4.3-1.3-8.6-0.8-12.8,0.2c-3.6,0.9-7,2.3-9.9,4.7
			c-1.2,0.9-2.1,2.2-3.4,3.1c1.3-1.9,2.4-3.9,3.9-5.7c1.5-1.9,3-3.6,4.8-5.2c1.8-1.7,3.7-3.4,5.8-4.7c3.2-2.1,6.8-3.3,10.6-4
			c3.5-0.6,7.1-0.4,10.6-0.1c2.1,0.2,4.2,0.2,6.3,0.3c4.9,0.4,9.9,0.7,14.8,1.2c1.5,0.2,2.9,0.9,4.4,1.5c2.1,0.7,4.1,1.5,6.2,2.1
			c1.3,0.4,2.3,0.5,3.2-1.1c0.9-1.7,2.7-2.7,4.8-2.5c2.4,0.2,4.3,1.4,5,3.6c0.4,1.2,0.2,2.7,0.1,4.1c-0.1,2.8-0.2,5.7-0.3,8.5
			c-0.1,1.9-0.8,3.5-2.4,4.5c-1.9,1.3-3.9,1.3-5.9,0.3c-2-0.9-2.8-2.6-2.8-4.8C153.3,132.9,153.3,132.5,153.3,131.9z"/>
		</g>
	</g>
	<g id="j6LZDH.tif_1_">
		<g>
			<path d="M267.5,131.9c-2.9-0.4-5.9-1.3-8.8-0.3c-1.2,0.4-2.5,1.4-3.3,2.5c-1.7,2.5-4,3.5-6.9,3.7c-0.1,3.2-0.3,6.4-0.4,9.6
			c-0.3,7.5-0.5,15-0.8,22.5c0,0.5-0.1,1-0.2,1.5c-0.3,1.7,0,2.9,1.9,3.7c1.6,0.7,2.3,2.4,2.2,4.1c0,7.4-0.2,14.9-0.3,22.3
			c-0.1,5.4-0.2,10.7-0.3,16.1c-0.1,6.2-0.1,12.5-0.3,18.7c0,1.6-0.1,3.3-1.3,4.5c-1.7,1.6-3.7,2.6-6.1,2.3
			c-1.5-0.2-3.1-0.1-4.7-0.1c-2.3-0.1-4.6,0-6.9-0.3c-1.3-0.2-2.6-0.6-3.8-1.3c-1.1-0.6-1.7-1.7-1.6-3c0.2-4.1,0.4-8.2,0.6-12.3
			c0.1-2.5,0.2-5,0.4-7.5c0.3-5.2,0.7-10.4,1.1-15.6c0.1-1.5,0.2-3.1,0.3-4.6c0.2-4,0.4-8,0.6-12.1c0.1-2.8,0.3-5.7,0.6-8.5
			c0.2-1.9,1.6-3,3.2-3.8c0.4-0.2,0.8-0.3,1.3-0.5c0.1-4.4,0.3-8.9,0.4-13.3c0.2-4.8,0.3-9.6,0.6-14.4c0.1-2.5,0.4-4.9,0.5-7.4
			c0-0.4-0.4-1-0.8-1.3c-1.8-1.1-3.3-2.2-4-4.5c-0.9-2.9-3.3-4.5-6.3-5.4c-4.3-1.3-8.6-0.8-12.8,0.2c-3.6,0.9-7,2.3-9.9,4.7
			c-1.2,0.9-2.1,2.2-3.4,3.1c1.3-1.9,2.4-3.9,3.9-5.7c1.5-1.9,3-3.6,4.8-5.2c1.8-1.7,3.7-3.4,5.8-4.7c3.2-2.1,6.8-3.3,10.6-4
			c3.5-0.6,7.1-0.4,10.6-0.1c2.1,0.2,4.2,0.2,6.3,0.3c4.9,0.4,9.9,0.7,14.8,1.2c1.5,0.2,2.9,0.9,4.4,1.5c2.1,0.7,4.1,1.5,6.2,2.1
			c1.3,0.4,2.3,0.5,3.2-1.1c0.9-1.7,2.7-2.7,4.8-2.5c2.4,0.2,4.3,1.4,5,3.6c0.4,1.2,0.2,2.7,0.1,4.1c-0.1,2.8-0.2,5.7-0.3,8.5
			c-0.1,1.9-0.8,3.5-2.4,4.5c-1.9,1.3-3.9,1.3-5.9,0.3c-2-0.9-2.8-2.6-2.8-4.8C267.5,132.9,267.5,132.5,267.5,131.9z"/>
		</g>
	</g>
	<g id="j6LZDH.tif_2_">
		<g>
			<path d="M381.6,131.9c-2.9-0.4-5.9-1.3-8.8-0.3c-1.2,0.4-2.5,1.4-3.3,2.5c-1.7,2.5-4,3.5-6.9,3.7c-0.1,3.2-0.3,6.4-0.4,9.6
			c-0.3,7.5-0.5,15-0.8,22.5c0,0.5-0.1,1-0.2,1.5c-0.3,1.7,0,2.9,1.9,3.7c1.6,0.7,2.3,2.4,2.2,4.1c0,7.4-0.2,14.9-0.3,22.3
			c-0.1,5.4-0.2,10.7-0.3,16.1c-0.1,6.2-0.1,12.5-0.3,18.7c0,1.6-0.1,3.3-1.3,4.5c-1.7,1.6-3.7,2.6-6.1,2.3
			c-1.5-0.2-3.1-0.1-4.7-0.1c-2.3-0.1-4.6,0-6.9-0.3c-1.3-0.2-2.6-0.6-3.8-1.3c-1.1-0.6-1.7-1.7-1.6-3c0.2-4.1,0.4-8.2,0.6-12.3
			c0.1-2.5,0.2-5,0.4-7.5c0.3-5.2,0.7-10.4,1.1-15.6c0.1-1.5,0.2-3.1,0.3-4.6c0.2-4,0.4-8,0.6-12.1c0.1-2.8,0.3-5.7,0.6-8.5
			c0.2-1.9,1.6-3,3.2-3.8c0.4-0.2,0.8-0.3,1.3-0.5c0.1-4.4,0.3-8.9,0.4-13.3c0.2-4.8,0.3-9.6,0.6-14.4c0.1-2.5,0.4-4.9,0.5-7.4
			c0-0.4-0.4-1-0.8-1.3c-1.8-1.1-3.3-2.2-4-4.5c-0.9-2.9-3.3-4.5-6.3-5.4c-4.3-1.3-8.6-0.8-12.8,0.2c-3.6,0.9-7,2.3-9.9,4.7
			c-1.2,0.9-2.1,2.2-3.4,3.1c1.3-1.9,2.4-3.9,3.9-5.7c1.5-1.9,3-3.6,4.8-5.2c1.8-1.7,3.7-3.4,5.8-4.7c3.2-2.1,6.8-3.3,10.6-4
			c3.5-0.6,7.1-0.4,10.6-0.1c2.1,0.2,4.2,0.2,6.3,0.3c4.9,0.4,9.9,0.7,14.8,1.2c1.5,0.2,2.9,0.9,4.4,1.5c2.1,0.7,4.1,1.5,6.2,2.1
			c1.3,0.4,2.3,0.5,3.2-1.1c0.9-1.7,2.7-2.7,4.8-2.5c2.4,0.2,4.3,1.4,5,3.6c0.4,1.2,0.2,2.7,0.1,4.1c-0.1,2.8-0.2,5.7-0.3,8.5
			c-0.1,1.9-0.8,3.5-2.4,4.5c-1.9,1.3-3.9,1.3-5.9,0.3c-2-0.9-2.8-2.6-2.8-4.8C381.6,132.9,381.6,132.5,381.6,131.9z"/>
		</g>
	</g>
	<g id="j6LZDH.tif_3_">
		<g>
			<path d="M495.8,131.9c-2.9-0.4-5.9-1.3-8.8-0.3c-1.2,0.4-2.5,1.4-3.3,2.5c-1.7,2.5-4,3.5-6.9,3.7c-0.1,3.2-0.3,6.4-0.4,9.6
			c-0.3,7.5-0.5,15-0.8,22.5c0,0.5-0.1,1-0.2,1.5c-0.3,1.7,0,2.9,1.9,3.7c1.6,0.7,2.3,2.4,2.2,4.1c0,7.4-0.2,14.9-0.3,22.3
			c-0.1,5.4-0.2,10.7-0.3,16.1c-0.1,6.2-0.1,12.5-0.3,18.7c0,1.6-0.1,3.3-1.3,4.5c-1.7,1.6-3.7,2.6-6.1,2.3
			c-1.5-0.2-3.1-0.1-4.7-0.1c-2.3-0.1-4.6,0-6.9-0.3c-1.3-0.2-2.6-0.6-3.8-1.3c-1.1-0.6-1.7-1.7-1.6-3c0.2-4.1,0.4-8.2,0.6-12.3
			c0.1-2.5,0.2-5,0.4-7.5c0.3-5.2,0.7-10.4,1.1-15.6c0.1-1.5,0.2-3.1,0.3-4.6c0.2-4,0.4-8,0.6-12.1c0.1-2.8,0.3-5.7,0.6-8.5
			c0.2-1.9,1.6-3,3.2-3.8c0.4-0.2,0.8-0.3,1.3-0.5c0.1-4.4,0.3-8.9,0.4-13.3c0.2-4.8,0.3-9.6,0.6-14.4c0.1-2.5,0.4-4.9,0.5-7.4
			c0-0.4-0.4-1-0.8-1.3c-1.8-1.1-3.3-2.2-4-4.5c-0.9-2.9-3.3-4.5-6.3-5.4c-4.3-1.3-8.6-0.8-12.8,0.2c-3.6,0.9-7,2.3-9.9,4.7
			c-1.2,0.9-2.1,2.2-3.4,3.1c1.3-1.9,2.4-3.9,3.9-5.7c1.5-1.9,3-3.6,4.8-5.2c1.8-1.7,3.7-3.4,5.8-4.7c3.2-2.1,6.8-3.3,10.6-4
			c3.5-0.6,7.1-0.4,10.6-0.1c2.1,0.2,4.2,0.2,6.3,0.3c4.9,0.4,9.9,0.7,14.8,1.2c1.5,0.2,2.9,0.9,4.4,1.5c2.1,0.7,4.1,1.5,6.2,2.1
			c1.3,0.4,2.3,0.5,3.2-1.1c0.9-1.7,2.7-2.7,4.8-2.5c2.4,0.2,4.3,1.4,5,3.6c0.4,1.2,0.2,2.7,0.1,4.1c-0.1,2.8-0.2,5.7-0.3,8.5
			c-0.1,1.9-0.8,3.5-2.4,4.5c-1.9,1.3-3.9,1.3-5.9,0.3c-2-0.9-2.8-2.6-2.8-4.8C495.8,132.9,495.8,132.5,495.8,131.9z"/>
		</g>
	</g>
	<g id="j6LZDH.tif_4_">
		<g>
			<path d="M610,131.9c-2.9-0.4-5.9-1.3-8.8-0.3c-1.2,0.4-2.5,1.4-3.3,2.5c-1.7,2.5-4,3.5-6.9,3.7c-0.1,3.2-0.3,6.4-0.4,9.6
			c-0.3,7.5-0.5,15-0.8,22.5c0,0.5-0.1,1-0.2,1.5c-0.3,1.7,0,2.9,1.9,3.7c1.6,0.7,2.3,2.4,2.2,4.1c0,7.4-0.2,14.9-0.3,22.3
			c-0.1,5.4-0.2,10.7-0.3,16.1c-0.1,6.2-0.1,12.5-0.3,18.7c0,1.6-0.1,3.3-1.3,4.5c-1.7,1.6-3.7,2.6-6.1,2.3
			c-1.5-0.2-3.1-0.1-4.7-0.1c-2.3-0.1-4.6,0-6.9-0.3c-1.3-0.2-2.6-0.6-3.8-1.3c-1.1-0.6-1.7-1.7-1.6-3c0.2-4.1,0.4-8.2,0.6-12.3
			c0.1-2.5,0.2-5,0.4-7.5c0.3-5.2,0.7-10.4,1.1-15.6c0.1-1.5,0.2-3.1,0.3-4.6c0.2-4,0.4-8,0.6-12.1c0.1-2.8,0.3-5.7,0.6-8.5
			c0.2-1.9,1.6-3,3.2-3.8c0.4-0.2,0.8-0.3,1.3-0.5c0.1-4.4,0.3-8.9,0.4-13.3c0.2-4.8,0.3-9.6,0.6-14.4c0.1-2.5,0.4-4.9,0.5-7.4
			c0-0.4-0.4-1-0.8-1.3c-1.8-1.1-3.3-2.2-4-4.5c-0.9-2.9-3.3-4.5-6.3-5.4c-4.3-1.3-8.6-0.8-12.8,0.2c-3.6,0.9-7,2.3-9.9,4.7
			c-1.2,0.9-2.1,2.2-3.4,3.1c1.3-1.9,2.4-3.9,3.9-5.7c1.5-1.9,3-3.6,4.8-5.2c1.8-1.7,3.7-3.4,5.8-4.7c3.2-2.1,6.8-3.3,10.6-4
			c3.5-0.6,7.1-0.4,10.6-0.1c2.1,0.2,4.2,0.2,6.3,0.3c4.9,0.4,9.9,0.7,14.8,1.2c1.5,0.2,2.9,0.9,4.4,1.5c2.1,0.7,4.1,1.5,6.2,2.1
			c1.3,0.4,2.3,0.5,3.2-1.1c0.9-1.7,2.7-2.7,4.8-2.5c2.4,0.2,4.3,1.4,5,3.6c0.4,1.2,0.2,2.7,0.1,4.1c-0.1,2.8-0.2,5.7-0.3,8.5
			c-0.1,1.9-0.8,3.5-2.4,4.5c-1.9,1.3-3.9,1.3-5.9,0.3c-2-0.9-2.8-2.6-2.8-4.8C610,132.9,610,132.5,610,131.9z"/>
		</g>
	</g>
	<g id="j6LZDH.tif_9_">
		<g>
			<path d="M729.1,131.9c-2.9-0.4-5.9-1.3-8.8-0.3c-1.2,0.4-2.5,1.4-3.3,2.5c-1.7,2.5-4,3.5-6.9,3.7c-0.1,3.2-0.3,6.4-0.4,9.6
			c-0.3,7.5-0.5,15-0.8,22.5c0,0.5-0.1,1-0.2,1.5c-0.3,1.7,0,2.9,1.9,3.7c1.6,0.7,2.3,2.4,2.2,4.1c0,7.4-0.2,14.9-0.3,22.3
			c-0.1,5.4-0.2,10.7-0.3,16.1c-0.1,6.2-0.1,12.5-0.3,18.7c0,1.6-0.1,3.3-1.3,4.5c-1.7,1.6-3.7,2.6-6.1,2.3
			c-1.5-0.2-3.1-0.1-4.7-0.1c-2.3-0.1-4.6,0-6.9-0.3c-1.3-0.2-2.6-0.6-3.8-1.3c-1.1-0.6-1.7-1.7-1.6-3c0.2-4.1,0.4-8.2,0.6-12.3
			c0.1-2.5,0.2-5,0.4-7.5c0.3-5.2,0.7-10.4,1.1-15.6c0.1-1.5,0.2-3.1,0.3-4.6c0.2-4,0.4-8,0.6-12.1c0.1-2.8,0.3-5.7,0.6-8.5
			c0.2-1.9,1.6-3,3.2-3.8c0.4-0.2,0.8-0.3,1.3-0.5c0.1-4.4,0.3-8.9,0.4-13.3c0.2-4.8,0.3-9.6,0.6-14.4c0.1-2.5,0.4-4.9,0.5-7.4
			c0-0.4-0.4-1-0.8-1.3c-1.8-1.1-3.3-2.2-4-4.5c-0.9-2.9-3.3-4.5-6.3-5.4c-4.3-1.3-8.6-0.8-12.8,0.2c-3.6,0.9-7,2.3-9.9,4.7
			c-1.2,0.9-2.1,2.2-3.4,3.1c1.3-1.9,2.4-3.9,3.9-5.7c1.5-1.9,3-3.6,4.8-5.2c1.8-1.7,3.7-3.4,5.8-4.7c3.2-2.1,6.8-3.3,10.6-4
			c3.5-0.6,7.1-0.4,10.6-0.1c2.1,0.2,4.2,0.2,6.3,0.3c4.9,0.4,9.9,0.7,14.8,1.2c1.5,0.2,2.9,0.9,4.4,1.5c2.1,0.7,4.1,1.5,6.2,2.1
			c1.3,0.4,2.3,0.5,3.2-1.1c0.9-1.7,2.7-2.7,4.8-2.5c2.4,0.2,4.3,1.4,5,3.6c0.4,1.2,0.2,2.7,0.1,4.1c-0.1,2.8-0.2,5.7-0.3,8.5
			c-0.1,1.9-0.8,3.5-2.4,4.5c-1.9,1.3-3.9,1.3-5.9,0.3c-2-0.9-2.8-2.6-2.8-4.8C729.1,132.9,729.1,132.5,729.1,131.9z"/>
		</g>
	</g>
	<g id="j6LZDH.tif_8_">
		<g>
			<path d="M843.2,131.9c-2.9-0.4-5.9-1.3-8.8-0.3c-1.2,0.4-2.5,1.4-3.3,2.5c-1.7,2.5-4,3.5-6.9,3.7c-0.1,3.2-0.3,6.4-0.4,9.6
			c-0.3,7.5-0.5,15-0.8,22.5c0,0.5-0.1,1-0.2,1.5c-0.3,1.7,0,2.9,1.9,3.7c1.6,0.7,2.3,2.4,2.2,4.1c0,7.4-0.2,14.9-0.3,22.3
			c-0.1,5.4-0.2,10.7-0.3,16.1c-0.1,6.2-0.1,12.5-0.3,18.7c0,1.6-0.1,3.3-1.3,4.5c-1.7,1.6-3.7,2.6-6.1,2.3
			c-1.5-0.2-3.1-0.1-4.7-0.1c-2.3-0.1-4.6,0-6.9-0.3c-1.3-0.2-2.6-0.6-3.8-1.3c-1.1-0.6-1.7-1.7-1.6-3c0.2-4.1,0.4-8.2,0.6-12.3
			c0.1-2.5,0.2-5,0.4-7.5c0.3-5.2,0.7-10.4,1.1-15.6c0.1-1.5,0.2-3.1,0.3-4.6c0.2-4,0.4-8,0.6-12.1c0.1-2.8,0.3-5.7,0.6-8.5
			c0.2-1.9,1.6-3,3.2-3.8c0.4-0.2,0.8-0.3,1.3-0.5c0.1-4.4,0.3-8.9,0.4-13.3c0.2-4.8,0.3-9.6,0.6-14.4c0.1-2.5,0.4-4.9,0.5-7.4
			c0-0.4-0.4-1-0.8-1.3c-1.8-1.1-3.3-2.2-4-4.5c-0.9-2.9-3.3-4.5-6.3-5.4c-4.3-1.3-8.6-0.8-12.8,0.2c-3.6,0.9-7,2.3-9.9,4.7
			c-1.2,0.9-2.1,2.2-3.4,3.1c1.3-1.9,2.4-3.9,3.9-5.7c1.5-1.9,3-3.6,4.8-5.2c1.8-1.7,3.7-3.4,5.8-4.7c3.2-2.1,6.8-3.3,10.6-4
			c3.5-0.6,7.1-0.4,10.6-0.1c2.1,0.2,4.2,0.2,6.3,0.3c4.9,0.4,9.9,0.7,14.8,1.2c1.5,0.2,2.9,0.9,4.4,1.5c2.1,0.7,4.1,1.5,6.2,2.1
			c1.3,0.4,2.3,0.5,3.2-1.1c0.9-1.7,2.7-2.7,4.8-2.5c2.4,0.2,4.3,1.4,5,3.6c0.4,1.2,0.2,2.7,0.1,4.1c-0.1,2.8-0.2,5.7-0.3,8.5
			c-0.1,1.9-0.8,3.5-2.4,4.5c-1.9,1.3-3.9,1.3-5.9,0.3c-2-0.9-2.8-2.6-2.8-4.8C843.2,132.9,843.2,132.5,843.2,131.9z"/>
		</g>
	</g>
	<g id="j6LZDH.tif_7_">
		<g>
			<path d="M957.4,131.9c-2.9-0.4-5.9-1.3-8.8-0.3c-1.2,0.4-2.5,1.4-3.3,2.5c-1.7,2.5-4,3.5-6.9,3.7c-0.1,3.2-0.3,6.4-0.4,9.6
			c-0.3,7.5-0.5,15-0.8,22.5c0,0.5-0.1,1-0.2,1.5c-0.3,1.7,0,2.9,1.9,3.7c1.6,0.7,2.3,2.4,2.2,4.1c0,7.4-0.2,14.9-0.3,22.3
			c-0.1,5.4-0.2,10.7-0.3,16.1c-0.1,6.2-0.1,12.5-0.3,18.7c0,1.6-0.1,3.3-1.3,4.5c-1.7,1.6-3.7,2.6-6.1,2.3
			c-1.5-0.2-3.1-0.1-4.7-0.1c-2.3-0.1-4.6,0-6.9-0.3c-1.3-0.2-2.6-0.6-3.8-1.3c-1.1-0.6-1.7-1.7-1.6-3c0.2-4.1,0.4-8.2,0.6-12.3
			c0.1-2.5,0.2-5,0.4-7.5c0.3-5.2,0.7-10.4,1.1-15.6c0.1-1.5,0.2-3.1,0.3-4.6c0.2-4,0.4-8,0.6-12.1c0.1-2.8,0.3-5.7,0.6-8.5
			c0.2-1.9,1.6-3,3.2-3.8c0.4-0.2,0.8-0.3,1.3-0.5c0.1-4.4,0.3-8.9,0.4-13.3c0.2-4.8,0.3-9.6,0.6-14.4c0.1-2.5,0.4-4.9,0.5-7.4
			c0-0.4-0.4-1-0.8-1.3c-1.8-1.1-3.3-2.2-4-4.5c-0.9-2.9-3.3-4.5-6.3-5.4c-4.3-1.3-8.6-0.8-12.8,0.2c-3.6,0.9-7,2.3-9.9,4.7
			c-1.2,0.9-2.1,2.2-3.4,3.1c1.3-1.9,2.4-3.9,3.9-5.7c1.5-1.9,3-3.6,4.8-5.2c1.8-1.7,3.7-3.4,5.8-4.7c3.2-2.1,6.8-3.3,10.6-4
			c3.5-0.6,7.1-0.4,10.6-0.1c2.1,0.2,4.2,0.2,6.3,0.3c4.9,0.4,9.9,0.7,14.8,1.2c1.5,0.2,2.9,0.9,4.4,1.5c2.1,0.7,4.1,1.5,6.2,2.1
			c1.3,0.4,2.3,0.5,3.2-1.1c0.9-1.7,2.7-2.7,4.8-2.5c2.4,0.2,4.3,1.4,5,3.6c0.4,1.2,0.2,2.7,0.1,4.1c-0.1,2.8-0.2,5.7-0.3,8.5
			c-0.1,1.9-0.8,3.5-2.4,4.5c-1.9,1.3-3.9,1.3-5.9,0.3c-2-0.9-2.8-2.6-2.8-4.8C957.4,132.9,957.4,132.5,957.4,131.9z"/>
		</g>
	</g>
	<g id="j6LZDH.tif_6_">
		<g>
			<path d="M1071.6,131.9c-2.9-0.4-5.9-1.3-8.8-0.3c-1.2,0.4-2.5,1.4-3.3,2.5c-1.7,2.5-4,3.5-6.9,3.7c-0.1,3.2-0.3,6.4-0.4,9.6
			c-0.3,7.5-0.5,15-0.8,22.5c0,0.5-0.1,1-0.2,1.5c-0.3,1.7,0,2.9,1.9,3.7c1.6,0.7,2.3,2.4,2.2,4.1c0,7.4-0.2,14.9-0.3,22.3
			c-0.1,5.4-0.2,10.7-0.3,16.1c-0.1,6.2-0.1,12.5-0.3,18.7c0,1.6-0.1,3.3-1.3,4.5c-1.7,1.6-3.7,2.6-6.1,2.3
			c-1.5-0.2-3.1-0.1-4.7-0.1c-2.3-0.1-4.6,0-6.9-0.3c-1.3-0.2-2.6-0.6-3.8-1.3c-1.1-0.6-1.7-1.7-1.6-3c0.2-4.1,0.4-8.2,0.6-12.3
			c0.1-2.5,0.2-5,0.4-7.5c0.3-5.2,0.7-10.4,1.1-15.6c0.1-1.5,0.2-3.1,0.3-4.6c0.2-4,0.4-8,0.6-12.1c0.1-2.8,0.3-5.7,0.6-8.5
			c0.2-1.9,1.6-3,3.2-3.8c0.4-0.2,0.8-0.3,1.3-0.5c0.1-4.4,0.3-8.9,0.4-13.3c0.2-4.8,0.3-9.6,0.6-14.4c0.1-2.5,0.4-4.9,0.5-7.4
			c0-0.4-0.4-1-0.8-1.3c-1.8-1.1-3.3-2.2-4-4.5c-0.9-2.9-3.3-4.5-6.3-5.4c-4.3-1.3-8.6-0.8-12.8,0.2c-3.6,0.9-7,2.3-9.9,4.7
			c-1.2,0.9-2.1,2.2-3.4,3.1c1.3-1.9,2.4-3.9,3.9-5.7c1.5-1.9,3-3.6,4.8-5.2c1.8-1.7,3.7-3.4,5.8-4.7c3.2-2.1,6.8-3.3,10.6-4
			c3.5-0.6,7.1-0.4,10.6-0.1c2.1,0.2,4.2,0.2,6.3,0.3c4.9,0.4,9.9,0.7,14.8,1.2c1.5,0.2,2.9,0.9,4.4,1.5c2.1,0.7,4.1,1.5,6.2,2.1
			c1.3,0.4,2.3,0.5,3.2-1.1c0.9-1.7,2.7-2.7,4.8-2.5c2.4,0.2,4.3,1.4,5,3.6c0.4,1.2,0.2,2.7,0.1,4.1c-0.1,2.8-0.2,5.7-0.3,8.5
			c-0.1,1.9-0.8,3.5-2.4,4.5c-1.9,1.3-3.9,1.3-5.9,0.3c-2-0.9-2.8-2.6-2.8-4.8C1071.6,132.9,1071.6,132.5,1071.6,131.9z"/>
		</g>
	</g>
	<g id="j6LZDH.tif_5_">
		<g>
			<path d="M1185.7,131.9c-2.9-0.4-5.9-1.3-8.8-0.3c-1.2,0.4-2.5,1.4-3.3,2.5c-1.7,2.5-4,3.5-6.9,3.7c-0.1,3.2-0.3,6.4-0.4,9.6
			c-0.3,7.5-0.5,15-0.8,22.5c0,0.5-0.1,1-0.2,1.5c-0.3,1.7,0,2.9,1.9,3.7c1.6,0.7,2.3,2.4,2.2,4.1c0,7.4-0.2,14.9-0.3,22.3
			c-0.1,5.4-0.2,10.7-0.3,16.1c-0.1,6.2-0.1,12.5-0.3,18.7c0,1.6-0.1,3.3-1.3,4.5c-1.7,1.6-3.7,2.6-6.1,2.3
			c-1.5-0.2-3.1-0.1-4.7-0.1c-2.3-0.1-4.6,0-6.9-0.3c-1.3-0.2-2.6-0.6-3.8-1.3c-1.1-0.6-1.7-1.7-1.6-3c0.2-4.1,0.4-8.2,0.6-12.3
			c0.1-2.5,0.2-5,0.4-7.5c0.3-5.2,0.7-10.4,1.1-15.6c0.1-1.5,0.2-3.1,0.3-4.6c0.2-4,0.4-8,0.6-12.1c0.1-2.8,0.3-5.7,0.6-8.5
			c0.2-1.9,1.6-3,3.2-3.8c0.4-0.2,0.8-0.3,1.3-0.5c0.1-4.4,0.3-8.9,0.4-13.3c0.2-4.8,0.3-9.6,0.6-14.4c0.1-2.5,0.4-4.9,0.5-7.4
			c0-0.4-0.4-1-0.8-1.3c-1.8-1.1-3.3-2.2-4-4.5c-0.9-2.9-3.3-4.5-6.3-5.4c-4.3-1.3-8.6-0.8-12.8,0.2c-3.6,0.9-7,2.3-9.9,4.7
			c-1.2,0.9-2.1,2.2-3.4,3.1c1.3-1.9,2.4-3.9,3.9-5.7c1.5-1.9,3-3.6,4.8-5.2c1.8-1.7,3.7-3.4,5.8-4.7c3.2-2.1,6.8-3.3,10.6-4
			c3.5-0.6,7.1-0.4,10.6-0.1c2.1,0.2,4.2,0.2,6.3,0.3c4.9,0.4,9.9,0.7,14.8,1.2c1.5,0.2,2.9,0.9,4.4,1.5c2.1,0.7,4.1,1.5,6.2,2.1
			c1.3,0.4,2.3,0.5,3.2-1.1c0.9-1.7,2.7-2.7,4.8-2.5c2.4,0.2,4.3,1.4,5,3.6c0.4,1.2,0.2,2.7,0.1,4.1c-0.1,2.8-0.2,5.7-0.3,8.5
			c-0.1,1.9-0.8,3.5-2.4,4.5c-1.9,1.3-3.9,1.3-5.9,0.3c-2-0.9-2.8-2.6-2.8-4.8C1185.7,132.9,1185.7,132.5,1185.7,131.9z"/>
		</g>
	</g>
	<g id="j6LZDH.tif_19_">
		<g>
			<path d="M153.3,310.9c-2.9-0.4-5.9-1.3-8.8-0.3c-1.2,0.4-2.5,1.4-3.3,2.5c-1.7,2.5-4,3.5-6.9,3.7c-0.1,3.2-0.3,6.4-0.4,9.6
			c-0.3,7.5-0.5,15-0.8,22.5c0,0.5-0.1,1-0.2,1.5c-0.3,1.7,0,2.9,1.9,3.7c1.6,0.7,2.3,2.4,2.2,4.1c0,7.4-0.2,14.9-0.3,22.3
			c-0.1,5.4-0.2,10.7-0.3,16.1c-0.1,6.2-0.1,12.5-0.3,18.7c0,1.6-0.1,3.3-1.3,4.5c-1.7,1.6-3.7,2.6-6.1,2.3
			c-1.5-0.2-3.1-0.1-4.7-0.1c-2.3-0.1-4.6,0-6.9-0.3c-1.3-0.2-2.6-0.6-3.8-1.3c-1.1-0.6-1.7-1.7-1.6-3c0.2-4.1,0.4-8.2,0.6-12.3
			c0.1-2.5,0.2-5,0.4-7.5c0.3-5.2,0.7-10.4,1.1-15.6c0.1-1.5,0.2-3.1,0.3-4.6c0.2-4,0.4-8,0.6-12.1c0.1-2.8,0.3-5.7,0.6-8.5
			c0.2-1.9,1.6-3,3.2-3.8c0.4-0.2,0.8-0.3,1.3-0.5c0.1-4.4,0.3-8.9,0.4-13.3c0.2-4.8,0.3-9.6,0.6-14.4c0.1-2.5,0.4-4.9,0.5-7.4
			c0-0.4-0.4-1-0.8-1.3c-1.8-1.1-3.3-2.2-4-4.5c-0.9-2.9-3.3-4.5-6.3-5.4c-4.3-1.3-8.6-0.8-12.8,0.2c-3.6,0.9-7,2.3-9.9,4.7
			c-1.2,0.9-2.1,2.2-3.4,3.1c1.3-1.9,2.4-3.9,3.9-5.7c1.5-1.9,3-3.6,4.8-5.2c1.8-1.7,3.7-3.4,5.8-4.7c3.2-2.1,6.8-3.3,10.6-4
			c3.5-0.6,7.1-0.4,10.6-0.1c2.1,0.2,4.2,0.2,6.3,0.3c4.9,0.4,9.9,0.7,14.8,1.2c1.5,0.2,2.9,0.9,4.4,1.5c2.1,0.7,4.1,1.5,6.2,2.1
			c1.3,0.4,2.3,0.5,3.2-1.1c0.9-1.7,2.7-2.7,4.8-2.5c2.4,0.2,4.3,1.4,5,3.6c0.4,1.2,0.2,2.7,0.1,4.1c-0.1,2.8-0.2,5.7-0.3,8.5
			c-0.1,1.9-0.8,3.5-2.4,4.5c-1.9,1.3-3.9,1.3-5.9,0.3c-2-0.9-2.8-2.6-2.8-4.8C153.3,311.9,153.3,311.5,153.3,310.9z"/>
		</g>
	</g>
	<g id="j6LZDH.tif_18_">
		<g>
			<path d="M267.5,310.9c-2.9-0.4-5.9-1.3-8.8-0.3c-1.2,0.4-2.5,1.4-3.3,2.5c-1.7,2.5-4,3.5-6.9,3.7c-0.1,3.2-0.3,6.4-0.4,9.6
			c-0.3,7.5-0.5,15-0.8,22.5c0,0.5-0.1,1-0.2,1.5c-0.3,1.7,0,2.9,1.9,3.7c1.6,0.7,2.3,2.4,2.2,4.1c0,7.4-0.2,14.9-0.3,22.3
			c-0.1,5.4-0.2,10.7-0.3,16.1c-0.1,6.2-0.1,12.5-0.3,18.7c0,1.6-0.1,3.3-1.3,4.5c-1.7,1.6-3.7,2.6-6.1,2.3
			c-1.5-0.2-3.1-0.1-4.7-0.1c-2.3-0.1-4.6,0-6.9-0.3c-1.3-0.2-2.6-0.6-3.8-1.3c-1.1-0.6-1.7-1.7-1.6-3c0.2-4.1,0.4-8.2,0.6-12.3
			c0.1-2.5,0.2-5,0.4-7.5c0.3-5.2,0.7-10.4,1.1-15.6c0.1-1.5,0.2-3.1,0.3-4.6c0.2-4,0.4-8,0.6-12.1c0.1-2.8,0.3-5.7,0.6-8.5
			c0.2-1.9,1.6-3,3.2-3.8c0.4-0.2,0.8-0.3,1.3-0.5c0.1-4.4,0.3-8.9,0.4-13.3c0.2-4.8,0.3-9.6,0.6-14.4c0.1-2.5,0.4-4.9,0.5-7.4
			c0-0.4-0.4-1-0.8-1.3c-1.8-1.1-3.3-2.2-4-4.5c-0.9-2.9-3.3-4.5-6.3-5.4c-4.3-1.3-8.6-0.8-12.8,0.2c-3.6,0.9-7,2.3-9.9,4.7
			c-1.2,0.9-2.1,2.2-3.4,3.1c1.3-1.9,2.4-3.9,3.9-5.7c1.5-1.9,3-3.6,4.8-5.2c1.8-1.7,3.7-3.4,5.8-4.7c3.2-2.1,6.8-3.3,10.6-4
			c3.5-0.6,7.1-0.4,10.6-0.1c2.1,0.2,4.2,0.2,6.3,0.3c4.9,0.4,9.9,0.7,14.8,1.2c1.5,0.2,2.9,0.9,4.4,1.5c2.1,0.7,4.1,1.5,6.2,2.1
			c1.3,0.4,2.3,0.5,3.2-1.1c0.9-1.7,2.7-2.7,4.8-2.5c2.4,0.2,4.3,1.4,5,3.6c0.4,1.2,0.2,2.7,0.1,4.1c-0.1,2.8-0.2,5.7-0.3,8.5
			c-0.1,1.9-0.8,3.5-2.4,4.5c-1.9,1.3-3.9,1.3-5.9,0.3c-2-0.9-2.8-2.6-2.8-4.8C267.5,311.9,267.5,311.5,267.5,310.9z"/>
		</g>
	</g>
	<g id="j6LZDH.tif_17_">
		<g>
			<path d="M381.6,310.9c-2.9-0.4-5.9-1.3-8.8-0.3c-1.2,0.4-2.5,1.4-3.3,2.5c-1.7,2.5-4,3.5-6.9,3.7c-0.1,3.2-0.3,6.4-0.4,9.6
			c-0.3,7.5-0.5,15-0.8,22.5c0,0.5-0.1,1-0.2,1.5c-0.3,1.7,0,2.9,1.9,3.7c1.6,0.7,2.3,2.4,2.2,4.1c0,7.4-0.2,14.9-0.3,22.3
			c-0.1,5.4-0.2,10.7-0.3,16.1c-0.1,6.2-0.1,12.5-0.3,18.7c0,1.6-0.1,3.3-1.3,4.5c-1.7,1.6-3.7,2.6-6.1,2.3
			c-1.5-0.2-3.1-0.1-4.7-0.1c-2.3-0.1-4.6,0-6.9-0.3c-1.3-0.2-2.6-0.6-3.8-1.3c-1.1-0.6-1.7-1.7-1.6-3c0.2-4.1,0.4-8.2,0.6-12.3
			c0.1-2.5,0.2-5,0.4-7.5c0.3-5.2,0.7-10.4,1.1-15.6c0.1-1.5,0.2-3.1,0.3-4.6c0.2-4,0.4-8,0.6-12.1c0.1-2.8,0.3-5.7,0.6-8.5
			c0.2-1.9,1.6-3,3.2-3.8c0.4-0.2,0.8-0.3,1.3-0.5c0.1-4.4,0.3-8.9,0.4-13.3c0.2-4.8,0.3-9.6,0.6-14.4c0.1-2.5,0.4-4.9,0.5-7.4
			c0-0.4-0.4-1-0.8-1.3c-1.8-1.1-3.3-2.2-4-4.5c-0.9-2.9-3.3-4.5-6.3-5.4c-4.3-1.3-8.6-0.8-12.8,0.2c-3.6,0.9-7,2.3-9.9,4.7
			c-1.2,0.9-2.1,2.2-3.4,3.1c1.3-1.9,2.4-3.9,3.9-5.7c1.5-1.9,3-3.6,4.8-5.2c1.8-1.7,3.7-3.4,5.8-4.7c3.2-2.1,6.8-3.3,10.6-4
			c3.5-0.6,7.1-0.4,10.6-0.1c2.1,0.2,4.2,0.2,6.3,0.3c4.9,0.4,9.9,0.7,14.8,1.2c1.5,0.2,2.9,0.9,4.4,1.5c2.1,0.7,4.1,1.5,6.2,2.1
			c1.3,0.4,2.3,0.5,3.2-1.1c0.9-1.7,2.7-2.7,4.8-2.5c2.4,0.2,4.3,1.4,5,3.6c0.4,1.2,0.2,2.7,0.1,4.1c-0.1,2.8-0.2,5.7-0.3,8.5
			c-0.1,1.9-0.8,3.5-2.4,4.5c-1.9,1.3-3.9,1.3-5.9,0.3c-2-0.9-2.8-2.6-2.8-4.8C381.6,311.9,381.6,311.5,381.6,310.9z"/>
		</g>
	</g>
	<g id="j6LZDH.tif_16_">
		<g>
			<path d="M495.8,310.9c-2.9-0.4-5.9-1.3-8.8-0.3c-1.2,0.4-2.5,1.4-3.3,2.5c-1.7,2.5-4,3.5-6.9,3.7c-0.1,3.2-0.3,6.4-0.4,9.6
			c-0.3,7.5-0.5,15-0.8,22.5c0,0.5-0.1,1-0.2,1.5c-0.3,1.7,0,2.9,1.9,3.7c1.6,0.7,2.3,2.4,2.2,4.1c0,7.4-0.2,14.9-0.3,22.3
			c-0.1,5.4-0.2,10.7-0.3,16.1c-0.1,6.2-0.1,12.5-0.3,18.7c0,1.6-0.1,3.3-1.3,4.5c-1.7,1.6-3.7,2.6-6.1,2.3
			c-1.5-0.2-3.1-0.1-4.7-0.1c-2.3-0.1-4.6,0-6.9-0.3c-1.3-0.2-2.6-0.6-3.8-1.3c-1.1-0.6-1.7-1.7-1.6-3c0.2-4.1,0.4-8.2,0.6-12.3
			c0.1-2.5,0.2-5,0.4-7.5c0.3-5.2,0.7-10.4,1.1-15.6c0.1-1.5,0.2-3.1,0.3-4.6c0.2-4,0.4-8,0.6-12.1c0.1-2.8,0.3-5.7,0.6-8.5
			c0.2-1.9,1.6-3,3.2-3.8c0.4-0.2,0.8-0.3,1.3-0.5c0.1-4.4,0.3-8.9,0.4-13.3c0.2-4.8,0.3-9.6,0.6-14.4c0.1-2.5,0.4-4.9,0.5-7.4
			c0-0.4-0.4-1-0.8-1.3c-1.8-1.1-3.3-2.2-4-4.5c-0.9-2.9-3.3-4.5-6.3-5.4c-4.3-1.3-8.6-0.8-12.8,0.2c-3.6,0.9-7,2.3-9.9,4.7
			c-1.2,0.9-2.1,2.2-3.4,3.1c1.3-1.9,2.4-3.9,3.9-5.7c1.5-1.9,3-3.6,4.8-5.2c1.8-1.7,3.7-3.4,5.8-4.7c3.2-2.1,6.8-3.3,10.6-4
			c3.5-0.6,7.1-0.4,10.6-0.1c2.1,0.2,4.2,0.2,6.3,0.3c4.9,0.4,9.9,0.7,14.8,1.2c1.5,0.2,2.9,0.9,4.4,1.5c2.1,0.7,4.1,1.5,6.2,2.1
			c1.3,0.4,2.3,0.5,3.2-1.1c0.9-1.7,2.7-2.7,4.8-2.5c2.4,0.2,4.3,1.4,5,3.6c0.4,1.2,0.2,2.7,0.1,4.1c-0.1,2.8-0.2,5.7-0.3,8.5
			c-0.1,1.9-0.8,3.5-2.4,4.5c-1.9,1.3-3.9,1.3-5.9,0.3c-2-0.9-2.8-2.6-2.8-4.8C495.8,311.9,495.8,311.5,495.8,310.9z"/>
		</g>
	</g>
	<g id="j6LZDH.tif_15_">
		<g>
			<path d="M610,310.9c-2.9-0.4-5.9-1.3-8.8-0.3c-1.2,0.4-2.5,1.4-3.3,2.5c-1.7,2.5-4,3.5-6.9,3.7c-0.1,3.2-0.3,6.4-0.4,9.6
			c-0.3,7.5-0.5,15-0.8,22.5c0,0.5-0.1,1-0.2,1.5c-0.3,1.7,0,2.9,1.9,3.7c1.6,0.7,2.3,2.4,2.2,4.1c0,7.4-0.2,14.9-0.3,22.3
			c-0.1,5.4-0.2,10.7-0.3,16.1c-0.1,6.2-0.1,12.5-0.3,18.7c0,1.6-0.1,3.3-1.3,4.5c-1.7,1.6-3.7,2.6-6.1,2.3
			c-1.5-0.2-3.1-0.1-4.7-0.1c-2.3-0.1-4.6,0-6.9-0.3c-1.3-0.2-2.6-0.6-3.8-1.3c-1.1-0.6-1.7-1.7-1.6-3c0.2-4.1,0.4-8.2,0.6-12.3
			c0.1-2.5,0.2-5,0.4-7.5c0.3-5.2,0.7-10.4,1.1-15.6c0.1-1.5,0.2-3.1,0.3-4.6c0.2-4,0.4-8,0.6-12.1c0.1-2.8,0.3-5.7,0.6-8.5
			c0.2-1.9,1.6-3,3.2-3.8c0.4-0.2,0.8-0.3,1.3-0.5c0.1-4.4,0.3-8.9,0.4-13.3c0.2-4.8,0.3-9.6,0.6-14.4c0.1-2.5,0.4-4.9,0.5-7.4
			c0-0.4-0.4-1-0.8-1.3c-1.8-1.1-3.3-2.2-4-4.5c-0.9-2.9-3.3-4.5-6.3-5.4c-4.3-1.3-8.6-0.8-12.8,0.2c-3.6,0.9-7,2.3-9.9,4.7
			c-1.2,0.9-2.1,2.2-3.4,3.1c1.3-1.9,2.4-3.9,3.9-5.7c1.5-1.9,3-3.6,4.8-5.2c1.8-1.7,3.7-3.4,5.8-4.7c3.2-2.1,6.8-3.3,10.6-4
			c3.5-0.6,7.1-0.4,10.6-0.1c2.1,0.2,4.2,0.2,6.3,0.3c4.9,0.4,9.9,0.7,14.8,1.2c1.5,0.2,2.9,0.9,4.4,1.5c2.1,0.7,4.1,1.5,6.2,2.1
			c1.3,0.4,2.3,0.5,3.2-1.1c0.9-1.7,2.7-2.7,4.8-2.5c2.4,0.2,4.3,1.4,5,3.6c0.4,1.2,0.2,2.7,0.1,4.1c-0.1,2.8-0.2,5.7-0.3,8.5
			c-0.1,1.9-0.8,3.5-2.4,4.5c-1.9,1.3-3.9,1.3-5.9,0.3c-2-0.9-2.8-2.6-2.8-4.8C610,311.9,610,311.5,610,310.9z"/>
		</g>
	</g>
	<g id="j6LZDH.tif_14_">
		<g>
			<path d="M729.1,310.9c-2.9-0.4-5.9-1.3-8.8-0.3c-1.2,0.4-2.5,1.4-3.3,2.5c-1.7,2.5-4,3.5-6.9,3.7c-0.1,3.2-0.3,6.4-0.4,9.6
			c-0.3,7.5-0.5,15-0.8,22.5c0,0.5-0.1,1-0.2,1.5c-0.3,1.7,0,2.9,1.9,3.7c1.6,0.7,2.3,2.4,2.2,4.1c0,7.4-0.2,14.9-0.3,22.3
			c-0.1,5.4-0.2,10.7-0.3,16.1c-0.1,6.2-0.1,12.5-0.3,18.7c0,1.6-0.1,3.3-1.3,4.5c-1.7,1.6-3.7,2.6-6.1,2.3
			c-1.5-0.2-3.1-0.1-4.7-0.1c-2.3-0.1-4.6,0-6.9-0.3c-1.3-0.2-2.6-0.6-3.8-1.3c-1.1-0.6-1.7-1.7-1.6-3c0.2-4.1,0.4-8.2,0.6-12.3
			c0.1-2.5,0.2-5,0.4-7.5c0.3-5.2,0.7-10.4,1.1-15.6c0.1-1.5,0.2-3.1,0.3-4.6c0.2-4,0.4-8,0.6-12.1c0.1-2.8,0.3-5.7,0.6-8.5
			c0.2-1.9,1.6-3,3.2-3.8c0.4-0.2,0.8-0.3,1.3-0.5c0.1-4.4,0.3-8.9,0.4-13.3c0.2-4.8,0.3-9.6,0.6-14.4c0.1-2.5,0.4-4.9,0.5-7.4
			c0-0.4-0.4-1-0.8-1.3c-1.8-1.1-3.3-2.2-4-4.5c-0.9-2.9-3.3-4.5-6.3-5.4c-4.3-1.3-8.6-0.8-12.8,0.2c-3.6,0.9-7,2.3-9.9,4.7
			c-1.2,0.9-2.1,2.2-3.4,3.1c1.3-1.9,2.4-3.9,3.9-5.7c1.5-1.9,3-3.6,4.8-5.2c1.8-1.7,3.7-3.4,5.8-4.7c3.2-2.1,6.8-3.3,10.6-4
			c3.5-0.6,7.1-0.4,10.6-0.1c2.1,0.2,4.2,0.2,6.3,0.3c4.9,0.4,9.9,0.7,14.8,1.2c1.5,0.2,2.9,0.9,4.4,1.5c2.1,0.7,4.1,1.5,6.2,2.1
			c1.3,0.4,2.3,0.5,3.2-1.1c0.9-1.7,2.7-2.7,4.8-2.5c2.4,0.2,4.3,1.4,5,3.6c0.4,1.2,0.2,2.7,0.1,4.1c-0.1,2.8-0.2,5.7-0.3,8.5
			c-0.1,1.9-0.8,3.5-2.4,4.5c-1.9,1.3-3.9,1.3-5.9,0.3c-2-0.9-2.8-2.6-2.8-4.8C729.1,311.9,729.1,311.5,729.1,310.9z"/>
		</g>
	</g>
	<g id="j6LZDH.tif_13_">
		<g>
			<path d="M843.2,310.9c-2.9-0.4-5.9-1.3-8.8-0.3c-1.2,0.4-2.5,1.4-3.3,2.5c-1.7,2.5-4,3.5-6.9,3.7c-0.1,3.2-0.3,6.4-0.4,9.6
			c-0.3,7.5-0.5,15-0.8,22.5c0,0.5-0.1,1-0.2,1.5c-0.3,1.7,0,2.9,1.9,3.7c1.6,0.7,2.3,2.4,2.2,4.1c0,7.4-0.2,14.9-0.3,22.3
			c-0.1,5.4-0.2,10.7-0.3,16.1c-0.1,6.2-0.1,12.5-0.3,18.7c0,1.6-0.1,3.3-1.3,4.5c-1.7,1.6-3.7,2.6-6.1,2.3
			c-1.5-0.2-3.1-0.1-4.7-0.1c-2.3-0.1-4.6,0-6.9-0.3c-1.3-0.2-2.6-0.6-3.8-1.3c-1.1-0.6-1.7-1.7-1.6-3c0.2-4.1,0.4-8.2,0.6-12.3
			c0.1-2.5,0.2-5,0.4-7.5c0.3-5.2,0.7-10.4,1.1-15.6c0.1-1.5,0.2-3.1,0.3-4.6c0.2-4,0.4-8,0.6-12.1c0.1-2.8,0.3-5.7,0.6-8.5
			c0.2-1.9,1.6-3,3.2-3.8c0.4-0.2,0.8-0.3,1.3-0.5c0.1-4.4,0.3-8.9,0.4-13.3c0.2-4.8,0.3-9.6,0.6-14.4c0.1-2.5,0.4-4.9,0.5-7.4
			c0-0.4-0.4-1-0.8-1.3c-1.8-1.1-3.3-2.2-4-4.5c-0.9-2.9-3.3-4.5-6.3-5.4c-4.3-1.3-8.6-0.8-12.8,0.2c-3.6,0.9-7,2.3-9.9,4.7
			c-1.2,0.9-2.1,2.2-3.4,3.1c1.3-1.9,2.4-3.9,3.9-5.7c1.5-1.9,3-3.6,4.8-5.2c1.8-1.7,3.7-3.4,5.8-4.7c3.2-2.1,6.8-3.3,10.6-4
			c3.5-0.6,7.1-0.4,10.6-0.1c2.1,0.2,4.2,0.2,6.3,0.3c4.9,0.4,9.9,0.7,14.8,1.2c1.5,0.2,2.9,0.9,4.4,1.5c2.1,0.7,4.1,1.5,6.2,2.1
			c1.3,0.4,2.3,0.5,3.2-1.1c0.9-1.7,2.7-2.7,4.8-2.5c2.4,0.2,4.3,1.4,5,3.6c0.4,1.2,0.2,2.7,0.1,4.1c-0.1,2.8-0.2,5.7-0.3,8.5
			c-0.1,1.9-0.8,3.5-2.4,4.5c-1.9,1.3-3.9,1.3-5.9,0.3c-2-0.9-2.8-2.6-2.8-4.8C843.2,311.9,843.2,311.5,843.2,310.9z"/>
		</g>
	</g>
	<g id="j6LZDH.tif_12_">
		<g>
			<path d="M957.4,310.9c-2.9-0.4-5.9-1.3-8.8-0.3c-1.2,0.4-2.5,1.4-3.3,2.5c-1.7,2.5-4,3.5-6.9,3.7c-0.1,3.2-0.3,6.4-0.4,9.6
			c-0.3,7.5-0.5,15-0.8,22.5c0,0.5-0.1,1-0.2,1.5c-0.3,1.7,0,2.9,1.9,3.7c1.6,0.7,2.3,2.4,2.2,4.1c0,7.4-0.2,14.9-0.3,22.3
			c-0.1,5.4-0.2,10.7-0.3,16.1c-0.1,6.2-0.1,12.5-0.3,18.7c0,1.6-0.1,3.3-1.3,4.5c-1.7,1.6-3.7,2.6-6.1,2.3
			c-1.5-0.2-3.1-0.1-4.7-0.1c-2.3-0.1-4.6,0-6.9-0.3c-1.3-0.2-2.6-0.6-3.8-1.3c-1.1-0.6-1.7-1.7-1.6-3c0.2-4.1,0.4-8.2,0.6-12.3
			c0.1-2.5,0.2-5,0.4-7.5c0.3-5.2,0.7-10.4,1.1-15.6c0.1-1.5,0.2-3.1,0.3-4.6c0.2-4,0.4-8,0.6-12.1c0.1-2.8,0.3-5.7,0.6-8.5
			c0.2-1.9,1.6-3,3.2-3.8c0.4-0.2,0.8-0.3,1.3-0.5c0.1-4.4,0.3-8.9,0.4-13.3c0.2-4.8,0.3-9.6,0.6-14.4c0.1-2.5,0.4-4.9,0.5-7.4
			c0-0.4-0.4-1-0.8-1.3c-1.8-1.1-3.3-2.2-4-4.5c-0.9-2.9-3.3-4.5-6.3-5.4c-4.3-1.3-8.6-0.8-12.8,0.2c-3.6,0.9-7,2.3-9.9,4.7
			c-1.2,0.9-2.1,2.2-3.4,3.1c1.3-1.9,2.4-3.9,3.9-5.7c1.5-1.9,3-3.6,4.8-5.2c1.8-1.7,3.7-3.4,5.8-4.7c3.2-2.1,6.8-3.3,10.6-4
			c3.5-0.6,7.1-0.4,10.6-0.1c2.1,0.2,4.2,0.2,6.3,0.3c4.9,0.4,9.9,0.7,14.8,1.2c1.5,0.2,2.9,0.9,4.4,1.5c2.1,0.7,4.1,1.5,6.2,2.1
			c1.3,0.4,2.3,0.5,3.2-1.1c0.9-1.7,2.7-2.7,4.8-2.5c2.4,0.2,4.3,1.4,5,3.6c0.4,1.2,0.2,2.7,0.1,4.1c-0.1,2.8-0.2,5.7-0.3,8.5
			c-0.1,1.9-0.8,3.5-2.4,4.5c-1.9,1.3-3.9,1.3-5.9,0.3c-2-0.9-2.8-2.6-2.8-4.8C957.4,311.9,957.4,311.5,957.4,310.9z"/>
		</g>
	</g>
	<g id="j6LZDH.tif_11_">
		<g>
			<path d="M1071.6,310.9c-2.9-0.4-5.9-1.3-8.8-0.3c-1.2,0.4-2.5,1.4-3.3,2.5c-1.7,2.5-4,3.5-6.9,3.7c-0.1,3.2-0.3,6.4-0.4,9.6
			c-0.3,7.5-0.5,15-0.8,22.5c0,0.5-0.1,1-0.2,1.5c-0.3,1.7,0,2.9,1.9,3.7c1.6,0.7,2.3,2.4,2.2,4.1c0,7.4-0.2,14.9-0.3,22.3
			c-0.1,5.4-0.2,10.7-0.3,16.1c-0.1,6.2-0.1,12.5-0.3,18.7c0,1.6-0.1,3.3-1.3,4.5c-1.7,1.6-3.7,2.6-6.1,2.3
			c-1.5-0.2-3.1-0.1-4.7-0.1c-2.3-0.1-4.6,0-6.9-0.3c-1.3-0.2-2.6-0.6-3.8-1.3c-1.1-0.6-1.7-1.7-1.6-3c0.2-4.1,0.4-8.2,0.6-12.3
			c0.1-2.5,0.2-5,0.4-7.5c0.3-5.2,0.7-10.4,1.1-15.6c0.1-1.5,0.2-3.1,0.3-4.6c0.2-4,0.4-8,0.6-12.1c0.1-2.8,0.3-5.7,0.6-8.5
			c0.2-1.9,1.6-3,3.2-3.8c0.4-0.2,0.8-0.3,1.3-0.5c0.1-4.4,0.3-8.9,0.4-13.3c0.2-4.8,0.3-9.6,0.6-14.4c0.1-2.5,0.4-4.9,0.5-7.4
			c0-0.4-0.4-1-0.8-1.3c-1.8-1.1-3.3-2.2-4-4.5c-0.9-2.9-3.3-4.5-6.3-5.4c-4.3-1.3-8.6-0.8-12.8,0.2c-3.6,0.9-7,2.3-9.9,4.7
			c-1.2,0.9-2.1,2.2-3.4,3.1c1.3-1.9,2.4-3.9,3.9-5.7c1.5-1.9,3-3.6,4.8-5.2c1.8-1.7,3.7-3.4,5.8-4.7c3.2-2.1,6.8-3.3,10.6-4
			c3.5-0.6,7.1-0.4,10.6-0.1c2.1,0.2,4.2,0.2,6.3,0.3c4.9,0.4,9.9,0.7,14.8,1.2c1.5,0.2,2.9,0.9,4.4,1.5c2.1,0.7,4.1,1.5,6.2,2.1
			c1.3,0.4,2.3,0.5,3.2-1.1c0.9-1.7,2.7-2.7,4.8-2.5c2.4,0.2,4.3,1.4,5,3.6c0.4,1.2,0.2,2.7,0.1,4.1c-0.1,2.8-0.2,5.7-0.3,8.5
			c-0.1,1.9-0.8,3.5-2.4,4.5c-1.9,1.3-3.9,1.3-5.9,0.3c-2-0.9-2.8-2.6-2.8-4.8C1071.6,311.9,1071.6,311.5,1071.6,310.9z"/>
		</g>
	</g>
	<g id="j6LZDH.tif_10_">
		<g>
			<path d="M1185.7,310.9c-2.9-0.4-5.9-1.3-8.8-0.3c-1.2,0.4-2.5,1.4-3.3,2.5c-1.7,2.5-4,3.5-6.9,3.7c-0.1,3.2-0.3,6.4-0.4,9.6
			c-0.3,7.5-0.5,15-0.8,22.5c0,0.5-0.1,1-0.2,1.5c-0.3,1.7,0,2.9,1.9,3.7c1.6,0.7,2.3,2.4,2.2,4.1c0,7.4-0.2,14.9-0.3,22.3
			c-0.1,5.4-0.2,10.7-0.3,16.1c-0.1,6.2-0.1,12.5-0.3,18.7c0,1.6-0.1,3.3-1.3,4.5c-1.7,1.6-3.7,2.6-6.1,2.3
			c-1.5-0.2-3.1-0.1-4.7-0.1c-2.3-0.1-4.6,0-6.9-0.3c-1.3-0.2-2.6-0.6-3.8-1.3c-1.1-0.6-1.7-1.7-1.6-3c0.2-4.1,0.4-8.2,0.6-12.3
			c0.1-2.5,0.2-5,0.4-7.5c0.3-5.2,0.7-10.4,1.1-15.6c0.1-1.5,0.2-3.1,0.3-4.6c0.2-4,0.4-8,0.6-12.1c0.1-2.8,0.3-5.7,0.6-8.5
			c0.2-1.9,1.6-3,3.2-3.8c0.4-0.2,0.8-0.3,1.3-0.5c0.1-4.4,0.3-8.9,0.4-13.3c0.2-4.8,0.3-9.6,0.6-14.4c0.1-2.5,0.4-4.9,0.5-7.4
			c0-0.4-0.4-1-0.8-1.3c-1.8-1.1-3.3-2.2-4-4.5c-0.9-2.9-3.3-4.5-6.3-5.4c-4.3-1.3-8.6-0.8-12.8,0.2c-3.6,0.9-7,2.3-9.9,4.7
			c-1.2,0.9-2.1,2.2-3.4,3.1c1.3-1.9,2.4-3.9,3.9-5.7c1.5-1.9,3-3.6,4.8-5.2c1.8-1.7,3.7-3.4,5.8-4.7c3.2-2.1,6.8-3.3,10.6-4
			c3.5-0.6,7.1-0.4,10.6-0.1c2.1,0.2,4.2,0.2,6.3,0.3c4.9,0.4,9.9,0.7,14.8,1.2c1.5,0.2,2.9,0.9,4.4,1.5c2.1,0.7,4.1,1.5,6.2,2.1
			c1.3,0.4,2.3,0.5,3.2-1.1c0.9-1.7,2.7-2.7,4.8-2.5c2.4,0.2,4.3,1.4,5,3.6c0.4,1.2,0.2,2.7,0.1,4.1c-0.1,2.8-0.2,5.7-0.3,8.5
			c-0.1,1.9-0.8,3.5-2.4,4.5c-1.9,1.3-3.9,1.3-5.9,0.3c-2-0.9-2.8-2.6-2.8-4.8C1185.7,311.9,1185.7,311.5,1185.7,310.9z"/>
		</g>
	</g>
</svg>
