<?xml version="1.0" encoding="utf-8"?>
<!-- Generator: Adobe Illustrator 17.1.0, SVG Export Plug-In . SVG Version: 6.00 Build 0)  -->
<!DOCTYPE svg PUBLIC "-//W3C//DTD SVG 1.1//EN" "http://www.w3.org/Graphics/SVG/1.1/DTD/svg11.dtd">
<svg version="1.1" id="Layer_1" xmlns="http://www.w3.org/2000/svg" xmlns:xlink="http://www.w3.org/1999/xlink" x="0px" y="0px" viewBox="0 0 1280 800" enable-background="new 0 0 1280 800" xml:space="preserve">
	<g>
		<g id="UyZCBk.tif">
			<g>
				<path d="M827.3,266.4c7.2,0.1,15.4,18.7,17.7,24c0.3-0.7,0.5-0.9,0.3-0.6c6.6,4,13.5,7.5,19.6,12.1c9.6,7.1,19.2,14.4,27.7,22.7
				c3.9,3.8,5.9,10,7.7,15.4c5.1,15.4,7.4,18.4,16.7,30.2c6.8,8.6,13.1,17.8,19.1,27c4.3,6.6,8.6,13.4,11.1,20.7
				c1.5,4.4,2.5,15.2,2.6,19.7c2.5,4,5,7.9,7.5,11.9c2.2,4,4.5,8,5.8,12.3c1.6,5.4,3.6,11.2,2.9,16.5c-1,8.3-2.9,17-6.7,24.3
				c-4.7,8.9-11.1,17.1-17.9,24.6c-7.9,8.7-18,12.6-30,9c-1.2-0.4-2.6,0.2-4,0.4c0.7,2,1.8,3.9,2.2,5.9c1,6.2,2.2,12.4,2.3,18.6
				c0.1,4.6-1.1,9.3-2,13.8c-1.7,8.2-2.7,16.8-5.8,24.5c-7,17.8-16.7,34.3-29.7,48.3c-8.5,9.2-17.9,17.5-30.6,21.5
				c-9.5,3-18,9.3-27.5,11.4c-11.9,2.6-24.4,2.4-36.6,3.5c-2,0.2-4,0.8-5.9,1.2c5,14.3,17.9,18,26.5,29.6c-1.7,0.9-3.3,1.9-5.1,2.8
				c-6.3,3.2-12.7,6.2-18.9,9.6c-5.5,3-8.9-1.3-12.7-3.5c-9.5-5.6-18.9-11.6-28.3-17.5c-6.8-4.2-13.4-11-19.3-16.7
				c-9.5-9.1-18.9-18.3-27.8-27.9c-1.7-6.8-5.5-11.6-11.3-14.4c-19.8-0.8-29.4-2.2-45.8-14.8c-6.5-5-10.8-11.8-10.6-20.6
				c0-0.5-2.6-1.9-3.4-1.5c-12.6,5.1-20.6,15.8-30.5,24.4c-9.8,8.4-22.3,8.6-34.6,4.2c-11.5-4.1-23.4-8.3-35-12
				c-12.6-3.9-27.2-2.1-37.2-13.3c-12.5-14-15.3-15.7-17.9-35.6c-0.2-1.2-2.3-3.1-3.4-3c-13.8,0.7-27.6,2.4-41.4,2.5
				c-8.5,0.1-17.8-1.1-23-8.9c-6.2-9.1-25.5-13.1-34.2-21.1c-9.2-8.5-17.5-18.2-25.9-27.5c-2.2-5.3-5-10.3-8.3-15
				c-2.9-11.2-15.2-32.3-14.4-41.8c0.9-11.8,7.3-23.6,1.3-35c-4.1-7.8-3.6-14.7,2.6-20.7c3.5-3.3,3.3-5.9,1.1-9.8
				c-2.4-4.3,1.5-20.1,8.2-23c21.4-8.9,12.4-26.3,28.8-34c2.7-1.3,2.8-7.1,5.3-9.9c11.2-12.4,37.5-39.3,57-36.1
				c16.6,2.7,26.2-24.4,41.7-26.8c19.2-2.9,46.9-8,62.6-19.9c4.5-3.5,10.3-5.4,15.8-7.5c41-15.3,88.7,0.2,127.3-16.5
				c15.8-6.8,33.7-2.7,49.9,0.5c7.4,1.5,14.8,3.3,22.2,4.9c14.5,3.1,27,3.6,39.3,12.6c2.3,1.7,5.2,3.8,7.7,3.7
				c14.7-0.8,26.4,5.6,37.2,14.4C822,262.3,824.7,264.4,827.3,266.4C827.4,266.4,827.3,266.4,827.3,266.4z"/>
				<path d="M543.1,636.6c-0.1,0-0.2,0-0.2,0C543,636.6,543,636.6,543.1,636.6C543.1,636.7,543.1,636.6,543.1,636.6z"/>
				<path d="M950.1,437.6c0.1-0.1,0.1-0.1,0.2-0.2C950.2,437.4,950.1,437.5,950.1,437.6C950,437.5,950.1,437.6,950.1,437.6z"/>
				<path d="M732.3,704.2C732.2,702.5,732.3,704.2,732.3,704.2C732.3,703.9,732.3,704.2,732.3,704.2z"/>
				<path d="M468.6,600.9c-0.2,0-0.4,0-0.6,0C467.8,601.2,468.5,600.9,468.6,600.9z"/>
				<path d="M844.8,289.8c0.2,0,0.4,0,0.6,0C845.6,289.6,844.9,289.8,844.8,289.8z"/>
				<path d="M828,266.4L828,266.4C827.9,266.4,828,266.4,828,266.4z"/>
				<path d="M423.4,293.2L423.4,293.2L423.4,293.2z"/>
				<path d="M423.5,293.1C423.5,293.1,423.4,293.2,423.5,293.1L423.5,293.1z"/>
			</g>
		</g>
		<g>
			<path fill="#FFFFFF" stroke="#1A1A1A" stroke-width="0.2956" stroke-miterlimit="10" d="M567.5,436.5c0,0,24.7,13.1,28.8,18.9
			c9.2,4.5,11.6,2,13.8,1.6s23.3,0.1,28.8,0.1c5.5,0.1,18.5,0,27.4-1s24.4-1.2,33.7-3.7c9.3-2.5,11.1-3.4,15.3-8.1
			c4.2-4.7,6-11.2,6.7-14.7c0.6-3.5,2-5.9,0.1-8.5c-1.9-2.6-15.7-4.5-28.7-5.2c-13-0.7-50.8-5.1-64.8-2.9s-24-1.8-33.7,2.4
			C585,419.7,567.5,431.3,567.5,436.5z"/>
			<path fill="#BF3413" d="M544,451.5l8.3-40.5c0,0,34.1-21.7,46.4-23.9c12.2-2.2,46.2-3.4,56.2-2.1c10,1.3,37,4.3,51.3,11.2
			c14.3,6.9,34.6,23,49.1,35.2c-4.6,4.5-7,5.2-13.8,5s-5.7-2.4-11.4-2.7c-5.7-0.3-8.9-0.7-8.9-0.7s1.2-3.3,1.3-6.7
			c0-3.3-0.1-6.9-7.4-5.4c-6.9-2.6-5.3-3.2-8.8-3.3c-3.5,0-9.1,1.1-11.4,1c-2.4-0.1-26.6-3.5-31.5-3.6c-4.9-0.1-20.1,1.2-23.7,1.7
			c-3.6,0.6-13.2,0.6-16.6,1.7c-3.4,1.1-8.1,6.1-9.7,6.1s-17.9-4.7-23.8-2.8c-5.9,1.9-27.8,18.8-30.8,22.5
			C555.7,447.9,550.1,453.5,544,451.5z"/>
		</g>
		<g>
			<g>
				<path fill="#FFFFFF" d="M574.3,284.5c0.8,2.8-0.9,5.3-3.2,8.3c-2,2.6-7.3,9.7-7.3,9.7s-0.8,0.9-1.8,1c-2.9,0.6-7.3-5.7-7.6-7.5
				c-0.5-2.7,3.2-6.4,3.2-6.4s3.5-3.6,3.6-4.3c0.1-0.4-5,0.1-9.5,1.1c-18.3,4.4-57.7,27-50.6,49.7c4.6,14.7,29.7,14.2,41.6,11.5
				c13.4-3,26.3-8.7,34.8-21.1c0,0,0.2-0.1,0.4-0.1c1-0.1,1.3,1.3,1.3,1.3s-1.5,2.4-1.5,2.7c0.1,0.7,1.8,0.9,1.9,1.6
				c0,0.2,0,0.5-0.2,0.8c-6.7,15.1-24.2,21.1-38.5,24.3c-17.4,3.8-41.7-2.9-47-21.7c-7.8-27.3,31.3-50.6,52.3-56.6
				C554,276.5,571.9,276.4,574.3,284.5z"/>
				<path fill="#FFFFFF" d="M580.4,350.1c-1.1,0.1-2.5,0.1-2.5-0.7c0-0.2,0-0.4,0.1-0.5c5.2-6.9,10.5-22.8,8.5-26.7
				c-0.7-1.3-4.1-4.7-4.5-7.8c-0.4-3.6,1-7.2,4.4-7.7c3.3-0.4,4.3,1.4,4.5,3.6c0.2,1.9-0.1,4.2,0,5.9c0.1,1.5,0.4,2.1,1.2,2.1
				c0.5-0.1,1.3-0.5,2.3-1.2c3.6-2.4,9-8.2,9.9-8.2c1.4-0.1,3.8,2.1,3.8,3.4c0,0.6-0.3,1.2-0.3,1.2c-2.7,5.4-5.1,14.9-4.8,19.5
				c0.4,4.9,2.3,7.8,4.7,7.7c2.1-0.1,4.3-2.7,6.4-8c0.3-0.7,0.1-1.1,1.4-1.9c0.3-0.2,0.5-0.3,0.6-0.3c0.2,0,0.3,0.2,0.3,0.4
				c0,0.2-0.1,0.5-0.1,0.5c-0.5,5.6-3.9,16-11.7,16.3c-5.6,0.2-7.7-4.8-8.2-10.7c-0.5-5.8,1.3-15.5,1.3-15.5c-0.1-0.1-4,1.5-6.2,1.7
				c-0.5,0.1-1.5,0-1.6,0.1c-1.5,1.3-7.2,21.7-8.2,26.4C581.9,349.8,581.2,350.1,580.4,350.1z"/>
				<path fill="#FFFFFF" d="M637.6,332.2c0-1.6-0.7-3.6-1-5.2c0-0.1,0-0.6,1.3-0.6c3.9,0,4.7,4,4.7,7.4c-0.1,6.9-5.7,13.5-13.2,13.4
				c-10.4-0.1-15.3-8.5-15.7-17.8c-0.5-10.5,5-23.9,16.5-24.8c4.8-0.4,7.7,2.9,7.7,7.4c0,6-13.5,15.5-15.8,20.1
				c-1.6,3.1,4,10.9,7.4,10.9C633.5,343,637.6,338.5,637.6,332.2z M629.9,310.2c-4.8,0.2-8.1,17.9-8.1,17.9
				c0.5,0.3,9.8-11.4,9.7-16.1C631.5,311.1,631.1,310.1,629.9,310.2z"/>
				<path fill="#FFFFFF" d="M670.2,313.3c0.6,0.7,4.6,1.6,4.5,2.8c-0.2,2.9-2.4,12.1-2.9,19.3c-0.4,5.2,0.1,9.3,2.6,9.5
				c2.2,0.2,5.2-3,6.4-3.8c0.5-0.4,1.5-1.5,1.8-1.5c0.4,0,0.4,0.7,0.3,1c-0.5,5.4-5.7,9.8-10.3,9.3c-3.9-0.4-8.1-13.3-8.1-13.3
				c-0.2,0-7.3,11.9-11.2,11.6c-7-0.5-10-7.7-9.8-16.1c0.2-10.8,5.8-26.6,17.7-27.1C666.7,304.7,669,311.7,670.2,313.3z
				 M666.3,316.1c-0.4-1.7-3.4-3.3-5-3.4c-6.8-0.2-11.6,15.6-11.8,23.4c-0.1,4,1.3,7.3,2.9,7.1C661,341.9,667.7,321.9,666.3,316.1z"
				/>
				<path fill="#FFFFFF" d="M694.9,278.1c0.1,0,0.4,0,0.5,0.1c2,1.7,7.9,1.8,7.6,4.1c-0.2,1.4-5.2,13.5-4.9,13.9
				c0.8,1.1,14.1-0.9,15.9-0.7c1.4,0.1,3.3,0.4,3.1,1.2c-0.1,0.7-1.5,0.6-1.9,1.1c-0.9,1.1-1.3,1.9-1.3,1.9
				c-2,0.6-15.4,1.3-18.3,3.8c-4.3,3.7-6.6,23.2-8.2,35c-1,7.8-0.5,15.2,1.7,20.2c0,0-0.7,1.6-1.5,1.2c-6.5-3.1-6.3-20.3-5.4-29.3
				c0.8-8.3,4.7-25.5,4.2-26c-0.3-0.4-4.9,0.2-7.1,0.1c-5.9-0.3-8.2-3.9-7.8-9.4c0.1-0.9,0.5-2.4,1.2-2.4c0.2,0,0.4,0.3,0.7,0.4
				c2.3,1.9,8.9,2.3,14.1,2.6c0.5,0,0.7,0,1.1,0.1c1.5-5.8,2.3-13.6,5-17.5C693.7,278.5,694.3,278.1,694.9,278.1z"/>
				<path fill="#FFFFFF" d="M703.6,311.5c1.9,0.2,4,0,6.8,0c1.2,0,1.2,1,1.2,1c-3.5,10.2-7.2,20.5-8.7,31.3c-0.5,3.6,0.3,5,1.6,5.2
				c2.2,0.4,5.9-3.2,7.6-5.4c0.2-0.3,0.7-0.5,1-0.5c0.3,0.1,0.5,0.3,0.4,0.7c0,0.1,0,0.1,0,0.2c-2.1,5.8-7.1,10.5-11.9,9.7
				c-5.6-1-6.4-8.8-5.3-17.6c1.1-9.1,4.2-19.1,5.9-23.5C702.1,312.7,702.7,311.4,703.6,311.5z M720.7,289.4c-0.6,4-4.7,8.7-8.6,8.3
				c-3.6-0.4-4.8-3-4.5-5.9c0.5-3.9,4.1-8.3,8.7-7.8C720.1,284.4,721.2,286.8,720.7,289.4z"/>
				<path fill="#FFFFFF" d="M738.2,326.1c1.1-5.6-0.1-16.7,1-18.2c0.7-1,6.2-1.3,8-1c2.3,0.4,3,2.5,1.7,8
				c-3,13.2-18.4,43.8-25.9,42.7c-6.8-1-7.9-37.6-4.5-45.2c0.4-0.8,2.2-1.2,3.5-1c2.7,0.4,5.5,2.6,5.2,4.5
				c-1.7,11-2.2,36.1-1.6,36.3C727,352.7,736.4,335.4,738.2,326.1z"/>
				<path fill="#FFFFFF" d="M799,342.6c0,0,0.6-0.3,1-0.2c0.3,0.1,0.4,0.4,0.2,1.3c-0.1,0.5-0.5,1-0.8,1.7c-0.3,1,0.4,1.6,0.1,2.7
				c0,0,0,0.1,0,0.1c-4.8,15.9-19.8,28.1-36.8,22.6c-12.4-4-21.1-16.2-18.2-29.4c2.3-10.9,11.1-26.1,23.4-23.9
				c4.7,0.8,6.7,5.6,5.3,10.6c-2.7,9.6-18.9,15.6-21.8,18.8c-2.9,3.3,1.7,14.6,6.9,15.9C773.3,366.5,788.6,352.9,799,342.6z
				 M765.8,323.8c-4.7-1.1-13.7,18.9-13.7,18.9c0.6,0.5,13.8-11,14.9-15.4C767.6,325.4,767.2,324.1,765.8,323.8z"/>
			</g>
		</g>
		<g>
			<g>
				<path fill="#FFFFFF" d="M496,477.3c1.8,0.6,0.2,4.2,8.5,6.5c27.6,7.6,56.9,7.1,85.7,8.2c9.6,0.4,20.2,1.6,27.3,8.9
				c0,0,0.4,0.6,0.4,1.3c-0.1,2.8-4.7,3.1-6.6,3.7c-1.2,0.4-6,1.5-6,1.5s-1.8-0.1-1.7-0.8c0.1-0.9,1.1-1.2,2.5-2.3c0,0-1.2-0.8-6-1
				c-17.4-0.7-47.5-4.5-52.4-1c-6.3,4.5-13.2,38.7-17.7,58.5c-0.3,1.2-1.5,1.9-2.7,1.6c-0.6-0.2-1.2-0.5-1.4-1.1
				c-0.8-2-4.5-3.3-3.6-6.6c4.7-17.5,20.2-50.9,19.1-52.6c-1.1-1.8-20.6-1.5-30.6-4.1c-8.1-2.1-20.6-9.3-17.4-19.2
				C493.8,477.2,495.1,477,496,477.3z"/>
				<path fill="#FFFFFF" d="M557.9,544.3c0.2,0,0.4,0,0.5-0.2c2-2.6,12.4-15.1,16.2-14.6c1.1,0.1,1.9,1.1,1.9,1.1
				c2.2,0.4,4.4,1.2,4.1,2.9c-1.3,6.7-3.5,13.6-4.2,19.9c-0.5,4.6-0.5,10.1,2.8,10.5c4,0.5,7.9-3.6,9-6c0,0,0.2-0.4,0.6-0.3
				c0.9,0.1,1.1,1.1,1.1,1.5c-0.3,3.5-3.9,7.1-7.4,8.5c-2.3,0.9-4.4,1-6.1,0.8c-10.7-1.5-9.5-14.5-8.8-19.9
				c0.6-4.3,1.6-8.5,2.1-10.9c0.1-0.3,0.1-1.6-0.2-1.6c-0.7-0.1-7.2,7.4-8.6,9.2c-3.1,4.1-5.6,9.9-6.4,14.5
				c-0.5,3.4-0.9,6.1-0.9,6.1c-0.1,0.9-0.5,1.5-1.1,1.4c-0.2,0-0.5-0.2-0.8-0.4c-1.9-1.5-6.7-4.4-6.8-5.1
				c-1.1-4.9,5.5-18.9,8.2-28.3c-0.2,0-0.3,0-0.4-0.1c-0.4-0.1-0.8-0.3-0.9-0.3c-0.7-0.6-0.4-1.2-1.2-1.5c-0.6-0.2-1.1-0.5-1.1-0.5
				c0,0,2.5,0,4.3-0.1c0.4-1.3,0.5-1.9,0.9-3.2c4.4-14.2,12.5-42.9,23.2-45.3c3.3-0.7,6.6,5.5,5.7,12.2
				c-1.8,14.2-17.4,29.3-22.9,36.5c-2.1,2.7-2.7,10.5-3.1,13C557.6,544.2,557.8,544.3,557.9,544.3z M577.3,493.9
				c-6.9,2.1-15.6,33.3-15.6,33.3c0.5,0.3,14.8-18.5,16.5-29.4C578.5,495.5,577.8,493.7,577.3,493.9z"/>
				<path fill="#FFFFFF" d="M588.6,554.8c0.8-9.4,4.4-22.6,6.4-22.4c1.9,0.1,4.1-0.1,6.9-0.2c1.2,0,1.3,0.8,1.3,0.8
				c-2.6,9.3-5.7,18.7-6.4,28.4c-0.2,3.1,0.8,4.5,1.9,4.5c9.8-0.1,13.9-18.1,17.1-25.9c1.8-4.4,3.5-8,5-8c2,0,3.5-1,4.4-1
				s1,4.4,1,8.3c0,7.6-0.1,15.3-0.1,15.3c0.2,0.1,8-19,14.2-23.6c0.3-0.2,0.5-0.3,0.9-0.3c1.2,0,5.2,2,5.3,3.2c0,0.2,0,0.3-0.1,0.5
				c-2.6,5.4-3.4,14.3-3.2,20.2c0.2,5.2,2,10.2,4.5,10.2c1.4,0,3.2-1.7,4.8-6.1c0,0,0.2-0.1,0.5-0.1c0.2,0,0.4,0.1,0.4,0.3
				c0.2,4-2.7,10.2-7.5,10.2c-10.6,0.2-11.7-21.4-11.7-21.4c-0.6-0.3-9.3,18.7-11.1,24.5c-0.2,0.6-0.9,0.9-1.8,0.9
				c-2.6-0.1-5.7-2.6-5.7-2.9c0-0.2,1-6.4,1.9-14.1c0.4-4.1,1.4-11.4,1.5-16c0-0.9-0.2-1.4-0.2-1.4c-4.4,2.8-8.6,31.9-22.3,31.7
				C590,570.3,588,562.7,588.6,554.8z M609.8,511.9c-0.1,3.6-3.5,8.1-7.3,7.9c-3.5-0.2-4.8-2.5-4.6-5.1c0.2-3.5,3.3-7.5,7.5-7.3
				C608.6,507.5,609.9,509.5,609.8,511.9z"/>
				<path fill="#FFFFFF" d="M678.9,527.3c3.5-0.4,5.6,1.5,6,4.6c0.8,5.6-14.7,17-16.3,20.5c-1.8,3.9,14.6,22.4,28.1,20.8
				c4.2-0.5,8.5-2.1,12.6-5c0,0,0.6-0.6,1-0.7c0,0,0,0.1,0,0.1c0.1,0.3-0.9,2.2-1,2.3c-3.6,4.4-1.7,13.5-15.4,14.4
				c-14.3,0.9-25.8-25.9-29.4-28.5c-0.1-0.1-0.6,1-0.6,1c-0.2,1.2-0.5,5.7-0.2,9.4c0.3,3.7,1.1,6.9,1.1,6.9c0.1,1-0.1,1.7-0.7,1.7
				c-0.2,0-0.5-0.1-0.9-0.3c-2.2-1.1-7.5-2.9-7.9-3.6c-2.7-5.2,0.2-21.2,0.8-31.7c-0.1,0-0.1,0-0.2,0c-0.5,0-0.8-0.1-0.9-0.1
				c-0.8-0.4-0.7-1.2-1.6-1.3c-0.6-0.1-1.1-0.2-1.1-0.2c0,0,3.6-0.6,4-1.2c4-5.4,0.2-51.9,11.5-56.9c3.3-1.4,7.7,4.1,8.5,11.3
				c1.8,15.4-10.3,36.2-14.6,45.2c-0.8,1.8-0.3,9.7-0.3,9.7C661.6,545.8,673.4,528,678.9,527.3z M677.4,536.6
				c-0.1-1-0.9-1.5-2.2-1.4c-6,0.7-13,16.3-12.9,16.3C664.1,552.6,677.8,539.4,677.4,536.6z M669.9,491.9
				c-8.3,3.6-8.2,40.5-8.2,40.5c0.6,0.2,11.2-24.4,10-36.6C671.4,493.4,670.4,491.7,669.9,491.9z"/>
				<path fill="#FFFFFF" d="M690.1,553.7c-1.4-10-1-24.6,1-24.9c1.9-0.3,4-1.1,6.6-1.8c1.2-0.3,1.5,0.6,1.5,0.6
				c-0.4,10.3-1.2,20.8,0.5,31.1c0.5,3.3,1.9,4.6,2.9,4.3c9.7-2.5,9.4-22.3,10.6-31c0.7-5,1.6-9.1,3-9.5c2-0.4,3.1-1.9,4-2.1
				c0.9-0.2,2,4.3,2.9,8.4c1.8,8,3.5,16,3.5,16c0.2,0,3.3-20.9,8.3-27.9c0.2-0.3,0.5-0.4,0.8-0.5c1.2-0.3,5.6,0.9,5.9,2.2
				c0.1,0.2,0.1,0.3,0,0.5c-1.3,6.3,0.1,15.7,1.7,21.8c1.4,5.4,4.4,10.2,6.8,9.6c1.4-0.4,2.7-2.5,3.3-7.5c0,0,0.2-0.2,0.4-0.2
				c0.2-0.1,0.4,0,0.4,0.2c1.2,4.1-0.4,11.5-5,12.4c-9.8,2-16.5-19.7-16.5-19.7c-0.5-0.1-4.7,19.5-5,28.1c0,0.7-0.6,1.2-1.6,1.4
				c-2.5,0.5-6.2-1.4-6.2-1.7c0-0.2-0.5-6.9-1.5-15.2c-0.5-4.4-1.3-12.2-2.4-17c-0.2-0.9-0.5-1.4-0.5-1.4
				c-3.7,3.8-0.3,35.3-14.3,38.3C695,569.5,691.3,562.1,690.1,553.7z M700.6,503.9c0.7,3.8-1.5,9.3-5.2,9.9
				c-3.4,0.6-5.3-1.5-5.7-4.3c-0.6-3.7,1.4-8.6,5.6-9.4C698.4,499.6,700.2,501.4,700.6,503.9z"/>
				<path fill="#FFFFFF" d="M753.7,540.6c-3.5-11.9-2.3-29.5,10.6-34.5c4.6-1.8,9.9-0.1,11.9,5.5c0,0.1,0,0.1,0.1,0.2
				c-1.9-0.1-3.5,0.1-4.9,0.6c-10.2,4.1-12.7,19.9-10,29.5c1.1,4.1,4,7.7,5.9,6.9c9.7-4.4,4.3-31.2,5.7-33.7
				c0.7-1.2,10.5-2.8,11.7,0.4c0.1,0.2,0.2,0.5,0.2,0.8c1,22.9,27,76-9.9,84.6c-9.9,2.3-20.6-3.5-22.5-10.7
				c-0.3-1.1,0.1-1.7,0.9-1.9c0.5-0.1,1.7,0.2,1.9,0.6c1.4,2.4,7.1,9.3,13.7,7.8c26.3-6.1,14.8-43.4,9.6-60
				c-0.1-0.2-0.2-0.4-0.3-0.4c-1.3,0.8-3.4,15.5-8.3,16.9C762,555.8,756.3,549.2,753.7,540.6z"/>
			</g>
		</g>
	</g>
	<g>
		<path d="M358.8,83.5c0-0.7,0.6-1.3,1.3-1.3h28.8c0.8,0,1.3,0.6,1.3,1.3v7.6c0,0.7-0.6,1.3-1.3,1.3h-19.3v8.6h15.8
		c0.7,0,1.3,0.6,1.3,1.3v7.6c0,0.8-0.6,1.3-1.3,1.3h-15.8v9.4h19.3c0.8,0,1.3,0.6,1.3,1.3v7.6c0,0.7-0.6,1.3-1.3,1.3h-28.8
		c-0.8,0-1.3-0.6-1.3-1.3V83.5z"/>
		<path d="M396.6,82.8c0-0.7,0.6-1.3,1.3-1.3h1.7l27.7,26.7h0.1V83.5c0-0.7,0.6-1.3,1.3-1.3h8.3c0.7,0,1.3,0.6,1.3,1.3v46.8
		c0,0.7-0.6,1.3-1.3,1.3H436c-0.2,0-0.8-0.2-0.9-0.3l-27.5-27.6h-0.1v25.9c0,0.7-0.6,1.3-1.3,1.3H398c-0.7,0-1.3-0.6-1.3-1.3
		L396.6,82.8z"/>
		<path d="M446.3,83.5c0-0.7,0.6-1.3,1.3-1.3h8.3c0.8,0,1.3,0.6,1.3,1.3v17.5h19.9V83.5c0-0.7,0.6-1.3,1.3-1.3h8.3
		c0.7,0,1.3,0.6,1.3,1.3v46c0,0.7-0.6,1.3-1.3,1.3h-8.3c-0.8,0-1.3-0.6-1.3-1.3v-18.3h-19.9v18.3c0,0.7-0.6,1.3-1.3,1.3h-8.3
		c-0.7,0-1.3-0.6-1.3-1.3V83.5z"/>
		<path d="M493.7,129.1l21.8-46.8c0.2-0.4,0.7-0.8,1.2-0.8h0.7c0.5,0,1,0.3,1.2,0.8l21.8,46.8c0.4,0.9-0.1,1.8-1.2,1.8h-7.7
		c-1.3,0-1.8-0.4-2.4-1.7l-2.5-5.5h-18.9l-2.5,5.6c-0.3,0.8-1.1,1.7-2.5,1.7h-7.6C493.8,130.9,493.2,130,493.7,129.1z M522.2,114.2
		l-5.3-11.5h-0.1l-5.2,11.5H522.2z"/>
		<path d="M545.9,82.8c0-0.7,0.6-1.3,1.3-1.3h1.7l27.7,26.7h0.1V83.5c0-0.7,0.6-1.3,1.3-1.3h8.3c0.7,0,1.3,0.6,1.3,1.3v46.8
		c0,0.7-0.6,1.3-1.3,1.3h-1.1c-0.2,0-0.8-0.2-0.9-0.3l-27.5-27.6h-0.1v25.9c0,0.7-0.6,1.3-1.3,1.3h-8.3c-0.7,0-1.3-0.6-1.3-1.3
		L545.9,82.8z"/>
		<path d="M621.2,81.5c7,0,12.1,2.2,16.8,6.5c0.6,0.6,0.6,1.4,0.1,1.9l-5.4,5.6c-0.5,0.5-1.3,0.5-1.7,0c-2.6-2.3-6-3.5-9.4-3.5
		c-7.9,0-13.6,6.5-13.6,14.3c0,7.7,5.8,14.1,13.7,14.1c3.3,0,6.8-1.2,9.3-3.3c0.5-0.4,1.4-0.4,1.8,0.1l5.4,5.8
		c0.5,0.5,0.4,1.4-0.1,1.9c-4.7,4.6-10.7,6.7-16.9,6.7c-13.9,0-25.1-11.1-25.1-25S607.3,81.5,621.2,81.5z"/>
		<path d="M646.4,83.5c0-0.7,0.6-1.3,1.3-1.3h28.8c0.8,0,1.3,0.6,1.3,1.3v7.6c0,0.7-0.6,1.3-1.3,1.3h-19.3v8.6h15.8
		c0.7,0,1.3,0.6,1.3,1.3v7.6c0,0.8-0.6,1.3-1.3,1.3h-15.8v9.4h19.3c0.8,0,1.3,0.6,1.3,1.3v7.6c0,0.7-0.6,1.3-1.3,1.3h-28.8
		c-0.8,0-1.3-0.6-1.3-1.3V83.5z"/>
		<path d="M699.7,124.3l3.3-5.8c0.6-0.9,1.9-0.8,2.4-0.4c0.3,0.1,5.3,3.8,9.9,3.8c2.8,0,4.8-1.7,4.8-4.2c0-2.9-2.4-5.1-7.2-7
		c-6-2.4-13.5-7-13.5-15.4c0-6.9,5.4-13.8,16.1-13.8c7.2,0,12.8,3.7,14.9,5.2c0.8,0.5,0.7,1.7,0.4,2.2l-3.5,5.4
		c-0.5,0.8-1.7,1.4-2.4,0.9c-0.6-0.3-5.7-4.2-9.9-4.2c-2.5,0-4.4,1.7-4.4,3.5c0,2.6,2.1,4.5,7.6,6.7c5.4,2.2,14,6.4,14,15.8
		c0,7.2-6.2,14.4-16.4,14.4c-9,0-14-3.8-15.6-5.4C699.4,125.5,699.2,125.2,699.7,124.3z"/>
		<path d="M739.2,83.5c0-0.7,0.6-1.3,1.3-1.3h8.3c0.7,0,1.3,0.6,1.3,1.3v46c0,0.7-0.6,1.3-1.3,1.3h-8.3c-0.7,0-1.3-0.6-1.3-1.3V83.5z
		"/>
		<path d="M764.2,82.6c0.1-0.6,0.7-1.1,1.3-1.1h1.1c0.3,0,1,0.3,1.2,0.7l16.1,30h0.1l16.1-30c0.2-0.4,0.8-0.7,1.2-0.7h1.1
		c0.6,0,1.2,0.5,1.3,1.1l7.9,46.7c0.1,0.9-0.5,1.5-1.3,1.5H802c-0.6,0-1.3-0.6-1.3-1.1l-3.1-21.5h-0.1l-11.7,22.5
		c-0.2,0.4-0.8,0.8-1.2,0.8h-1.3c-0.4,0-1-0.3-1.2-0.8l-11.7-22.5h-0.1l-3.1,21.5c-0.1,0.6-0.6,1.1-1.3,1.1h-8.2
		c-0.8,0-1.5-0.6-1.3-1.5L764.2,82.6z"/>
		<path d="M819,83.5c0-0.7,0.6-1.3,1.3-1.3h16.8c8.5,0,15.6,7,15.6,15.4c0,8.6-7,15.6-15.5,15.6h-7.3v16.3c0,0.7-0.6,1.3-1.3,1.3
		h-8.2c-0.8,0-1.3-0.6-1.3-1.3V83.5z M836.4,103.1c3,0,5.5-2.4,5.5-5.5c0-2.9-2.5-5.1-5.5-5.1h-6.6v10.6H836.4z"/>
		<path d="M858.3,83.5c0-0.7,0.6-1.3,1.3-1.3h8.3c0.7,0,1.3,0.6,1.3,1.3v37.1h16.5c0.8,0,1.3,0.6,1.3,1.3v7.6c0,0.7-0.6,1.3-1.3,1.3
		h-26.1c-0.8,0-1.3-0.6-1.3-1.3V83.5z"/>
		<path d="M892.5,83.5c0-0.7,0.6-1.3,1.3-1.3h28.8c0.8,0,1.3,0.6,1.3,1.3v7.6c0,0.7-0.6,1.3-1.3,1.3h-19.3v8.6h15.8
		c0.7,0,1.3,0.6,1.3,1.3v7.6c0,0.8-0.6,1.3-1.3,1.3h-15.8v9.4h19.3c0.8,0,1.3,0.6,1.3,1.3v7.6c0,0.7-0.6,1.3-1.3,1.3h-28.8
		c-0.8,0-1.3-0.6-1.3-1.3V83.5z"/>
	</g>
	<g>
		<path d="M593.3,150.4c-0.2-0.5,0.2-0.9,0.7-0.9h4.5c0.3,0,0.6,0.3,0.7,0.5l3.3,12.9h0.2l5.9-13.4c0.1-0.2,0.3-0.4,0.6-0.4h0.7
		c0.3,0,0.6,0.2,0.6,0.4l5.9,13.4h0.2l3.3-12.9c0.1-0.3,0.4-0.5,0.7-0.5h4.5c0.5,0,0.8,0.4,0.7,0.9l-7.2,25.6
		c-0.1,0.3-0.4,0.5-0.7,0.5H617c-0.3,0-0.5-0.2-0.6-0.4l-7-15.6h-0.1l-6.9,15.6c-0.1,0.2-0.4,0.4-0.6,0.4h-0.6
		c-0.3,0-0.6-0.2-0.7-0.5L593.3,150.4z"/>
		<path d="M629.6,150.2c0-0.4,0.3-0.7,0.7-0.7h4.6c0.4,0,0.7,0.3,0.7,0.7v25.2c0,0.4-0.3,0.7-0.7,0.7h-4.6c-0.4,0-0.7-0.3-0.7-0.7
		V150.2z"/>
		<path d="M645.6,155.1h-5.4c-0.4,0-0.7-0.3-0.7-0.7v-4.1c0-0.4,0.3-0.7,0.7-0.7H657c0.4,0,0.7,0.3,0.7,0.7v4.1
		c0,0.4-0.3,0.7-0.7,0.7h-5.4v20.3c0,0.4-0.3,0.7-0.7,0.7h-4.6c-0.4,0-0.7-0.3-0.7-0.7V155.1z"/>
		<path d="M661.6,150.2c0-0.4,0.3-0.7,0.7-0.7h4.5c0.4,0,0.7,0.3,0.7,0.7v9.6h10.9v-9.6c0-0.4,0.3-0.7,0.7-0.7h4.5
		c0.4,0,0.7,0.3,0.7,0.7v25.2c0,0.4-0.3,0.7-0.7,0.7h-4.5c-0.4,0-0.7-0.3-0.7-0.7v-10h-10.9v10c0,0.4-0.3,0.7-0.7,0.7h-4.5
		c-0.4,0-0.7-0.3-0.7-0.7V150.2z"/>
	</g>
	<g>
		<g>
			<g>
				<path fill="#999999" d="M161.6,218c15.9,7.3,34.5,17.8,50.6,25.2c19.3,8.8,39.8,19.2,58.7,28.8c-0.2,0.4-2.1,0.2-0.6,1.2
				c6,3.8,5.6,4.6,5.1,5.5c-0.2,0.4-4.7-2.4-3.4-1.2c-4.7-2.4-12.7-6.2-8.2-3.4c1.4,1.2,7.9,4,9.1,5.4c1.3,1.4-2.2,0.4-0.9,1.9
				c1.6,0.8,4.7,2.4,6.3,3.2c1.4,1.2-2.2,0.4-0.6,1.2c4.5,2.8,10.9,5.8,17.2,9c-0.2,0.4,1.2,1.6-2.1,0.2
				c-55.3-27.6-112.4-55.6-167.2-84.3c-6.2-3.4-1-1.8,4,0c-1.7-0.6-1.4-1.2-3-1.8c0.3-0.6,4,0,10.4,3c-1.6-0.8-3.1-1.6-4.7-2.4
				c-1.5-1,0.3-0.6,0.5-1c1.6,0.8,3.1,1.6,3.3,1.4c0.1-0.2,0.3-0.6,0.4-0.8c-1.6-0.8-4.7-2.4-6.3-3.2c1.6,0.8,3.1,1.6,3.3,1.4
				c0.1-0.2,0.3-0.6,0.4-0.8c3.3,1.4,7.8,4.2,11,5.6l0.3-0.6c-3-1.8-7.9-4-11-5.6c1.7,0.6,1.8,0.4,2,0c4.8,2.2,9.2,5.2,14.3,7
				c-1.6-0.8-3.1-1.6-4.7-2.4C149.3,211,156.7,215.8,161.6,218z"/>
			</g>
		</g>
	</g>
	<g>
		<g>
			<g>
				<path fill="#999999" d="M98.6,415.4c17.4,1.9,38.4,6.1,55.9,8.1c21.1,2.3,43.8,5.8,64.7,9c-0.1,0.5-1.9,0.9-0.2,1.4
				c6.9,1.8,6.7,2.7,6.6,3.6c-0.1,0.5-5.2-0.8-3.6-0.1c-5.2-0.8-14-1.9-8.8-0.6c1.7,0.7,8.7,1.3,10.4,2.3c1.6,1-2,1.1-0.3,2.1
				c1.7,0.3,5.2,0.8,7,1.1c1.7,0.7-2,1.1-0.2,1.4c5.2,1.3,12.2,2.1,19.2,3.2c-0.1,0.5,1.6,1.2-1.9,0.9
				c-61.2-8.9-124.2-17.6-185.2-27.6c-6.9-1.3-1.6-1.4,3.8-1.3c-1.8,0-1.7-0.7-3.5-0.8c0.1-0.7,3.8-1.3,10.8-0.5
				c-1.7-0.3-3.5-0.5-5.2-0.8c-1.7-0.5,0.1-0.7,0.2-1.1c1.7,0.3,3.5,0.5,3.5,0.3c0-0.2,0.1-0.7,0.1-0.9c-1.7-0.3-5.2-0.8-7-1.1
				c1.7,0.3,3.5,0.5,3.5,0.3c0-0.2,0.1-0.7,0.1-0.9c3.5,0.3,8.7,1.6,12.2,1.9l0.1-0.7c-3.5-0.8-8.7-1.3-12.2-1.9
				c1.8,0,1.8-0.2,1.9-0.6c5.3,0.6,10.4,2.1,15.7,2.2c-1.7-0.3-3.5-0.5-5.2-0.8C84.7,412.6,93.3,414.9,98.6,415.4z"/>
			</g>
		</g>
	</g>
	<g>
		<g>
			<g>
				<path fill="#999999" d="M137.8,640.6c12.2-7,28-13.7,40.3-20.7c14.8-8.4,31.3-16.7,46.5-24.3c0.2,0.4-0.7,1.7,0.6,1.2
				c5.4-1.9,5.8-1.1,6.2-0.3c0.2,0.4-3.8,1.9-2.3,1.7c-3.8,1.9-10,5.3-6,3.8c1.5-0.2,6.3-3.2,7.9-3.2c1.6,0-0.6,1.9,0.9,1.9
				c1.3-0.6,3.8-1.9,5.1-2.5c1.5-0.2-0.6,1.9,0.6,1.2c4-1.5,9-4.2,14-6.8c0.2,0.4,1.7,0.2-0.7,1.7c-44.1,22.6-89.3,46.2-134,67.7
				c-5.2,2.3-1.8-0.4,1.7-2.9c-1.2,0.8-1.5,0.2-2.6,1.1c-0.3-0.6,1.7-2.9,6.7-5.7c-1.3,0.6-2.5,1.3-3.8,1.9c-1.4,0.4-0.3-0.6-0.5-1
				c1.3-0.6,2.5-1.3,2.4-1.5c-0.1-0.2-0.3-0.6-0.4-0.8c-1.3,0.6-3.8,1.9-5.1,2.5c1.3-0.6,2.5-1.3,2.4-1.5c-0.1-0.2-0.3-0.6-0.4-0.8
				c2.4-1.5,6.4-3,8.9-4.4l-0.3-0.6c-2.6,1.1-6.3,3.2-8.9,4.4c1.2-0.8,1.1-1,0.9-1.5c3.7-2.1,7.8-3.4,11.3-5.9
				c-1.3,0.6-2.5,1.3-3.8,1.9C127.4,645,134.1,642.7,137.8,640.6z"/>
			</g>
		</g>
	</g>
	<g>
		<g>
			<g>
				<path fill="#999999" d="M1122.4,225.7c-15.2,8.6-34.7,17.4-50.2,26c-18.5,10.4-38.9,20.9-57.8,30.5c-0.2-0.4,1-1.8-0.6-1.2
				c-6.6,2.6-7,1.8-7.5,0.9c-0.2-0.4,4.7-2.4,2.9-2c4.7-2.4,12.5-6.6,7.6-4.6c-1.8,0.4-7.9,4-9.8,4.2c-1.9,0.2,0.9-2-0.9-1.9
				c-1.6,0.8-4.7,2.4-6.3,3.2c-1.8,0.4,0.9-2-0.6-1.2c-4.9,2-11.1,5.4-17.4,8.6c-0.2-0.4-2,0,1-1.8c54.9-28.5,111.1-58.1,166.5-85.5
				c6.4-3,2.1,0.2-2.3,3.3c1.5-1,1.8-0.4,3.3-1.4c0.3,0.6-2.3,3.3-8.5,6.7c1.6-0.8,3.1-1.6,4.7-2.4c1.7-0.6,0.3,0.6,0.5,1
				c-1.6,0.8-3.1,1.6-3,1.8c0.1,0.2,0.3,0.6,0.4,0.8c1.6-0.8,4.7-2.4,6.3-3.2c-1.6,0.8-3.1,1.6-3,1.8c0.1,0.2,0.3,0.6,0.4,0.8
				c-3,1.8-8,3.8-11,5.6l0.3,0.6c3.3-1.4,7.9-4,11-5.6c-1.5,1-1.4,1.2-1.2,1.6c-4.6,2.6-9.7,4.4-14.1,7.4c1.6-0.8,3.1-1.6,4.7-2.4
				C1135.3,219.9,1127,223.1,1122.4,225.7z"/>
			</g>
		</g>
	</g>
	<g>
		<g>
			<g>
				<path fill="#999999" d="M1182.7,424c-17.2,3.4-38.4,5.6-55.8,9c-20.8,4.1-43.5,7.6-64.5,10.8c-0.1-0.5,1.6-1.4-0.2-1.4
				c-7.1,0.4-7.2-0.5-7.4-1.4c-0.1-0.5,5.2-0.8,3.4-1c5.2-0.8,13.9-2.4,8.6-2c-1.8-0.2-8.7,1.3-10.6,0.9c-1.9-0.4,1.5-1.6-0.3-2.1
				c-1.7,0.3-5.2,0.8-7,1.1c-1.8-0.2,1.5-1.6-0.2-1.4c-5.3,0.3-12.3,1.6-19.2,2.7c-0.1-0.5-1.9-0.6,1.6-1.4
				c61-9.8,123.8-20.3,185-29c7-0.8,1.9,0.9-3.2,2.4c1.7-0.5,1.8,0.2,3.5-0.3c0.1,0.7-3.2,2.4-10.2,3.7c1.7-0.3,3.5-0.5,5.2-0.8
				c1.8,0,0.1,0.7,0.2,1.1c-1.7,0.3-3.5,0.5-3.5,0.8c0,0.2,0.1,0.7,0.1,0.9c1.7-0.3,5.2-0.8,7-1.1c-1.7,0.3-3.5,0.5-3.5,0.8
				c0,0.2,0.1,0.7,0.1,0.9c-3.5,0.8-8.8,1.1-12.2,1.9l0.1,0.7c3.5-0.3,8.7-1.3,12.2-1.9c-1.7,0.5-1.7,0.7-1.6,1.2
				c-5.2,1-10.5,1.1-15.7,2.6c1.7-0.3,3.5-0.5,5.2-0.8C1196.8,422.5,1187.9,423,1182.7,424z"/>
			</g>
		</g>
	</g>
	<g>
		<g>
			<g>
				<path fill="#999999" d="M1138.3,648.3c-12.9-5.6-27.8-14.1-40.7-19.8c-15.6-6.8-32.1-15-47.3-22.6c0.2-0.4,1.8-0.4,0.6-1.2
				c-4.8-3.2-4.3-4-3.9-4.8c0.2-0.4,3.8,1.9,2.7,0.9c3.8,1.9,10.2,4.9,6.6,2.5c-1.1-1-6.3-3.2-7.3-4.4c-1-1.3,1.9-0.6,0.9-1.9
				c-1.3-0.6-3.8-1.9-5.1-2.5c-1.1-1,1.9-0.6,0.6-1.2c-3.6-2.3-8.8-4.6-13.8-7.2c0.2-0.4-0.9-1.5,1.8-0.4
				c44.5,21.7,90.6,43.7,134.6,66.5c5,2.7,0.7,1.7-3.4,0.4c1.4,0.4,1.1,1,2.4,1.5c-0.3,0.6-3.4,0.4-8.5-1.9c1.3,0.6,2.5,1.3,3.8,1.9
				c1.2,0.8-0.3,0.6-0.5,1c-1.3-0.6-2.5-1.3-2.6-1.1c-0.1,0.2-0.3,0.6-0.4,0.8c1.3,0.6,3.8,1.9,5.1,2.5c-1.3-0.6-2.5-1.3-2.6-1.1
				c-0.1,0.2-0.3,0.6-0.4,0.8c-2.6-1.1-6.2-3.4-8.9-4.4l-0.3,0.6c2.4,1.5,6.3,3.2,8.9,4.4c-1.4-0.4-1.5-0.2-1.7,0.2
				c-3.9-1.7-7.4-4.2-11.5-5.5c1.3,0.6,2.5,1.3,3.8,1.9C1148.1,654,1142.2,650,1138.3,648.3z"/>
			</g>
		</g>
	</g>
</svg>
