<?xml version="1.0" encoding="utf-8"?>
<!-- Generator: Adobe Illustrator 17.1.0, SVG Export Plug-In . SVG Version: 6.00 Build 0)  -->
<!DOCTYPE svg PUBLIC "-//W3C//DTD SVG 1.1//EN" "http://www.w3.org/Graphics/SVG/1.1/DTD/svg11.dtd">
<svg version="1.1" id="Layer_1" xmlns="http://www.w3.org/2000/svg" xmlns:xlink="http://www.w3.org/1999/xlink" x="0px" y="0px" viewBox="0 0 1280 800" enable-background="new 0 0 1280 800" xml:space="preserve">
	<g>
		<g>
			<path fill="#FFFFFF" stroke="#1A1A1A" stroke-width="0.1563" stroke-miterlimit="10" d="M172.3,411.4c0,0,13.1,6.9,15.2,10
			c4.9,2.4,6.1,1.1,7.3,0.9s12.3,0,15.2,0.1s9.8,0,14.5-0.5c4.7-0.5,12.9-0.6,17.8-1.9c4.9-1.3,5.9-1.8,8.1-4.3s3.2-5.9,3.5-7.8
			c0.3-1.9,1.1-3.1,0-4.5c-1-1.4-8.3-2.4-15.2-2.8c-6.9-0.4-26.9-2.7-34.3-1.5c-7.4,1.2-12.7-1-17.8,1.3S172.3,408.7,172.3,411.4z"
			/>
			<path fill="#BF3413" d="M159.9,419.4l4.4-21.4c0,0,18.1-11.5,24.5-12.7s24.4-1.8,29.7-1.1c5.3,0.7,19.6,2.3,27.1,5.9
			c7.6,3.6,18.3,12.2,26,18.6c-2.4,2.4-3.7,2.8-7.3,2.6c-3.6-0.1-3-1.3-6-1.4c-3-0.1-4.7-0.4-4.7-0.4s0.6-1.8,0.7-3.5
			c0-1.8-0.1-3.6-3.9-2.9c-3.6-1.4-2.8-1.7-4.7-1.7s-4.8,0.6-6.1,0.5s-14-1.9-16.7-1.9c-2.6,0-10.6,0.6-12.5,0.9
			c-1.9,0.3-7,0.3-8.8,0.9c-1.8,0.6-4.3,3.2-5.1,3.2c-0.8,0-9.5-2.5-12.6-1.5s-14.7,9.9-16.3,11.9S163.1,420.4,159.9,419.4z"/>
		</g>
	</g>
	<g>
		<g>
			<path fill="#FFFFFF" stroke="#1A1A1A" stroke-width="0.2441" stroke-miterlimit="10" d="M684.8,415.9c0,0,20.4,10.8,23.7,15.6
			c7.6,3.7,9.6,1.6,11.4,1.3s19.2,0,23.8,0.1s15.3,0,22.6-0.8s20.2-1,27.9-3c7.7-2,9.1-2.8,12.6-6.7c3.5-3.9,5-9.2,5.5-12.1
			s1.7-4.9,0.1-7c-1.6-2.1-13-3.7-23.7-4.3c-10.7-0.6-41.9-4.2-53.5-2.4s-19.8-1.5-27.8,2S684.9,411.6,684.8,415.9z"/>
			<path fill="#BF3413" d="M665.5,428.3l6.9-33.4c0,0,28.2-17.9,38.3-19.8c10.1-1.8,38.1-2.8,46.4-1.8c8.3,1.1,30.6,3.6,42.4,9.3
			c11.8,5.7,28.6,19,40.5,29.1c-3.8,3.7-5.7,4.3-11.4,4.1c-5.7-0.2-4.7-2-9.4-2.2c-4.7-0.2-7.3-0.6-7.3-0.6s1-2.8,1-5.5
			s-0.1-5.7-6.1-4.5c-5.7-2.2-4.4-2.7-7.3-2.7c-2.9,0-7.5,0.9-9.4,0.8c-2-0.1-21.9-2.9-26-3c-4.1,0-16.6,1-19.5,1.4
			s-10.9,0.5-13.7,1.4s-6.7,5.1-8,5c-1.3,0-14.8-3.9-19.7-2.3c-4.9,1.6-23,15.5-25.4,18.6C675.1,425.3,670.5,429.9,665.5,428.3z"/>
		</g>
	</g>
	<path fill="#1A1A1A" d="M496,400.8l3.1-9.5L410.3,362c16.9-5.3,29.3-23,29.3-44.1c0-25.3-17.8-45.7-39.7-45.7s-39.7,20.5-39.7,45.7
	c0,20.5,11.8,37.9,27.9,43.7l-82,17.4l2.1,9.8l84-17.9l2.3,115.2l-41,109.8l9.4,3.5l38.3-102.7l56.2,94.5l8.6-5.1l-59.5-100.1
	l-2.3-115.4L496,400.8z M400.5,364L400.5,364l-0.1-0.4c0.1,0,0.2,0,0.2,0L400.5,364z"/>
	<path fill="#1A1A1A" d="M1098.6,361.1l6-18L997,307.6c18.3-6.9,31.3-24.3,31.3-50.7c0-35.1-22.6-72.8-50.6-72.8
	c-27.9,0-50.6,37.8-50.6,72.8c0,25.3,11.8,42.2,28.8,49.7l-97.8,20.8l4,18.6l104-22.1c0,0-71.1,123.8-15.1,139.2
	c-6.4,35.8-35.1,141.3-35.1,141.3l17.8,6.6l46.3-124l67.8,114.2l16.3-9.7c0,0-48.5-91.9-63.8-129c48-19.3-15.3-138.7-15.3-138.7
	L1098.6,361.1z M978.5,311.4L978.5,311.4l-0.1-0.5c0.1,0,0.2,0,0.3,0L978.5,311.4z"/>
	<path fill="none" stroke="#FFFFFF" stroke-width="5" stroke-miterlimit="10" d="M382,336c0,0,15.5,21.5,37,0"/>
	<path fill="none" stroke="#FFFFFF" stroke-width="7" stroke-miterlimit="10" d="M950,279.9c0,0,26.7,28.8,55,0"/>
</svg>
