<?xml version="1.0" encoding="utf-8"?>
<!-- Generator: Adobe Illustrator 17.1.0, SVG Export Plug-In . SVG Version: 6.00 Build 0)  -->
<!DOCTYPE svg PUBLIC "-//W3C//DTD SVG 1.1//EN" "http://www.w3.org/Graphics/SVG/1.1/DTD/svg11.dtd">
<svg version="1.1" id="Layer_1" xmlns="http://www.w3.org/2000/svg" xmlns:xlink="http://www.w3.org/1999/xlink" x="0px" y="0px"
	 viewBox="0 0 1280 800" enable-background="new 0 0 1280 800" xml:space="preserve">
	<path fill="#1A1A1A" d="M1121,400.8l3.1-9.5l-88.8-29.3c16.9-5.3,29.3-23,29.3-44.1c0-25.3-17.8-45.7-39.7-45.7
	c-22,0-39.7,20.5-39.7,45.7c0,20.5,11.8,37.9,27.9,43.7l-82,17.4l2.1,9.8l84-17.9l2.3,115.2l-41,109.8l9.4,3.5l38.3-102.7l56.2,94.5
	l8.6-5.1l-59.5-100.1l-2.3-115.4L1121,400.8z M1025.5,364L1025.5,364l-0.1-0.4c0.1,0,0.2,0,0.2,0L1025.5,364z"/>
	<path fill="none" stroke="#FFFFFF" stroke-width="5" stroke-miterlimit="10" d="M1007,336c0,0,15.5,21.5,37,0"/>
	<rect x="137" y="114" fill="#FFFFFF" stroke="#E6E6E6" stroke-width="2" stroke-miterlimit="10" width="683" height="529"/>
	<rect x="245" y="138" fill="#CCCCCC" width="468" height="94"/>
	<rect x="245" y="524" fill="#CCCCCC" width="468" height="94"/>
	<rect x="245" y="240" fill="#CCCCCC" width="320" height="276"/>
	<rect x="574" y="240" fill="#CCCCCC" width="139" height="276"/>
	<g>
		<path fill="#21AD6D" d="M698.5,682c0.3-0.8-0.9-4,1.5-0.6c3.5,5.4,6.5,11.2,9.4,17.1c2.9,5.9,6.1,12.2,9.3,17.6
		c0.1-0.3,0.2-0.7,0.3-1.1c0-1.1,0-2.1,0-3.2c3.6-8.8,7.3-18,11.1-27.3c3.3-9.5,6.7-19,10-28.5l1.2-3.5l0.7-1.8l1.3-3.5
		c0.9-2.4,1.7-4.7,2.6-7.1c-0.4,0.1-0.8,0.1-0.6-0.9c1.3-4,3.9-9.1,6.3-14.5c0.3-0.8,0.6-1.7,0.9-2.5c0.1-0.7-0.2-1-0.3-1.2
		c1.1-2.4,2.2-4.6,3.2-6.6c10.3-27.5,22.2-55,38-83.4c3-6.3,6.1-12.5,9.6-18.1c5.4-8.3,13.5-17.8,19.7-25.2
		c-1.9-0.6,0.5-5.7,2.8-10.5c1.1-2.4,2.2-4.7,2.7-6.4c0.5-1.6,0.2-2.6-1.2-2.3c4.3-4.9,11-12,10.6-13c-0.6-1.6-0.7-4,0.7-7.6
		c1.4-3.7,4.4-8.7,9.7-15.5c2.2-2.5,5.3-5.4,7.6-7.7c0.3-0.3,0.6-0.6,0.9-0.8c0.3-0.3,0.5-0.5,0.7-0.7c0.4-0.4,0.9-0.9,1-1.1
		c0.1-0.1,0.2-0.2,0.3-0.3c0-0.1,0.1-0.1,0.1-0.1l-0.1,0.1l0,0c0.1,0.1,0.3,0.2,0.4,0.3c2.4,1.6,4.5,2.5,6,3
		c-13.8-5.6-3.9-1.6-6.9-2.8v0v0l0.1,0l0,0l0,0l0-0.1c0-0.1,0-0.1,0-0.1c0-0.1,0-0.2,0-0.2c0-0.1-0.1-0.2-0.1-0.2
		c-0.1-0.1-0.3,0-0.5,0.3c-0.1,0.1-0.1,0.1-0.2,0.2l0,0l0,0l0,0c-1.7-0.7,14.6,6,7.7,3.2l0,0l-0.2-0.1c-0.1,0-0.2-0.1-0.4-0.1
		c-0.2-0.1-0.5-0.2-0.8-0.3c-1-0.4-2.2-0.9-3.3-1.6c-0.6-0.3-1.1-0.7-1.7-1.1c-0.3-0.2-0.6-0.4-0.8-0.6l-0.4-0.3l-0.1-0.1
		c0,0,0,0,0,0c0,0,0,0,0,0c-0.1,0-0.2,0.1-0.3,0.1c-0.1,0-0.2,0.1-0.3,0.1c-0.1,0-0.2,0-0.4,0.2c-0.3,0.2-0.6,0.3-0.8,0.4
		c-0.5,0.1-0.7,0-0.5-0.6l-0.5,0.6c-0.1,0.2-0.4,0.5-0.6,0.7l-1.4,1.4l-3.1,3.1c-2.2,2.2-4.4,4.3-6.5,6.5
		c-4.4,4.4-8.9,8.9-13.2,13.5c-8.7,9.2-17,18.8-24.8,28.7c-7.9,9.9-15.4,20.1-22.6,30.6c-7.2,10.5-14,21.3-20.7,32.3
		c-0.8,1.7-2.3,4.5-4.2,8c-1.9,3.6-4.2,8-6.9,13c-5.2,10.1-11.5,22.7-17.7,36.4c-1.6,3.4-3.1,6.9-4.6,10.4c-0.8,1.8-1.5,3.5-2.3,5.3
		l-2.2,5.3c-1.5,3.6-3,7.1-4.4,10.6c-1.4,3.5-2.8,7-4.1,10.5c-0.3,0.9-0.7,1.7-1,2.6l-0.4,1.1l-0.1,0.2c-0.1,0.3-0.2,0.6-0.3,0.9
		c-0.2,0.6-0.4,1.1-0.6,1.7c-0.2,0.4-0.3,0.8-0.4,1.2c-0.1,0.2-0.1,0.4-0.2,0.5l-0.1,0.2l0,0.1c0,0,0-0.1-0.1-0.1
		c-0.5-0.9-0.8-1.6-1-2.1l-0.2-0.2c-0.1-0.2-0.3-0.5-0.4-0.7c-0.2-0.2-0.3-0.4-0.5-0.7c-0.7-0.9-1.3-1.7-2-2.6
		c-0.7-0.9-1.4-1.9-2.2-2.7c-1.5-1.8-3.1-3.5-4.6-5.3c-0.8-0.9-1.5-1.7-2.3-2.6c-0.8-0.8-1.6-1.6-2.4-2.4c-1.6-1.6-3.2-3.1-4.8-4.6
		c-0.8-0.8-1.6-1.4-2.4-2.1c-0.8-0.7-1.6-1.3-2.4-2c-1.6-1.3-3.1-2.5-4.5-3.6c-2.9-1.9-5.7-3.7-8.6-5.5c-1.5-0.8-3-1.7-4.5-2.5
		c-1.5-0.8-3-1.7-4.5-2.4c0.6,0.6,1.1,1.1,1.6,1.7c0.5,0.6,1,1.1,1.5,1.7c0.9,1.1,1.8,2.2,2.6,3.2c-2.7-2.1-5.3-4.2-7.7-5.8
		c-2.4-1.6-4.4-2.8-5.7-3.2c-3.3-1.6-5.3-2.4-6.6-2.6c-1.2-0.2-1.6,0.1-1.4,0.7c0.2,0.6,0.8,1.6,1.7,2.7c0.8,1.2,1.8,2.5,2.6,3.7
		c1.3,1.5,0.7,1.9,0.2,2.4c-0.4,0.6-0.6,1.2,1.5,3.3c-1.7-1.3-3.1-2.1-4.4-3c-1.3-0.9-2.7-1.8-4.5-2.8c-0.2,0.2,0.4,0.6,1.4,1.2
		c1,0.6,2.3,1.4,3.6,2.2c2.6,1.5,4.7,3.1,3,3c-3.1-2.6-7.3-4.5-11-6.6c0.3,1,3.4,2.8,6.1,4.8c2.8,1.9,5.2,3.8,4.6,4.2
		c-0.5-0.3-1.3-0.9-2.2-1.7c-0.9-0.8-2.1-1.7-3.1-2.5c-2.1-1.8-4.4-3.1-5.1-2.6c-0.3,0.2,3.3,2.3,5,3.5c-2.7-1.7-5.3-2.8-7.4-3.7
		c-2.1-0.8-3.8-1.3-4.7-1.4c-2-0.2-1.3,1.1,3.2,4.5c-0.8-0.5-1.8-1-2.7-1.6c-0.5-0.3-1-0.6-1.5-0.9c-0.5-0.3-1-0.6-1.5-0.9
		c-0.5-0.3-1-0.6-1.5-0.9c-0.5-0.3-1-0.5-1.5-0.8c-0.5-0.2-1-0.5-1.5-0.6c-0.5-0.2-1-0.4-1.2-0.4c0,0,0,0,0,0
		c0.2,0.1,0.8,0.4,1.3,0.6c0.5,0.2,1.1,0.6,1.7,0.9c1.2,0.6,2.4,1.3,3.2,1.7c-1-0.5-2.1-1.1-3.1-1.5l-1.5-0.7l-1.4-0.6
		c0.2,0.3,0.5,0.7,0.7,1.1c1.4,0.8,2.9,1.7,4.5,2.5l-2-1l-2-0.9c0.8,1,1.7,1.9,2.8,3c4.3,3.3,8,7.3,10.4,8.9
		c9.8,6.6,19,14.3,27.2,22.9l6,6.6c2,2.2,3.8,4.6,5.7,6.9l1.4,1.7l1.3,1.8l1.3,1.8l2.8,3.7c1,1.2,1.8,2.7,2.8,4.1l1.4,2.1l0.7,1
		c0.2,0.4,0.4,0.8,0.7,1.1L698.5,682z"/>
	</g>
</svg>
