<?xml version="1.0" encoding="utf-8"?>
<!-- Generator: Adobe Illustrator 17.1.0, SVG Export Plug-In . SVG Version: 6.00 Build 0)  -->
<!DOCTYPE svg PUBLIC "-//W3C//DTD SVG 1.1//EN" "http://www.w3.org/Graphics/SVG/1.1/DTD/svg11.dtd">
<svg version="1.1" id="Layer_1" xmlns="http://www.w3.org/2000/svg" xmlns:xlink="http://www.w3.org/1999/xlink" x="0px" y="0px" viewBox="0 0 1280 800" enable-background="new 0 0 1280 800" xml:space="preserve">
	<g>
		<path d="M629.6,151.9v-4.8c0-9.6,15.7-13.8,15.7-21.1c0-3.5-3.6-6.7-8.5-6.7c-8,0-10.1,7.2-13,4.7l-6.9-6.8c-0.9-0.8-0.8-2.2,0-3
		c0,0,8.4-10,23.1-10c12.1,0,23.2,8.4,23.2,19.9c0,15-17.1,15.5-17.1,27.8c0,1.3-1,2.2-2.2,2.2h-12.2
		C630.6,154,629.6,153.1,629.6,151.9z M637.8,164.5c5.9,0,10.9,5,10.9,10.9c0,5.8-5,10.7-10.9,10.7c-5.8,0-10.7-4.9-10.7-10.7
		C627.1,169.5,632,164.5,637.8,164.5z"/>
	</g>
	<g>
		<rect x="398" y="366" fill="#FFFFFF" stroke="#CCCCCC" stroke-width="2" stroke-miterlimit="10" width="483" height="68"/>
		<g>
			<path d="M419.5,410.1c0.2-0.2,0.4-0.5,0.6-0.8c0.4-0.5,0.9-0.9,1.4-0.4c0.3,0.2,3.3,3.1,7,3.1c3.3,0,5.5-2.1,5.5-4.5
			c0-2.8-2.5-4.5-7.2-6.5c-4.5-2-7.2-3.8-7.2-8.5c0-2.8,2.2-7.3,8.8-7.3c4,0,7,2.1,7,2.1c0.2,0.1,0.7,0.6,0.2,1.4
			c-0.2,0.2-0.3,0.5-0.5,0.8c-0.4,0.6-0.8,0.7-1.4,0.4c-0.3-0.2-2.9-1.9-5.4-1.9c-4.4,0-5.7,2.8-5.7,4.5c0,2.8,2.1,4.4,5.6,5.8
			c5.6,2.3,9.1,4.4,9.1,9.1c0,4.3-4.1,7.4-8.9,7.4c-4.9,0-8.2-2.8-8.7-3.3C419.4,411.2,419,410.8,419.5,410.1z"/>
			<path d="M448.9,397.5c4.3,0,7.5,3.2,7.5,7.5c0,0.3,0,0.8-0.1,1.1c0,0.4-0.4,0.7-0.7,0.7h-11.9c0.2,2.8,2.6,5.4,5.5,5.4
			c1.7,0,3.1-0.7,4.1-1.2c0.6-0.3,0.8-0.5,1.2-0.1c0.2,0.3,0.5,0.6,0.7,0.9c0.3,0.4,0.5,0.6-0.2,1.1c-1,0.8-3.2,1.9-6.1,1.9
			c-5,0-8.1-3.9-8.1-8.6C440.8,401.5,443.9,397.5,448.9,397.5z M453.5,404.5c-0.1-2.4-2.1-4.5-4.6-4.5c-2.8,0-4.9,2-5.2,4.5H453.5z"
			/>
			<path d="M460.9,386.3c0-0.4,0.4-0.8,0.8-0.8h1.3c0.4,0,0.8,0.4,0.8,0.8v27.3c0,0.4-0.4,0.8-0.8,0.8h-1.3c-0.4,0-0.8-0.4-0.8-0.8
			V386.3z"/>
			<path d="M476.5,397.5c4.3,0,7.5,3.2,7.5,7.5c0,0.3,0,0.8-0.1,1.1c0,0.4-0.4,0.7-0.7,0.7h-11.9c0.2,2.8,2.6,5.4,5.5,5.4
			c1.7,0,3.1-0.7,4.1-1.2c0.6-0.3,0.8-0.5,1.2-0.1c0.2,0.3,0.5,0.6,0.7,0.9c0.3,0.4,0.5,0.6-0.2,1.1c-1,0.8-3.2,1.9-6.1,1.9
			c-5,0-8.1-3.9-8.1-8.6C468.4,401.5,471.5,397.5,476.5,397.5z M481.1,404.5c-0.1-2.4-2.1-4.5-4.6-4.5c-2.8,0-4.9,2-5.2,4.5H481.1z"
			/>
			<path d="M495.7,397.5c2.5,0,4.4,1,5.9,2.9c0.3,0.4,0.2,0.9-0.2,1.2l-0.8,0.7c-0.6,0.6-0.8,0.2-1.2-0.2c-0.8-0.9-2.2-1.7-3.8-1.7
			c-3.1,0-5.5,2.6-5.5,5.8c0,3.3,2.3,5.9,5.4,5.9c2.5,0,3.4-1.2,4.4-2.1c0.5-0.5,0.8-0.4,1.2-0.1l0.5,0.3c0.4,0.3,0.5,0.7,0.3,1.2
			c-1.2,2-3.5,3.5-6.3,3.5c-4.6,0-8.4-3.7-8.4-8.6C487.2,401.3,491.2,397.5,495.7,397.5z"/>
			<path d="M507.7,400.4h-2.1c-0.5,0-0.8-0.4-0.8-0.8v-0.9c0-0.5,0.3-0.8,0.8-0.8h2.1v-4.6c0-0.4,0.4-0.8,0.8-0.8l1.3-0.1
			c0.4,0,0.7,0.4,0.7,0.8v4.7h4.8c0.5,0,0.8,0.3,0.8,0.8v0.9c0,0.4-0.3,0.8-0.8,0.8h-4.8v9.6c0,1.6,0.4,2,1.4,2c1,0,2.5-0.6,3-0.9
			c0.6-0.3,0.8-0.1,1,0.2l0.6,1c0.3,0.5,0.2,0.7-0.3,1c-0.6,0.4-2.8,1.4-4.7,1.4c-3.3,0-3.8-2-3.8-4.5V400.4z"/>
			<path d="M529.9,398.7c0-0.4,0.4-0.8,0.8-0.8h0.8c0.4,0,0.6,0.2,0.7,0.5l0.4,1.3c0,0,1.9-2.2,5.4-2.2c2.4,0,4.2,0.9,5.3,2.7
			c0.2-0.2,2.8-2.7,6.1-2.7c4.8,0,6.4,3.1,6.4,7.4v8.7c0,0.4-0.4,0.8-0.8,0.8h-1.3c-0.4,0-0.8-0.4-0.8-0.8v-8.7
			c0-3.1-1.3-4.7-3.7-4.7c-2.7,0-4.4,1.8-5,2.3c0.1,0.7,0.2,1.5,0.2,2.3v8.7c0,0.4-0.4,0.8-0.8,0.8h-1.3c-0.4,0-0.8-0.4-0.8-0.8
			v-8.7c0-3.1-1.4-4.7-3.9-4.7c-2.9,0-4.7,2.3-4.7,2.3v11c0,0.4-0.4,0.8-0.8,0.8h-1.3c-0.4,0-0.8-0.4-0.8-0.8V398.7z"/>
			<path d="M568.1,397.5c4.3,0,7.5,3.2,7.5,7.5c0,0.3,0,0.8-0.1,1.1c0,0.4-0.4,0.7-0.7,0.7h-11.9c0.2,2.8,2.6,5.4,5.5,5.4
			c1.7,0,3.1-0.7,4.1-1.2c0.6-0.3,0.8-0.5,1.2-0.1c0.2,0.3,0.5,0.6,0.7,0.9c0.3,0.4,0.5,0.6-0.2,1.1c-1,0.8-3.2,1.9-6.1,1.9
			c-5,0-8.1-3.9-8.1-8.6C560,401.5,563.1,397.5,568.1,397.5z M572.7,404.5c-0.1-2.4-2.1-4.5-4.6-4.5c-2.8,0-4.9,2-5.2,4.5H572.7z"/>
		</g>
		<polygon points="852.5,406.3 861.5,395 843.5,395 	"/>
	</g>
</svg>
