<?xml version="1.0" encoding="utf-8"?>
<!-- Generator: Adobe Illustrator 17.1.0, SVG Export Plug-In . SVG Version: 6.00 Build 0)  -->
<!DOCTYPE svg PUBLIC "-//W3C//DTD SVG 1.1//EN" "http://www.w3.org/Graphics/SVG/1.1/DTD/svg11.dtd">
<svg version="1.1" id="Layer_1" xmlns="http://www.w3.org/2000/svg" xmlns:xlink="http://www.w3.org/1999/xlink" x="0px" y="0px" viewBox="0 0 1280 800" enable-background="new 0 0 1280 800" xml:space="preserve">
	<path fill="#CCCCCC" d="M984.3,673H295.7c-13.1,0-23.8-11.1-23.8-24.8V151.8c0-13.7,10.7-24.8,23.8-24.8h688.5
	c13.1,0,23.8,11.1,23.8,24.8v496.5C1008.1,661.9,997.4,673,984.3,673z"/>
	<g>
		<defs>
			<path id="SVGID_18_1" d="M943.1,631H336.9c-11.6,0-21-9.4-21-21V190c0-11.6,9.4-21,21-21h606.3c11.6,0,21,9.4,21,21V610
			C964.1,621.6,954.7,631,943.1,631z"/>
		</defs>
		<clipPath id="SVGID_18_2">
			<use xlink:href="#SVGID_18_1"  overflow="visible"/>
		</clipPath>
		<g id="jww8Vl.tif" clip-path="url(#SVGID_18_2)">
			<image overflow="visible" width="857" height="561" id="Layer_0_1_" xlink:href="8FCDF56792852A13.png"  transform="matrix(0.8235 0 0 0.8235 297.115 168.9983)"></image>
		</g>
	</g>
</svg>
