<?xml version="1.0" encoding="utf-8"?>
<!-- Generator: Adobe Illustrator 17.1.0, SVG Export Plug-In . SVG Version: 6.00 Build 0)  -->
<!DOCTYPE svg PUBLIC "-//W3C//DTD SVG 1.1//EN" "http://www.w3.org/Graphics/SVG/1.1/DTD/svg11.dtd">
<svg version="1.1" id="Layer_1" xmlns="http://www.w3.org/2000/svg" xmlns:xlink="http://www.w3.org/1999/xlink" x="0px" y="0px" viewBox="0 0 1280 800" enable-background="new 0 0 1280 800" xml:space="preserve">
	<path stroke="#1A1A1A" stroke-width="0.9381" stroke-miterlimit="10" d="M350.8,287.7l-18.6,46.6H195.5l-18.6-46.6
	c-12,0-21.7,9.8-21.7,21.7v236.1c0,12,9.8,21.7,21.7,21.7h174c12,0,21.7-9.8,21.7-21.7V309.5C372.6,297.5,362.8,287.7,350.8,287.7
	L350.8,287.7z M319.7,318.8l14-31.1h-33.9l-11.2-31.1H239l-11.2,31.1h-33.9l14,31.1H319.7L319.7,318.8z"/>
	<g>
		<circle fill="#FFFFFF" cx="398.2" cy="282.3" r="97.5"/>
		<g>
			<path d="M399.2,159.3c-67.6,0-122.4,54.8-122.4,122.4c0,67.6,54.8,122.4,122.4,122.4s122.4-54.8,122.4-122.4
			S466.8,159.3,399.2,159.3L399.2,159.3z M399.2,377.5c-52.9,0-95.8-42.9-95.8-95.8s42.9-95.8,95.8-95.8s95.8,42.9,95.8,95.8
			S452.1,377.5,399.2,377.5L399.2,377.5z M408.5,212.5h-18.6v73l45.3,45.3l13.2-13.2l-39.8-39.8V212.5z"/>
		</g>
	</g>
	<path stroke="#1A1A1A" stroke-width="0.4806" stroke-miterlimit="10" d="M938.9,338.5l-9.6,23.9h-70l-9.6-23.9
	c-6.1,0-11.1,5-11.1,11.1v121c0,6.1,5,11.1,11.1,11.1h89.1c6.1,0,11.1-5,11.1-11.1v-121C950,343.5,945,338.5,938.9,338.5
	L938.9,338.5z M922.9,354.4l7.2-15.9h-17.4l-5.7-15.9h-25.5l-5.7,15.9h-17.4l7.2,15.9H922.9L922.9,354.4z"/>
	<g>
		<circle fill="#FFFFFF" cx="949.2" cy="339.7" r="24.2"/>
		<g>
			<path d="M949.4,309.2c-16.8,0-30.4,13.6-30.4,30.4c0,16.8,13.6,30.4,30.4,30.4s30.4-13.6,30.4-30.4
			C979.8,322.8,966.2,309.2,949.4,309.2L949.4,309.2z M949.4,363.3c-13.1,0-23.8-10.6-23.8-23.8c0-13.1,10.6-23.8,23.8-23.8
			c13.1,0,23.8,10.6,23.8,23.8C973.2,352.7,962.6,363.3,949.4,363.3L949.4,363.3z M951.8,322.4h-4.6v18.1l11.2,11.2l3.3-3.3
			l-9.9-9.9V322.4z"/>
		</g>
	</g>
	<path stroke="#1A1A1A" stroke-width="0.4806" stroke-miterlimit="10" d="M938.9,93.5l-9.6,23.9h-70l-9.6-23.9
	c-6.1,0-11.1,5-11.1,11.1v121c0,6.1,5,11.1,11.1,11.1h89.1c6.1,0,11.1-5,11.1-11.1v-121C950,98.5,945,93.5,938.9,93.5L938.9,93.5z
	 M922.9,109.4l7.2-15.9h-17.4L907,77.5h-25.5l-5.7,15.9h-17.4l7.2,15.9H922.9L922.9,109.4z"/>
	<g>
		<circle fill="#FFFFFF" cx="949.2" cy="94.7" r="24.2"/>
		<g>
			<path d="M949.4,64.2c-16.8,0-30.4,13.6-30.4,30.4c0,16.8,13.6,30.4,30.4,30.4s30.4-13.6,30.4-30.4S966.2,64.2,949.4,64.2
			L949.4,64.2z M949.4,118.3c-13.1,0-23.8-10.6-23.8-23.8s10.6-23.8,23.8-23.8c13.1,0,23.8,10.6,23.8,23.8S962.6,118.3,949.4,118.3
			L949.4,118.3z M951.8,77.4h-4.6v18.1l11.2,11.2l3.3-3.3l-9.9-9.9V77.4z"/>
		</g>
	</g>
	<path stroke="#1A1A1A" stroke-width="0.4806" stroke-miterlimit="10" d="M938.9,580.5l-9.6,23.9h-70l-9.6-23.9
	c-6.1,0-11.1,5-11.1,11.1v121c0,6.1,5,11.1,11.1,11.1h89.1c6.1,0,11.1-5,11.1-11.1v-121C950,585.5,945,580.5,938.9,580.5
	L938.9,580.5z M922.9,596.4l7.2-15.9h-17.4l-5.7-15.9h-25.5l-5.7,15.9h-17.4l7.2,15.9H922.9L922.9,596.4z"/>
	<g>
		<circle fill="#FFFFFF" cx="949.2" cy="581.7" r="24.2"/>
		<g>
			<path d="M949.4,551.2c-16.8,0-30.4,13.6-30.4,30.4c0,16.8,13.6,30.4,30.4,30.4s30.4-13.6,30.4-30.4
			C979.8,564.8,966.2,551.2,949.4,551.2L949.4,551.2z M949.4,605.3c-13.1,0-23.8-10.6-23.8-23.8c0-13.1,10.6-23.8,23.8-23.8
			c13.1,0,23.8,10.6,23.8,23.8C973.2,594.7,962.6,605.3,949.4,605.3L949.4,605.3z M951.8,564.4h-4.6v18.1l11.2,11.2l3.3-3.3
			l-9.9-9.9V564.4z"/>
		</g>
	</g>
	<g>
		<path fill="#21AD6D" d="M1059.1,470.1c0.2-0.5-0.6-2.6,1-0.4c2.3,3.6,4.3,7.3,6.2,11.3c1.9,3.9,4,8,6.1,11.6
		c0.1-0.2,0.2-0.5,0.2-0.7c0-0.7,0-1.4,0-2.1c2.4-5.8,4.8-11.8,7.3-18c2.2-6.3,4.4-12.5,6.6-18.8l0.8-2.3l0.4-1.2l0.9-2.3
		c0.6-1.5,1.1-3.1,1.7-4.6c-0.3,0.1-0.5,0.1-0.4-0.6c0.8-2.6,2.6-6,4.2-9.6c0.2-0.6,0.4-1.1,0.6-1.6c0-0.5-0.1-0.7-0.2-0.8
		c0.8-1.6,1.5-3,2.1-4.3c6.8-18.1,14.6-36.2,25-54.9c2-4.1,4-8.2,6.3-11.9c3.5-5.4,8.9-11.7,13-16.6c-1.2-0.4,0.4-3.7,1.8-6.9
		c0.8-1.6,1.5-3.1,1.8-4.2c0.3-1.1,0.2-1.7-0.8-1.5c2.8-3.2,7.3-7.9,7-8.6c-0.4-1.1-0.5-2.6,0.4-5c0.9-2.4,2.9-5.7,6.4-10.2
		c1.4-1.7,3.5-3.5,5-5c0.2-0.2,0.4-0.4,0.6-0.5c0.2-0.2,0.3-0.3,0.5-0.5c0.3-0.3,0.6-0.6,0.7-0.7c0.1-0.1,0.1-0.1,0.2-0.2
		c0,0,0.1-0.1,0.1-0.1l0,0l0,0c0.1,0,0.2,0.1,0.3,0.2c1.6,1.1,2.9,1.6,3.9,2c-9.1-3.7-2.6-1-4.6-1.9v0v0l0.1,0l0,0l0,0l0-0.1
		c0,0,0-0.1,0-0.1c0-0.1,0-0.1,0-0.2c0-0.1,0-0.1-0.1-0.2c-0.1,0-0.2,0-0.3,0.2c0,0-0.1,0.1-0.1,0.1l0,0l0,0l0,0
		c-1.1-0.5,9.6,3.9,5.1,2.1l0,0l-0.1,0c-0.1,0-0.2-0.1-0.2-0.1c-0.2-0.1-0.3-0.1-0.5-0.2c-0.7-0.3-1.4-0.6-2.2-1.1
		c-0.4-0.2-0.8-0.5-1.1-0.7c-0.2-0.1-0.4-0.3-0.6-0.4l-0.3-0.2l-0.1-0.1c0,0,0,0,0,0c0,0,0,0,0,0c-0.1,0-0.2,0-0.2,0.1
		c-0.1,0-0.1,0-0.2,0.1c-0.1,0-0.1,0-0.2,0.1c-0.2,0.1-0.4,0.2-0.6,0.2c-0.3,0.1-0.5,0-0.3-0.4l-0.3,0.4c-0.1,0.1-0.3,0.3-0.4,0.4
		l-0.9,0.9l-2,2c-1.4,1.4-2.9,2.8-4.3,4.3c-2.9,2.9-5.8,5.9-8.7,8.9c-5.7,6.1-11.2,12.4-16.3,18.9c-5.2,6.5-10.1,13.2-14.9,20.1
		c-4.7,6.9-9.2,14-13.6,21.3c-0.5,1.1-1.5,2.9-2.7,5.3c-1.2,2.3-2.8,5.2-4.5,8.6c-3.4,6.7-7.6,15-11.7,24c-1,2.2-2,4.5-3,6.8
		c-0.5,1.2-1,2.3-1.5,3.5l-1.5,3.5c-1,2.3-2,4.7-2.9,7c-0.9,2.3-1.8,4.6-2.7,6.9c-0.2,0.6-0.4,1.1-0.7,1.7l-0.3,0.7l-0.1,0.1
		c-0.1,0.2-0.1,0.4-0.2,0.6c-0.1,0.4-0.3,0.7-0.4,1.1c-0.1,0.3-0.2,0.5-0.3,0.8c0,0.1-0.1,0.2-0.1,0.3l-0.1,0.2l0,0.1
		c0,0,0-0.1,0-0.1c-0.3-0.6-0.5-1.1-0.7-1.4l-0.1-0.1c-0.1-0.2-0.2-0.3-0.3-0.5c-0.1-0.1-0.2-0.3-0.3-0.4c-0.4-0.6-0.9-1.1-1.3-1.7
		c-0.5-0.6-0.9-1.2-1.4-1.8c-1-1.2-2-2.3-3-3.5c-0.5-0.6-1-1.1-1.5-1.7c-0.5-0.5-1.1-1.1-1.6-1.6c-1.1-1-2.1-2.1-3.1-3
		c-0.5-0.5-1-1-1.6-1.4c-0.5-0.4-1.1-0.9-1.6-1.3c-1-0.8-2-1.7-3-2.4c-1.9-1.2-3.8-2.5-5.7-3.6c-1-0.5-2-1.1-2.9-1.6
		c-1-0.5-2-1.1-3-1.6c0.4,0.4,0.7,0.7,1.1,1.1c0.3,0.4,0.7,0.8,1,1.1c0.6,0.7,1.2,1.4,1.7,2.1c-1.8-1.4-3.5-2.8-5.1-3.8
		c-1.6-1.1-2.9-1.9-3.7-2.1c-2.1-1.1-3.5-1.6-4.3-1.7c-0.8-0.1-1,0.1-0.9,0.5c0.1,0.4,0.5,1.1,1.1,1.8c0.5,0.8,1.2,1.6,1.7,2.4
		c0.9,1,0.4,1.2,0.2,1.6c-0.3,0.4-0.4,0.8,1,2.2c-1.1-0.8-2-1.4-2.9-2c-0.9-0.6-1.7-1.2-3-1.9c-0.2,0.1,0.2,0.4,0.9,0.8
		c0.6,0.4,1.5,0.9,2.3,1.4c1.7,1,3.1,2.1,2,1.9c-2.1-1.7-4.8-3-7.2-4.3c0.2,0.7,2.2,1.9,4,3.2c1.8,1.2,3.4,2.5,3,2.7
		c-0.3-0.2-0.8-0.6-1.5-1.1c-0.6-0.5-1.4-1.1-2.1-1.7c-1.4-1.2-2.9-2-3.4-1.7c-0.2,0.1,2.2,1.5,3.3,2.3c-1.8-1.1-3.5-1.8-4.9-2.5
		c-1.4-0.5-2.5-0.9-3.1-1c-1.3-0.1-0.9,0.7,2.1,3c-0.6-0.3-1.2-0.7-1.8-1.1c-0.3-0.2-0.6-0.4-1-0.6c-0.3-0.2-0.7-0.4-1-0.6
		c-0.3-0.2-0.7-0.4-1-0.6c-0.3-0.2-0.7-0.3-1-0.5c-0.3-0.2-0.7-0.3-1-0.4c-0.3-0.1-0.6-0.2-0.8-0.3c0,0,0,0,0,0
		c0.1,0.1,0.5,0.2,0.9,0.4c0.3,0.2,0.8,0.4,1.1,0.6c0.8,0.4,1.5,0.9,2.1,1.1c-0.7-0.3-1.4-0.7-2-1l-1-0.5l-1-0.4
		c0.1,0.2,0.3,0.5,0.5,0.7c0.9,0.5,1.9,1.1,2.9,1.6l-1.3-0.7l-1.3-0.6c0.5,0.6,1.1,1.3,1.8,2c2.9,2.2,5.3,4.8,6.9,5.9
		c6.4,4.3,12.5,9.4,17.9,15.1l4,4.4c1.3,1.5,2.5,3,3.7,4.5l0.9,1.1l0.9,1.2l0.9,1.2l1.8,2.5c0.6,0.8,1.2,1.8,1.8,2.7l0.9,1.4
		l0.4,0.7c0.1,0.2,0.3,0.5,0.4,0.7L1059.1,470.1z"/>
	</g>
	<g>
		<g>
			<g>
				<path fill="#EF3940" d="M329.4,515.8c0.5-0.5,0.4-1.6,1.6-0.9c3.5,2.5,4.2,6.6,7.7,9.2c0.3-0.2,0.7-0.4,1-0.6
				c2,2.7,4,5.6,6.1,8.4c4.7,4.5,9.4,8.8,14.2,13.1c0.2-0.4,0.4-0.7,1-0.4c2.1,1.7,4.4,4.6,7,7.4c0.4,0.4,0.9,0.7,1.3,1.1
				c0.5,0.1,0.8-0.1,1.1-0.2c1.2,1.2,2.2,2.4,3.1,3.5c14.9,11.7,30.2,23.3,46.7,36.1c3.8,2.3,7.7,4.7,11,7.3
				c4.7,4.1,9.8,10.3,14,14.7c2.2-3.5,14.1,5.6,14.9,0.6c2.8,2.9,7,7.3,8,6.7c3.1-1.8,8.1-2.4,17.2,3.8c3.3,2.6,6.9,8.2,8.4,8.8
				c2.4,0.9-2.2-5.6,0.3-4.7c-21.3-23-43.7-43.3-65.9-65.6c-8.9-6.3-60.6-57-73.2-70.7c-0.4-0.4-0.8-0.8-1.2-1.2
				c-7-7.3-15.9-15.8-23.1-20.8c-3.5-2.1-7.1-4.1-10.7-6.2c0.8,1.8,1.6,3.5,2.2,5c-2.8-2.9-5.6-5.9-7.2-6.4c-7.3-4.9-5.3,0-4.9,4.3
				c0.8,2.5-2.8,1.6-1,5.1c-1.9-1.9-2.8-2.9-4.7-4.9c-1,0.6,6.3,5.5,3.6,5.5c-1.5-2.1-4.1-3.7-6-5.7c-0.4,1.8,6.2,7,4.8,7.8
				c-1.3-0.8-3.9-6.8-5.6-5.9c-0.3,0.2,1.5,2.2,2.5,3.1c-6.3-5.5-10.8-7.4-6.9-0.6c-1.8-1.9-3.9-5.1-6-6.9c0,0,0,0,0,0
				c0.9,1,2.4,3,3.2,3.9c-1.1-1.1-2.2-2.3-3.3-3.4c0,0.4,0,0.8,0,1.1c0.7,1,1.4,2,2.2,2.9c-0.7-0.8-1.5-1.5-2.2-2.3
				c0.1,1,0.3,2.1,0.6,3.2c1.8,3.5,3,7.3,4.4,8.8C306.8,492,318,504.1,329.4,515.8z"/>
			</g>
		</g>
	</g>
	<g>
		<g>
			<g>
				<path fill="#EF3940" d="M426.5,490.3c0.5,0.5,1.6,0.4,0.9,1.6c-2.5,3.5-6.6,4.2-9.2,7.7c0.2,0.3,0.4,0.7,0.6,1
				c-2.7,2-5.6,4-8.4,6.1c-4.5,4.7-8.8,9.4-13.1,14.2c0.4,0.2,0.7,0.4,0.4,1c-1.7,2.1-4.6,4.4-7.4,7c-0.4,0.4-0.7,0.9-1.1,1.3
				c-0.1,0.5,0.1,0.8,0.2,1.1c-1.2,1.2-2.4,2.2-3.5,3.1c-11.7,14.9-23.3,30.2-36.1,46.7c-2.3,3.8-4.7,7.7-7.3,11
				c-4.1,4.7-10.3,9.8-14.7,14c3.5,2.2-5.6,14.1-0.6,14.9c-2.9,2.8-7.3,7-6.7,8c1.8,3.1,2.4,8.1-3.8,17.2c-2.6,3.3-8.2,6.9-8.8,8.4
				c-0.9,2.4,5.6-2.2,4.7,0.3c23-21.3,43.3-43.7,65.6-65.9c6.3-8.9,57-60.6,70.7-73.2c0.4-0.4,0.8-0.8,1.2-1.2
				c7.3-7,15.8-15.9,20.8-23.1c2.1-3.5,4.1-7.1,6.2-10.7c-1.8,0.8-3.5,1.6-5,2.2c2.9-2.8,5.9-5.6,6.4-7.2c4.9-7.3,0-5.3-4.3-4.9
				c-2.5,0.8-1.6-2.8-5.1-1c1.9-1.9,2.9-2.8,4.9-4.7c-0.6-1-5.5,6.3-5.5,3.6c2.1-1.5,3.7-4.1,5.7-6c-1.8-0.4-7,6.2-7.8,4.8
				c0.8-1.3,6.8-3.9,5.9-5.6c-0.2-0.3-2.2,1.5-3.1,2.5c5.5-6.3,7.4-10.8,0.6-6.9c1.9-1.8,5.1-3.9,6.9-6c0,0,0,0,0,0
				c-1,0.9-3,2.4-3.9,3.2c1.1-1.1,2.3-2.2,3.4-3.3c-0.4,0-0.8,0-1.1,0c-1,0.7-2,1.4-2.9,2.2c0.8-0.7,1.5-1.5,2.3-2.2
				c-1,0.1-2.1,0.3-3.2,0.6c-3.5,1.8-7.3,3-8.8,4.4C450.2,467.6,438.1,478.8,426.5,490.3z"/>
			</g>
		</g>
	</g>
</svg>
