<?xml version="1.0" encoding="utf-8"?>
<!-- Generator: Adobe Illustrator 17.1.0, SVG Export Plug-In . SVG Version: 6.00 Build 0)  -->
<!DOCTYPE svg PUBLIC "-//W3C//DTD SVG 1.1//EN" "http://www.w3.org/Graphics/SVG/1.1/DTD/svg11.dtd">
<svg version="1.1" id="Layer_1" xmlns="http://www.w3.org/2000/svg" xmlns:xlink="http://www.w3.org/1999/xlink" x="0px" y="0px" viewBox="0 0 1280 800" enable-background="new 0 0 1280 800" xml:space="preserve">
	<g>
		<g id="_x38_d5avG.tif_1_">
			<g>
				<path fill="#344759" d="M1100,428.4c1.9-3.7,3.4-7.6,5.6-10.9c2.8-4.1,5.8-8.1,9.3-11.7c5.6-5.8,11.8-10.8,19.2-14.4
				c4.3-2.1,8.1-5.3,12.1-8c1.7-1.2,3.5-2.4,5-3.8c0.6-0.6,0.5-1.9,0.6-2.9c0.1-0.8-0.2-1.6-0.2-2.4c-0.1-0.9-0.1-1.7-0.1-2.6
				c0-1,0.1-1.9,0.1-2.9c-0.1-0.7-0.2-1.5-0.4-2.2c-0.2-0.9-0.5-1.7-0.8-2.6c-0.2-0.5-0.4-1.2-0.7-1.4c-1.9-1-1.3-2-0.5-3.5
				c0.3-0.6-0.4-1.7-0.6-2.7c-0.4-1.3-1-2.5-1.3-3.8c-0.2-0.7,0.3-1.8-0.1-2.1c-1.7-1.4-3.5-2.6-1.8-5.2c0.1-0.1-0.2-0.4-0.3-0.4
				c-3.8-0.2-2.7-2.1-1.7-4.2c0.1-0.2-1.2-0.9-1.7-1.4c-0.6-0.6-1.2-1.3-1.3-2c-0.5-2.1-0.7-4.3-1.1-6.5c0-0.1-0.4-0.2-0.4-0.2
				c-2,3.5-4.6,0.4-6.5,0.1c-5.3-0.9-9.8,0.2-14,3.4c-3.1,2.4-6.2,4.6-9.3,6.9c-0.3,0.2-0.9,0.2-1,0.1c-0.3-0.4-0.5-0.9-0.4-1.4
				c0.5-5.2,2.7-9.8,5.9-13.9c3.7-4.7,7.4-9.4,10.7-14.4c1.8-2.7,3.2-5.8,4-9c0.4-1.6-0.9-3.7-1.2-5.6c-1.9-9.1-4.2-18.2-5.4-27.4
				c-1.1-8.3-1.3-16.7-1.3-25.1c0-8.2,0.8-16.5,1.3-24.7c0-0.3-0.1-0.6-0.1-0.9c-0.1,0.3-0.2,0.5-0.3,0.8c-1,2.8-2,5.5-3.1,8.2
				c-0.2,0.4-1.1,0.7-1.7,0.7c-2.6,0.3-5.2,1-7.7,0.7c-5.5-0.6-11-1.5-15.6-5c-0.4-0.3-0.1-2.5,0.6-3c2.6-2,5.2-4.2,8.1-5.5
				c5.8-2.5,11.8-4.8,17.9-6.4c3.1-0.9,3.9-2,3.9-5.2c0-3.4,1-6.9,1.9-10.2c2.4-8.4,4.6-16.9,7.5-25.1c2-5.6,5-10.9,7.8-16.3
				c3.6-6.9,7.3-13.6,11.1-20.3c1.1-1.9,2.4-3.7,3.8-5.2c0.5-0.5,1.9-0.2,2.8,0.1c0.3,0.1,0.5,1.2,0.4,1.7c-0.1,2.5-0.3,5.1-0.5,7.6
				c0,0.2,0.2,0.3,0.2,0.5c0.2-0.2,0.6-0.4,0.7-0.6c1-2,1.9-4.1,2.9-6.1c1.3-3,3.7-3.6,5.8-1c2.6,3.3,5.1,6.8,7.1,10.5
				c4,7.3,7.7,14.8,11.4,22.3c6.4,13.1,12.5,26.5,15,41c0.9,5,3.4,6.5,7.1,8.1c3.5,1.5,7.2,2.8,10.5,4.7c5.7,3.3,11.3,7,16.8,10.5
				c0.3,0.2,0.4,0.8,0.5,1.2c-0.4,0-0.8-0.1-1.1-0.1c-1.5,0.4-3.1,0.9-4.6,1.4c-0.2,0.1-0.4,0.6-0.3,0.8c0.7,1.8,0.2,2.6-2.3,2.9
				c-0.5,0.1-1.2,0.5-1.2,0.6c0.2,2.4-1.6,2.4-3.2,2.9c-1.4,0.5-2.4,1.9-3.7,2.8c-0.9,0.6-3.5-0.5-2.3,2.4c0.1,0.2-1.6,0.8-2.1,1.5
				c-1.7,2.4-4.1,3.6-6.8,4.5c1.5,2.8-5.3,3.4-1.9,6.9c0.1,0.1-1.4,1.5-2,2.4c-0.3,0.4-0.6,1.2-0.5,1.6c0.7,1.6,2.7,3.2-0.7,4.2
				c-0.3,0.1-0.6,2.1-0.2,2.6c1.2,1.5,3.3,2.7-0.3,3.8c-0.2,0.1-0.1,1.8,0.3,2.7c0.3,0.9,0.9,1.6,1.4,2.4c-0.9,0.3-1.7,0.4-2.6,0.8
				c-0.7,0.3-1.4,0.7-1.9,1.2c-0.2,0.2,0.3,1.1,0.7,1.5c1.2,1.8,3.1,3.6-1,4.2c-0.3,0.1-0.7,1.3-0.5,1.5c2.4,2.5,1.2,3.8-1.5,4.6
				c-2.1,0.6-2.3,1.2-1,3.2c5.7,8.4,11.2,16.9,16.5,25.5c2.8,4.5,5.1,9.3,7.6,14c0.3,0.5,0.6,1.1,0.7,1.6c0.1,0.8-0.1,1.5-0.2,2.3
				c-0.5-0.6-0.9-1.1-1.5-1.6c-2.4-2.3-4.6-4.7-7.1-6.9c-2.6-2.3-5.3-4.6-8.2-6.4c-3.2-2-6.6-3.8-10.2-5.2c-3-1.2-3.6,1.8-5.1,3.4
				c-0.5,0.5-1.6,0.4-2.5,0.5c-0.3,0.1-0.7-0.2-1-0.2c-0.3,2.2-0.5,4.4-0.9,6.6c-0.2,0.9-0.8,1.8-1.4,2.5c-0.4,0.5-1.6,0.5-1.7,1
				c-0.3,0.8-0.3,1.9,0.1,2.6c1,2.1,2.1,4-1.8,3.9c-0.4,0-1.3,2.3-1.1,3.2c0.7,2.3,1.6,4.1-2.1,3.9c-0.2,0-0.9,1.9-0.5,2.6
				c1,2,0.6,2.8-1.6,2.8c-1.8,0.1-2.9,2.7-1.7,4.6c1,1.8,0.4,2.5-1.4,3.1c-0.6,0.2-0.9,1.7-1,2.7c-0.1,0.9,0.6,1.8,0.4,2.6
				c-0.1,0.4-1.5,0.3-2.2,0.7c-0.5,0.3-1,0.9-1,1.4c0,1.5,1.8,3.2-0.5,4.7c-0.6,0.4-0.3,1.9-0.5,3c-0.1,0.6-0.4,1.2-0.5,1.9
				c-0.2,1.3-0.4,2.6-0.4,3.9c0,0.6,0.8,1.5,0.7,1.6c-3.7,2.8,0.3,4.5,1.3,5.5c3,2.9,6.6,5.2,9.9,7.8c5.8,4.7,11.9,8.9,17,14.2
				c7.1,7.4,13.2,15.6,17.3,25.1c0.1,0.2,0.3,0.4,0.3,0.6c-0.1,1.3-0.2,2.6-0.3,3.8c-0.7-0.7-1.3-1.4-2-2.1
				c-4.2-4.8-8.1-10-12.8-14.2c-4.7-4.1-9.9-7.9-15.6-10.7c-4.6-2.3-10-2.9-15-4.2c-3.7-1-7.3-2.4-11-2.7c-3.6-0.4-7.4,0.1-11.1,0.6
				c-9,1.1-16.7,5.8-24.3,10.1c-3.9,2.3-7,6.1-10.3,9.5c-2.1,2.2-3.9,4.8-5.9,7.2c-0.3,0.4-0.2,1.1-0.6,1.5c-0.8,0.8-1.7,1.3-2.6,2
				C1101.1,430.2,1100.7,429.4,1100,428.4z"/>
			</g>
		</g>
		<path fill="#1A1A1A" d="M1179,123.9c0,0-0.6,6.3-1.8,8.1c1.1-0.7,1.1-0.7,1.1-0.7s1.5,6.1-1.9,8.6c-3.4,2.5-7.6,1.5-9,0.8
		c-1.4-0.7-7.1-4.8-5.4-11.9c1.6-7.1,4.7-19.1,4.8-19.4s1-2.3,1.4-3.9c0.5-1.7-0.4-2-0.9-1.7c-0.6,0.3-1.2,0.4-2,4.7
		c-0.8,4.3-4.8,19.9-5,20.7c-0.2,0.8-1.1,5.9,2.6,10s8.8,5.5,13.6,2.8c4.8-2.8,3.8-7.5,3.4-10.3c-0.4-2.8,0.3-3.1-0.2-5.8
		C1179,123,1179.3,124.3,1179,123.9z"/>
		<path fill="#344759" d="M1168.7,136.9l-0.3,4.1c0,0-0.3,0.1-0.4,0.8c-0.1,0.6,0.3,0.9,0.3,0.9l-0.3,3.3l-9.1-9.1l3.7-7.5
		L1168.7,136.9z"/>
		<circle fill="#FFFFFF" cx="1169.3" cy="154.2" r="4.9"/>
		<circle fill="#1A1A1A" cx="1169.6" cy="153.8" r="2.5"/>

		<ellipse transform="matrix(-0.7899 0.6133 -0.6133 -0.7899 2189.5369 -442.3193)" fill="#FFFFFF" cx="1170.5" cy="153.9" rx="1" ry="0.7"/>

		<ellipse fill="#1A1A1A" stroke="#000000" stroke-width="1.9362" stroke-miterlimit="10" cx="1167.2" cy="51.3" rx="0.1" ry="52.3"/>
	</g>
	<g>
		<g>
			<path d="M690.7,212c-3-16.6,11-41.4,28.4-44.5c8.3-1.5,14,3.8,14.8,11.8c1.1,10.6-0.1,21.7,1.2,32.4c0.5,4.4,2.5,14.1,8.1,13.4
			c13.2-1.7,16.4-36.6,17.4-48.1c0.4-4,0.6-7.8,1.1-9.1c0.6-1.3,1.6-1.3,1.6-1.3s2.3-0.6,3.6-0.8c0.8-0.1,1.2,0.2,1.2,0.6
			c0,0.2,0.1,0.3,0,0.7c-0.1,0.9-0.1,1.9-0.2,3.2c-1,11.6-1.4,23.7-0.4,35.4c0.5,5,1.8,17.5,8.9,17.1c4.6-0.3,6.8-3.9,7.3-3.9
			c0.3-0.1,0.5,0.7,0.5,0.8c-0.5,4.2-6.6,8.8-11.9,9.3c-9.4,0.9-11.5-13.8-12.2-20.4c-0.5-4.7-0.7-11.9-0.7-11.9
			c-0.1,0-6.3,32.8-20.2,35c-8.9,1.4-12.2-8.4-13.2-15.3c-1.8-13.6,0.6-27.6-1.2-41c-0.4-3.1-1.3-5.8-3.6-5.4
			c-16.1,2.6-29,28.5-26.4,43.4c0.3,1.5,0.8,2.9,1.5,4.1c0,0,1,1.1,1.1,1.8c0.1,0.3-0.3,0.4-0.5,0.4
			C694.2,220.3,691.2,215,690.7,212z"/>
			<path d="M778.4,199.2c-0.4,0.1-0.9-0.2-0.9-0.7c0-0.1,0-0.2,0.1-0.3c1.8-3.3,5.6-6.2,8.3-6.5c3.8-0.3,4.9,3.5,5.2,7.8
			c0.3,3.7,0.1,10.4,0.1,10.4c0.2,0,4.3-15.6,9.2-20c0.2-0.2,0.4-0.3,0.7-0.3c0.9-0.1,4,1.6,4,2.6c0,0.2,0,0.3-0.1,0.4
			c-2,5-2.3,11-1.9,16.5c0.3,4.6,1.9,7.9,4.4,7.7c1.1-0.1,2.3-0.8,3.5-2.3c0,0,0.2-0.1,0.3-0.1s0.3,0.1,0.3,0.2
			c0.2,3.3-3.4,7-6.3,6.9c-6.9-0.3-8.8-17.9-8.8-17.9c-0.4-0.1-5.8,14.8-6.2,20.9c-0.1,0.5-0.5,0.8-1.1,0.9
			c-0.9,0.1-2.1-0.3-2.4-0.8c-0.4-0.8-1.5-0.2-1.6-1.1c0-0.2,0-0.5,0-0.7c0.3-1.5,0.1-6,0.1-11.2c0-3.4,0.1-9.6-0.3-13.4
			c-0.2-2.4-0.9-3.2-1.8-3.1c-1.2,0.1-2.9,1.9-4.2,3.6C779,199.1,778.7,199.2,778.4,199.2z"/>
			<path d="M831,158.5c0.1,0,0.3,0,0.4,0.1c1.6,1.2,6.1,1,6,2.7c-0.6,12.7-5,26.7-4.7,40.5c0.1,6.1,0.7,14.9,6.5,18.6
			c0.3,0.2,0.3,0.3,0.4,0.6c0,0.4-0.3,0.8-0.6,0.8c-0.1,0-0.1,0-0.1,0c-6.2-1.2-10.3-13.1-10.3-13.1c-0.1,0-4.1,13.6-9.7,14.3
			c-5.7,0.8-9.1-6.2-9.2-11.5c-0.3-7.7,3-21.5,12.6-22.1c2.1-0.1,5,1.6,5,1.6c0.9-0.4-0.3-25.5,2.8-31.8
			C830.2,158.9,830.6,158.5,831,158.5z M824.4,194.6c-6.9,1-9.6,12.4-9.2,18.9c0.2,4,1.7,6,3,5.7c6.4-1.4,9.1-14.4,8.8-21.3
			C826.9,195.6,825.7,194.3,824.4,194.6z"/>
			<path d="M877.2,222.2c-4.2,0.2-5.7-4.7-5.7-9.9c0.1-5,2.2-13,2.2-13c-0.1-0.1-3.2,0.9-4.9,0.9c-0.3,0-0.5,0-0.8,0
			c-1.3,8.7-5.5,22-16.4,22.1c-7,0-10.6-11.9-12.2-13.2c-0.1-0.1-0.7,0-1-0.1c-0.5-0.1-0.2-0.9-1.1-1.8c-0.1-0.1-0.2-0.2-0.2-0.3
			c0-0.3,0.6-0.7,1-0.7c0.5,0.1,0.8,0.2,1.2,0.2c0.3-7.6,3.8-19.7,13.1-19.9c3.6-0.1,5.8,3.2,5.8,7.2c-0.1,7.2-11,13.7-12.3,15.8
			c-1.6,2.6,3.7,10.5,7,10.4c9.2-0.2,14.1-17.7,12.8-20.7c-0.6-1.2-3.5-4.9-3.4-7.9c0-3.3,1.4-6.2,4-6.2c2.5,0.1,3.1,1.7,3.1,3.7
			c0,1.7-0.5,3.7-0.5,5.2c0,1.4,0.2,1.9,0.7,1.9c0.4,0,1-0.3,1.8-0.8c2.9-1.7,7.5-6.1,8.2-6.1c1.1,0.1,2.7,2.1,2.7,3.3
			c0,0.6-0.3,1-0.3,1s-1.6,3.7-2.2,5.1c-1.9,4.2-2.8,8-2.8,11c-0.1,4.2,1.6,7.2,3.2,7c7.3-1,11.8-22.7,13.1-29.8
			c0.3-1.6,4-3.1,5.3-3.1c0.3,0,0.7,0.1,0.7,0.4c0,0.1-1.8,5.5-1.8,11.4c0,7.6,4.7,15.2,4.6,22.9c-0.1,5.4-4.9,8.1-9.1,8
			c-3.8-0.2-7.3-2.5-7.1-6.8c0.1-2.3,1.4-4.8,1.9-4.8c0.1,0,0.3,0,0.3,0.2c0,0.3-0.1,0.7-0.1,1c-0.2,3.7,2.1,6.1,4.4,6.2
			c2,0.1,4.1-1.8,4.2-6.4c0.2-5.9-3.4-17.3-3.4-17.3c-0.2,0-2.5,5.6-4.2,9.8C886.7,213.4,883.6,222,877.2,222.2z M845.8,206.2
			c0.8,0.5,8.3-6.5,8.3-11.7c0.1-1.9-0.9-3.5-1.9-3.3C847.2,191.9,845.5,206,845.8,206.2z"/>
			<path d="M914.5,167c0.1,0,0.3,0.1,0.4,0.1c1.5,1.3,5.9,1.4,5.7,3.2c-0.1,1-3.4,10.3-3.1,10.7c0.7,0.8,10.5-0.8,11.9-0.7
			c1,0.1,2.5,0.2,2.4,0.8c-0.1,0.6-1.1,0.5-1.3,0.9c-0.7,0.8-0.9,1.4-0.9,1.4c-1.5,0.5-11.5,1.3-13.7,3.2
			c-3.2,2.9-4.8,18.1-5.2,27.1c-0.2,5.2-0.3,10.4,2.1,15.3c0,0-0.5,1.3-1.2,1c-5.6-1.9-5.5-15.6-5.3-22.3c0.3-6.7,3-19.7,2.6-20.3
			c-0.3-0.3-3.7,0.2-5.4,0.1c-4.5-0.3-6.2-3.1-6.1-7.4c0.1-0.7,0.4-1.9,0.9-1.9c0.2,0,0.4,0.2,0.5,0.4c1.7,1.5,6.7,1.9,10.6,2.1
			c0.4,0,0.5,0.1,0.9,0.1c1-4.5,1.3-10.5,3.2-13.5C913.6,167.3,914.1,167,914.5,167z"/>
			<path d="M970.6,195.4c0.2-0.2,0.5-0.2,0.7-0.2c0.7,0.1,2.1,1.2,2.9,2.3c0.2,0.3,0.7,0.7,0.6,1.1c0,0.1-0.2,0.2-0.2,0.3
			c-4.7,4.1-5.9,12.5-7,18.9c-0.8,4.6-0.7,12,3.3,13.4c1,0.4,2.9-0.4,5.1-1.9c0,0,0.2-0.1,0.4-0.1c0.2,0,0.2,0.1,0.2,0.3
			c-0.6,4.3-4.5,5.9-8.1,5.4c-7.5-1.2-6.6-12.9-5.9-18.5c0.5-3.6,1.6-8.2,1.6-8.2c-0.2-0.1-8.5,13.5-10,19.3
			c-0.1,0.5-0.7,0.7-1.3,0.7c-0.9-0.1-2-0.7-2.1-1.2c-0.2-0.8-1.5-0.5-1.4-1.4c0-0.2,0.1-0.5,0.2-0.7c0.6-1.4,1.4-6.1,2.1-10.9
			c0.1-0.5,1.9-9.6,2.3-13c0.1-0.8,0-1.3-0.1-1.3c-3.9,1.6-5.7,26.3-15.1,26.2c-2.9-0.1-6.1-10.5-6.1-10.5c-0.2-0.1-6.1,9.5-9.3,9.2
			c-6.2-0.6-7.6-8.2-7.1-13.2c0.7-7.6,5-21.8,14.7-21.2c4.3,0.3,5.7,5.7,6.6,7c0.4,0.6,3.5,1.4,3.4,2.3c-0.6,4.9-2.1,10-2.6,15.1
			c-0.4,4,0.3,7.6,1.9,7.5c7.5-0.6,9.1-24.2,13.9-28c0.8-0.6,2.8-0.9,4-0.8c1,0.1,1.7,0.6,1.7,1.6c-0.1,2.6-0.5,5.9-0.9,9
			c-0.4,3.7-1.2,9.4-1.2,9.4C957.9,213.3,964.9,198.8,970.6,195.4z M934.5,199.3c-0.3-1.4-2.7-2.9-3.8-2.9c-6.4,0.1-9.5,13-10,18.5
			c-0.3,3.2,0.6,5.8,2,5.8C930.1,220.4,935.2,203.2,934.5,199.3z"/>
			<path d="M1005.4,170.2c0.1,0,0.3,0.1,0.3,0.2c1.4,1.5,5.9,2.2,5.5,3.7c-3.1,11.4-9.9,24.1-12.2,36.9c-1,5.7-1.9,16.4,6,17.7
			c2.9,0.5,6.9-0.7,12.7-4.6c0.9-0.6,2.7-1.8,3.3-1.6c0.2,0.1,0.2,0.1,0.2,0.4c-0.1,0.5-0.7,1.3-1.9,3c0.2,0.7,0.2,1,0.4,1.6
			c-3.6,5-7.8,10.6-14.7,9.6c-8.8-1.3-11-18.7-11-18.7c-0.2-0.1-6.4,13-12.4,12.7c-5.8-0.3-7.7-7.8-6.9-13
			c1.2-7.6,7.1-20.6,16.6-19.3c2.2,0.3,4.8,2.7,4.8,2.7c0.9-0.2,4.2-25.3,8.5-30.9C1004.4,170.4,1004.9,170.1,1005.4,170.2z
			 M992,204.3c-7-0.3-11.7,10.3-12.6,16.9c-0.6,4,0.6,6.2,1.8,6.1c6.5-0.2,11.7-12.4,12.7-19.2C994.3,205.8,993.3,204.3,992,204.3z"
			/>
		</g>
	</g>
	<g>
		<g>
			<path d="M745.3,268.2c0.2,1.6-1,3.7-3.7,4c-1.1,0.1-2-0.2-2.2-1.2c0-0.1,0.9-0.2,0.9-0.3c-0.1-0.4-1.2-0.3-1.6-0.3
			c-2.8,0.3-9.5,4.6-9.3,6.4c0.1,0.8,1.3,1.2,4.3,0.8c1.8-0.2,3.6-0.5,4.7-0.7c0.2-0.1,0.6-0.1,0.7,0.2c0.5,0.7,1.6,1.9,1.6,2.1
			l-0.1,0.1c-4.5,1-12.1,4.3-11.9,9.5c0.1,2.1,2.9,2.8,6.2,2.4c4.8-0.6,12.2-3.7,12.6-5.6c0-0.1,0.1-0.1,0.1-0.2
			c0-0.2-0.3-0.8-0.4-1.1c0-0.1,0-0.1,0.1-0.1c0.6-0.1,1.9,1.2,2,1.8c0,0.1,0,0.1-0.1,0.2c-2.9,3.8-11,7.4-11.9,8.8
			c-0.5,0.7,1,5.5,1,5.5c0.1,0.5,0,0.8-0.3,0.8c-0.1,0-3-1.3-3.4-1.6c-0.1-0.1-0.2-0.7-0.3-1.3c-0.1-0.8-0.1-2.5-0.3-2.6
			c-0.1-0.1-0.8,0.2-1.1,0.2c-5.6,0.7-9.3-1.7-9.7-5.2c-0.4-2.9,6.1-10,6.1-10c-0.1-0.2-4.7-1.9-4.9-3.8c-0.4-2.8,7.4-5.9,8.5-7.6
			c1.5-2.4-0.4-11.9-0.4-11.9c0.7-0.1,3.5,2,3.5,2.8c0,0.2,0,0.4,0,0.5c0.2,1.4-0.2,7.2,0,7.3c0.5,0.3,5.3-1.5,6.9-1.7
			C744.5,266.3,745.2,267.1,745.3,268.2z"/>
			<path d="M800.1,251.7c0.4,6.5-3.7,11.8-5,11.8c-0.1,0-0.2-0.1-0.2-0.1c0-0.4,0.7-1.2,0.7-1.3c0-0.3-0.5-0.5-0.5-0.9
			c-0.1-1,1.1-3,0.8-7.9c-0.3-4.7-3.4-7.9-4.8-7.7c-4.8,0.8-3.7,10.3-3.4,14c0.7,8.3-2.1,22.7-0.9,25.4c1.1,2.7,13.1,8.5,20.9,8.2
			c2.6-0.1,4.8-0.6,6.9-1.4c0.3-0.2,0.6-0.2,0.7-0.2s0.2,0.1,0.2,0.1c0.1,0.6-1.2,0.9-1.4,1.6c-1,3.8-8.5,5.5-11.8,5.6
			c-6.9,0.3-17-7.5-18.7-7.3c-1.3,0.2-6.5,5.4-12.4,6c-5.8,0.6-15.2-1.3-15.8-7.3c-0.6-5.9,8.8-9.1,14.5-9.5
			c4.5-0.3,11.5,2.1,12.1,1.8c1.9-1-3.6-39.1,10.1-40.1C797.4,242.3,799.8,246.8,800.1,251.7z M757.5,289.1
			c0.3,3.1,4.8,6.3,11.6,5.7c5-0.4,10.4-4.9,10.3-5.8c-0.3-1.5-9.7-5.1-15-4.7C759.4,284.7,757.3,286.9,757.5,289.1z"/>
			<path d="M808.2,280.2c-0.1-1-0.5-2.1-0.7-3c0-0.1,0-0.4,0.7-0.4c2.1-0.1,2.7,2.2,2.8,4.2c0.2,4-2.8,8.1-7,8.4
			c-5.8,0.3-8.8-5.3-9.1-10.4c-0.3-5.7,2-14.3,8.5-14.9c2.5-0.3,4.2,1.7,4.3,4.3c0.1,5.1-7.3,10.2-8.2,12.2
			c-0.9,1.9,2.5,6.4,4.3,6.3C806.2,286.7,808.4,283.9,808.2,280.2z M803.5,267.4c-2.6,0.2-4,10.7-4,10.7c0.3,0.2,5.1-7,5-9.7
			C804.4,267.9,804.1,267.3,803.5,267.4z"/>
			<path d="M837.4,272.6c-0.3,0-0.6-0.1-0.6-0.1c-1.3,1.2-2.4,15.1-8.2,15.8c-2,0.3-5.2-6.9-5.2-6.9c-0.1,0-3.5,7.2-5.7,7.3
			c-3.9,0.2-5.9-3.9-6.1-8.8c-0.3-5.6,1.8-15.6,8.5-16.2c3-0.3,4.4,3.5,5.2,4.3c0.4,0.4,2.6,0.7,2.6,1.3c0.1,1.6-0.6,6.9-0.5,10.9
			c0.1,2.9,0.8,5.3,2,5.1c4.6-0.7,6.6-11.8,5.7-13.5c-0.5-0.9-2.6-3.4-2.6-5.6c-0.1-2.4,0.8-4.5,2.7-4.5c1.7-0.1,2.2,1.1,2.3,2.6
			c0.1,1.2-0.3,2.6-0.2,3.7c0,1,0.2,1.4,0.6,1.3c0.3,0,0.7-0.3,1.3-0.6c2-1.3,5.1-4.6,5.5-4.6c0.8,0,1.9,1.4,1.9,2.3
			c0,0.4-0.2,0.7-0.2,0.7s-1,2.7-1.4,3.7c-1.3,3.1-1.7,6.3-1.7,8.8c0.1,4.7,1.4,7.6,2.9,7.6c1,0,2.1-1.4,2.9-4.2
			c0.1-0.4,0.1-0.6,0.8-1.1c0.2-0.1,0.3-0.2,0.4-0.2c0.1,0,0.2,0.1,0.2,0.2s-0.1,0.3-0.1,0.3c-0.2,4.7-3.1,7.7-5.9,7.8
			c-2.5,0.1-4.8-2.3-4.9-7.8c-0.1-4.1,1.2-10.5,1.2-10.5C840.6,271.6,838.2,272.5,837.4,272.6z M823.4,269.8
			c-0.3-0.9-2.2-1.9-2.9-1.7c-4,1-5.6,9.1-5.4,13.9c0.1,2.3,1,4.1,1.9,3.9C821.9,284.9,824.3,272.9,823.4,269.8z"/>
			<path d="M848.6,269.2c-0.3,0-0.6-0.2-0.6-0.6c0-0.1,0-0.2,0.1-0.2c1.4-2.3,4.2-4.1,6.2-4.1c2.7,0,3.2,2.7,3.3,5.8
			c0,2.6-0.4,7.4-0.4,7.4c0.1,0,3.8-10.8,7.4-13.8c0.2-0.1,0.3-0.2,0.5-0.2c0.7,0,2.7,1.3,2.7,2c0,0.1,0,0.2-0.1,0.3
			c-1.5,3.1-2.1,8.2-2.1,11.7c0,3.3,1,5.7,2.8,5.7c0.8,0,1.6-0.5,2.6-1.5c0,0,0.1-0.1,0.3-0.1c0.1,0,0.2,0.1,0.2,0.2
			c0,2.4-2.7,4.8-4.8,4.6c-4.9-0.4-5.4-13.1-5.4-13.1c-0.3-0.1-4.8,10.2-5.4,14.5c-0.1,0.4-0.4,0.6-0.9,0.6c-0.6,0-1.5-0.4-1.6-0.7
			c-0.2-0.6-1.1-0.2-1.1-0.8c0-0.1,0-0.4,0.1-0.5c0.3-1.1,0.4-4.3,0.6-7.9c0.2-2.5,0.5-6.8,0.5-9.5c0-1.7-0.4-2.3-1.1-2.3
			c-0.9,0-2.1,1.2-3.1,2.4C849,269.1,848.8,269.2,848.6,269.2z"/>
			<path d="M883.8,265.2c0,0-0.4-0.6-0.4-1c0-0.1,0.1-0.2,0.2-0.2c4-0.3,6-0.4,9.9-0.6c0.8-4.9,1.3-7.4,2.1-12.3
			c-3.6,0.3-7.2,0.3-10.8,0.3c-4.9-0.1-13-0.9-12.9-7.6c0-0.7,0.4-1.1,0.9-1.1c0.7,0,0.4,1.8,1.9,2.8c1.3,0.8,3.4,1,5.9,1
			c17.4,0.2,34.9-5.4,52.4-4.5c4.2,0.3,9.9,2.2,11.9,5c0.6,0.8,1.3,1.6,1.3,2.4c-0.1,0.9-0.9,1.7-2.8,2c-1.5,0.3-2.6,0.3-3.4,0.3
			c-0.7-0.1-2.5-1-2.5-1.5c0-0.2,0.3-0.3,0.8-0.4c0.4,0,1.1-0.2,1.2-0.3c0.1-0.4-3-0.6-3.6-0.6c-12.3-0.6-24.9,0.9-37.4,1.9
			c-0.5,4.9-0.8,7.4-1.3,12.3c3.4-0.3,10.3-0.8,14.1-0.6c7.3,0.3,7.4,3.1,9.4,5.4c0.1,0.1,0.2,0.3,0.2,0.5c0,0.2-0.2,0.5-0.7,0.5
			c-7.8-0.2-21.9-1.1-23.8,0.7c-1.4,1.4-1.4,11.2-1.6,16.7c-0.2,3.6,2,2.5,1.9,3.6c-0.1,1.4-0.6,5.3-2.6,5.2
			c-2.5-0.1-3.8-4.6-3.8-6.7c0.3-6.1,2.7-18,2.1-18.7c-0.4-0.4-4.5,0.3-5.3,0.3c-0.5,0-1.1-0.1-1.7-0.4c-0.7-0.4-2.4-2.2-2.4-3.4
			c0-0.3,0.2-0.6,0.3-0.7C883.7,265.6,883.8,265.2,883.8,265.2z"/>
			<path d="M915.9,289.7c-0.6-0.1-1.4-0.2-1.3-0.6c0-0.1,0.1-0.2,0.2-0.4c3.7-3.9,8.1-13.1,7.3-16c-0.3-0.9-1.7-3.4-1.6-5.3
			c0.1-2.3,1.2-4.4,3-4.3c1.7,0.1,2.1,1.3,2,2.7c-0.1,1.2-0.5,2.6-0.5,3.7c-0.1,1,0.1,1.4,0.5,1.4c0.3,0,0.7-0.2,1.3-0.5
			c2.1-1.1,5.4-4.2,5.9-4.1c0.8,0.1,1.8,1.6,1.8,2.4c0,0.4-0.2,0.7-0.2,0.7c-1.8,3.1-3.9,8.7-4,11.5c-0.2,3,0.7,5,2,5
			c1.2,0.1,2.6-1.4,4.1-4.5c0.2-0.4,0.1-0.6,0.9-1.1c0.2-0.1,0.3-0.2,0.4-0.2c0.1,0,0.2,0.1,0.2,0.3c0,0.1-0.1,0.3-0.1,0.3
			c-0.6,3.3-3.2,9.5-7.7,9.2c-3.2-0.2-3.9-3.5-3.7-7.1c0.2-3.6,2-9.5,2-9.5c-0.1-0.1-2.3,0.6-3.5,0.5c-0.3,0-0.8-0.2-0.9-0.1
			c-1.3,0.8-5.6,11.9-7,15.8C916.8,289.7,916.4,289.8,915.9,289.7z"/>
			<path d="M951.5,271.6c5.1,0.4,6.1-3.4,7.8-3.4c0.2,0,0.4-0.1,0.5,0c2,0.2,2.4,2.7,2.1,5.8c-0.3,2.6-1.6,8.1-1.6,8.1
			s4.1-12.2,7.5-12.9c1.7-0.4,3.1,1.6,2.9,3.9c-0.2,1.5-0.2,2.2-0.4,3.7c-0.3,2.7-1.2,7.8-1.2,7.8s4.4-13,8.7-16.1
			c0.2-0.1,0.3-0.2,0.5-0.1c0.7,0.1,2.6,1.6,2.5,2.3c0,0.1,0,0.2-0.1,0.3c-1.3,2-3,7.2-3.5,11.8c-0.5,4.7,0.4,9,3.9,9.3
			c8.2,0.6,15.9-6.5,20.3-13.1c0,0,0.3-0.2,0.5-0.2c0.2,0,0.3,0.2,0.2,0.6c-0.1,0.2-0.2,0.6-0.2,0.9c-0.1,0.5,0.4,0.7,0.3,1.2
			c-0.7,5.6-4,10.8-9.4,13c-2.9,1.2-5.9,1.5-8.7,1.3c-8-0.8-11.6-8.3-10.8-15.6c0.1-1,0.5-3.1,0.5-3.1c-0.1,0-5.2,10.1-6.3,14.4
			c-0.1,0.3-0.5,0.5-0.9,0.5c-0.5-0.1-0.9-0.1-1.3-0.1c-0.5-0.1-0.9-0.3-0.9-0.7c-0.1-1.7,1.3-8.1,1.7-12.6c0.3-3,0.2-5.3-0.1-5.3
			c-3.3,1-5.8,11.6-6.5,16.5c-0.2,1.2-1,1.7-1.9,1.6c-1.3-0.1-2.9-1.4-2.7-2.6c0.7-4.4,2.6-9.7,3.1-14.5c0.2-1.8,0-3.1-0.7-3.2
			c-0.9-0.1-1.3,3.6-5.2,5c-0.1,0.4-0.1,0.6-0.1,1c-0.5,5.3-3.6,13-9.5,12.9c-4.8-0.1-7-5.1-6.6-10.3c0.4-5.6,3.8-14.6,10.4-14.4
			c4.3,0.2,4.6,3.4,4.6,4.5c0,0.2,0,0.3-0.1,0.4c-0.9-0.5-1.8-0.8-2.6-0.8c-5.6-0.2-8.1,7.2-8.4,12c-0.3,3.7,0.6,6.8,2.6,6.9
			c2.7,0.2,5-5.2,5.4-9.8c0.2-2.7-0.3-5.2-1.7-6.1c0,0,2.3-1.2,3.4-1.2C950.2,271.3,951,271.6,951.5,271.6z"/>
		</g>
	</g>
	<g>
		<path d="M838.3,331.1l-5.2-7.9c-0.2-0.3,0-0.7,0.4-0.7h3.1c0.2,0,0.3,0.1,0.4,0.2l3.3,4.9l3.3-4.9c0.1-0.1,0.2-0.2,0.4-0.2h3.1
		c0.4,0,0.6,0.4,0.4,0.7l-5.3,7.9v7.5c0,0.3-0.2,0.5-0.5,0.5h-2.8c-0.3,0-0.5-0.2-0.5-0.5v-7.5H838.3z"/>
		<path d="M855.2,322.3c4.7,0,8.5,3.8,8.5,8.5s-3.8,8.5-8.5,8.5c-4.7,0-8.5-3.7-8.5-8.5C846.7,326.1,850.4,322.3,855.2,322.3z
		 M855.2,335.5c2.6,0,4.7-2.1,4.7-4.7c0-2.6-2.1-4.8-4.7-4.8c-2.6,0-4.7,2.1-4.7,4.8C850.5,333.3,852.6,335.5,855.2,335.5z"/>
		<path d="M865.8,322.9c0-0.3,0.2-0.5,0.5-0.5h2.9c0.3,0,0.5,0.2,0.5,0.5v9.6c0,1.6,1.2,3,2.9,3c1.7,0,3-1.3,3-3v-9.6
		c0-0.3,0.2-0.5,0.5-0.5h2.9c0.3,0,0.5,0.2,0.5,0.5v9.7c0,3.6-3,6.5-6.8,6.5c-3.7,0-6.7-3-6.7-6.5v-9.7H865.8z"/>
		<path d="M881.6,322.9c0-0.3,0.2-0.5,0.5-0.5h7.1c2.8,0,5.2,2.3,5.2,5.1c0,2.1-1.4,3.9-3.5,4.8l3.2,6c0.2,0.3,0,0.7-0.4,0.7h-3.1
		c-0.2,0-0.3-0.1-0.4-0.2l-3.1-6.2h-1.7v6c0,0.3-0.2,0.5-0.5,0.5H882c-0.3,0-0.5-0.2-0.5-0.5L881.6,322.9L881.6,322.9z M888.8,329.5
		c1,0,1.8-0.9,1.8-1.9s-0.8-1.8-1.8-1.8h-3.5v3.7H888.8z"/>
	</g>
	<g>
		<g>
			<path d="M715.9,347.1c0.1-0.4,0.4-0.8,0.8-0.7c4.1,0.3,6.2,0.5,10.3,0.8c8,0.7,14.4,7.7,13.9,15.7c-0.5,8.1-7.9,14.3-16,13.7
			c-4.2-0.3-6.3-0.5-10.4-0.8c-0.4-0.1-0.7-0.5-0.7-0.9C714.4,365.7,715.2,356.4,715.9,347.1z M724.9,370.4c4.8,0.4,8.6-3.2,8.9-7.9
			c0.3-4.8-2.9-8.7-7.7-9.1c-1.6-0.1-2.5-0.2-4-0.3c-0.4,5.7-0.9,11.4-1.3,17C722.4,370.2,723.3,370.2,724.9,370.4z"/>
			<path d="M746.9,349.3c0.1-0.4,0.4-0.8,0.9-0.8c5.8,0.4,11.7,0.7,17.5,1c0.5,0,0.8,0.4,0.8,0.8c-0.1,1.8-0.2,2.8-0.3,4.6
			c0,0.4-0.4,0.8-0.9,0.8c-4.7-0.3-7.1-0.4-11.7-0.7c-0.1,2.1-0.2,3.1-0.3,5.2c3.9,0.3,5.8,0.4,9.7,0.6c0.4,0,0.8,0.4,0.8,0.8
			c-0.1,1.8-0.2,2.8-0.3,4.6c0,0.5-0.4,0.8-0.9,0.8c-3.9-0.2-5.8-0.3-9.7-0.6c-0.2,2.3-0.2,3.4-0.4,5.7c4.8,0.3,7.1,0.4,11.8,0.7
			c0.5,0,0.8,0.4,0.8,0.8c-0.1,1.8-0.2,2.8-0.3,4.6c0,0.4-0.4,0.8-0.9,0.8c-5.9-0.3-11.8-0.7-17.7-1c-0.5-0.1-0.8-0.4-0.8-0.9
			C745.8,367.9,746.3,358.6,746.9,349.3z"/>
			<path d="M771.7,350.7c0-0.4,0.4-0.8,0.8-0.8c4.1,0.2,6.1,0.3,10.2,0.5c5.1,0.3,9.3,4.6,9.1,9.7c-0.2,5.1-4.7,9.2-9.9,9.1
			c-1.8-0.1-2.7-0.1-4.5-0.2c-0.2,3.9-0.3,5.9-0.5,9.9c0,0.4-0.4,0.8-0.9,0.8c-2-0.1-3-0.2-5.1-0.3c-0.5,0-0.8-0.4-0.8-0.8
			C770.8,369.3,771.2,360,771.7,350.7z M781.8,363c1.8,0.1,3.4-1.3,3.5-3.2c0.1-1.8-1.4-3.2-3.2-3.3c-1.6-0.1-2.4-0.1-4-0.2
			c-0.1,2.6-0.2,3.9-0.3,6.4C779.4,362.9,780.1,363,781.8,363z"/>
			<path d="M796.5,351.8c0-0.4,0.4-0.8,0.8-0.8c5.8,0.2,11.7,0.4,17.5,0.6c0.5,0,0.8,0.4,0.8,0.8c-0.1,1.8-0.1,2.8-0.2,4.6
			c0,0.4-0.4,0.8-0.8,0.8c-4.7-0.2-7.1-0.2-11.8-0.4c-0.1,2.1-0.1,3.1-0.2,5.2c3.9,0.2,5.8,0.2,9.7,0.3c0.4,0,0.8,0.4,0.8,0.8
			c-0.1,1.8-0.1,2.8-0.2,4.6c0,0.5-0.4,0.8-0.8,0.8c-3.9-0.1-5.8-0.2-9.7-0.3c-0.1,2.3-0.1,3.4-0.2,5.7c4.8,0.2,7.1,0.3,11.9,0.4
			c0.5,0,0.8,0.4,0.8,0.8c-0.1,1.8-0.1,2.8-0.2,4.6c0,0.4-0.4,0.8-0.8,0.8c-5.9-0.2-11.9-0.4-17.7-0.6c-0.5,0-0.8-0.4-0.8-0.8
			C795.8,370.4,796.1,361.1,796.5,351.8z"/>
			<path d="M821.2,352.2c0-0.4,0.4-0.8,0.8-0.7c0.4,0,0.6,0,1.1,0.1c5.5,5.5,11,11,16.6,16.5c0,0,0,0,0.1,0c0.1-5,0.2-10,0.3-14.9
			c0-0.4,0.4-0.8,0.8-0.8c2,0.1,3.1,0.1,5.1,0.1c0.4,0,0.8,0.4,0.8,0.8c-0.1,9.5-0.3,18.9-0.4,28.3c0,0.4-0.4,0.8-0.8,0.8
			c-0.3,0-0.4,0-0.7,0c-0.2,0-0.5-0.2-0.6-0.2c-5.6-5.6-11.1-11.3-16.6-17c0,0,0,0-0.1,0c-0.1,5.2-0.2,10.5-0.4,15.7
			c0,0.4-0.4,0.8-0.8,0.8c-2-0.1-3.1-0.1-5.1-0.1c-0.4,0-0.8-0.4-0.8-0.8C820.7,371,821,361.6,821.2,352.2z"/>
			<path d="M853.9,353.2c0-0.4,0.4-0.8,0.8-0.8c4.1,0.1,6.2,0.1,10.3,0.1c8,0.1,14.9,6.6,14.9,14.7c0.1,8.1-6.9,14.8-15,14.8
			c-4.2,0-6.3,0-10.5-0.1c-0.4,0-0.8-0.4-0.8-0.8C853.8,371.7,853.8,362.5,853.9,353.2z M864.5,375.7c4.9,0,8.3-3.7,8.3-8.5
			c0-4.8-3.5-8.5-8.3-8.5c-1.6,0-2.5,0-4.1,0c-0.1,5.7-0.1,11.4-0.1,17.1C862.1,375.7,862.9,375.7,864.5,375.7z"/>
			<path d="M885,353.2c0-0.4,0.4-0.8,0.8-0.8c5.8-0.1,11.7-0.1,17.5-0.2c0.5,0,0.8,0.4,0.8,0.8c0.1,1.8,0.1,2.8,0.1,4.6
			c0,0.4-0.3,0.8-0.8,0.8c-4.7,0.1-7.1,0.1-11.8,0.2c0,2.1,0.1,3.1,0.1,5.2c3.9-0.1,5.8-0.1,9.7-0.1c0.4,0,0.8,0.4,0.8,0.8
			c0.1,1.8,0.1,2.8,0.1,4.6c0,0.5-0.4,0.8-0.8,0.8c-3.9,0.1-5.8,0.1-9.7,0.1c0,2.3,0.1,3.4,0.1,5.7c4.8-0.1,7.1-0.1,11.9-0.2
			c0.5,0,0.8,0.4,0.8,0.8c0.1,1.8,0.1,2.8,0.1,4.6c0,0.4-0.3,0.8-0.8,0.8c-5.9,0.1-11.9,0.2-17.7,0.2c-0.5,0-0.8-0.4-0.8-0.8
			C885.2,371.8,885.1,362.5,885,353.2z"/>
			<path d="M909.8,352.4c0-0.4,0.4-0.8,0.8-0.8c0.4,0,0.6,0,1.1,0c5.7,5.3,11.5,10.5,17.3,15.8h0.1c-0.2-5-0.3-10-0.4-14.9
			c0-0.4,0.3-0.8,0.8-0.8c2-0.1,3.1-0.1,5.1-0.2c0.4,0,0.8,0.4,0.8,0.8c0.3,9.5,0.6,18.9,0.9,28.3c0,0.4-0.4,0.8-0.8,0.8
			c-0.3,0-0.4,0-0.7,0c-0.2,0-0.5-0.1-0.6-0.2c-5.8-5.4-11.6-10.8-17.3-16.3c0,0,0,0-0.1,0c0.1,5.2,0.3,10.5,0.4,15.7
			c0,0.4-0.3,0.8-0.8,0.8c-2,0.1-3.1,0.1-5.1,0.1c-0.4,0-0.8-0.4-0.8-0.8C910.2,371.3,910,361.9,909.8,352.4z"/>
			<path d="M955.6,350.2c4.2-0.2,7.4,1,10.4,3.4c0.4,0.3,0.4,0.8,0.1,1.2c-1.3,1.4-1.9,2.1-3.2,3.6c-0.3,0.3-0.8,0.3-1.1,0.1
			c-1.5-1.3-3.7-2-5.8-1.9c-4.8,0.2-8.1,4.3-8,9c0.2,4.7,3.9,8.4,8.7,8.2c2-0.1,4.1-0.9,5.6-2.3c0.3-0.3,0.8-0.3,1.1,0
			c1.4,1.3,2.1,2,3.5,3.3c0.3,0.3,0.3,0.8,0,1.1c-2.7,2.9-6.4,4.4-10.2,4.6c-8.3,0.4-15.8-6.1-16-14.5
			C940.6,357.7,947.3,350.6,955.6,350.2z"/>
			<path d="M971,350.7c0-0.4,0.4-0.8,0.8-0.8c2-0.1,3-0.2,5.1-0.3c0.4,0,0.8,0.4,0.9,0.8c0.5,9.3,1,18.6,1.5,27.9
			c0,0.4-0.4,0.8-0.8,0.8c-2,0.1-3.1,0.2-5.2,0.3c-0.4,0-0.8-0.4-0.9-0.8C971.9,369.3,971.4,360,971,350.7z"/>
			<path d="M984.1,350.1c0-0.4,0.3-0.8,0.8-0.9c5.8-0.4,11.7-0.7,17.5-1.1c0.5-0.1,0.8,0.3,0.9,0.8c0.1,1.8,0.2,2.8,0.3,4.6
			c0.1,0.4-0.3,0.8-0.8,0.9c-4.7,0.3-7.1,0.5-11.7,0.8c0.1,2.1,0.2,3.1,0.3,5.2c3.9-0.3,5.8-0.4,9.7-0.6c0.4-0.1,0.8,0.3,0.9,0.8
			c0.1,1.8,0.2,2.8,0.3,4.6c0.1,0.5-0.3,0.8-0.8,0.9c-3.9,0.3-5.8,0.4-9.7,0.6c0.2,2.3,0.2,3.4,0.4,5.7c4.8-0.3,7.1-0.5,11.8-0.8
			c0.5-0.1,0.8,0.3,0.9,0.8c0.1,1.8,0.2,2.8,0.3,4.6c0.1,0.4-0.3,0.8-0.8,0.9c-5.9,0.4-11.8,0.8-17.7,1.1c-0.5,0.1-0.8-0.3-0.9-0.8
			C985.1,368.6,984.6,359.3,984.1,350.1z"/>
			<path d="M1008.8,373.2c0.7-1.4,1.1-2.2,1.8-3.6c0.3-0.6,1.1-0.5,1.4-0.4c0.2,0.1,3.4,2.1,6.2,1.9c1.7-0.1,2.9-1.3,2.8-2.8
			c-0.2-1.8-1.7-3-4.7-3.9c-3.8-1.2-8.6-3.7-8.9-8.7c-0.3-5.2,4.3-8.7,9.2-9.1c4.3-0.3,8,1.7,9.3,2.5c0.5,0.3,0.5,1,0.4,1.3
			c-0.8,1.4-1.1,2-1.9,3.4c-0.3,0.5-1,0.9-1.4,0.7c-0.4-0.2-3.7-2.3-6.2-2c-1.5,0.1-2.6,1.2-2.5,2.4c0.1,1.5,1.5,2.7,4.9,3.7
			c3.4,1.1,9,3.3,9.3,8.9c0.4,5.3-4.4,9.1-9.4,9.5c-5.5,0.4-8.8-1.6-9.9-2.6C1008.7,374,1008.5,373.8,1008.8,373.2z"/>
		</g>
	</g>
	<g>
		<g id="UyZCBk.tif">
			<g>
				<path d="M584.9,519.9c3.4,0,7.4,8.9,8.5,11.5c0.1-0.3,0.2-0.4,0.1-0.3c3.2,1.9,6.4,3.6,9.4,5.8c4.6,3.4,9.2,6.9,13.2,10.8
				c1.9,1.8,2.8,4.8,3.7,7.4c2.4,7.4,3.5,8.8,8,14.4c3.2,4.1,6.3,8.5,9.1,12.9c2.1,3.2,4.1,6.4,5.3,9.9c0.7,2.1,1.2,7.3,1.2,9.4
				c1.2,1.9,2.4,3.8,3.6,5.7c1.1,1.9,2.1,3.8,2.8,5.9c0.8,2.6,1.7,5.4,1.4,7.9c-0.5,4-1.4,8.1-3.2,11.6c-2.2,4.3-5.3,8.2-8.6,11.8
				c-3.8,4.2-8.6,6-14.3,4.3c-0.6-0.2-1.2,0.1-1.9,0.2c0.3,1,0.9,1.9,1.1,2.8c0.5,3,1.1,5.9,1.1,8.9c0,2.2-0.5,4.4-1,6.6
				c-0.8,3.9-1.3,8-2.8,11.7c-3.3,8.5-8,16.4-14.2,23.1c-4.1,4.4-8.6,8.4-14.6,10.3c-4.5,1.4-8.6,4.4-13.1,5.4
				c-5.7,1.2-11.7,1.1-17.5,1.7c-1,0.1-1.9,0.4-2.8,0.6c2.4,6.8,8.6,8.6,12.7,14.1c-0.8,0.4-1.6,0.9-2.4,1.3c-3,1.5-6.1,3-9,4.6
				c-2.6,1.4-4.3-0.6-6.1-1.7c-4.5-2.7-9-5.5-13.5-8.4c-3.2-2-6.4-5.3-9.2-8c-4.5-4.3-9-8.7-13.3-13.3c-0.8-3.2-2.6-5.5-5.4-6.9
				c-9.5-0.4-14-1.1-21.9-7.1c-3.1-2.4-5.2-5.6-5.1-9.8c0-0.2-1.2-0.9-1.6-0.7c-6,2.4-9.8,7.5-14.6,11.7c-4.7,4-10.7,4.1-16.5,2
				c-5.5-2-11.2-4-16.7-5.7c-6-1.9-13-1-17.8-6.4c-6-6.7-7.3-7.5-8.6-17c-0.1-0.6-1.1-1.5-1.6-1.4c-6.6,0.3-13.2,1.1-19.8,1.2
				c-4.1,0-8.5-0.5-11-4.3c-3-4.3-12.2-6.3-16.3-10.1c-4.4-4.1-8.4-8.7-12.4-13.1c-1.1-2.5-2.4-4.9-4-7.2c-1.4-5.4-7.3-15.4-6.9-20
				c0.4-5.6,3.5-11.3,0.6-16.7c-2-3.7-1.7-7,1.2-9.9c1.7-1.6,1.6-2.8,0.5-4.7c-1.1-2.1,0.7-9.6,3.9-11c10.2-4.3,5.9-12.6,13.8-16.2
				c1.3-0.6,1.3-3.4,2.5-4.7c5.4-5.9,17.9-18.8,27.2-17.2c7.9,1.3,12.5-11.7,19.9-12.8c9.2-1.4,22.4-3.8,29.9-9.5
				c2.1-1.7,4.9-2.6,7.5-3.6c19.6-7.3,42.4,0.1,60.8-7.9c7.5-3.2,16.1-1.3,23.8,0.2c3.5,0.7,7.1,1.6,10.6,2.3
				c6.9,1.5,12.9,1.7,18.8,6c1.1,0.8,2.5,1.8,3.7,1.8c7-0.4,12.6,2.7,17.8,6.9C582.3,518,583.6,519,584.9,519.9
				C584.9,519.9,584.9,519.9,584.9,519.9z"/>
				<path d="M449.1,696.8C449.1,696.8,449,696.8,449.1,696.8C449.1,696.8,449.1,696.8,449.1,696.8
				C449.1,696.8,449.1,696.8,449.1,696.8z"/>
				<path d="M643.5,601.7C643.6,601.7,643.6,601.7,643.5,601.7C643.6,601.6,643.5,601.7,643.5,601.7
				C643.5,601.7,643.5,601.7,643.5,601.7z"/>
				<path d="M539.5,729.1C539.4,728.3,539.5,729.1,539.5,729.1C539.5,728.9,539.5,729.1,539.5,729.1z"/>
				<path d="M413.5,679.7c-0.1,0-0.2,0-0.3,0C413.1,679.9,413.5,679.7,413.5,679.7z"/>
				<path d="M593.2,531.1c0.1,0,0.2,0,0.3,0C593.6,531,593.3,531.1,593.2,531.1z"/>
				<path d="M585.2,519.9L585.2,519.9C585.2,519.9,585.2,519.9,585.2,519.9z"/>
				<path d="M391.9,532.7L391.9,532.7L391.9,532.7z"/>
				<path d="M392,532.7C392,532.7,391.9,532.7,392,532.7L392,532.7z"/>
			</g>
		</g>
		<g>
			<path fill="#FFFFFF" stroke="#1A1A1A" stroke-width="0.1412" stroke-miterlimit="10" d="M460.8,601.2c0,0,11.8,6.3,13.8,9
			c4.4,2.1,5.5,1,6.6,0.8c1.1-0.2,11.1,0,13.8,0c2.6,0,8.8,0,13.1-0.5c4.3-0.5,11.7-0.6,16.1-1.8s5.3-1.6,7.3-3.9
			c2-2.2,2.9-5.4,3.2-7c0.3-1.7,1-2.8,0-4.1c-0.9-1.2-7.5-2.1-13.7-2.5c-6.2-0.3-24.3-2.4-31-1.4s-11.5-0.9-16.1,1.1
			C469.1,593.2,460.8,598.7,460.8,601.2z"/>
			<path fill="#BF3413" d="M449.5,608.3l4-19.3c0,0,16.3-10.4,22.2-11.4c5.8-1.1,22.1-1.6,26.9-1c4.8,0.6,17.7,2.1,24.5,5.4
			s16.5,11,23.5,16.8c-2.2,2.1-3.3,2.5-6.6,2.4c-3.2-0.1-2.7-1.1-5.4-1.3c-2.7-0.1-4.3-0.3-4.3-0.3s0.6-1.6,0.6-3.2
			c0-1.6,0-3.3-3.5-2.6c-3.3-1.2-2.5-1.5-4.2-1.6c-1.7,0-4.3,0.5-5.4,0.5c-1.1,0-12.7-1.7-15-1.7c-2.3,0-9.6,0.6-11.3,0.8
			c-1.7,0.3-6.3,0.3-7.9,0.8c-1.6,0.5-3.9,2.9-4.6,2.9s-8.6-2.2-11.4-1.3s-13.3,9-14.7,10.7C455.1,606.6,452.4,609.3,449.5,608.3z"
			/>
		</g>
		<g>
			<g>
				<path fill="#FFFFFF" d="M464,528.6c0.4,1.3-0.4,2.5-1.5,4c-1,1.2-3.5,4.6-3.5,4.6s-0.4,0.4-0.9,0.5c-1.4,0.3-3.5-2.7-3.6-3.6
				c-0.2-1.3,1.5-3.1,1.5-3.1s1.7-1.7,1.7-2.1c0-0.2-2.4,0-4.5,0.5c-8.7,2.1-27.6,12.9-24.2,23.7c2.2,7,14.2,6.8,19.9,5.5
				c6.4-1.4,12.6-4.2,16.6-10.1c0,0,0.1,0,0.2,0c0.5,0,0.6,0.6,0.6,0.6s-0.7,1.1-0.7,1.3c0,0.3,0.9,0.4,0.9,0.8c0,0.1,0,0.2-0.1,0.4
				c-3.2,7.2-11.6,10.1-18.4,11.6c-8.3,1.8-19.9-1.4-22.5-10.4c-3.7-13,15-24.2,25-27C454.3,524.7,462.9,524.7,464,528.6z"/>
				<path fill="#FFFFFF" d="M466.9,559.9c-0.5,0-1.2,0-1.2-0.3c0-0.1,0-0.2,0-0.2c2.5-3.3,5-10.9,4.1-12.8c-0.3-0.6-2-2.2-2.1-3.7
				c-0.2-1.7,0.5-3.4,2.1-3.7c1.6-0.2,2.1,0.7,2.1,1.7c0.1,0.9,0,2,0,2.8c0,0.7,0.2,1,0.6,1c0.2,0,0.6-0.2,1.1-0.6
				c1.7-1.1,4.3-3.9,4.7-3.9c0.7,0,1.8,1,1.8,1.6c0,0.3-0.1,0.6-0.1,0.6c-1.3,2.6-2.4,7.1-2.3,9.3c0.2,2.3,1.1,3.7,2.2,3.7
				c1,0,2.1-1.3,3.1-3.8c0.1-0.3,0-0.5,0.7-0.9c0.1-0.1,0.2-0.1,0.3-0.1c0.1,0,0.1,0.1,0.1,0.2c0,0.1,0,0.2,0,0.2
				c-0.2,2.7-1.9,7.6-5.6,7.8c-2.7,0.1-3.7-2.3-3.9-5.1c-0.2-2.8,0.6-7.4,0.6-7.4c0,0-1.9,0.7-3,0.8c-0.2,0-0.7,0-0.8,0
				c-0.7,0.6-3.4,10.4-3.9,12.6C467.6,559.8,467.3,559.9,466.9,559.9z"/>
				<path fill="#FFFFFF" d="M494.2,551.4c0-0.8-0.3-1.7-0.5-2.5c0,0,0-0.3,0.6-0.3c1.9,0,2.2,1.9,2.2,3.5c0,3.3-2.7,6.4-6.3,6.4
				c-5,0-7.3-4.1-7.5-8.5c-0.2-5,2.4-11.4,7.9-11.8c2.3-0.2,3.7,1.4,3.7,3.5c0,2.9-6.4,7.4-7.5,9.6c-0.8,1.5,1.9,5.2,3.5,5.2
				C492.3,556.5,494.2,554.4,494.2,551.4z M490.6,540.8c-2.3,0.1-3.9,8.6-3.9,8.6c0.2,0.1,4.7-5.4,4.6-7.7
				C491.3,541.3,491.1,540.8,490.6,540.8z"/>
				<path fill="#FFFFFF" d="M509.8,542.3c0.3,0.3,2.2,0.8,2.1,1.3c-0.1,1.4-1.1,5.8-1.4,9.2c-0.2,2.5,0,4.4,1.2,4.5
				c1.1,0.1,2.5-1.4,3.1-1.8c0.2-0.2,0.7-0.7,0.9-0.7c0.2,0,0.2,0.3,0.1,0.5c-0.2,2.6-2.7,4.7-4.9,4.4c-1.9-0.2-3.9-6.4-3.9-6.4
				c-0.1,0-3.5,5.7-5.4,5.5c-3.3-0.2-4.8-3.7-4.7-7.7c0.1-5.2,2.8-12.7,8.5-12.9C508.2,538.2,509.3,541.6,509.8,542.3z M508,543.7
				c-0.2-0.8-1.6-1.6-2.4-1.6c-3.2-0.1-5.5,7.5-5.6,11.2c0,1.9,0.6,3.5,1.4,3.4C505.4,556,508.6,546.4,508,543.7z"/>
				<path fill="#FFFFFF" d="M521.6,525.5c0,0,0.2,0,0.2,0c1,0.8,3.8,0.9,3.6,2c-0.1,0.7-2.5,6.4-2.3,6.6c0.4,0.5,6.7-0.4,7.6-0.3
				c0.7,0,1.6,0.2,1.5,0.6c0,0.3-0.7,0.3-0.9,0.5c-0.4,0.5-0.6,0.9-0.6,0.9c-1,0.3-7.4,0.6-8.7,1.8c-2.1,1.8-3.2,11.1-3.9,16.7
				c-0.5,3.7-0.2,7.3,0.8,9.7c0,0-0.3,0.8-0.7,0.6c-3.1-1.5-3-9.7-2.6-14c0.4-4,2.2-12.2,2-12.4c-0.1-0.2-2.3,0.1-3.4,0
				c-2.8-0.1-3.9-1.9-3.7-4.5c0-0.4,0.2-1.1,0.6-1.1c0.1,0,0.2,0.1,0.3,0.2c1.1,0.9,4.3,1.1,6.7,1.2c0.2,0,0.3,0,0.5,0
				c0.7-2.8,1.1-6.5,2.4-8.4C521.1,525.7,521.3,525.5,521.6,525.5z"/>
				<path fill="#FFFFFF" d="M525.8,541.5c0.9,0.1,1.9,0,3.2,0c0.6,0,0.6,0.5,0.6,0.5c-1.7,4.9-3.4,9.8-4.2,15
				c-0.2,1.7,0.1,2.4,0.8,2.5c1.1,0.2,2.8-1.5,3.6-2.6c0.1-0.1,0.3-0.2,0.5-0.2c0.1,0,0.2,0.1,0.2,0.3c0,0,0,0,0,0.1
				c-1,2.8-3.4,5-5.7,4.6c-2.7-0.5-3.1-4.2-2.5-8.4c0.5-4.3,2-9.1,2.8-11.2C525.1,542,525.4,541.4,525.8,541.5z M534,530.9
				c-0.3,1.9-2.2,4.2-4.1,4c-1.7-0.2-2.3-1.4-2.1-2.8c0.2-1.9,2-4,4.2-3.7C533.7,528.5,534.2,529.7,534,530.9z"/>
				<path fill="#FFFFFF" d="M542.3,548.4c0.5-2.7,0-8,0.5-8.7c0.3-0.5,3-0.6,3.8-0.5c1.1,0.2,1.4,1.2,0.8,3.8
				c-1.4,6.3-8.8,20.9-12.4,20.4c-3.2-0.5-3.8-18-2.1-21.6c0.2-0.4,1.1-0.6,1.7-0.5c1.3,0.2,2.6,1.2,2.5,2.1
				c-0.8,5.3-1.1,17.2-0.8,17.3C537,561.1,541.5,552.9,542.3,548.4z"/>
				<path fill="#FFFFFF" d="M571.4,556.3c0,0,0.3-0.1,0.5-0.1c0.1,0,0.2,0.2,0.1,0.6c0,0.2-0.2,0.5-0.4,0.8c-0.1,0.5,0.2,0.8,0,1.3v0
				c-2.3,7.6-9.5,13.4-17.6,10.8c-5.9-1.9-10.1-7.7-8.7-14c1.1-5.2,5.3-12.5,11.2-11.4c2.2,0.4,3.2,2.7,2.5,5.1
				c-1.3,4.6-9,7.5-10.4,9c-1.4,1.6,0.8,7,3.3,7.6C559.1,567.7,566.4,561.2,571.4,556.3z M555.5,547.3c-2.2-0.5-6.5,9-6.5,9
				c0.3,0.2,6.6-5.3,7.1-7.4C556.4,548.1,556.2,547.5,555.5,547.3z"/>
			</g>
		</g>
		<g>
			<g>
				<path fill="#FFFFFF" d="M426.6,620.7c0.9,0.3,0.1,2,4.1,3.1c13.2,3.6,27.2,3.4,40.9,3.9c4.6,0.2,9.7,0.8,13,4.3
				c0,0,0.2,0.3,0.2,0.6c0,1.3-2.2,1.5-3.2,1.8c-0.6,0.2-2.9,0.7-2.9,0.7s-0.9,0-0.8-0.4c0-0.4,0.5-0.6,1.2-1.1c0,0-0.6-0.4-2.9-0.5
				c-8.3-0.3-22.7-2.1-25-0.5c-3,2.1-6.3,18.5-8.5,27.9c-0.1,0.6-0.7,0.9-1.3,0.8c-0.3-0.1-0.6-0.2-0.7-0.5c-0.4-1-2.1-1.6-1.7-3.2
				c2.2-8.4,9.7-24.3,9.1-25.1c-0.5-0.9-9.8-0.7-14.6-2c-3.9-1-9.8-4.4-8.3-9.2C425.5,620.6,426.2,620.5,426.6,620.7z"/>
				<path fill="#FFFFFF" d="M456.2,652.7c0.1,0,0.2,0,0.2-0.1c1-1.2,5.9-7.2,7.7-7c0.5,0,0.9,0.5,0.9,0.5c1.1,0.2,2.1,0.6,2,1.4
				c-0.6,3.2-1.7,6.5-2,9.5c-0.2,2.2-0.2,4.8,1.3,5c1.9,0.2,3.8-1.7,4.3-2.9c0,0,0.1-0.2,0.3-0.1c0.4,0,0.5,0.5,0.5,0.7
				c-0.1,1.7-1.9,3.4-3.5,4.1c-1.1,0.4-2.1,0.5-2.9,0.4c-5.1-0.7-4.5-6.9-4.2-9.5c0.3-2.1,0.8-4.1,1-5.2c0-0.1,0-0.8-0.1-0.8
				c-0.3,0-3.4,3.5-4.1,4.4c-1.5,2-2.7,4.7-3.1,6.9c-0.2,1.6-0.4,2.9-0.4,2.9c0,0.4-0.2,0.7-0.5,0.7c-0.1,0-0.2-0.1-0.4-0.2
				c-0.9-0.7-3.2-2.1-3.2-2.4c-0.5-2.3,2.6-9,3.9-13.5c-0.1,0-0.1,0-0.2,0c-0.2,0-0.4-0.1-0.4-0.1c-0.3-0.3-0.2-0.6-0.6-0.7
				c-0.3-0.1-0.5-0.2-0.5-0.2s1.2,0,2.1,0c0.2-0.6,0.2-0.9,0.4-1.5c2.1-6.8,6-20.5,11.1-21.6c1.6-0.3,3.2,2.6,2.7,5.8
				c-0.9,6.8-8.3,14-10.9,17.4c-1,1.3-1.3,5-1.5,6.2C456,652.6,456.1,652.7,456.2,652.7z M465.4,628.6c-3.3,1-7.5,15.9-7.5,15.9
				c0.2,0.1,7.1-8.8,7.9-14C466,629.4,465.7,628.5,465.4,628.6z"/>
				<path fill="#FFFFFF" d="M470.8,657.7c0.4-4.5,2.1-10.8,3.1-10.7c0.9,0,2,0,3.3-0.1c0.6,0,0.6,0.4,0.6,0.4
				c-1.2,4.4-2.7,8.9-3.1,13.6c-0.1,1.5,0.4,2.1,0.9,2.1c4.7,0,6.6-8.6,8.2-12.4c0.9-2.1,1.7-3.8,2.4-3.8c1,0,1.7-0.5,2.1-0.5
				c0.4,0,0.5,2.1,0.5,4c0,3.6,0,7.3,0,7.3c0.1,0,3.8-9.1,6.8-11.3c0.1-0.1,0.2-0.1,0.4-0.1c0.6,0,2.5,1,2.5,1.5c0,0.1,0,0.1,0,0.2
				c-1.2,2.6-1.6,6.8-1.5,9.7c0.1,2.5,1,4.9,2.1,4.9c0.7,0,1.5-0.8,2.3-2.9c0,0,0.1,0,0.2,0c0.1,0,0.2,0,0.2,0.1
				c0.1,1.9-1.3,4.9-3.6,4.9c-5.1,0.1-5.6-10.2-5.6-10.2c-0.3-0.1-4.4,8.9-5.3,11.7c-0.1,0.3-0.4,0.4-0.9,0.4
				c-1.2,0-2.7-1.2-2.7-1.4c0-0.1,0.5-3.1,0.9-6.7c0.2-2,0.7-5.4,0.7-7.6c0-0.4-0.1-0.7-0.1-0.7c-2.1,1.3-4.1,15.2-10.7,15.1
				C471.5,665.1,470.6,661.5,470.8,657.7z M481,637.2c0,1.7-1.7,3.9-3.5,3.8c-1.7-0.1-2.3-1.2-2.2-2.4c0.1-1.7,1.6-3.6,3.6-3.5
				C480.4,635.1,481,636.1,481,637.2z"/>
				<path fill="#FFFFFF" d="M514,644.6c1.7-0.2,2.7,0.7,2.9,2.2c0.4,2.7-7,8.1-7.8,9.8c-0.9,1.9,7,10.7,13.4,9.9c2-0.2,4.1-1,6-2.4
				c0,0,0.3-0.3,0.5-0.3v0c0,0.1-0.4,1.1-0.5,1.1c-1.7,2.1-0.8,6.4-7.4,6.9c-6.8,0.4-12.3-12.4-14-13.6c0,0-0.3,0.5-0.3,0.5
				c-0.1,0.6-0.2,2.7-0.1,4.5c0.1,1.8,0.5,3.3,0.5,3.3c0,0.5,0,0.8-0.3,0.8c-0.1,0-0.2,0-0.4-0.1c-1.1-0.5-3.6-1.4-3.8-1.7
				c-1.3-2.5,0.1-10.1,0.4-15.1c0,0,0,0-0.1,0c-0.2,0-0.4,0-0.4,0c-0.4-0.2-0.3-0.6-0.8-0.6c-0.3,0-0.5-0.1-0.5-0.1s1.7-0.3,1.9-0.6
				c1.9-2.6,0.1-24.8,5.5-27.2c1.6-0.7,3.7,2,4.1,5.4c0.9,7.4-4.9,17.3-7,21.6c-0.4,0.9-0.1,4.6-0.1,4.6
				C505.7,653.4,511.4,644.9,514,644.6z M513.3,649c0-0.5-0.4-0.7-1.1-0.7c-2.9,0.3-6.2,7.8-6.2,7.8
				C506.9,656.6,513.5,650.3,513.3,649z M509.7,627.6c-4,1.7-3.9,19.3-3.9,19.3c0.3,0.1,5.4-11.7,4.8-17.5
				C510.4,628.4,509.9,627.6,509.7,627.6z"/>
				<path fill="#FFFFFF" d="M519.3,657.2c-0.7-4.8-0.5-11.8,0.5-11.9c0.9-0.1,1.9-0.5,3.2-0.9c0.6-0.1,0.7,0.3,0.7,0.3
				c-0.2,4.9-0.6,9.9,0.2,14.9c0.2,1.6,0.9,2.2,1.4,2.1c4.6-1.2,4.5-10.7,5.1-14.8c0.3-2.4,0.8-4.3,1.4-4.5c1-0.2,1.5-0.9,1.9-1
				c0.4-0.1,1,2.1,1.4,4c0.9,3.8,1.7,7.6,1.7,7.6c0.1,0,1.6-10,4-13.3c0.1-0.1,0.2-0.2,0.4-0.2c0.6-0.1,2.7,0.4,2.8,1.1
				c0,0.1,0,0.1,0,0.2c-0.6,3,0,7.5,0.8,10.4c0.7,2.6,2.1,4.9,3.2,4.6c0.7-0.2,1.3-1.2,1.6-3.6c0,0,0.1-0.1,0.2-0.1
				c0.1,0,0.2,0,0.2,0.1c0.6,2-0.2,5.5-2.4,5.9c-4.7,1-7.9-9.4-7.9-9.4c-0.2,0-2.2,9.3-2.4,13.4c0,0.3-0.3,0.6-0.8,0.7
				c-1.2,0.2-3-0.7-3-0.8c0-0.1-0.2-3.3-0.7-7.3c-0.2-2.1-0.6-5.8-1.1-8.1c-0.1-0.4-0.2-0.7-0.2-0.7c-1.8,1.8-0.1,16.9-6.8,18.3
				C521.7,664.7,519.9,661.2,519.3,657.2z M524.3,633.4c0.3,1.8-0.7,4.4-2.5,4.7c-1.6,0.3-2.5-0.7-2.7-2.1c-0.3-1.8,0.7-4.1,2.7-4.5
				C523.3,631.3,524.2,632.2,524.3,633.4z"/>
				<path fill="#FFFFFF" d="M549.7,650.9c-1.7-5.7-1.1-14.1,5.1-16.5c2.2-0.9,4.7,0,5.7,2.6c0,0,0,0,0,0.1c-0.9,0-1.7,0-2.3,0.3
				c-4.9,2-6.1,9.5-4.8,14.1c0.5,2,1.9,3.7,2.8,3.3c4.6-2.1,2.1-14.9,2.7-16.1c0.3-0.6,5-1.3,5.6,0.2c0,0.1,0.1,0.2,0.1,0.4
				c0.5,10.9,12.9,36.3-4.7,40.4c-4.7,1.1-9.8-1.7-10.7-5.1c-0.1-0.5,0-0.8,0.4-0.9c0.2,0,0.8,0.1,0.9,0.3c0.7,1.1,3.4,4.4,6.5,3.7
				c12.6-2.9,7.1-20.7,4.6-28.7c0-0.1-0.1-0.2-0.1-0.2c-0.6,0.4-1.6,7.4-4,8.1C553.7,658.2,551,655,549.7,650.9z"/>
			</g>
		</g>
	</g>
	<g>
		<path d="M361,432.5c0-0.3,0.3-0.6,0.6-0.6h13.8c0.4,0,0.6,0.3,0.6,0.6v3.6c0,0.3-0.3,0.6-0.6,0.6h-9.2v4.1h7.5
		c0.3,0,0.6,0.3,0.6,0.6v3.6c0,0.4-0.3,0.6-0.6,0.6h-7.5v4.5h9.2c0.4,0,0.6,0.3,0.6,0.6v3.6c0,0.3-0.3,0.6-0.6,0.6h-13.8
		c-0.4,0-0.6-0.3-0.6-0.6V432.5z"/>
		<path d="M379.1,432.2c0-0.3,0.3-0.6,0.6-0.6h0.8l13.2,12.8h0v-11.8c0-0.3,0.3-0.6,0.6-0.6h4c0.3,0,0.6,0.3,0.6,0.6v22.4
		c0,0.3-0.3,0.6-0.6,0.6h-0.5c-0.1,0-0.4-0.1-0.4-0.1l-13.1-13.2h0v12.4c0,0.3-0.3,0.6-0.6,0.6h-3.9c-0.3,0-0.6-0.3-0.6-0.6
		L379.1,432.2z"/>
		<path d="M402.9,432.5c0-0.3,0.3-0.6,0.6-0.6h4c0.4,0,0.6,0.3,0.6,0.6v8.4h9.5v-8.4c0-0.3,0.3-0.6,0.6-0.6h4c0.3,0,0.6,0.3,0.6,0.6
		v22c0,0.3-0.3,0.6-0.6,0.6h-4c-0.4,0-0.6-0.3-0.6-0.6v-8.7h-9.5v8.7c0,0.3-0.3,0.6-0.6,0.6h-4c-0.3,0-0.6-0.3-0.6-0.6V432.5z"/>
		<path d="M425.5,454.3l10.4-22.4c0.1-0.2,0.3-0.4,0.6-0.4h0.3c0.2,0,0.5,0.1,0.6,0.4l10.4,22.4c0.2,0.4,0,0.9-0.6,0.9h-3.7
		c-0.6,0-0.9-0.2-1.1-0.8l-1.2-2.6h-9l-1.2,2.7c-0.1,0.4-0.5,0.8-1.2,0.8h-3.6C425.5,455.2,425.3,454.7,425.5,454.3z M439.1,447.2
		l-2.5-5.5h0l-2.5,5.5H439.1z"/>
		<path d="M450.4,432.2c0-0.3,0.3-0.6,0.6-0.6h0.8l13.2,12.8h0v-11.8c0-0.3,0.3-0.6,0.6-0.6h4c0.3,0,0.6,0.3,0.6,0.6v22.4
		c0,0.3-0.3,0.6-0.6,0.6h-0.5c-0.1,0-0.4-0.1-0.4-0.1l-13.1-13.2h0v12.4c0,0.3-0.3,0.6-0.6,0.6h-4c-0.3,0-0.6-0.3-0.6-0.6
		L450.4,432.2z"/>
		<path d="M486.4,431.6c3.3,0,5.8,1.1,8,3.1c0.3,0.3,0.3,0.7,0,0.9l-2.6,2.7c-0.2,0.2-0.6,0.2-0.8,0c-1.2-1.1-2.9-1.7-4.5-1.7
		c-3.8,0-6.5,3.1-6.5,6.8c0,3.7,2.8,6.7,6.5,6.7c1.6,0,3.2-0.6,4.4-1.6c0.2-0.2,0.7-0.2,0.9,0l2.6,2.8c0.2,0.2,0.2,0.7,0,0.9
		c-2.2,2.2-5.1,3.2-8.1,3.2c-6.6,0-12-5.3-12-11.9C474.4,436.9,479.8,431.6,486.4,431.6z"/>
		<path d="M498.5,432.5c0-0.3,0.3-0.6,0.6-0.6h13.8c0.4,0,0.6,0.3,0.6,0.6v3.6c0,0.3-0.3,0.6-0.6,0.6h-9.2v4.1h7.5
		c0.3,0,0.6,0.3,0.6,0.6v3.6c0,0.4-0.3,0.6-0.6,0.6h-7.5v4.5h9.2c0.4,0,0.6,0.3,0.6,0.6v3.6c0,0.3-0.3,0.6-0.6,0.6h-13.8
		c-0.4,0-0.6-0.3-0.6-0.6V432.5z"/>
		<path d="M523.9,452l1.6-2.8c0.3-0.4,0.9-0.4,1.1-0.2c0.1,0,2.5,1.8,4.7,1.8c1.3,0,2.3-0.8,2.3-2c0-1.4-1.1-2.4-3.4-3.3
		c-2.9-1.1-6.4-3.3-6.4-7.4c0-3.3,2.6-6.6,7.7-6.6c3.4,0,6.1,1.8,7.1,2.5c0.4,0.2,0.3,0.8,0.2,1.1l-1.7,2.6
		c-0.2,0.4-0.8,0.7-1.1,0.4c-0.3-0.1-2.7-2-4.7-2c-1.2,0-2.1,0.8-2.1,1.7c0,1.2,1,2.1,3.6,3.2c2.6,1.1,6.7,3.1,6.7,7.5
		c0,3.4-3,6.9-7.8,6.9c-4.3,0-6.7-1.8-7.5-2.6C523.8,452.6,523.7,452.5,523.9,452z"/>
		<path d="M542.8,432.5c0-0.3,0.3-0.6,0.6-0.6h4c0.3,0,0.6,0.3,0.6,0.6v22c0,0.3-0.3,0.6-0.6,0.6h-4c-0.3,0-0.6-0.3-0.6-0.6V432.5z"
		/>
		<path d="M554.7,432.1c0-0.3,0.3-0.5,0.6-0.5h0.5c0.1,0,0.5,0.1,0.6,0.3l7.7,14.3h0l7.7-14.3c0.1-0.2,0.4-0.3,0.6-0.3h0.5
		c0.3,0,0.6,0.2,0.6,0.5l3.8,22.3c0,0.4-0.2,0.7-0.6,0.7h-4c-0.3,0-0.6-0.3-0.6-0.5l-1.5-10.3h0l-5.6,10.7c-0.1,0.2-0.4,0.4-0.6,0.4
		h-0.6c-0.2,0-0.5-0.1-0.6-0.4l-5.6-10.7h0l-1.5,10.3c0,0.3-0.3,0.5-0.6,0.5h-3.9c-0.4,0-0.7-0.3-0.6-0.7L554.7,432.1z"/>
		<path d="M580.9,432.5c0-0.3,0.3-0.6,0.6-0.6h8c4.1,0,7.5,3.3,7.5,7.4c0,4.1-3.3,7.5-7.4,7.5h-3.5v7.8c0,0.3-0.3,0.6-0.6,0.6h-3.9
		c-0.4,0-0.6-0.3-0.6-0.6L580.9,432.5L580.9,432.5z M589.2,441.9c1.4,0,2.6-1.1,2.6-2.6c0-1.4-1.2-2.4-2.6-2.4h-3.2v5.1H589.2z"/>
		<path d="M599.7,432.5c0-0.3,0.3-0.6,0.6-0.6h4c0.3,0,0.6,0.3,0.6,0.6v17.7h7.9c0.4,0,0.6,0.3,0.6,0.6v3.6c0,0.3-0.3,0.6-0.6,0.6
		h-12.5c-0.4,0-0.6-0.3-0.6-0.6V432.5z"/>
		<path d="M616,432.5c0-0.3,0.3-0.6,0.6-0.6h13.8c0.4,0,0.6,0.3,0.6,0.6v3.6c0,0.3-0.3,0.6-0.6,0.6h-9.2v4.1h7.5
		c0.3,0,0.6,0.3,0.6,0.6v3.6c0,0.4-0.3,0.6-0.6,0.6h-7.5v4.5h9.2c0.4,0,0.6,0.3,0.6,0.6v3.6c0,0.3-0.3,0.6-0.6,0.6h-13.8
		c-0.4,0-0.6-0.3-0.6-0.6V432.5z"/>
	</g>
	<g>
		<path d="M473.1,464.5c-0.1-0.2,0.1-0.4,0.3-0.4h2.1c0.1,0,0.3,0.1,0.3,0.2l1.6,6.2h0.1l2.8-6.4c0-0.1,0.1-0.2,0.3-0.2h0.3
		c0.1,0,0.3,0.1,0.3,0.2l2.8,6.4h0.1l1.6-6.2c0-0.1,0.2-0.2,0.3-0.2h2.1c0.2,0,0.4,0.2,0.3,0.4l-3.4,12.2c0,0.1-0.2,0.2-0.3,0.2
		h-0.4c-0.1,0-0.2-0.1-0.3-0.2l-3.3-7.5h0l-3.3,7.5c0,0.1-0.2,0.2-0.3,0.2h-0.3c-0.1,0-0.3-0.1-0.3-0.2L473.1,464.5z"/>
		<path d="M490.4,464.4c0-0.2,0.1-0.3,0.3-0.3h2.2c0.2,0,0.3,0.1,0.3,0.3v12c0,0.2-0.1,0.3-0.3,0.3h-2.2c-0.2,0-0.3-0.1-0.3-0.3
		V464.4z"/>
		<path d="M498.1,466.7h-2.6c-0.2,0-0.3-0.1-0.3-0.3v-2c0-0.2,0.1-0.3,0.3-0.3h8c0.2,0,0.3,0.1,0.3,0.3v2c0,0.2-0.1,0.3-0.3,0.3h-2.6
		v9.7c0,0.2-0.1,0.3-0.3,0.3h-2.2c-0.2,0-0.3-0.1-0.3-0.3V466.7z"/>
		<path d="M505.7,464.4c0-0.2,0.1-0.3,0.3-0.3h2.1c0.2,0,0.3,0.1,0.3,0.3v4.6h5.2v-4.6c0-0.2,0.1-0.3,0.3-0.3h2.1
		c0.2,0,0.3,0.1,0.3,0.3v12c0,0.2-0.1,0.3-0.3,0.3h-2.1c-0.2,0-0.3-0.1-0.3-0.3v-4.8h-5.2v4.8c0,0.2-0.1,0.3-0.3,0.3H506
		c-0.2,0-0.3-0.1-0.3-0.3V464.4z"/>
	</g>
	<g>
		<g>
			<g>
				<path fill="#999999" d="M266.8,496.8c7.6,3.5,16.5,8.5,24.2,12c9.2,4.2,19,9.2,28,13.8c-0.1,0.2-1,0.1-0.3,0.6
				c2.9,1.8,2.7,2.2,2.4,2.6c-0.1,0.2-2.2-1.1-1.6-0.6c-2.2-1.1-6.1-3-3.9-1.6c0.7,0.6,3.8,1.9,4.3,2.6c0.6,0.7-1.1,0.2-0.4,0.9
				c0.8,0.4,2.2,1.1,3,1.5c0.7,0.6-1.1,0.2-0.3,0.6c2.1,1.3,5.2,2.8,8.2,4.3c-0.1,0.2,0.6,0.8-1,0.1c-26.4-13.2-53.7-26.6-79.9-40.3
				c-3-1.6-0.5-0.9,1.9,0c-0.8-0.3-0.7-0.6-1.4-0.9c0.1-0.3,1.9,0,5,1.4c-0.8-0.4-1.5-0.8-2.2-1.1c-0.7-0.5,0.1-0.3,0.2-0.5
				c0.8,0.4,1.5,0.8,1.6,0.7c0-0.1,0.1-0.3,0.2-0.4c-0.8-0.4-2.2-1.1-3-1.5c0.8,0.4,1.5,0.8,1.6,0.7c0-0.1,0.1-0.3,0.2-0.4
				c1.6,0.7,3.7,2,5.3,2.7l0.1-0.3c-1.4-0.9-3.8-1.9-5.3-2.7c0.8,0.3,0.9,0.2,1,0c2.3,1.1,4.4,2.5,6.8,3.3c-0.8-0.4-1.5-0.8-2.2-1.1
				C261,493.4,264.5,495.7,266.8,496.8z"/>
			</g>
		</g>
	</g>
	<g>
		<g>
			<g>
				<path fill="#999999" d="M236.7,591.1c8.3,0.9,18.3,2.9,26.7,3.9c10.1,1.1,20.9,2.8,30.9,4.3c0,0.2-0.9,0.4-0.1,0.7
				c3.3,0.9,3.2,1.3,3.2,1.7c0,0.2-2.5-0.4-1.7,0c-2.5-0.4-6.7-0.9-4.2-0.3c0.8,0.3,4.2,0.6,5,1.1c0.8,0.5-1,0.5-0.1,1
				c0.8,0.1,2.5,0.4,3.3,0.5c0.8,0.3-1,0.5-0.1,0.7c2.5,0.6,5.8,1,9.2,1.5c0,0.2,0.8,0.6-0.9,0.4c-29.2-4.3-59.3-8.4-88.5-13.2
				c-3.3-0.6-0.8-0.7,1.8-0.6c-0.9,0-0.8-0.3-1.7-0.4c0-0.3,1.8-0.6,5.2-0.2c-0.8-0.1-1.7-0.2-2.5-0.4c-0.8-0.2,0-0.3,0.1-0.5
				c0.8,0.1,1.7,0.2,1.7,0.1c0-0.1,0-0.3,0-0.4c-0.8-0.1-2.5-0.4-3.3-0.5c0.8,0.1,1.7,0.2,1.7,0.1s0-0.3,0-0.4
				c1.7,0.1,4.2,0.8,5.8,0.9l0-0.3c-1.7-0.4-4.2-0.6-5.8-0.9c0.9,0,0.9-0.1,0.9-0.3c2.5,0.3,5,1,7.5,1.1c-0.8-0.1-1.7-0.2-2.5-0.4
				C230.1,589.8,234.2,590.9,236.7,591.1z"/>
			</g>
		</g>
	</g>
	<g>
		<g>
			<g>
				<path fill="#999999" d="M255.5,698.7c5.8-3.3,13.4-6.5,19.3-9.9c7.1-4,15-8,22.2-11.6c0.1,0.2-0.3,0.8,0.3,0.6
				c2.6-0.9,2.8-0.5,3-0.1c0.1,0.2-1.8,0.9-1.1,0.8c-1.8,0.9-4.8,2.5-2.9,1.8c0.7-0.1,3-1.5,3.8-1.5c0.8,0-0.3,0.9,0.4,0.9
				c0.6-0.3,1.8-0.9,2.4-1.2c0.7-0.1-0.3,0.9,0.3,0.6c1.9-0.7,4.3-2,6.7-3.2c0.1,0.2,0.8,0.1-0.3,0.8c-21.1,10.8-42.7,22.1-64,32.3
				c-2.5,1.1-0.9-0.2,0.8-1.4c-0.6,0.4-0.7,0.1-1.2,0.5c-0.1-0.3,0.8-1.4,3.2-2.7c-0.6,0.3-1.2,0.6-1.8,0.9
				c-0.7,0.2-0.1-0.3-0.2-0.5c0.6-0.3,1.2-0.6,1.1-0.7c0-0.1-0.1-0.3-0.2-0.4c-0.6,0.3-1.8,0.9-2.4,1.2c0.6-0.3,1.2-0.6,1.1-0.7
				c0-0.1-0.1-0.3-0.2-0.4c1.1-0.7,3.1-1.4,4.3-2.1l-0.1-0.3c-1.2,0.5-3,1.5-4.3,2.1c0.6-0.4,0.5-0.5,0.4-0.7c1.8-1,3.7-1.6,5.4-2.8
				c-0.6,0.3-1.2,0.6-1.8,0.9C250.5,700.8,253.7,699.7,255.5,698.7z"/>
			</g>
		</g>
	</g>
	<g>
		<g>
			<g>
				<path fill="#999999" d="M725.9,500.5c-7.3,4.1-16.6,8.3-24,12.4c-8.8,5-18.6,10-27.6,14.6c-0.1-0.2,0.5-0.9-0.3-0.6
				c-3.2,1.2-3.3,0.9-3.6,0.4c-0.1-0.2,2.2-1.1,1.4-1c2.2-1.1,6-3.2,3.6-2.2c-0.9,0.2-3.8,1.9-4.7,2c-0.9,0.1,0.4-1-0.4-0.9
				c-0.8,0.4-2.2,1.1-3,1.5c-0.9,0.2,0.4-1-0.3-0.6c-2.3,1-5.3,2.6-8.3,4.1c-0.1-0.2-1,0,0.5-0.9c26.2-13.6,53.1-27.8,79.5-40.8
				c3.1-1.4,1,0.1-1.1,1.6c0.7-0.5,0.9-0.2,1.6-0.7c0.1,0.3-1.1,1.6-4.1,3.2c0.8-0.4,1.5-0.8,2.2-1.1c0.8-0.3,0.1,0.3,0.2,0.5
				c-0.8,0.4-1.5,0.8-1.4,0.9c0,0.1,0.1,0.3,0.2,0.4c0.8-0.4,2.2-1.1,3-1.5c-0.8,0.4-1.5,0.8-1.4,0.9c0,0.1,0.1,0.3,0.2,0.4
				c-1.4,0.9-3.8,1.8-5.3,2.7l0.1,0.3c1.6-0.7,3.8-1.9,5.3-2.7c-0.7,0.5-0.7,0.6-0.6,0.8c-2.2,1.2-4.6,2.1-6.7,3.5
				c0.8-0.4,1.5-0.8,2.2-1.1C732,497.7,728.1,499.2,725.9,500.5z"/>
			</g>
		</g>
	</g>
	<g>
		<g>
			<g>
				<path fill="#999999" d="M754.7,595.2c-8.2,1.6-18.3,2.7-26.7,4.3c-9.9,2-20.8,3.6-30.8,5.2c0-0.2,0.8-0.7-0.1-0.7
				c-3.4,0.2-3.4-0.2-3.5-0.7c0-0.2,2.5-0.4,1.6-0.5c2.5-0.4,6.6-1.1,4.1-1c-0.9-0.1-4.2,0.6-5.1,0.4c-0.9-0.2,0.7-0.8-0.1-1
				c-0.8,0.1-2.5,0.4-3.3,0.5c-0.9-0.1,0.7-0.8-0.1-0.7c-2.5,0.1-5.9,0.8-9.2,1.3c0-0.2-0.9-0.3,0.8-0.7
				c29.1-4.7,59.1-9.7,88.4-13.9c3.3-0.4,0.9,0.4-1.5,1.1c0.8-0.2,0.9,0.1,1.7-0.1c0,0.3-1.5,1.1-4.9,1.8c0.8-0.1,1.7-0.2,2.5-0.4
				c0.9,0,0,0.3,0.1,0.5c-0.8,0.1-1.7,0.2-1.7,0.4c0,0.1,0,0.3,0,0.4c0.8-0.1,2.5-0.4,3.3-0.5c-0.8,0.1-1.7,0.2-1.7,0.4
				c0,0.1,0,0.3,0,0.4c-1.7,0.4-4.2,0.5-5.8,0.9l0,0.3c1.7-0.1,4.2-0.6,5.8-0.9c-0.8,0.2-0.8,0.3-0.8,0.6c-2.5,0.5-5,0.5-7.5,1.2
				c0.8-0.1,1.7-0.2,2.5-0.4C761.4,594.5,757.2,594.7,754.7,595.2z"/>
			</g>
		</g>
	</g>
	<g>
		<g>
			<g>
				<path fill="#999999" d="M733.5,702.4c-6.2-2.7-13.3-6.7-19.4-9.5c-7.5-3.2-15.3-7.2-22.6-10.8c0.1-0.2,0.9-0.2,0.3-0.6
				c-2.3-1.5-2.1-1.9-1.9-2.3c0.1-0.2,1.8,0.9,1.3,0.4c1.8,0.9,4.9,2.3,3.2,1.2c-0.5-0.5-3-1.5-3.5-2.1c-0.5-0.6,0.9-0.3,0.4-0.9
				c-0.6-0.3-1.8-0.9-2.4-1.2c-0.5-0.5,0.9-0.3,0.3-0.6c-1.7-1.1-4.2-2.2-6.6-3.4c0.1-0.2-0.4-0.7,0.9-0.2
				c21.3,10.4,43.3,20.9,64.3,31.8c2.4,1.3,0.3,0.8-1.6,0.2c0.7,0.2,0.5,0.5,1.1,0.7c-0.1,0.3-1.6,0.2-4.1-0.9
				c0.6,0.3,1.2,0.6,1.8,0.9c0.6,0.4-0.1,0.3-0.2,0.5c-0.6-0.3-1.2-0.6-1.2-0.5c0,0.1-0.1,0.3-0.2,0.4c0.6,0.3,1.8,0.9,2.4,1.2
				c-0.6-0.3-1.2-0.6-1.2-0.5c0,0.1-0.1,0.3-0.2,0.4c-1.2-0.5-3-1.6-4.3-2.1l-0.1,0.3c1.1,0.7,3,1.5,4.3,2.1
				c-0.7-0.2-0.7-0.1-0.8,0.1c-1.9-0.8-3.5-2-5.5-2.6c0.6,0.3,1.2,0.6,1.8,0.9C738.1,705.1,735.3,703.2,733.5,702.4z"/>
			</g>
		</g>
	</g>
	<g>
		<g>
			<polygon fill="#4D4D4D" points="492.7,209.7 270.5,245.9 165.2,223.6 368.7,189 		"/>
			<polygon fill="#1A1A1A" points="165.2,223.5 165.2,223.6 165.6,223.5 		"/>
			<polygon fill="#1A1A1A" points="491.7,210.4 270.2,246.1 164.8,223.6 164.8,233.1 270.3,255.5 492.8,219.3 492.8,210.4 		"/>
		</g>
		<g>
			<path fill="#FFFFFF" stroke="#1A1A1A" stroke-width="0.1599" stroke-miterlimit="10" d="M276.5,212.1c0,0,13.5,6.9,15.7,10.1
			c5,2.4,6.3,1,7.5,0.8c1.2-0.2,12.6-0.1,15.5-0.1c3,0,10-0.1,14.8-0.7c4.8-0.6,13.2-0.8,18.2-2.2c5-1.4,5.9-1.9,8.2-4.5
			c2.3-2.6,3.2-6.1,3.5-8c0.3-1.9,1.1-3.2,0-4.6c-1.1-1.4-8.5-2.4-15.5-2.7c-7-0.3-27.5-2.5-35.1-1.2c-7.6,1.3-13-0.9-18.2,1.5
			C285.9,202.9,276.5,209.3,276.5,212.1z"/>
			<path fill="#BF3413" d="M263.9,220.3l4.3-22c0,0,18.3-12,24.9-13.2c6.6-1.3,24.9-2.1,30.4-1.5c5.4,0.6,20,2.1,27.8,5.7
			c7.8,3.6,18.9,12.3,26.7,18.8c-2.5,2.5-3.8,2.9-7.5,2.8c-3.8-0.1-3.1-1.3-6.2-1.4c-3.1-0.1-4.8-0.3-4.8-0.3s0.6-1.8,0.6-3.6
			c0-1.8-0.1-3.8-4.1-2.9c-3.8-1.4-2.9-1.7-4.8-1.7c-1.9,0-4.9,0.6-6.2,0.6s-14.4-1.8-17-1.8s-10.9,0.8-12.8,1.1
			c-1.9,0.3-7.1,0.4-9,1c-1.8,0.6-4.4,3.4-5.2,3.4c-0.9,0-9.7-2.5-12.9-1.4c-3.2,1.1-14.9,10.3-16.5,12.4S267.2,221.4,263.9,220.3z"
			/>
		</g>
	</g>
	<g>
		<g>
			<path fill="#1A1A1A" d="M221.2,124.4c0.3-0.1,0.7,0.1,0.8,0.4c0,0.1,0,0.2-0.1,0.4c-2.4,5.5-3.9,10.8-2.7,17.1
			c1.4,7.8,7.9,17.2,16.8,15.8c15.2-2.5,20.9-28.6,24.2-40.9c3.2-12.1,4.9-27,7.5-37.3c0.3-1.1,2.4-2,4.3-2.1
			c2.6-0.2,5.2,0.5,5.3,2.4c0.9,12.1,1.3,24.3,2.3,36.2c0.5,6,2.9,23.3,5.1,23.2c3.2-0.2,7.7-20.1,9.8-28.1
			c3.3-12.4,6.2-26.3,12.3-37.6c0.1-0.2,0.4-0.3,0.6-0.3c0.3,0,0.5,0.2,0.9,0.5c0.6,0.6,3.3,2.9,4.9,3.9c1,0.6,1.4,1.3,1.4,2.1
			c0,0.5-0.2,1.1-0.3,1.7c-2.9,10.9-3.6,23-3.3,34c0.3,8.7,0.5,21.9,7.9,28c0.5,0.4,1.1,1,1.2,1.2c0.1,0.1,0.1,0.2,0.1,0.2
			c0,0.2-0.2,0.3-0.6,0.3c-0.3,0-0.5-0.1-0.6-0.2c0,0-0.3,0.4-0.8,0.4c-6.6-0.4-12.6-7.8-14.3-14.4c-1.5-6.2-2.7-12.5-2.9-19
			c-0.2-5.1,0-9.9,0.2-14.6c0,0-0.1-0.3-0.3-0.3c-0.1,0-0.2,0.1-0.3,0.3c-5.5,13-7.1,29.4-13,43.3c-1.6,3.6-3.6,5.8-5.4,5.8
			c-10.5-0.3-12-30.8-12.7-39.1c-0.6-6-1.3-18.1-1.3-18.1c-0.3,0-5,68.8-32,73.1c-10,1.6-18.6-6.5-20.4-16c-1.4-8,1-15.9,4.8-21.9
			C220.6,124.5,220.9,124.4,221.2,124.4z"/>
			<path fill="#1A1A1A" d="M339.6,113.4c0.5,0.5,3.7,1.1,3.6,2.1c-0.3,4.9-1.3,10.2-1.5,15.2c-0.2,4.9,0.6,6.8,1.6,6.8
			c2,0.1,5.4-6.6,7.2-10.7c2.8-6.4,5.5-13.2,6.6-20.2c0.3-1.7,4.2-3.1,5.5-3c0.3,0,0.7,0.1,0.7,0.4c0,0.1-1.8,5.4-1.9,11.4
			c-0.2,8.1,4.1,16.6,3.8,24.9c-0.2,4.8-4.1,7.3-7.6,7.2c-2.9-0.2-5.6-2.3-5.5-6.5c0.1-2.3,1.2-4.3,1.6-4.3c0.1,0,0.1,0.1,0.1,0.3
			c-0.2,3.4,0.6,5.1,2.5,5.3c2.5,0.1,3.5-2,3.6-4.9c0.2-6.3-3.1-18.7-3.1-18.7c-0.1,0-2.5,5.6-4.3,9.8c-2.3,5-6.8,12.9-12.3,13.4
			c-2,0.2-4.6-9.3-4.6-9.3c-0.2-0.1-5.4,9.6-8.6,9.6c-6.3-0.1-8.4-7.5-8.4-12.6c0-7.9,3.4-22.1,13.3-22.3
			C336.7,106.8,338.5,112.2,339.6,113.4z M336.7,115.7c-0.4-1.3-2.9-2.7-4.1-2.6c-6.5,0.5-8.7,13.7-8.7,19.2c0,3.2,1,5.7,2.5,5.6
			C334.1,137.4,337.7,119.3,336.7,115.7z"/>
			<path fill="#1A1A1A" d="M378.9,87c0.1,0,0.3,0.1,0.4,0.1c1.6,1.4,6.1,1.6,5.9,3.3c-0.1,1-3.7,10.2-3.4,10.6
			c0.6,0.9,10.9-0.6,12.4-0.5c1.1,0.1,2.6,0.3,2.5,0.9c-0.1,0.5-1.1,0.4-1.4,0.8c-0.7,0.8-1,1.4-1,1.4c-1.6,0.5-11.9,1-14.2,2.9
			c-3.2,2.8-4.8,17.9-5.6,27c-0.5,5.1-0.3,10.6,1.9,15.4c0,0-0.5,1.3-1.2,1c-5.6-2-5.5-15.7-5.1-22.3c0.4-6.6,3.3-19.7,2.8-20.2
			c-0.3-0.3-3.9,0.2-5.6,0.1c-4.6-0.3-6.5-3.2-6.3-7.5c0.1-0.7,0.4-1.9,0.9-1.9c0.2,0,0.4,0.2,0.5,0.3c1.8,1.6,7,2,11,2.3
			c0.4,0,0.5,0.1,0.9,0.1c1-4.5,1.5-10.5,3.5-13.5C378,87.2,378.5,86.9,378.9,87z"/>
			<path fill="#1A1A1A" d="M418,125.4c-1.4,0.4-3.3,0.5-5.1,0.3c-0.3-0.1-1-0.3-1-0.2c-2.1,1.1-8.3,21.3-19.2,20
			c-7-0.8-9.4-13-10.9-14.5c-0.1-0.1-0.7-0.1-1-0.2c-0.5-0.2-0.1-0.9-0.9-1.9c-0.1-0.1-0.2-0.2-0.2-0.3c0-0.3,0.6-0.6,1.1-0.6
			c0.5,0.2,0.8,0.2,1.2,0.3c1.1-7.7,6.2-19.2,15.5-18.3c3.8,0.4,5.6,3.8,5.1,7.8c-1,7.2-12.8,12.3-14.4,14.3
			c-1.9,2.4,2.6,10.8,5.9,11.1c9.3,0.9,16.3-15.9,15.4-19.1c-0.4-1.3-2.8-5.2-2.4-8.1c0.4-3.3,2.1-6,4.8-5.7c2.6,0.3,3,2.1,2.7,4.1
			c-0.2,1.7-0.9,3.6-1.1,5.1c-0.2,1.3-0.1,1.9,0.5,2c0.4,0.1,1.1-0.2,2-0.5c3.2-1.3,8.5-5.1,9.1-5c1.1,0.2,2.5,2.5,2.4,3.6
			c-0.3,2-3.4,4.1-4.3,5.3c-0.9,1.1-1,4.2-1.4,6.2c-0.9,4.8-0.6,12.4,5.6,13.5c4.1,0.7,8.6-1.2,11.6-2.6c1.1-0.5,3.3-1.4,4-1.3
			c0.2,0.1,0.3,0.2,0.3,0.3c-0.1,0.4-0.8,1.2-2.4,2.7c0,0.6,0,1,0.1,1.6c-3.5,4.3-9,8.2-14.7,7.4c-9.3-1.4-10.6-13.3-9.4-20.8
			c0.3-2,0.8-4.2,1.3-6.4C418.1,125.4,418.1,125.4,418,125.4z M388.5,128.8c0.7,0.6,9.2-5.5,9.9-10.6c0.3-1.9-0.5-3.6-1.6-3.5
			C391.5,114.7,388.2,128.6,388.5,128.8z"/>
		</g>
	</g>
	<g>
		<g>
			<path fill="#1A1A1A" d="M174.1,282.2c-1.9-0.7-2.8-1.1-4.7-1.8c-0.4-0.2-0.5-0.5-0.4-0.9c0.5-1.4,0.8-2,1.3-3.4
			c0.1-0.3,0.5-0.5,0.9-0.4c4.8,1.9,9.7,3.7,14.6,5.5c0.4,0.1,0.5,0.5,0.4,0.8c-0.5,1.4-0.8,2.1-1.2,3.5c-0.1,0.3-0.5,0.5-0.9,0.4
			c-1.9-0.7-2.8-1-4.8-1.7c-2.1,5.7-4.1,11.4-6.2,17c-0.1,0.3-0.5,0.5-0.9,0.4c-1.7-0.6-2.5-0.9-4.2-1.6c-0.3-0.1-0.5-0.5-0.4-0.9
			C169.9,293.4,172,287.8,174.1,282.2z"/>
			<path fill="#1A1A1A" d="M189.6,283.1c0.1-0.3,0.5-0.5,0.9-0.4c1.6,0.5,2.4,0.8,4,1.3c0.4,0.1,0.5,0.5,0.4,0.8
			c-1.1,3.3-1.6,4.9-2.7,8.1c3.9,1.3,5.8,1.9,9.8,3.1c1-3.3,1.5-4.9,2.5-8.2c0.1-0.3,0.4-0.5,0.8-0.4c1.6,0.5,2.4,0.7,4,1.2
			c0.3,0.1,0.5,0.5,0.5,0.8c-2.1,7.2-4.1,14.4-6.2,21.5c-0.1,0.3-0.5,0.5-0.9,0.4c-1.7-0.5-2.5-0.8-4.2-1.2
			c-0.4-0.1-0.6-0.5-0.5-0.8c1-3.4,1.6-5.1,2.6-8.5c-4-1.2-5.9-1.8-9.9-3.1c-1.1,3.4-1.7,5.1-2.8,8.5c-0.1,0.3-0.5,0.5-0.9,0.4
			c-1.7-0.5-2.5-0.8-4.2-1.4c-0.4-0.1-0.6-0.5-0.5-0.9C184.7,297.3,187.1,290.2,189.6,283.1z"/>
			<path fill="#1A1A1A" d="M215.4,291.1c0.1-0.3,0.4-0.5,0.8-0.4c5.6,1.5,8.4,2.2,14,3.5c0.4,0.1,0.6,0.4,0.5,0.8
			c-0.3,1.4-0.5,2.1-0.9,3.6c-0.1,0.3-0.4,0.6-0.8,0.5c-3.8-0.9-5.7-1.3-9.5-2.4c-0.4,1.6-0.6,2.5-1.1,4.1c3.2,0.8,4.7,1.2,7.9,2
			c0.3,0.1,0.6,0.4,0.5,0.8c-0.3,1.4-0.5,2.1-0.9,3.6c-0.1,0.4-0.5,0.5-0.8,0.5c-3.2-0.8-4.8-1.2-7.9-2c-0.5,1.8-0.7,2.7-1.1,4.4
			c3.9,1,5.8,1.5,9.8,2.4c0.4,0.1,0.6,0.4,0.5,0.8c-0.3,1.4-0.5,2.1-0.9,3.6c-0.1,0.3-0.4,0.5-0.8,0.5c-4.9-1.2-9.9-2.4-14.7-3.8
			c-0.4-0.1-0.6-0.5-0.5-0.8C211.4,305.5,213.4,298.3,215.4,291.1z"/>
			<path fill="#1A1A1A" d="M237.3,316.7c0.9-1,1.3-1.4,2.3-2.4c0.4-0.4,1-0.2,1.2,0.1c0.1,0.1,2.4,2.4,4.7,2.8
			c1.4,0.3,2.6-0.4,2.8-1.6c0.3-1.4-0.8-2.7-3-4.1c-2.8-1.7-6.1-4.7-5.3-8.7c0.7-3.3,4-6.1,9.2-5c3.5,0.6,5.9,3,6.9,3.8
			c0.3,0.3,0.2,0.9,0,1.1c-0.9,0.9-1.3,1.3-2.2,2.3c-0.3,0.3-1,0.5-1.2,0.2c-0.3-0.2-2.5-2.5-4.6-2.9c-1.2-0.2-2.3,0.4-2.5,1.3
			c-0.2,1.2,0.6,2.4,3.2,4c2.5,1.6,6.5,4.3,5.7,8.9c-0.6,3.4-4.4,6.4-9.7,5.4c-4.7-0.9-6.9-3.2-7.6-4.2
			C237,317.3,236.9,317.2,237.3,316.7z"/>
			<path fill="#1A1A1A" d="M261.5,301c0.1-0.3,0.4-0.6,0.8-0.5c1.7,0.3,2.5,0.4,4.1,0.6c0.3,0.1,0.6,0.4,0.5,0.8
			c-1.1,7.4-2.1,14.8-3.2,22.2c-0.1,0.3-0.4,0.6-0.8,0.5c-1.7-0.3-2.6-0.4-4.3-0.6c-0.4-0.1-0.6-0.4-0.6-0.8
			C259.1,315.8,260.3,308.4,261.5,301z"/>
			<path fill="#1A1A1A" d="M275.2,302.5c0.1-0.3,0.4-0.5,0.7-0.5c0.2,0.1,0.3,0.1,0.5,0.1c0.2,0,0.5,0.2,0.5,0.4
			c2.1,5.2,4.2,10.3,6.5,15.5c0.1,0,0.1,0,0.1,0c3.2-4.6,6.4-9.2,9.5-13.8c0.1-0.2,0.4-0.3,0.6-0.3c0.2,0,0.3,0.1,0.5,0.1
			c0.3,0,0.6,0.3,0.6,0.6c0.7,7.7,1.5,15.3,2.3,23c0.1,0.4-0.3,0.8-0.8,0.7c-1.7-0.1-2.6-0.2-4.3-0.3c-0.3,0-0.6-0.3-0.6-0.6
			c-0.3-4.2-0.4-6.3-0.8-10.6c-0.1,0-0.1,0-0.1,0c-2.8,4.2-4.2,6.3-7.1,10.4c-0.1,0.2-0.5,0.3-0.6,0.3c-0.3,0-0.4-0.1-0.6-0.1
			c-0.2,0-0.5-0.2-0.6-0.4c-2-4.6-2.9-7-4.8-11.6c-0.1,0-0.1,0-0.1,0c-1.1,4.1-1.7,6.1-2.8,10.2c-0.1,0.3-0.4,0.5-0.8,0.4
			c-1.7-0.2-2.6-0.3-4.3-0.5c-0.4-0.1-0.7-0.4-0.6-0.9C270.6,317.2,272.9,309.9,275.2,302.5z"/>
			<path fill="#1A1A1A" d="M303,305.5c0-0.3,0.3-0.6,0.7-0.6c3.3,0.2,5,0.3,8.3,0.4c4.2,0.2,7.7,3.6,7.6,7.7
			c-0.1,4.2-3.8,7.6-8.1,7.4c-1.5-0.1-2.3-0.1-3.8-0.2c-0.2,3.2-0.2,4.8-0.4,8c0,0.3-0.4,0.6-0.7,0.6c-1.7-0.1-2.6-0.1-4.3-0.2
			c-0.4,0-0.7-0.3-0.6-0.7C302.1,320.4,302.6,313,303,305.5z M311.4,315.5c1.5,0.1,2.8-1.1,2.9-2.6c0.1-1.4-1.2-2.6-2.7-2.6
			c-1.3-0.1-2-0.1-3.3-0.2c-0.1,2.1-0.2,3.1-0.3,5.2C309.3,315.4,310,315.4,311.4,315.5z"/>
			<path fill="#1A1A1A" d="M323.3,306.3c0-0.3,0.3-0.6,0.6-0.6c1.7,0,2.5,0,4.1,0.1c0.3,0,0.6,0.3,0.6,0.6c0,6.1,0,12.1,0,18.1
			c3.4,0,5.1,0,8.6-0.1c0.4,0,0.7,0.3,0.7,0.6c0.1,1.5,0.1,2.2,0.1,3.7c0,0.3-0.3,0.6-0.7,0.6c-5.5,0.1-8.2,0.1-13.7,0.1
			c-0.4,0-0.7-0.3-0.7-0.6C323.1,321.2,323.2,313.7,323.3,306.3z"/>
			<path fill="#1A1A1A" d="M341,306.1c0-0.3,0.3-0.6,0.6-0.6c5.7-0.2,8.6-0.3,14.3-0.6c0.4,0,0.7,0.3,0.7,0.6
			c0.1,1.5,0.2,2.2,0.2,3.7c0,0.3-0.2,0.6-0.6,0.7c-3.9,0.3-5.8,0.3-9.6,0.5c0.1,1.7,0.1,2.5,0.2,4.2c3.2-0.1,4.8-0.2,8-0.4
			c0.4,0,0.7,0.3,0.7,0.6c0.1,1.5,0.1,2.2,0.2,3.7c0,0.4-0.3,0.6-0.6,0.7c-3.3,0.2-4.9,0.3-8.1,0.4c0.1,1.8,0.1,2.7,0.2,4.6
			c4-0.2,6-0.3,10-0.5c0.4,0,0.7,0.3,0.8,0.6c0.1,1.5,0.2,2.2,0.2,3.7c0,0.3-0.3,0.6-0.6,0.7c-5,0.3-10.1,0.5-15.1,0.7
			c-0.4,0-0.7-0.3-0.7-0.6C341.4,321.1,341.2,313.6,341,306.1z"/>
			<path fill="#1A1A1A" d="M372.4,308.5c-2,0.2-3,0.3-5,0.5c-0.4,0.1-0.7-0.3-0.7-0.6c-0.1-1.4-0.2-2.2-0.3-3.7
			c-0.1-0.3,0.2-0.6,0.6-0.7c5.1-0.4,10.2-1,15.3-1.6c0.4-0.1,0.7,0.2,0.8,0.5c0.2,1.4,0.3,2.2,0.5,3.6c0.1,0.3-0.2,0.7-0.6,0.7
			c-2,0.3-3,0.4-5,0.6c0.7,6,1.3,12,2,18c0.1,0.3-0.3,0.7-0.6,0.7c-1.7,0.2-2.6,0.3-4.3,0.5c-0.4,0.1-0.7-0.2-0.8-0.6
			C373.6,320.5,373.1,314.5,372.4,308.5z"/>
			<path fill="#1A1A1A" d="M386.5,302.5c-0.1-0.3,0.2-0.7,0.6-0.8c1.6-0.2,2.5-0.3,4.1-0.6c0.4-0.1,0.7,0.2,0.8,0.5
			c0.5,3.4,0.8,5.1,1.2,8.5c4-0.6,6-0.9,10-1.6c-0.6-3.4-0.9-5-1.4-8.4c-0.1-0.3,0.2-0.7,0.5-0.8c1.6-0.3,2.5-0.4,4.1-0.7
			c0.3-0.1,0.7,0.2,0.8,0.5c1.3,7.3,2.7,14.7,4.1,22.1c0.1,0.3-0.2,0.7-0.6,0.8c-1.7,0.3-2.6,0.5-4.3,0.8c-0.4,0.1-0.8-0.2-0.8-0.5
			c-0.6-3.5-0.9-5.3-1.5-8.8c-4,0.7-6.1,1-10.1,1.6c0.5,3.5,0.8,5.3,1.3,8.8c0.1,0.3-0.2,0.7-0.6,0.8c-1.7,0.3-2.6,0.4-4.3,0.6
			c-0.4,0.1-0.8-0.2-0.8-0.5C388.4,317.3,387.5,309.9,386.5,302.5z"/>
			<path fill="#1A1A1A" d="M412.9,298.1c-0.1-0.3,0.2-0.7,0.5-0.8c1.6-0.3,2.5-0.5,4.1-0.9c0.3-0.1,0.7,0.2,0.8,0.5
			c1.6,7.3,3.1,14.6,4.7,22c0.1,0.3-0.2,0.7-0.5,0.8c-1.7,0.4-2.6,0.5-4.3,0.9c-0.4,0.1-0.8-0.2-0.8-0.5
			C415.8,312.7,414.3,305.4,412.9,298.1z"/>
			<path fill="#1A1A1A" d="M424,295.3c-0.1-0.3,0.2-0.6,0.5-0.8c0.3-0.1,0.5-0.1,0.9-0.2c5.5,3.2,11.1,6.3,16.8,9.3c0,0,0,0,0.1,0
			c-1.2-4.7-1.8-7-3.1-11.6c-0.1-0.3,0.1-0.7,0.5-0.8c1.6-0.4,2.4-0.6,4-1.1c0.3-0.1,0.7,0.1,0.8,0.4c2,7.3,4.1,14.6,6.1,22
			c0.1,0.3-0.2,0.7-0.5,0.8c-0.2,0.1-0.3,0.1-0.6,0.2c-0.1,0.1-0.4,0-0.5-0.1c-5.8-3-11.5-6.2-17.2-9.5c0,0,0,0-0.1,0
			c1.2,4.9,1.8,7.4,2.9,12.3c0.1,0.3-0.2,0.7-0.5,0.8c-1.7,0.4-2.6,0.6-4.2,1c-0.4,0.1-0.8-0.2-0.8-0.5
			C427.4,310.1,425.7,302.7,424,295.3z"/>
			<path fill="#1A1A1A" d="M460.3,284.8c2.8-0.9,6.3-0.7,9.1,0.3c0.4,0.1,0.5,0.5,0.4,0.9c-0.7,1.4-1,2.1-1.7,3.6
			c-0.2,0.3-0.6,0.4-0.9,0.3c-1.6-0.6-3.3-0.6-4.9-0.1c-3.6,1.2-5.7,5-4.7,8.6c1.1,3.5,5.1,5.5,8.8,4.3c1-0.3,2-0.8,2.9-1.5
			c-0.3-0.8-0.4-1.1-0.6-1.9c-0.9,0.3-1.3,0.4-2.2,0.7c-0.4,0.1-0.8-0.1-0.9-0.4c-0.4-1.3-0.6-1.9-1-3.2c-0.1-0.4,0.1-0.7,0.4-0.8
			c2.7-0.9,4.1-1.3,6.9-2.3c0.3-0.1,0.7,0.1,0.8,0.4c1.2,3.4,1.8,5.1,3,8.6c0.1,0.2,0,0.5-0.1,0.6c0,0-2.9,3.3-8,5
			c-6.6,2.1-14.1-1.1-16-7.8C449.8,293.7,453.8,286.9,460.3,284.8z"/>
			<path fill="#1A1A1A" d="M478.9,300.5c0.3-1.3,0.4-1.9,0.7-3.2c0.1-0.5,0.8-0.6,1.1-0.6c0.2,0,3.3,0.8,5.5-0.1
			c1.4-0.5,2.1-1.7,1.7-2.8c-0.5-1.3-2.1-1.9-4.7-1.9c-3.3,0-7.7-0.9-9.1-4.7c-1.1-3.2,0.3-7.2,5.4-9.1c3.4-1.3,6.8-0.5,7.9-0.3
			c0.4,0.1,0.6,0.6,0.6,0.9c-0.3,1.2-0.4,1.9-0.8,3.1c-0.1,0.4-0.6,0.9-1,0.9c-0.3-0.1-3.4-0.9-5.5-0.1c-1.2,0.4-1.8,1.6-1.5,2.4
			c0.4,1.2,1.8,1.7,4.8,1.7s7.9,0.3,9.6,4.6c1.3,3.3-0.5,7.8-5.6,9.6c-4.5,1.7-7.7,0.9-8.7,0.4C478.9,301.1,478.7,301.1,478.9,300.5
			z"/>
		</g>
	</g>
	<g>
		<g>
			<g>
				<path fill="#999999" d="M93.1,78.3c8,3.6,17.3,8.9,25.2,12.6c9.6,4.4,19.9,9.6,29.3,14.4c-0.1,0.2-1.1,0.1-0.3,0.6
				c3,1.9,2.8,2.3,2.6,2.7c-0.1,0.2-2.4-1.2-1.7-0.6c-2.4-1.2-6.3-3.1-4.1-1.7c0.7,0.6,3.9,2,4.6,2.7c0.6,0.7-1.1,0.2-0.5,0.9
				c0.8,0.4,2.4,1.2,3.2,1.6c0.7,0.6-1.1,0.2-0.3,0.6c2.3,1.4,5.5,2.9,8.6,4.5c-0.1,0.2,0.6,0.8-1.1,0.1
				c-27.6-13.8-56.1-27.8-83.5-42.1c-3.1-1.7-0.5-0.9,2,0c-0.9-0.3-0.7-0.6-1.5-0.9c0.2-0.3,2,0,5.2,1.4c-0.8-0.4-1.6-0.8-2.4-1.2
				c-0.8-0.5,0.2-0.3,0.3-0.5c0.8,0.4,1.6,0.8,1.6,0.7c0.1-0.1,0.2-0.3,0.2-0.4c-0.8-0.4-2.4-1.2-3.2-1.6c0.8,0.4,1.6,0.8,1.6,0.7
				c0.1-0.1,0.2-0.3,0.2-0.4c1.6,0.7,3.9,2.1,5.5,2.8l0.2-0.3c-1.5-0.9-3.9-2-5.5-2.8c0.9,0.3,0.9,0.2,1,0c2.4,1.1,4.6,2.6,7.1,3.5
				c-0.8-0.4-1.6-0.8-2.4-1.2C87,74.8,90.7,77.2,93.1,78.3z"/>
			</g>
		</g>
	</g>
	<g>
		<g>
			<g>
				<path fill="#999999" d="M61.6,176.9c8.7,1,19.2,3.1,27.9,4c10.6,1.1,21.9,2.9,32.3,4.5c-0.1,0.2-1,0.4-0.1,0.7
				c3.4,0.9,3.4,1.3,3.3,1.8c-0.1,0.2-2.6-0.4-1.8-0.1c-2.6-0.4-7-1-4.4-0.3c0.9,0.4,4.3,0.6,5.2,1.1c0.8,0.5-1,0.5-0.2,1
				c0.9,0.1,2.6,0.4,3.5,0.5c0.9,0.4-1,0.5-0.1,0.7c2.6,0.6,6.1,1.1,9.6,1.6c-0.1,0.2,0.8,0.6-1,0.4c-30.6-4.4-62-8.8-92.5-13.8
				c-3.5-0.6-0.8-0.7,1.9-0.6c-0.9,0-0.9-0.4-1.7-0.4c0.1-0.3,1.9-0.6,5.4-0.2c-0.9-0.1-1.8-0.3-2.6-0.4c-0.9-0.3,0.1-0.3,0.1-0.6
				c0.9,0.1,1.8,0.3,1.8,0.2c0-0.1,0.1-0.3,0.1-0.5c-0.9-0.1-2.6-0.4-3.5-0.5c0.9,0.1,1.8,0.3,1.8,0.2s0.1-0.3,0.1-0.5
				c1.8,0.2,4.3,0.8,6.1,0.9l0.1-0.3c-1.7-0.4-4.3-0.6-6.1-0.9c0.9,0,0.9-0.1,1-0.3c2.6,0.3,5.2,1,7.9,1.1c-0.9-0.1-1.8-0.3-2.6-0.4
				C54.7,175.5,59,176.6,61.6,176.9z"/>
			</g>
		</g>
	</g>
	<g>
		<g>
			<g>
				<path fill="#999999" d="M81.3,289.3c6.1-3.5,14-6.9,20.2-10.3c7.4-4.2,15.6-8.3,23.2-12.1c0.1,0.2-0.4,0.9,0.3,0.6
				c2.7-1,2.9-0.5,3.1-0.1c0.1,0.2-1.9,1-1.2,0.9c-1.9,1-5,2.6-3,1.9c0.8-0.1,3.2-1.6,4-1.6c0.8,0-0.3,0.9,0.5,0.9
				c0.6-0.3,1.9-1,2.5-1.3c0.8-0.1-0.3,0.9,0.3,0.6c2-0.8,4.5-2.1,7-3.4c0.1,0.2,0.9,0.1-0.4,0.9c-22,11.3-44.6,23-66.9,33.8
				c-2.6,1.2-0.9-0.2,0.9-1.4c-0.6,0.4-0.8,0.1-1.3,0.5c-0.2-0.3,0.9-1.4,3.3-2.8c-0.6,0.3-1.3,0.6-1.9,1c-0.7,0.2-0.2-0.3-0.3-0.5
				c0.6-0.3,1.3-0.6,1.2-0.8c-0.1-0.1-0.2-0.3-0.2-0.4c-0.6,0.3-1.9,1-2.5,1.3c0.6-0.3,1.3-0.6,1.2-0.8s-0.2-0.3-0.2-0.4
				c1.2-0.8,3.2-1.5,4.4-2.2l-0.2-0.3c-1.3,0.5-3.2,1.6-4.4,2.2c0.6-0.4,0.5-0.5,0.4-0.8c1.8-1.1,3.9-1.7,5.6-2.9
				c-0.6,0.3-1.3,0.6-1.9,1C76,291.5,79.4,290.4,81.3,289.3z"/>
			</g>
		</g>
	</g>
	<g>
		<g>
			<g>
				<path fill="#999999" d="M573,82.1c-7.6,4.3-17.4,8.7-25,13c-9.2,5.2-19.5,10.4-28.9,15.2c-0.1-0.2,0.5-0.9-0.3-0.6
				c-3.3,1.3-3.5,0.9-3.7,0.5c-0.1-0.2,2.4-1.2,1.4-1c2.4-1.2,6.2-3.3,3.8-2.3c-0.9,0.2-3.9,2-4.9,2.1c-1,0.1,0.5-1-0.5-0.9
				c-0.8,0.4-2.4,1.2-3.2,1.6c-0.9,0.2,0.5-1-0.3-0.6c-2.5,1-5.6,2.7-8.7,4.3c-0.1-0.2-1,0,0.5-0.9c27.4-14.2,55.5-29.1,83.2-42.7
				c3.2-1.5,1.1,0.1-1.2,1.6c0.8-0.5,0.9-0.2,1.6-0.7c0.2,0.3-1.2,1.6-4.2,3.3c0.8-0.4,1.6-0.8,2.4-1.2c0.9-0.3,0.2,0.3,0.3,0.5
				c-0.8,0.4-1.6,0.8-1.5,0.9s0.2,0.3,0.2,0.4c0.8-0.4,2.4-1.2,3.2-1.6c-0.8,0.4-1.6,0.8-1.5,0.9c0.1,0.1,0.2,0.3,0.2,0.4
				c-1.5,0.9-4,1.9-5.5,2.8l0.2,0.3c1.6-0.7,3.9-2,5.5-2.8c-0.8,0.5-0.7,0.6-0.6,0.8c-2.3,1.3-4.8,2.2-7,3.7
				c0.8-0.4,1.6-0.8,2.4-1.2C579.4,79.2,575.3,80.8,573,82.1z"/>
			</g>
		</g>
	</g>
	<g>
		<g>
			<g>
				<path fill="#999999" d="M603.2,181.2c-8.6,1.7-19.2,2.8-27.9,4.5c-10.4,2-21.7,3.8-32.2,5.4c-0.1-0.2,0.8-0.7-0.1-0.7
				c-3.5,0.2-3.6-0.3-3.7-0.7c-0.1-0.2,2.6-0.4,1.7-0.5c2.6-0.4,7-1.2,4.3-1c-0.9-0.1-4.3,0.6-5.3,0.5c-0.9-0.2,0.8-0.8-0.2-1
				c-0.9,0.1-2.6,0.4-3.5,0.5c-0.9-0.1,0.8-0.8-0.1-0.7c-2.6,0.2-6.1,0.8-9.6,1.3c-0.1-0.2-1-0.3,0.8-0.7
				c30.5-4.9,61.8-10.1,92.4-14.5c3.5-0.4,1,0.4-1.6,1.2c0.9-0.3,0.9,0.1,1.8-0.2c0.1,0.3-1.6,1.2-5.1,1.8c0.9-0.1,1.8-0.3,2.6-0.4
				c0.9,0,0.1,0.3,0.1,0.6c-0.9,0.1-1.8,0.3-1.7,0.4c0,0.1,0.1,0.3,0.1,0.5c0.9-0.1,2.6-0.4,3.5-0.5c-0.9,0.1-1.8,0.3-1.7,0.4
				c0,0.1,0.1,0.3,0.1,0.5c-1.7,0.4-4.4,0.5-6.1,0.9l0.1,0.3c1.8-0.2,4.3-0.6,6.1-0.9c-0.9,0.3-0.9,0.4-0.8,0.6
				c-2.6,0.5-5.3,0.6-7.8,1.3c0.9-0.1,1.8-0.3,2.6-0.4C610.2,180.4,605.7,180.6,603.2,181.2z"/>
			</g>
		</g>
	</g>
	<g>
		<g>
			<g>
				<path fill="#999999" d="M581,293.2c-6.4-2.8-13.9-7.1-20.4-9.9c-7.8-3.4-16-7.5-23.6-11.3c0.1-0.2,0.9-0.2,0.3-0.6
				c-2.4-1.6-2.1-2-2-2.4c0.1-0.2,1.9,1,1.4,0.4c1.9,1,5.1,2.4,3.3,1.3c-0.5-0.5-3.2-1.6-3.6-2.2c-0.5-0.6,1-0.3,0.5-0.9
				c-0.6-0.3-1.9-1-2.5-1.3c-0.5-0.5,1-0.3,0.3-0.6c-1.8-1.2-4.4-2.3-6.9-3.6c0.1-0.2-0.4-0.8,0.9-0.2
				c22.2,10.9,45.2,21.8,67.2,33.2c2.5,1.4,0.4,0.9-1.7,0.2c0.7,0.2,0.5,0.5,1.2,0.8c-0.2,0.3-1.7,0.2-4.3-1c0.6,0.3,1.3,0.6,1.9,1
				c0.6,0.4-0.2,0.3-0.3,0.5c-0.6-0.3-1.3-0.6-1.3-0.5s-0.2,0.3-0.2,0.4c0.6,0.3,1.9,1,2.5,1.3c-0.6-0.3-1.3-0.6-1.3-0.5
				s-0.2,0.3-0.2,0.4c-1.3-0.5-3.1-1.7-4.4-2.2l-0.2,0.3c1.2,0.8,3.2,1.6,4.4,2.2c-0.7-0.2-0.8-0.1-0.9,0.1
				c-1.9-0.9-3.7-2.1-5.7-2.7c0.6,0.3,1.3,0.6,1.9,1C585.8,296,582.9,294.1,581,293.2z"/>
			</g>
		</g>
	</g>
</svg>
