<?xml version="1.0" encoding="utf-8"?>
<!-- Generator: Adobe Illustrator 17.1.0, SVG Export Plug-In . SVG Version: 6.00 Build 0)  -->
<!DOCTYPE svg PUBLIC "-//W3C//DTD SVG 1.1//EN" "http://www.w3.org/Graphics/SVG/1.1/DTD/svg11.dtd">
<svg version="1.1" id="Layer_1" xmlns="http://www.w3.org/2000/svg" xmlns:xlink="http://www.w3.org/1999/xlink" x="0px" y="0px"
	 viewBox="0 -276 1280 1220" enable-background="new 0 -276 1280 1220" xml:space="preserve">
	<g id="uHfWEI.tif"></g>
	<path fill="#603813" d="M386,782.3c2.3-17.7-3.6-43.2-2.6-67.8c1.1-28.3,1.9-56.8,2.3-85.2c0.7-50.3,1.4-100.7,0.1-151
	c-1.7-67.6,3.3-135,2.5-202.5c-0.8-67.6,2.2-135.2-0.5-202.7c-2.3-56.9,0.1-112.9,12.6-168.3c3.1-13.8,11-26.5,16-40
	c14.5-38.9,37.6-73.2,57.4-109.3c4-7.3,8.4-14.4,4.1-23.4c-1.6-3.4-0.3-7.7,3.1-9.2c10.1-4.6,9.5-13.6,10.3-22.3
	c3.1-31.4,6.4-62.8,9.4-94.2c5.4-56.6,12.7-113.2,15.2-170c1.3-29,7.3-57.4,6.3-86.9c-0.5-16.8,3.5-35.9,6.6-53.8
	c3.1-17.7,4.5-35.6,6.5-53.5c0.4-3.5,1.5-7.9-0.2-10.3c-12.7-18.8-8-36.9,0.8-55.2c2.4-5,2.5-10.1-1.6-14.8
	c-3.4-3.9-5.6-7.9-0.3-12.2c1.8-1.5,1-4,0.3-6.2c-7.5-23.1,2.6-42.4,26.5-50.4c12.6-4.2,25.8-5.6,38.8-6.6
	c34.1-2.7,68.2-3.3,102.1,4.1c27.8,6.1,51.8,37.1,41.4,63c-7.8,19.4-2.3,33,3,49.1c1.3,4,2,9.7,0.1,12.8
	c-12.4,20.1-5.7,41.3-3.5,61.7c5.1,47.5,7.8,95.2,12.1,142.8c5.9,65.5,11.9,130.9,17.7,196.4c2,22.3,2.9,44.6,5.4,66.8
	c4.5,39.6,14.1,76.8,41.9,108.1c14.7,16.6,20.3,39.4,29.8,59.5c33.3,70.7,40.5,145.3,33,222.2c-1.6,16.4,0.2,157.2-0.6,208.4
	c-0.1,6.5,2.4,84.9,2.6,112.1c0.4,56.6-2.2,113.2,0.1,169.8c0.9,23,1.8,46.2,2.7,69.1c0.7,18.3-0.1,37.1,0.5,55.7
	c0.9,27-3.7,53.8-1.8,80.8c2.2,31.3-0.3,62.6-8.8,92.6c-6.6,23.2-20.7,41.3-47,46.2c-24.7,4.6-49.5,5.7-74.4,6.2
	c-23.8,0.5-47.6,2.2-71.4,1.7c-18.3-0.4-36.7,0-55-0.3c-22.3-0.4-44.7-0.6-67.1-0.6c-32.1,0-64.1-0.6-96-4.3
	c-8.3-1-16.5-2.2-24.8-3.2c-25.7-3.3-38.9-20.2-45.7-43.2C389.1,840,385.2,815.3,386,782.3z"/>
	<path fill="#FFFFFF" d="M886,543.6c0,0-63.9,20.8-251,20.8c-189.9,0-251-20.8-251-20.8v-328c0,0,52.8,19.4,251,20.8
	c184.3-1.4,251-20.8,251-20.8V543.6z"/>
	<g>
		<g>
			<path fill="#1A1A1A" d="M498,335.6c0.5-0.8,1.1-1.7,1.7-2.4c0.6-0.8,1.5-0.9,2.2-0.3c0.4,0.4,5.3,5,10.2,5.5
			c4.4,0.4,7.2-2,7.2-5.3c0-3.8-3.4-6.6-9.7-9.8c-6.5-3.4-11.6-7.4-11.6-14.8c0-5,3.8-11.4,14-10.4c6.4,0.6,11.2,4.4,11.8,4.9
			c0.5,0.4,1,1.3,0.4,2.2c-0.5,0.7-1.1,1.6-1.6,2.3c-0.5,0.8-1.4,1.1-2.2,0.4c-0.4-0.3-4.9-3.7-8.6-4c-5.4-0.5-7.2,2.7-7.2,5
			c0,3.7,2.8,6.2,8.1,8.9c7.4,3.7,13.8,7.8,13.8,15.6c0,6.7-6,11.6-14.3,10.8c-7.8-0.8-12.7-5.4-13.7-6.5
			C497.8,337.1,497.4,336.5,498,335.6z"/>
			<path fill="#1A1A1A" d="M533,320.9c0-0.6,0.4-1.2,1-1.1c0.7,0.1,1,0.1,1.7,0.1c0.6,0,0.8,0.4,1,0.9c0.3,0.9,0.4,1.3,0.7,2.2
			c0.6-0.5,3.5-3.3,8.4-2.9c3.7,0.3,7.7,4.6,8.3,4.7c0.2,0,4.4-3.8,9.3-3.5c7.8,0.5,10.6,6.1,10.6,12.8c0,5.2,0,7.7,0,12.9
			c0,0.6-0.5,1.2-1.2,1.1c-1.4-0.1-2.1-0.1-3.6-0.2c-0.7,0-1.2-0.6-1.2-1.3c0-5.3,0-7.9,0-13.1c0-4-1.9-6.5-5.4-6.7
			c-3.9-0.2-6.6,2.5-6.7,2.7c-0.1,0.3,0.1,1.8,0.1,3.1c0,5.3,0,8,0,13.3c0,0.6-0.5,1.2-1.1,1.1c-1.4-0.1-2.2-0.1-3.5-0.2
			c-0.7-0.1-1.4-0.7-1.4-1.3c0-5.3,0-7.9,0-13.1c0-4.1-1.5-6.5-5.1-6.7c-3.8-0.3-5.9,2.5-5.9,3.4c0,6.3,0,9.4,0,15.6
			c0,0.6-0.8,1.2-1.4,1.1c-1.4-0.1-2-0.2-3.5-0.3c-0.6-0.1-1.1-0.7-1.1-1.3C533,334.9,533,330.2,533,320.9z"/>
			<path fill="#1A1A1A" d="M590.4,332.8c2.7,0.1,5.1,1,5.1,1c0.1-4-0.7-5.7-4-5.8c-3-0.1-5.9,0.5-7.2,0.8c-0.8,0.2-1.2-0.4-1.4-1.1
			c-0.2-1-0.3-1.4-0.5-2.4c-0.2-0.8,0.3-1.3,0.8-1.4c0.4-0.1,4.1-1.3,8.8-1.1c8.2,0.4,9,5.4,9,11.8c0,5.5,0,8.2,0,13.7
			c0,0.6-0.6,1.2-1.2,1.2c-0.7,0-1.1,0-1.8-0.1c-0.6,0-0.8-0.3-1.1-0.9c-0.3-0.7-0.4-1.1-0.6-1.8c-1.4,1.3-3.9,3.1-7.9,2.9
			c-4.8-0.2-8.3-3.7-8.3-9C580.1,335.9,583.8,332.6,590.4,332.8z M589.4,345.1c2.6,0.1,5.6-1.7,5.6-3c0-1.6,0-2.5,0-4.1
			c0-0.3-2-1.1-4.3-1.2c-3.1-0.1-5.2,1.4-5.2,4C585.5,343.1,587,345,589.4,345.1z"/>
			<path fill="#1A1A1A" d="M609,306.1c0-0.6,0.6-1.2,1.3-1.2c1.5,0,2.1,0.1,3.6,0.1c0.6,0,1.1,0.6,1.1,1.3c0,14.1,0,28.3,0,42.4
			c0,0.6-0.5,1.2-1.1,1.2c-1.5,0-2.2-0.1-3.7-0.1c-0.6,0-1.2-0.6-1.2-1.3C609,334.4,609,320.3,609,306.1z"/>
			<path fill="#1A1A1A" d="M624,306.5c0-0.6,0.4-1.2,1-1.2c1.5,0,2.3,0,3.7,0.1c0.6,0,1.3,0.6,1.3,1.2c0,14.1,0,28.3,0,42.4
			c0,0.6-0.7,1.2-1.4,1.2c-1.5,0-2.1,0-3.5-0.1c-0.6,0-1.1-0.6-1.1-1.2C624,334.8,624,320.6,624,306.5z"/>
			<path fill="#1A1A1A" d="M501,375.6c0-0.6,0.5-1.2,1.2-1.1c1.7,0.2,2.7,0.3,4.4,0.4c0.6,0.1,1.4,0.7,1.4,1.3c0,14.1,0,28.3,0,42.4
			c0,0.6-0.8,1.2-1.4,1.1c-1.7-0.2-2.6-0.3-4.3-0.4c-0.6-0.1-1.3-0.7-1.3-1.3C501,403.9,501,389.8,501,375.6z"/>
			<path fill="#1A1A1A" d="M517,396.5c0-0.6,0.6-1.2,1.2-1.1c0.7,0.1,1.1,0.1,1.9,0.2c0.5,0,0.9,0.4,1,0.9c0.3,0.9,0.5,1.4,0.8,2.3
			c0.4-0.5,4.1-3.2,9.2-2.8c7.8,0.7,10.9,6.4,10.9,13.1c0,5.2,0,7.7,0,12.9c0,0.6-0.8,1.2-1.4,1.1c-1.5-0.1-2.5-0.2-4-0.3
			c-0.7-0.1-1.6-0.7-1.6-1.3c0-5.3,0-7.9,0-13.1c0-4.1-1.8-6.5-5.1-6.8c-4-0.3-6.9,2.3-6.9,3.2c0,6.3,0,9.4,0,15.6
			c0,0.8-0.4,1.2-1.5,1.1c-1.3-0.1-2-0.2-3.3-0.3c-0.6-0.1-1.2-0.7-1.2-1.3C517,410.4,517,405.7,517,396.5z"/>
			<path fill="#1A1A1A" d="M560.1,398.1c3.3,0.2,5.9,1.6,5.9,1.8c0-7.5,0-11.3,0-18.8c0-0.6,0.8-1.2,1.4-1.1c1.5,0.1,2.5,0.1,4,0.2
			c0.6,0,1.5,0.6,1.5,1.3c0,14.1,0,28.3,0,42.4c0,0.6-0.8,1.2-1.4,1.1c-0.8,0-1.2-0.1-2-0.1c-0.6,0-1-0.5-1.2-1.2
			c-0.2-0.8-0.3-1.1-0.5-1.9c0,0-3.1,3.4-8.2,3.1c-6.8-0.4-12.1-6.9-12.1-14.3C547.6,403.2,553,397.6,560.1,398.1z M560.7,419.5
			c3.9,0.3,5.3-2.8,6.3-3.5c0-4.2,0-6.3,0-10.4c0,0-2.5-1.7-5.8-1.9c-4.3-0.3-7.3,3-7.3,7.4C553.9,415.4,556.6,419.2,560.7,419.5z"
			/>
			<path fill="#1A1A1A" d="M591.9,399.8c6.7,0.3,11.8,5.5,11.8,12.3c0,0.4-0.1,1.3-0.1,1.7c-0.1,0.6-0.6,1.1-1.2,1
			c-7-0.2-10.5-0.4-17.5-0.7c0.2,3.5,3.2,7,7.4,7.2c2.3,0.1,4.4-0.9,5.7-1.6c0.7-0.4,1.2-0.7,1.7,0c0.7,1,1.1,1.5,1.8,2.5
			c0.4,0.5,0.6,1-0.1,1.7c-1.9,1.5-5.2,3-9.5,2.8c-7.8-0.3-12.9-6.7-12.9-14.1C579.1,405.4,584.2,399.4,591.9,399.8z M597.8,410.6
			c-0.2-3.1-2.8-5.8-5.9-5.9c-3.5-0.1-6.2,2.2-6.5,5.4C590.3,410.3,592.8,410.5,597.8,410.6z"/>
			<path fill="#1A1A1A" d="M616,444.9c0,0.7-0.4,1.2-1.3,1.2c-1.4,0-2.1-0.1-3.5-0.1c-0.6,0-1.2-0.6-1.2-1.3c0-14.1,0-28.3,0-42.4
			c0-0.6,0.5-1.2,1.2-1.2c0.8,0,1.1,0,1.9,0.1c0.5,0,0.8,0.3,1.1,0.9c0.3,0.7,0.4,1,0.6,1.7c0.4-0.4,3.1-3.1,7.8-3
			c7.1,0.2,12.3,6.4,12.3,13.7c0,7.5-5.5,13.3-12.5,13.2c-3.3-0.1-6.3-1.6-6.3-1.9C616,433.4,616,437.3,616,444.9z M621.6,422.1
			c4.2,0.1,7.3-3.4,7.3-7.7c0-4.3-2.7-8-7-8.1c-3.7-0.1-5.9,2.8-5.9,3.6c0,4.1,0,6.2,0,10.3C616,420.1,618.2,422.1,621.6,422.1z"/>
			<path fill="#1A1A1A" d="M652.3,401.1c6.7,0,11.8,5,11.8,11.8c0,0.4-0.1,1.3-0.1,1.7c-0.1,0.6-0.6,1.1-1.2,1.1c-7,0-10.5,0-17.5,0
			c0.2,3.5,3.2,6.9,7.4,6.9c2.3,0,4.4-1.1,5.7-1.9c0.7-0.5,1.2-0.7,1.7-0.1c0.7,1,1.1,1.5,1.8,2.4c0.4,0.5,0.6,1-0.1,1.7
			c-1.9,1.6-5.2,3.2-9.5,3.2c-7.8,0-12.9-6.2-12.9-13.5C639.5,407.2,644.6,401.1,652.3,401.1z M658.2,411.7
			c-0.2-3.1-2.8-5.7-5.9-5.7c-3.5,0-6.2,2.5-6.5,5.7C650.7,411.7,653.2,411.7,658.2,411.7z"/>
			<path fill="#1A1A1A" d="M670,402.9c0-0.6,0.7-1.2,1.4-1.2s1.2,0,1.9,0c0.5,0,0.9,0.3,1.1,0.8c0.3,0.9,0.5,1.3,0.8,2.2
			c0.4-0.5,3.9-3.6,9.1-3.8c7.8-0.2,10.8,5.2,10.8,11.9c0,5.2,0,7.7,0,12.9c0,0.6-0.6,1.2-1.3,1.3c-1.5,0-2.1,0.1-3.6,0.1
			c-0.7,0-1.1-0.5-1.1-1.2c0-5.3,0-7.9,0-13.1c0-4.1-2.3-6.3-5.6-6.2c-4,0.1-6.4,3.1-7.4,4c0,6.3,0,9.4,0,15.6
			c0,0.8-0.2,1.2-1.3,1.2c-1.3,0-2.1,0-3.4,0c-0.6,0-1.3-0.6-1.3-1.2C670,416.8,670,412.1,670,402.9z"/>
			<path fill="#1A1A1A" d="M713.8,399.8c3.3-0.1,5.2,1,6.2,1.1c0-7.5,0-11.3,0-18.8c0-0.6,0.5-1.2,1.1-1.3c1.5-0.1,2.2-0.1,3.7-0.2
			c0.6,0,1.2,0.5,1.2,1.2c0,14.1,0,28.3,0,42.4c0,0.6-0.6,1.2-1.2,1.3c-0.8,0-1.2,0.1-1.9,0.1c-0.6,0-1-0.4-1.2-1
			c-0.2-0.7-0.3-1.1-0.5-1.8c0,0-3.1,3.7-8.1,3.9c-6.8,0.3-12-5.6-12-13C701.1,406.3,706.6,400.1,713.8,399.8z M713.9,421.2
			c3.9-0.2,6.1-3.4,6.1-4.1c0-4.2,0-6.3,0-10.4c0,0-2.3-1.4-5.6-1.3c-4.3,0.2-7.3,3.8-7.3,8.2C707.1,417.9,709.8,421.4,713.9,421.2z
			"/>
			<path fill="#1A1A1A" d="M745.3,398.2c6.7-0.4,11.8,4.2,11.8,11.1c0,0.4-0.1,1.3-0.1,1.7c-0.1,0.6-0.6,1.1-1.2,1.2
			c-7,0.5-10.5,0.7-17.4,1.1c0.2,3.5,3.2,6.7,7.4,6.4c2.3-0.1,4.4-1.4,5.7-2.2c0.7-0.5,1.2-0.8,1.7-0.2c0.7,0.9,1.1,1.4,1.8,2.3
			c0.4,0.5,0.6,1-0.1,1.7c-1.9,1.7-5.2,3.6-9.5,3.8c-7.8,0.5-12.9-5.3-12.9-12.7C732.5,405.2,737.6,398.7,745.3,398.2z M751.1,408.4
			c-0.2-3.1-2.8-5.5-5.9-5.3c-3.5,0.2-6.2,2.9-6.5,6.1C743.7,408.9,746.2,408.8,751.1,408.4z"/>
			<path fill="#1A1A1A" d="M763,398.8c0-0.6,0.7-1.3,1.3-1.3c0.7-0.1,1.2-0.1,1.9-0.1c0.5,0,0.9,0.2,1.1,0.7c0.3,0.8,0.5,1.3,0.8,2.1
			c0.4-0.5,4-3.9,9.1-4.3c7.8-0.7,10.8,4.6,10.8,11.2c0,5.2,0,7.7,0,12.9c0,0.6-0.7,1.3-1.3,1.3c-1.5,0.1-2.1,0.2-3.5,0.3
			c-0.7,0.1-1.1-0.5-1.1-1.1c0-5.3,0-7.9,0-13.1c0-4.1-2.3-6.2-5.6-5.9c-4,0.3-6.4,3.5-7.4,4.4c0,6.3,0,9.4,0,15.6
			c0,0.8-0.3,1.2-1.3,1.3c-1.3,0.1-2.1,0.2-3.4,0.3c-0.6,0-1.3-0.5-1.3-1.1C763,412.7,763,408.1,763,398.8z"/>
			<path fill="#1A1A1A" d="M797,399.9c-1,0.1-1.7,0.2-2.7,0.3c-0.7,0.1-1.3-0.5-1.3-1.1c0-1.2,0-1.7,0-2.9c0-0.7,0.6-1.3,1.3-1.3
			c1.1-0.1,1.7-0.2,2.7-0.3c0-2.8,0-4.3,0-7.1c0-0.6,0.7-1.3,1.3-1.3c1.5-0.2,2.1-0.3,3.6-0.4c0.6-0.1,1.1,0.5,1.1,1.1
			c0,2.9,0,4.3,0,7.2c3-0.3,4-0.4,6.7-0.7c0.7-0.1,1.3,0.4,1.3,1.1c0,1.2,0,1.7,0,2.9c0,0.6-0.6,1.3-1.3,1.4
			c-2.6,0.3-3.7,0.4-6.7,0.7c0,5.1,0,7.6,0,12.7c0,2.2,1,2.5,2.2,2.3c1.3-0.1,3.2-1.1,4-1.6s1.2-0.1,1.5,0.4
			c0.5,1.1,0.7,1.6,1.2,2.7c0.3,0.7,0,1.2-0.6,1.6s-4.5,2.4-7.6,2.7c-5.1,0.5-6.6-2.4-6.6-7C797,407.9,797,405.2,797,399.9z"/>
			<path fill="#1A1A1A" d="M507,458c-4-0.4-6.4-0.6-10.6-1.1c-0.7-0.1-1.4-0.7-1.4-1.4c0-1.4,0-2.2,0-3.6c0-0.6,0.7-1.2,1.4-1.1
			c11,1.2,16.4,1.8,27.4,2.7c0.7,0.1,1.1,0.7,1.1,1.3c0,1.4,0,2.2,0,3.6c0,0.6-0.2,1.2-0.9,1.1c-4.2-0.4-6.1-0.6-10.1-1
			c0,12.5,0,25.1,0,37.6c0,0.6-0.7,1.2-1.4,1.1c-1.7-0.2-2.6-0.3-4.3-0.4c-0.6-0.1-1.3-0.7-1.3-1.3C507,483.1,507,470.5,507,458z"/>
			<path fill="#1A1A1A" d="M526,474.2c0-0.6,0.8-1.2,1.4-1.1c0.7,0.1,1.2,0.1,2,0.2c0.4,0,1,0.5,1.1,1c0.3,0.9,0.4,1.3,0.7,2.2
			c0.4-0.6,2.8-3.5,7.5-3.1c2.4,0.2,5.4,1.1,4.7,2.7c-0.6,1.2-0.9,1.8-1.5,3c-0.3,0.7-1,0.8-1.5,0.5c-0.4-0.2-1.6-0.6-2.4-0.6
			c-3.7-0.3-5,2.2-6,2.7c0,6.5,0,9.8,0,16.3c0,1.1-0.5,1.2-1.5,1.1c-1.2-0.1-1.9-0.2-3.2-0.3c-0.6-0.1-1.3-0.7-1.3-1.3
			C526,488.2,526,483.5,526,474.2z"/>
			<path fill="#1A1A1A" d="M556.3,484.8c2.7,0.2,5.1,1.1,5.1,1.1c0.1-4-0.7-5.7-4-5.9c-2.9-0.2-5.9,0.4-7.2,0.7
			c-0.8,0.1-1.2-0.4-1.4-1.1c-0.2-1-0.3-1.4-0.5-2.4c-0.2-0.8,0.3-1.2,0.8-1.4c0.4-0.1,4.1-1.2,8.9-0.9c8.2,0.5,9,5.6,9,12
			c0,5.5,0,8.2,0,13.7c0,0.6-0.6,1.2-1.2,1.1c-0.7,0-1.1-0.1-1.8-0.1c-0.6,0-0.8-0.3-1.1-1s-0.4-1.1-0.6-1.8c-1.4,1.3-3.9,3-7.9,2.7
			c-4.8-0.3-8.3-3.9-8.3-9.2C546.1,487.6,549.8,484.3,556.3,484.8z M555.4,497c2.6,0.2,5.6-1.6,5.6-2.8c0-1.6,0-2.5,0-4.1
			c0-0.3-2-1.2-4.3-1.3c-3.1-0.2-5.2,1.2-5.2,3.9C551.5,495,553,496.9,555.4,497z"/>
			<path fill="#1A1A1A" d="M585.8,476.4c3.3,0.2,5.2,1.5,6.2,1.7c0-7.5,0-11.3,0-18.8c0-0.6,0.6-1.2,1.2-1.2c1.5,0.1,2.2,0.1,3.6,0.2
			c0.6,0,1.1,0.6,1.1,1.3c0,14.1,0,28.3,0,42.4c0,0.6-0.5,1.2-1.1,1.2c-0.8,0-1.1,0-1.9-0.1c-0.6,0-0.9-0.5-1.1-1.1
			c-0.2-0.8-0.3-1.1-0.5-1.9c0,0-3.1,3.5-8.1,3.2c-6.8-0.3-12-6.7-12-14.1C573.2,481.7,578.7,476.1,585.8,476.4z M585.9,497.8
			c3.9,0.2,6.1-2.9,6.1-3.6c0-4.2,0-6.3,0-10.4c0,0-2.2-1.6-5.6-1.8c-4.3-0.2-7.3,3.2-7.3,7.5C579.1,493.8,581.8,497.6,585.9,497.8z
			"/>
			<path fill="#1A1A1A" d="M605.8,463.7c0-2.1,1.6-3.7,3.7-3.7c2.1,0.1,3.8,1.8,3.8,3.9s-1.7,3.7-3.8,3.6
			C607.4,467.5,605.8,465.7,605.8,463.7z M606,479.1c0-0.6,0.8-1.2,1.5-1.2c1.5,0,2.5,0.1,4,0.1c0.6,0,1.5,0.6,1.5,1.3
			c0,9.3,0,13.9,0,23.2c0,0.6-0.8,1.2-1.4,1.2c-1.5,0-2.5-0.1-4-0.1c-0.6,0-1.6-0.6-1.6-1.3C606,493,606,488.4,606,479.1z"/>
			<path fill="#1A1A1A" d="M623,483.6c-1,0-1.7,0-2.7-0.1c-0.7,0-1.3-0.6-1.3-1.2c0-1.2,0-1.7,0-2.9c0-0.7,0.6-1.2,1.3-1.2
			c1.1,0,1.7,0,2.7,0.1c0-2.8,0-4.3,0-7.1c0-0.6,0.4-1.2,1-1.2c1.5,0,2.3,0,3.7,0c0.6,0,1.2,0.6,1.2,1.2c0,2.9,0,4.3,0,7.2
			c2,0,3.5,0.1,6.2,0.1c0.7,0,0.8,0.5,0.8,1.2c0,1.2,0,1.7,0,2.9c0,0.6-0.1,1.2-0.8,1.2c-2.6,0-4.2-0.1-6.2-0.1c0,5.1,0,7.6,0,12.7
			c0,2.2,0.7,2.6,1.9,2.6c1.3,0,3.1-0.7,3.8-1.1c0.8-0.4,1.2,0,1.4,0.6c0.5,1.1,0.7,1.7,1.1,2.8c0.3,0.7,0,1.2-0.6,1.5
			s-4.2,1.9-7.3,1.8c-5.1-0.1-6.4-3.2-6.4-7.8C623,491.6,623,489,623,483.6z"/>
			<path fill="#1A1A1A" d="M642.4,464.4c0-2.1,1.6-3.8,3.7-3.8c2.1,0,3.8,1.7,3.8,3.8c0,2.1-1.7,3.7-3.8,3.7
			C644,468.2,642.4,466.5,642.4,464.4z M643,479.8c0-0.6,0.6-1.2,1.3-1.2c1.5,0,2.1,0,3.6,0c0.6,0,1.1,0.6,1.1,1.2
			c0,9.3,0,13.9,0,23.2c0,0.6-0.5,1.2-1.1,1.2c-1.5,0-2.2,0-3.7,0c-0.6,0-1.2-0.6-1.2-1.2C643,493.8,643,489.1,643,479.8z"/>
			<path fill="#1A1A1A" d="M668.6,477.9c7.2-0.1,13,6,13,13.2c0,7.4-5.8,13.6-13,13.7s-13-6.1-13-13.4
			C655.7,484.2,661.4,478,668.6,477.9z M668.6,499.3c4,0,7.3-3.7,7.3-8.1c0-4.3-3.2-7.8-7.3-7.7c-4,0-7.3,3.6-7.3,7.9
			C661.4,495.8,664.6,499.4,668.6,499.3z"/>
			<path fill="#1A1A1A" d="M688,479.5c0-0.6,0.6-1.2,1.2-1.2c0.7,0,1.1,0,1.9,0c0.5,0,0.9,0.3,1,0.7c0.3,0.9,0.5,1.3,0.8,2.2
			c0.4-0.5,4.1-3.7,9.2-3.9c7.8-0.3,10.9,5.1,10.9,11.8c0,5.2,0,7.7,0,12.9c0,0.6-0.8,1.2-1.4,1.3c-1.5,0.1-2.5,0.1-4,0.1
			c-0.7,0-1.6-0.5-1.6-1.2c0-5.3,0-7.9,0-13.1c0-4.1-1.8-6.3-5.1-6.2c-4,0.1-6.9,3.2-6.9,4.1c0,6.3,0,9.4,0,15.6
			c0,0.8-0.4,1.2-1.5,1.3c-1.3,0-2,0.1-3.3,0.1c-0.6,0-1.2-0.5-1.2-1.2C688,493.4,688,488.7,688,479.5z"/>
			<path fill="#1A1A1A" d="M729,486.1c2.7-0.1,5.1,0.5,5.1,0.5c0.1-4-0.7-5.6-4-5.4c-2.9,0.2-5.9,1.1-7.2,1.5c-0.8,0.2-1.2-0.3-1.4-1
			c-0.2-0.9-0.3-1.4-0.5-2.3c-0.2-0.8,0.3-1.3,0.8-1.5c0.4-0.2,4.3-1.7,9-1.9c8.2-0.4,9.1,4.5,9.1,10.9c0,5.5,0,8.2,0,13.7
			c0,0.6-0.7,1.3-1.4,1.3s-1.2,0.1-1.9,0.1c-0.6,0-0.9-0.2-1.1-0.8c-0.3-0.7-0.4-1-0.7-1.7c-1.4,1.4-3.9,3.5-7.9,3.7
			c-4.8,0.2-8.3-2.9-8.3-8.2C718.8,490.2,722.5,486.5,729,486.1z M728.2,498.5c2.6-0.1,4.8-2.2,5.8-3.5c0-1.6,0-2.5,0-4.1
			c0-0.2-2.2-0.9-4.5-0.8c-3.1,0.2-5.2,1.9-5.2,4.5C724.3,496.9,725.9,498.6,728.2,498.5z"/>
			<path fill="#1A1A1A" d="M748,457.6c0-0.6,0.4-1.3,1.1-1.3c1.5-0.1,2.2-0.1,3.7-0.2c0.6,0,1.2,0.5,1.2,1.1c0,14.1,0,28.3,0,42.4
			c0,0.6-0.7,1.3-1.3,1.3c-1.5,0.1-2.1,0.1-3.6,0.2c-0.6,0-1.1-0.5-1.1-1.1C748,485.9,748,471.7,748,457.6z"/>
		</g>
	</g>
	<circle fill="#1A1A1A" cx="472.9" cy="319.8" r="8.7"/>
	<circle fill="#1A1A1A" cx="472.9" cy="398.8" r="8.7"/>
	<circle fill="#1A1A1A" cx="472.9" cy="474.8" r="8.7"/>
</svg>
