<?xml version="1.0" encoding="utf-8"?>
<!-- Generator: Adobe Illustrator 17.1.0, SVG Export Plug-In . SVG Version: 6.00 Build 0)  -->
<!DOCTYPE svg PUBLIC "-//W3C//DTD SVG 1.1//EN" "http://www.w3.org/Graphics/SVG/1.1/DTD/svg11.dtd">
<svg version="1.1" id="Layer_1" xmlns="http://www.w3.org/2000/svg" xmlns:xlink="http://www.w3.org/1999/xlink" x="0px" y="0px" viewBox="0 0 1280 800" enable-background="new 0 0 1280 800" xml:space="preserve">
	<g>
		<path fill="#1A1A1A" d="M1082.9,425.1l3.1-9.5l-88.8-29.3c16.9-5.3,29.3-23,29.3-44.1c0-25.3-17.8-45.7-39.7-45.7
		c-22,0-39.7,20.5-39.7,45.7c0,20.5,11.8,37.9,27.9,43.7l-88.3-20.7l-0.1,9.3l92.5,20.7l2.3,115.2l-41,109.8l9.4,3.5L988,520.9
		l56.2,94.5l8.6-5.1l-59.5-100.1L991,394.8L1082.9,425.1z M987.4,388.3L987.4,388.3l-0.1-0.4c0.1,0,0.2,0,0.2,0L987.4,388.3z"/>
	</g>
	<image overflow="visible" width="645" height="715" xlink:href="me.png"  transform="matrix(0.1748 0 0 0.1748 937.0703 270.3336)"></image>
	<g>
		<path fill="#603813" d="M802.5,432.5c0.8-2.8,0.4-7.2,1.2-11.2c0.9-4.6,1.6-9.3,2.4-13.9c1.3-8.2,2.6-16.5,3.6-24.8
		c1.3-11.1,3.7-22.1,5.2-33.1c1.5-11.1,3.5-22.1,4.7-33.2c1-9.4,2.7-18.5,6-27.3c0.8-2.2,2.4-4.1,3.6-6.2c3.3-6,7.9-11.1,12-16.6
		c0.8-1.1,1.7-2.2,1.2-3.7c-0.2-0.6,0.1-1.3,0.7-1.4c1.8-0.5,1.9-2,2.2-3.4c1.2-5.1,2.5-10.1,3.7-15.2c2.2-9.2,4.7-18.3,6.5-27.5
		c0.9-4.7,2.5-9.2,3.1-14.1c0.3-2.8,1.4-5.8,2.4-8.7c0.9-2.8,1.6-5.7,2.3-8.6c0.1-0.6,0.4-1.3,0.2-1.7c-1.6-3.4-0.4-6.2,1.4-9
		c0.5-0.8,0.6-1.6,0.1-2.5c-0.5-0.7-0.7-1.4,0.2-2c0.3-0.2,0.3-0.6,0.2-1c-0.7-4,1.4-6.9,5.5-7.6c2.2-0.4,4.4-0.3,6.5-0.2
		c5.7,0.4,11.3,1.1,16.6,3.1c4.4,1.6,7.6,7.3,5.3,11.3c-1.7,3-1.1,5.3-0.7,8.1c0.1,0.7,0.1,1.6-0.3,2.1c-2.5,3-1.9,6.6-2,10
		c-0.3,7.9-1,15.8-1.4,23.7c-0.6,10.9-1.1,21.7-1.7,32.6c-0.2,3.7-0.6,7.4-0.7,11.1c-0.2,6.6,0.5,12.9,4.3,18.7
		c2,3.1,2.4,6.9,3.5,10.5c3.8,12.4,3.2,24.8,0.2,37.2c-0.6,2.7-1.2,5.4-0.8,8.2c0,0.3,0,0.6,0,0.9c-2.1,8.3-2.8,16.7-4.2,25.1
		c-0.2,1.1-0.4,2.1,0.3,3.1c0.3,0.4,0.2,0.6-0.7,0.9c-0.6,0.2-0.3,0.7-0.3,1c-0.6,4.5-0.9,8.9-1.5,13.4c-1.3,9.3-3,18.5-4,27.8
		c-0.4,3.8-0.8,7.6-1.2,11.4c-0.3,3-0.9,6.1-1.2,9.1c-0.5,4.4-1.9,8.7-2.2,13.2c-0.4,5.2-1.5,10.2-3.6,15c-1.6,3.7-4.4,6.3-8.8,6.5
		c-4.1,0.2-8.2-0.2-12.3-0.7c-3.9-0.5-7.9-0.8-11.7-1.4c-3-0.5-6-0.9-9-1.3c-3.7-0.6-7.3-1.1-11-1.7c-5.3-0.8-10.5-1.6-15.6-3
		c-1.3-0.4-2.7-0.7-4-1.1c-4.1-1.1-5.9-4.2-6.5-8.1C801.6,442,801.6,437.9,802.5,432.5z"/>
		<path fill="#FFFFFF" d="M889.8,405c0,0-10.9,1.9-41.6-2.5c-31.1-4.5-40.6-9.3-40.6-9.3l7.7-53.8c0,0,8.1,4.4,40.6,9.3
		c30.2,4.1,41.6,2.5,41.6,2.5L889.8,405z"/>
		<g>
			<g>
				<path d="M819.4,359.4c0-0.3,0.3-0.5,0.6-0.4c2.7,0.7,4.1,1,6.8,1.7c3.5,0.8,6,3.8,5.5,6.9c-0.3,2.3-4.1,4-4.1,4
				c0,0.2,3.6,3,3.3,5.7c-0.5,3.3-3.7,5.1-7.2,4.3c-2.9-0.7-4.4-1-7.3-1.8c-0.3-0.1-0.5-0.4-0.5-0.7
				C817.7,371.2,818.2,367.3,819.4,359.4z M825.1,369c1.1,0.3,2.2-0.5,2.4-1.7c0.2-1.2-0.7-2.2-1.8-2.5c-0.9-0.2-1.4-0.3-2.3-0.5
				c-0.2,1.7-0.4,2.5-0.6,4.2C823.7,368.7,824.2,368.8,825.1,369z M824.3,377.2c1.1,0.3,2.3-0.5,2.4-1.7c0.2-1.2-1-2.4-2.1-2.6
				c-1-0.2-1.4-0.3-2.4-0.6c-0.2,1.7-0.4,2.6-0.6,4.3C822.7,376.8,823.2,377,824.3,377.2z"/>
				<path d="M837.3,363.5c0-0.3,0.3-0.5,0.6-0.5c4.9,1,7.4,1.4,12.3,2.1c0.3,0.1,0.5,0.4,0.5,0.7c-0.2,1.3-0.3,1.9-0.5,3.2
				c0,0.3-0.3,0.5-0.6,0.5c-3.3-0.5-4.9-0.8-8.2-1.4c-0.2,1.5-0.3,2.2-0.5,3.7c2.7,0.5,4.1,0.7,6.8,1.2c0.3,0,0.5,0.4,0.5,0.7
				c-0.2,1.3-0.3,1.9-0.5,3.2c0,0.3-0.3,0.5-0.6,0.5c-2.7-0.4-4.1-0.7-6.8-1.2c-0.2,1.6-0.3,2.4-0.6,4c3.3,0.6,4.9,0.9,8.2,1.4
				c0.3,0.1,0.5,0.4,0.5,0.7c-0.2,1.3-0.3,1.9-0.5,3.2c0,0.3-0.3,0.5-0.6,0.5c-4.9-0.8-7.4-1.2-12.3-2.1c-0.3-0.1-0.5-0.4-0.5-0.7
				C835.6,375.3,836.2,371.4,837.3,363.5z"/>
				<path d="M854.7,366.4c0-0.3,0.3-0.5,0.6-0.5c4.9,0.7,7.4,1,12.4,1.5c0.3,0,0.5,0.3,0.5,0.6c-0.2,1.3-0.3,1.9-0.5,3.2
				c0,0.3-0.3,0.5-0.7,0.5c-3.3-0.3-5-0.5-8.3-0.9c-0.2,1.5-0.3,2.2-0.5,3.7c2.7,0.3,4.1,0.5,6.8,0.8c0.3,0,0.5,0.3,0.5,0.6
				c-0.2,1.3-0.3,1.9-0.5,3.2c0,0.3-0.4,0.5-0.7,0.5c-2.7-0.3-4.1-0.4-6.8-0.8c-0.2,1.6-0.3,2.4-0.6,4c3.3,0.4,5,0.6,8.3,0.9
				c0.3,0,0.5,0.3,0.5,0.6c-0.2,1.3-0.3,1.9-0.5,3.2c0,0.3-0.3,0.5-0.7,0.5c-5-0.5-7.4-0.8-12.4-1.5c-0.3,0-0.5-0.3-0.5-0.6
				C853,378.2,853.6,374.3,854.7,366.4z"/>
				<path d="M872.3,368.4c0-0.3,0.3-0.5,0.7-0.5c3.6,0.3,5.4,0.4,9,0.6c3.6,0.2,6.2,3.2,5.6,6.7c-0.4,2.7-2.5,4.9-5.3,5.8
				c1.2,3.1,1.8,4.6,3,7.7c0.2,0.4-0.1,0.9-0.6,0.8c-1.6-0.1-2.4-0.1-4-0.2c-0.2,0-0.4-0.2-0.4-0.3c-1.2-3.2-1.7-4.9-2.9-8.1
				c-0.8-0.1-1.2-0.1-2.1-0.1c-0.4,3-0.7,4.6-1.1,7.6c0,0.3-0.4,0.5-0.7,0.5c-1.4-0.1-2.1-0.2-3.6-0.3c-0.3,0-0.5-0.3-0.5-0.6
				C870.6,380.2,871.1,376.3,872.3,368.4z M880.2,377.3c1.2,0.1,2.4-1,2.6-2.3c0.2-1.2-0.7-2.3-2-2.4c-1.8-0.1-2.7-0.2-4.5-0.3
				c-0.3,1.9-0.4,2.8-0.7,4.6C877.6,377.2,878.5,377.2,880.2,377.3z"/>
			</g>
		</g>
	</g>
	<g>
		<path d="M333.8,279.6c0,6.8-2.3,9.9-6.3,15c-3.5,4.3-13,16.2-13,16.2s-1.4,1.4-3,1.4c-4.5,0-9.6-14.1-9.6-17.7
		c0-5.6,6.3-11.3,6.3-11.3s5.4-5.2,6.3-7c0-1.2-7.3-1.9-14.1-1.9c-36.9,0-92.9,33.2-92.9,73.9c0,32.2,35.3,45.1,60.9,45.1
		c26.8,0,49.9-13.7,62.5-31.3c0,0,0.3-0.2,0.7-0.2c1.6,0,1.9,2.8,1.9,2.8s-3,4.3-3,4.9c0,1.4,2.8,2.3,2.8,3.5c0,0.3-0.2,0.9-0.5,1.6
		c-8,18.1-36.4,37.4-70.6,37.4c-43.7,0-65.1-33.9-65.1-70.3c0-34.5,39.3-85.3,97.3-85.3C312.4,256.3,333.8,268.5,333.8,279.6z"/>
		<path d="M347.5,367.6c0.3,0,0.5-0.2,0.7-0.5c2.3-6.1,15.3-31.7,21.2-31.7c1.7,0,3.1,1.6,3.1,1.6c3.5,0.2,6.8,0.9,6.8,4.5
		c-1.9,13.7-3,25.9-3,37.8c0,8.7,0.9,18.8,5.7,18.8c5.7,0,10.8-8.4,12.2-13c0,0,0.2-0.7,0.9-0.7c1.4,0,1.7,1.7,1.7,2.6
		c0,6.4-4.7,13.7-9.6,17.2c-3.1,2.3-6.1,3-8.5,3c-15.3,0-16.2-24.2-16.2-34.5c0-8.2,0.5-16,0.9-20.9c0-0.7-0.2-3-0.7-3
		c-1,0-9.2,15.7-10.8,19.5c-3.8,8.7-5.9,20.2-5.9,29.1c0,6.4,0.2,11.7,0.2,11.7c0,1.7-0.3,3-1.2,3c-0.3,0-0.7-0.2-1.2-0.5
		c-3-2.3-9.2-5.4-10.8-7c0.3-6.3,2.6-30.1,4.5-55.9h-0.7c-0.7,0-1.2-0.2-1.4-0.3c-1.6-0.7-0.7-1.7-2.3-2.4c-1.2,0-1.7-0.3-1.7-0.5
		c-0.2,0,3.8-0.9,6.4-1.7l0.5-6.3c3-43,16.5-90.7,26.4-90.7c8.5,0,12.4,9,12.4,21.7c0,22.8-11.8,57.2-28.7,73.3
		c-0.9,10.4-1.6,20.4-1.6,25.2C347,367.5,347.4,367.6,347.5,367.6z M366.5,268.6c-5.9,0-14.4,33.6-17.4,65.9
		c12.9-15.8,19.7-45.2,19.7-58.8C368.8,271.4,367.9,268.6,366.5,268.6z"/>
		<path d="M505.9,358.2c-2.4,18.3-10.8,48.4-34.6,48.4c-9.4,0-16.4-4.2-21.1-10.6c-7.7,6.4-16.2,10.6-25.1,10.6
		c-16.7,0-25.8-10.8-28.7-24.4h-0.3c-2.1,0-3.8-0.2-4.4-0.5c-1-0.3-1.6-1.2-1.6-1.9l-0.5-0.9c-0.3-0.7-0.5-1-1.4-1
		c-1-0.7-1.6-0.9-1.7-0.9c0,0,0-0.2,0.3-0.2c2.6,0,6.6,0.5,8.7,0.5c-0.2-2.1-0.3-4.3-0.3-6.6c0-20.4,10.6-41.6,26.8-41.6
		c7.8,0,12.2,5.7,12.2,13.7c0,10.4-7.5,24.5-24.9,35c2.1,11.7,8,21.4,19.1,21.4c7.5,0,13.9-2.8,19.3-7.1c-3.7-7-5.4-15.5-5.4-24
		c0-19.7,9.2-39.3,25.6-39.3c7.7,0,10.8,5.4,10.8,13.4c0,12.4-7.8,31-19.7,44.9c2.6,7,6.8,11.7,12.5,11.7
		c17.2,0,25.1-23.1,28.5-43.2c-4.2-3.7-6.1-10.3-6.1-16.4c0-7.1,2.8-13.6,8.2-13.6c5.2,0,6.4,3.7,6.4,8c0,3.7-0.9,8-0.9,11.3
		c0,3,0.3,4.2,1.6,4.2c0.9,0,2.1-0.7,3.8-1.7c6.1-4,15.3-13.7,16.7-13.7c2.3,0,5.7,4.5,5.7,7c0,1.2-0.5,2.3-0.5,2.3
		s-3.1,8.2-4.4,11.1c-4,9.6-5.6,19.1-5.6,27c0,14.3,3.8,23.3,8.4,23.3c3,0,6.3-4,9-12.9c0.3-1.2,0.2-1.9,2.4-3.5
		c0.5-0.3,0.9-0.5,1-0.5c0.3,0,0.5,0.3,0.5,0.7c0,0.3-0.2,0.9-0.2,0.9c-0.7,14.4-9.7,23.5-18.1,23.5c-7.5,0-14.4-7.1-14.4-24.2
		c0-12.5,2.8-26.3,4.3-32c-2.8,1.4-6.6,2.1-10.3,2.1C507.3,358.4,506.6,358.4,505.9,358.2z M421.5,339.3c-7.7,0-12.9,14.3-12.9,28.9
		c0,1.7,0,3.5,0.2,5c8.9-5.6,16.5-20.7,16.5-28.7C425.3,341.4,424.3,339.3,421.5,339.3z M466.2,336.8c-7,0-10.8,13.4-10.8,27.8
		c0,5.7,0.5,11.7,1.7,16.9c8.2-12.2,12.4-27.7,12.4-36.9C469.5,340,468.3,336.8,466.2,336.8z"/>
		<path d="M555.3,328.3c0.3-3.8,8-7.1,10.6-7.1c0.5,0,1.4,0.2,1.4,0.9c0,0.2-2.6,11.5-2.6,24.9c0,12.5,12.5,27.7,12.5,41.9
		c0,12.9-8.7,19.3-16.7,19.3c-6.6,0-12.9-4.5-12.9-13.6c0-5,1.6-9.4,2.6-9.4c0.2,0,0.3,0,0.5,0.3c2.6,6.1,2.6,12.7,6.8,12.7
		c5.6,0,7.7-3.8,7.7-9.2c0-11.7-9.2-31-9.2-35.1c-1.9,3.7-4.7,12.5-8.2,22.3c-0.5,0.5-1.2,0.7-1.7,0.7c-1.7,0-3.3-1.7-3.3-1.7
		C549.4,356.5,554.6,336,555.3,328.3z"/>
		<path d="M612.2,392c0,5.6-3.5,11.1-10.1,11.1c-8,0-11.1-4.7-11.1-9.9c0-6.1,4.3-12.5,11-12.5C608.7,380.7,612.2,386.4,612.2,392z
		 M602.4,369.9c-2.3,0-4-1-4-4c0-25.1,0.5-95.9,0.5-109.3c0-0.2,1.2-0.2,1.4-0.2c1.9,0,16.7,14.3,16.7,15.7c0,6.4-9.7,79-9.7,96.6
		C605.9,369.4,604,369.9,602.4,369.9z"/>
	</g>
	<g>
		<path d="M295.6,473.3c14.4,0,22.7,9.2,22.7,21.5c0,6.7-3.3,15.2-12.1,15.2c-3.5,0-5.2-1.8-6.1-4h-0.4c-1.1,2.1-3.5,4-6.8,4
		c-5.9,0-9.4-5.2-9.4-10.7c0-5.8,4-10.8,9.6-10.8c2.9,0,5.1,1.8,6.3,3.2c0.5-1,0.8-2.7,1.7-2.7h2.1c0.5,0,1,0.4,1,1v8.6
		c0,4.4,1.5,5,2.9,5c3,0,4.3-4.7,4.3-8.4c0-8.8-5.3-15.5-15.9-15.5c-10.8,0-17.7,7.1-17.7,18.4c0,7.7,4.8,14.2,11.7,17
		c0.5,0.2,0.8,0.7,0.6,1.2l-1.5,4.2c-0.2,0.5-0.7,0.8-1.2,0.6c-9.3-3.1-16.4-12.4-16.4-23C270.9,483.7,281.1,473.3,295.6,473.3z
		 M293.5,503.5c2.1,0,3.6-2,3.6-4.4c0-2.6-1.5-4.4-3.8-4.4c-2.2,0-3.6,2-3.6,4.4C289.8,502,291.5,503.5,293.5,503.5z"/>
		<path d="M322.9,474.8c0-0.5,0.5-1,1-1h5.6c0.5,0,1,0.5,1,1v33.8c0,0.5-0.5,1-1,1h-5.6c-0.5,0-1-0.5-1-1V474.8z"/>
		<path d="M335.5,490.1c0-0.6,0.5-1,1-1h5.5c0.5,0,1,0.4,1,1v9.4c0,2.1,1.2,3.9,3.3,3.9c2,0,3.1-1.9,3.1-3.6v-9.7c0-0.8,0.6-1,1.1-1
		h5.2c0.5,0,1,0.4,1,1v18.5c0,0.5-0.5,1-1,1h-2.4c-0.5,0-0.8-0.4-1-0.7l-0.8-1.9c-1.3,1.3-3,3.1-6.9,3.1c-6.1,0-9-4.9-9-10.7V490.1z
		"/>
		<path d="M362,474.8c0-0.5,0.5-1,1-1h5.7c0.5,0,1,0.5,1,1v22.1l6.2-7.1c0.3-0.3,0.7-0.6,1.3-0.6h5.7c0.9,0,1.3,0.9,0.8,1.6l-6.7,7.8
		l8.2,9.5c0.6,0.7,0.1,1.5-0.8,1.5h-6.9c-0.2,0-0.6-0.2-0.8-0.4l-6.9-8.9v8.3c0,0.5-0.5,1-1,1h-5.7c-0.5,0-1-0.5-1-1V474.8z"/>
		<path d="M396.7,488.6c5.2,0,9.7,4,9.7,9.6c0,0.4-0.1,1-0.1,1.4c-0.1,0.5-0.5,0.9-1,0.9h-12.2c0.2,1.4,1.3,3.4,3.9,3.4
		c1.3,0,2.8-0.6,3.6-1.2c0.5-0.4,1-0.4,1.3,0l2.6,3.1c0.3,0.4,0.4,1-0.1,1.5c-1.8,1.8-4.3,2.9-7.6,2.9c-6.1,0-10.7-4.8-10.7-10.7
		C386.2,493.6,390.7,488.6,396.7,488.6z M399.2,496.5c-0.1-1.3-1.4-2.4-2.7-2.4c-1.4,0-2.6,1.1-2.8,2.4H399.2z"/>
		<path d="M410.1,474.8c0-0.5,0.5-1,1-1h5.7c0.5,0,1,0.5,1,1v14.8c0.6-0.4,2.5-1,4.2-1c5.5,0,10.2,3.5,10.2,10.7
		c0,5.9-4.3,10.7-10.1,10.7c-4.5,0-6.8-3.2-6.8-3.2l-0.6,1.7c-0.2,0.6-0.6,1-1.1,1h-2.4c-0.5,0-1-0.5-1-1V474.8z M421,503.5
		c2.3,0,4.1-1.8,4.1-4.2c0-2.3-1.8-4.1-4.1-4.1c-2.3,0-4.1,1.8-4.1,4.1C416.9,501.6,418.6,503.5,421,503.5z"/>
		<path d="M436.1,490.1c0-0.6,0.5-1,1-1h2.4c0.6,0,0.8,0.3,0.9,0.6l0.9,2.2c1-1.5,2.9-3.4,5.6-3.4c2.8,0,4.8,1,4.1,2.2l-2.5,4.1
		c-0.2,0.4-0.6,0.7-1.1,0.5c-0.3-0.1-0.8-0.3-1.2-0.3c-1.5,0-2.7,1.2-2.7,2.9v10.6c0,0.6-0.3,1-1.1,1h-5.2c-0.5,0-1-0.5-1-1V490.1z"
		/>
		<path d="M462.5,488.6c5.8,0,10.6,4.9,10.6,10.7c0,5.9-4.8,10.8-10.6,10.8c-5.8,0-10.6-4.9-10.6-10.8
		C451.9,493.5,456.7,488.6,462.5,488.6z M462.5,503.5c2.2,0,4-1.9,4-4.2c0-2.2-1.8-4.1-4-4.1s-4,1.8-4,4.1
		C458.5,501.6,460.3,503.5,462.5,503.5z"/>
		<path d="M486.1,488.6c5.8,0,10.6,4.9,10.6,10.7c0,5.9-4.8,10.8-10.6,10.8c-5.8,0-10.6-4.9-10.6-10.8
		C475.5,493.5,480.3,488.6,486.1,488.6z M486.1,503.5c2.2,0,4-1.9,4-4.2c0-2.2-1.8-4.1-4-4.1s-4,1.8-4,4.1
		C482.1,501.6,483.9,503.5,486.1,503.5z"/>
		<path d="M500.7,474.8c0-0.5,0.5-1,1-1h5.7c0.5,0,1,0.5,1,1v22.1l6.2-7.1c0.3-0.3,0.7-0.6,1.3-0.6h5.7c0.9,0,1.3,0.9,0.8,1.6
		l-6.7,7.8l8.2,9.5c0.6,0.7,0.1,1.5-0.8,1.5H516c-0.2,0-0.6-0.2-0.8-0.4l-6.9-8.9v8.3c0,0.5-0.5,1-1,1h-5.7c-0.5,0-1-0.5-1-1V474.8z
		"/>
		<path d="M535.4,488.6c5.2,0,9.7,4,9.7,9.6c0,0.4-0.1,1-0.1,1.4c-0.1,0.5-0.5,0.9-1,0.9h-12.2c0.2,1.4,1.3,3.4,3.9,3.4
		c1.3,0,2.8-0.6,3.6-1.2c0.5-0.4,1-0.4,1.3,0l2.6,3.1c0.3,0.4,0.4,1-0.1,1.5c-1.8,1.8-4.3,2.9-7.6,2.9c-6.1,0-10.7-4.8-10.7-10.7
		C524.8,493.6,529.4,488.6,535.4,488.6z M537.9,496.5c-0.1-1.3-1.4-2.4-2.7-2.4c-1.4,0-2.6,1.1-2.8,2.4H537.9z"/>
		<path d="M548.8,490.1c0-0.6,0.5-1,1-1h2.4c0.6,0,0.8,0.3,0.9,0.6l0.9,2.2c1-1.5,2.9-3.4,5.6-3.4c2.8,0,4.8,1,4.1,2.2l-2.5,4.1
		c-0.2,0.4-0.6,0.7-1.1,0.5c-0.3-0.1-0.8-0.3-1.2-0.3c-1.5,0-2.7,1.2-2.7,2.9v10.6c0,0.6-0.3,1-1.1,1h-5.2c-0.5,0-1-0.5-1-1V490.1z"
		/>
	</g>
</svg>
