<?xml version="1.0" encoding="utf-8"?>
<!-- Generator: Adobe Illustrator 17.1.0, SVG Export Plug-In . SVG Version: 6.00 Build 0)  -->
<!DOCTYPE svg PUBLIC "-//W3C//DTD SVG 1.1//EN" "http://www.w3.org/Graphics/SVG/1.1/DTD/svg11.dtd">
<svg version="1.1" id="Layer_1" xmlns="http://www.w3.org/2000/svg" xmlns:xlink="http://www.w3.org/1999/xlink" x="0px" y="0px" viewBox="0 0 1280 800" enable-background="new 0 0 1280 800" xml:space="preserve">
	<g>
		<path fill="#FFFFFF" d="M427.2,694.5c-26.2,0-48.3-19.7-51.3-45.8l-52-445.5c-1.6-13.7,2.2-27.3,10.8-38.1
		c8.6-10.8,20.9-17.7,34.6-19.3l445.5-52c2-0.2,4.1-0.4,6.1-0.4c26.2,0,48.3,19.7,51.3,45.8l52,445.5c3.3,28.3-17.1,54.1-45.4,57.4
		l-445.5,52C431.3,694.4,429.2,694.5,427.2,694.5z"/>
		<path fill="#CCCCCC" d="M820.8,108.5c18.6,0,34.3,14,36.4,32.5l52,445.5c1.1,9.8-1.6,19.4-7.7,27.1c-6.1,7.7-14.8,12.6-24.6,13.7
		l-445.5,52c-1.4,0.2-2.9,0.3-4.3,0.3c-18.6,0-34.3-14-36.4-32.5l-52-445.5c-1.1-9.8,1.6-19.4,7.7-27.1c6.1-7.7,14.8-12.6,24.6-13.7
		l445.5-52C817.9,108.6,819.4,108.5,820.8,108.5L820.8,108.5 M820.8,78.5c-2.6,0-5.2,0.2-7.8,0.5l-445.5,52
		c-36.6,4.3-62.8,37.4-58.6,74.1l52,445.5c4,34,32.8,59,66.2,59c2.6,0,5.2-0.2,7.8-0.5l445.5-52c36.6-4.3,62.8-37.4,58.6-74.1
		l-52-445.5C883,103.5,854.2,78.5,820.8,78.5L820.8,78.5z"/>
	</g>
	<circle fill="#1A1A1A" cx="412.5" cy="328.9" r="7.4"/>
	<circle fill="#1A1A1A" cx="424.7" cy="432.9" r="7.4"/>
	<circle fill="#1A1A1A" cx="437.2" cy="540.3" r="7.4"/>
	<g>
		<path d="M446.3,297.3c-0.1-0.6,0.4-1.3,1.1-1.3l25.9-3c0.7-0.1,1.3,0.4,1.3,1.1l0.6,5.2c0.1,0.6-0.4,1.3-1.1,1.3l-18.8,2.2
		l1.2,10.4l15.7-1.8c0.6-0.1,1.3,0.4,1.3,1.1l0.6,5.3c0.1,0.7-0.4,1.3-1.1,1.3l-15.7,1.8l1.3,11.1l18.8-2.2c0.7-0.1,1.3,0.4,1.3,1.1
		l0.6,5.2c0.1,0.6-0.4,1.3-1.1,1.3l-25.9,3c-0.7,0.1-1.3-0.4-1.3-1.1L446.3,297.3z"/>
		<path d="M495.4,312.3l-15-18.4c-0.6-0.8-0.2-1.8,0.9-1.9l7.4-0.9c0.5-0.1,0.9,0.2,1.1,0.5l9.7,12.5l0.1,0l6.7-14.4
		c0.1-0.3,0.4-0.6,0.9-0.7l7.4-0.9c1.1-0.1,1.7,0.8,1.3,1.7l-10.5,21.4l15.7,19.5c0.6,0.8,0.2,1.8-0.9,1.9l-6.9,0.8
		c-0.5,0.1-1-0.2-1.1-0.4l-10.8-13.5l-0.2,0l-7.3,15.6c-0.2,0.3-0.5,0.6-1,0.7l-6.9,0.8c-1.1,0.1-1.8-0.8-1.4-1.6L495.4,312.3z"/>
		<path d="M523.8,288.3c-0.1-0.6,0.4-1.3,1.1-1.3l14.9-1.7c7.8-0.9,15,4.7,15.9,12.4c0.9,7.9-4.7,15-12.5,16l-7.9,0.9l1.7,14.9
		c0.1,0.6-0.4,1.3-1.1,1.3l-5.8,0.7c-0.7,0.1-1.3-0.4-1.3-1.1L523.8,288.3z M541.7,305.8c3.6-0.4,6.2-3.6,5.8-7.4
		c-0.4-3.5-3.7-5.8-7.3-5.4l-7.4,0.9l1.5,12.8L541.7,305.8z"/>
		<path d="M561.4,283.9c-0.1-0.6,0.4-1.3,1.1-1.3l25.9-3c0.7-0.1,1.3,0.4,1.3,1.1l0.6,5.2c0.1,0.6-0.4,1.3-1.1,1.3l-18.8,2.2
		l1.2,10.4l15.7-1.8c0.6-0.1,1.3,0.4,1.3,1.1l0.6,5.3c0.1,0.7-0.4,1.3-1.1,1.3l-15.7,1.8l1.3,11.1l18.8-2.2c0.7-0.1,1.3,0.4,1.3,1.1
		l0.6,5.2c0.1,0.6-0.4,1.3-1.1,1.3l-25.9,3c-0.7,0.1-1.3-0.4-1.3-1.1L561.4,283.9z"/>
		<path d="M598.8,279.5c-0.1-0.6,0.4-1.3,1.1-1.3L618,276c7.6-0.9,14.6,4.5,15.4,12c0.7,5.8-2.6,11.1-7.9,13.9l10.6,15.1
		c0.5,0.8,0.2,1.8-0.9,2l-6.7,0.8c-0.6,0.1-0.9-0.2-1.1-0.5l-10.4-15.9l-7.1,0.8l1.9,16.2c0.1,0.6-0.4,1.3-1.1,1.3l-5.8,0.7
		c-0.7,0.1-1.3-0.4-1.3-1.1L598.8,279.5z M619.7,296.4c3.4-0.4,5.9-3.7,5.5-7.2c-0.4-3.4-3.6-5.8-7-5.4l-10.4,1.2l1.5,12.6
		L619.7,296.4z"/>
		<path d="M641.1,274.6c-0.1-0.6,0.4-1.3,1.1-1.3l5.9-0.7c0.6-0.1,1.3,0.4,1.3,1.1l4.9,42.1c0.1,0.6-0.4,1.3-1.1,1.3l-5.9,0.7
		c-0.6,0.1-1.3-0.4-1.3-1.1L641.1,274.6z"/>
		<path d="M661,272.2c-0.1-0.6,0.4-1.3,1.1-1.3l25.9-3c0.7-0.1,1.3,0.4,1.3,1.1l0.6,5.2c0.1,0.6-0.4,1.3-1.1,1.3l-18.8,2.2l1.2,10.4
		l15.7-1.8c0.6-0.1,1.3,0.4,1.3,1.1l0.6,5.3c0.1,0.7-0.4,1.3-1.1,1.3l-15.7,1.8l1.3,11.1l18.8-2.2c0.7-0.1,1.3,0.4,1.3,1.1l0.6,5.2
		c0.1,0.6-0.4,1.3-1.1,1.3l-25.9,3c-0.7,0.1-1.3-0.4-1.3-1.1L661,272.2z"/>
		<path d="M698.3,267.2c-0.1-0.6,0.4-1.2,1.1-1.3l1.6-0.2l29.7,25l0.1,0l-3.1-26.2c-0.1-0.6,0.4-1.3,1.1-1.3l5.8-0.7
		c0.6-0.1,1.3,0.4,1.3,1.1l5,42.8c0.1,0.6-0.4,1.2-1.1,1.3l-1.5,0.2l-30-26.1l-0.1,0l3.2,27.3c0.1,0.6-0.4,1.3-1.1,1.3l-5.8,0.7
		c-0.6,0.1-1.3-0.4-1.3-1.1L698.3,267.2z"/>
		<path d="M767,258c6.4-0.8,11.3,0.7,16.1,4.1c0.6,0.4,0.7,1.2,0.3,1.8l-3.4,4.5c-0.4,0.6-1,0.6-1.6,0.2c-2.9-2-6.7-3-10.2-2.6
		c-8.1,1-13.4,8.5-12.4,16.5c0.9,7.9,7.8,14,16,13c3.8-0.4,6.9-2.3,9.3-4.8c0.5-0.5,1.2-0.5,1.6-0.2l4.4,3.6
		c0.6,0.4,0.5,1.2,0.1,1.7c-3.8,4.7-9.1,7.3-14.7,8c-12.7,1.5-24.1-7.4-25.6-20.1S754.3,259.5,767,258z"/>
		<path d="M791,257.1c-0.1-0.6,0.4-1.3,1.1-1.3l25.9-3c0.7-0.1,1.3,0.4,1.3,1.1l0.6,5.2c0.1,0.6-0.4,1.3-1.1,1.3l-18.8,2.2l1.2,10.4
		l15.7-1.8c0.6-0.1,1.3,0.4,1.3,1.1l0.6,5.3c0.1,0.7-0.4,1.3-1.1,1.3l-15.7,1.8l1.3,11.1l18.8-2.2c0.7-0.1,1.3,0.4,1.3,1.1l0.6,5.2
		c0.1,0.6-0.4,1.3-1.1,1.3l-25.9,3c-0.7,0.1-1.3-0.4-1.3-1.1L791,257.1z"/>
	</g>
	<g>
		<path d="M478.2,400.5c12.7-1.5,24.1,7.6,25.6,20.3c1,8.6-3.1,16.9-10,21.8l9.4,11.6c0.7,0.8,0.2,1.9-0.8,2l-6.7,0.8
		c-0.3,0-0.9-0.2-1.1-0.5l-8.1-10.7c-1,0.2-2.1,0.4-2.8,0.5c-12.7,1.5-24-7.4-25.5-20.1S465.5,402,478.2,400.5z M482.6,438
		c8-0.9,13.9-8.3,12.9-16.3c-0.9-8-8.3-13.9-16.3-13s-13.8,8.4-12.8,16.4C467.3,433.2,474.6,439,482.6,438z"/>
		<path d="M509.1,398.8c-0.1-0.6,0.4-1.3,1.1-1.3l6-0.7c0.7-0.1,1.3,0.4,1.3,1.1l3,26c0.6,5.4,4.8,9.2,10.3,8.6
		c5.5-0.6,8.8-5.3,8.2-10.7l-3-26.1c-0.1-0.6,0.4-1.3,1.1-1.3l6-0.7c0.6-0.1,1.3,0.4,1.3,1.1l3.1,26.4c1.1,9.7-5.6,18.4-15.7,19.5
		c-10,1.2-18.6-5.8-19.7-15.4L509.1,398.8z"/>
		<path d="M553.9,435.8l14.8-45.1c0.1-0.4,0.4-0.8,1-0.8l0.6-0.1c0.6-0.1,0.9,0.2,1.2,0.6l24.6,40.5c0.5,0.8,0.1,1.7-0.9,1.8
		l-5.5,0.6c-1,0.1-1.4-0.2-2-1.1l-3.9-6.5l-19,2.2l-2.3,7.2c-0.2,0.7-0.7,1.4-1.7,1.5l-5.5,0.6C554.2,437.4,553.6,436.6,553.9,435.8
		z M579.7,419l-8-13.2l-0.2,0l-4.6,14.7L579.7,419z"/>
		<path d="M596.9,388.5c-0.1-0.6,0.4-1.3,1.1-1.3l5.8-0.7c0.6-0.1,1.3,0.4,1.3,1.1l4.2,35.6l16.2-1.9c0.7-0.1,1.3,0.4,1.3,1.1
		l0.6,5.2c0.1,0.6-0.4,1.3-1.1,1.3l-23.3,2.7c-0.7,0.1-1.3-0.4-1.3-1.1L596.9,388.5z"/>
		<path d="M629,384.8c-0.1-0.6,0.4-1.3,1.1-1.3l5.9-0.7c0.6-0.1,1.3,0.4,1.3,1.1l4.9,42.1c0.1,0.6-0.4,1.3-1.1,1.3l-5.9,0.7
		c-0.6,0.1-1.3-0.4-1.3-1.1L629,384.8z"/>
		<path d="M655.6,388.2l-9.7,1.1c-0.7,0.1-1.3-0.4-1.3-1.1l-0.6-5.2c-0.1-0.6,0.4-1.3,1.1-1.3l27.8-3.2c0.7-0.1,1.3,0.4,1.3,1.1
		l0.6,5.2c0.1,0.6-0.4,1.3-1.1,1.3l-9.7,1.1l4.2,35.7c0.1,0.6-0.4,1.3-1.1,1.3l-5.9,0.7c-0.6,0.1-1.3-0.4-1.3-1.1L655.6,388.2z"/>
		<path d="M693.9,399.4l-17-19.5c-0.6-0.8-0.2-1.8,0.8-2l6.5-0.8c0.5-0.1,0.9,0.2,1.1,0.5l11.9,13.4l8.5-15.8c0.2-0.3,0.4-0.6,1-0.7
		l6.5-0.8c1-0.1,1.6,0.8,1.2,1.7l-12.2,22.9l2.4,20.3c0.1,0.6-0.4,1.3-1.1,1.3l-5.8,0.7c-0.7,0.1-1.3-0.4-1.3-1.1L693.9,399.4z"/>
	</g>
	<g>
		<path d="M471.4,512c-0.1-0.6,0.4-1.3,1.1-1.3l14.9-1.7c7.8-0.9,15,4.7,15.9,12.4c0.9,7.9-4.7,15-12.5,16l-7.9,0.9l1.7,14.9
		c0.1,0.6-0.4,1.3-1.1,1.3l-5.8,0.7c-0.7,0.1-1.3-0.4-1.3-1.1L471.4,512z M489.3,529.6c3.6-0.4,6.2-3.6,5.8-7.4
		c-0.4-3.5-3.7-5.8-7.3-5.4l-7.4,0.9l1.5,12.8L489.3,529.6z"/>
		<path d="M505.6,550.2l14.8-45.1c0.1-0.4,0.4-0.8,1-0.8l0.6-0.1c0.6-0.1,0.9,0.2,1.2,0.6l24.6,40.5c0.5,0.8,0.1,1.7-0.9,1.8
		l-5.5,0.6c-1,0.1-1.4-0.2-2-1.1l-3.9-6.5l-19,2.2l-2.3,7.2c-0.2,0.7-0.7,1.4-1.7,1.5l-5.5,0.6C505.9,551.9,505.3,551.1,505.6,550.2
		z M531.5,533.5l-8-13.2l-0.2,0l-4.6,14.7L531.5,533.5z"/>
		<path d="M550.4,540.4l1.8-4.2c0.4-1,1.5-1.1,2.1-0.7c0.3,0.2,5.9,3.3,10.1,2.8c3.3-0.4,5.5-2.8,5.2-5.6c-0.4-3.2-3.4-5.1-9-6.7
		c-6.3-1.7-12.7-4.8-13.6-12.3c-0.7-5.7,2.8-12.7,12.9-13.9c6.5-0.8,11.8,2,13.2,2.8c0.7,0.3,1,1.4,0.6,2.1l-2,3.9
		c-0.4,0.8-1.3,1.4-2.1,1c-0.5-0.3-5.7-2.9-9.2-2.5c-3.6,0.4-5.3,3.1-5.1,5.1c0.3,3,2.9,4.7,8.3,6.2c6.5,1.8,14,4.6,15,12.8
		c0.8,6.5-4.2,13.2-13.1,14.3c-8,0.9-13.1-2.3-14.6-3.3C550.3,541.7,549.9,541.4,550.4,540.4z"/>
		<path d="M584.8,536.3l1.8-4.2c0.4-1,1.5-1.1,2.1-0.7c0.3,0.2,5.9,3.3,10.1,2.8c3.3-0.4,5.5-2.8,5.2-5.6c-0.4-3.2-3.4-5.1-9-6.7
		c-6.3-1.7-12.7-4.8-13.6-12.3c-0.7-5.7,2.8-12.7,12.9-13.9c6.5-0.8,11.8,2,13.2,2.8c0.7,0.3,1,1.4,0.6,2.1l-2,3.9
		c-0.4,0.8-1.3,1.4-2.1,1c-0.5-0.3-5.7-2.9-9.2-2.5c-3.6,0.4-5.3,3.1-5.1,5.1c0.3,3,2.9,4.7,8.3,6.2c6.5,1.8,14,4.6,15,12.8
		c0.8,6.5-4.2,13.2-13.1,14.3c-8,0.9-13.1-2.3-14.6-3.3C584.7,537.7,584.4,537.4,584.8,536.3z"/>
		<path d="M617.5,495c-0.1-0.6,0.4-1.3,1.1-1.3l5.9-0.7c0.6-0.1,1.3,0.4,1.3,1.1l4.9,42.1c0.1,0.6-0.4,1.3-1.1,1.3l-5.9,0.7
		c-0.6,0.1-1.3-0.4-1.3-1.1L617.5,495z"/>
		<path d="M656.8,488.5c12.7-1.5,24.1,7.6,25.6,20.3c1.5,12.7-7.5,24-20.2,25.5c-12.7,1.5-24-7.4-25.5-20.1
		C635.2,501.4,644.1,490,656.8,488.5z M661.2,526c8-0.9,13.9-8.3,12.9-16.3c-0.9-8-8.3-13.9-16.3-13s-13.8,8.4-12.8,16.4
		C645.9,521.1,653.2,526.9,661.2,526z"/>
		<path d="M688.2,486c-0.1-0.6,0.4-1.2,1.1-1.3l1.6-0.2l29.7,25l0.1,0l-3.1-26.2c-0.1-0.6,0.4-1.3,1.1-1.3l5.8-0.7
		c0.6-0.1,1.3,0.4,1.3,1.1l5,42.8c0.1,0.6-0.4,1.2-1.1,1.3l-1.5,0.2l-30-26.1l-0.1,0l3.2,27.3c0.1,0.6-0.4,1.3-1.1,1.3l-5.8,0.7
		c-0.6,0.1-1.3-0.4-1.3-1.1L688.2,486z"/>
	</g>
</svg>
