<?xml version="1.0" encoding="utf-8"?>
<!-- Generator: Adobe Illustrator 17.1.0, SVG Export Plug-In . SVG Version: 6.00 Build 0)  -->
<!DOCTYPE svg PUBLIC "-//W3C//DTD SVG 1.1//EN" "http://www.w3.org/Graphics/SVG/1.1/DTD/svg11.dtd">
<svg version="1.1" id="Layer_1" xmlns="http://www.w3.org/2000/svg" xmlns:xlink="http://www.w3.org/1999/xlink" x="0px" y="0px" viewBox="0 0 1280 800" enable-background="new 0 0 1280 800" xml:space="preserve">
	<g>
		<ellipse transform="matrix(0.9995 -3.250494e-02 3.250494e-02 0.9995 -13.0534 21.0209)" fill="#CCCCCC" cx="640" cy="412" rx="290.8" ry="127.1"/>
	</g>
	<g>
		<path fill="#FFFFFF" d="M622.2,528.3c-72.9,0-141-12-191.7-33.8c-50.7-21.8-79.2-51.3-80.2-83.2c-1.1-33.5,27.9-66,81.6-91.6
		c54-25.7,126.4-41.3,203.9-43.8c7.3-0.2,14.6-0.4,21.9-0.4c72.9,0,141,12,191.7,33.8c50.7,21.8,79.2,51.3,80.2,83.2
		c1.1,33.5-27.9,66-81.6,91.6c-54,25.7-126.4,41.3-203.9,43.8C636.8,528.2,629.5,528.3,622.2,528.3z"/>
		<path fill="#CCCCCC" d="M657.8,277c72.8,0,140.7,11.8,191.2,33.5c50.3,21.6,78.6,50.7,79.6,82.2c0.5,16.6-6.4,33-20.7,48.7
		c-14,15.4-34.3,29.5-60.4,41.9C793.7,509,721.4,524.5,644.1,527c-7.3,0.2-14.6,0.4-21.8,0.4c-72.8,0-140.7-12-191.3-33.7
		c-50.3-21.6-78.6-50.8-79.6-82.3c-0.5-16.6,6.4-33,20.7-48.8c14-15.4,34.3-29.5,60.4-41.9c53.9-25.7,126.1-41,203.5-43.5
		C643.2,276.9,650.5,277,657.8,277h0.2 M657.8,274.6c-7.2,0-14.5,0.1-21.9,0.4c-160.5,5.2-288.8,66.3-286.5,136.5
		c2.2,66.9,122.4,117.9,272.9,117.9c7.2,0,14.5-0.1,21.9-0.4c160.5-5.2,288.8-66.3,286.5-136.5C928.5,325.6,808.2,274.6,657.8,274.6
		L657.8,274.6z"/>
	</g>
	<g>
		<path fill="#1A1A1A" d="M590,313c-28.7,0-52,11.2-52,25v87c0,13.8,23.3,25,52,25s52-11.2,52-25v-87C642,324.2,618.7,313,590,313z"
		/>
		<ellipse fill="#FFFFFF" cx="590" cy="339" rx="49.9" ry="24"/>
		<ellipse fill="#1A1A1A" cx="590" cy="339" rx="21.8" ry="10.5"/>
	</g>
	<g>
		<path fill="#1A1A1A" d="M692,307c-28.7,0-52,11.2-52,25v87c0,13.8,23.3,25,52,25s52-11.2,52-25v-87C744,318.2,720.7,307,692,307z"
		/>
		<ellipse fill="#FFFFFF" cx="692" cy="333" rx="49.9" ry="24"/>
		<ellipse fill="#1A1A1A" cx="692" cy="333" rx="21.8" ry="10.5"/>
	</g>
</svg>
