<?xml version="1.0" encoding="utf-8"?>
<!-- Generator: Adobe Illustrator 17.1.0, SVG Export Plug-In . SVG Version: 6.00 Build 0)  -->
<!DOCTYPE svg PUBLIC "-//W3C//DTD SVG 1.1//EN" "http://www.w3.org/Graphics/SVG/1.1/DTD/svg11.dtd">
<svg version="1.1" id="Layer_1" xmlns="http://www.w3.org/2000/svg" xmlns:xlink="http://www.w3.org/1999/xlink" x="0px" y="0px" viewBox="0 0 1280 800" enable-background="new 0 0 1280 800" xml:space="preserve">
	<g>
		<rect x="346.5" y="74" transform="matrix(0.9967 -8.112398e-02 8.112398e-02 0.9967 -30.4248 53.1983)" fill="#FFFFFF" stroke="#CCCCCC" stroke-width="2" stroke-linecap="round" stroke-miterlimit="10" width="586" height="654"/>
		<g>
			<defs>
				<rect id="SVGID_1_" x="378.8" y="110.3" transform="matrix(0.9967 -8.112398e-02 8.112398e-02 0.9967 -26.8081 52.6738)" width="512" height="492"/>
			</defs>
			<clipPath id="SVGID_2_">
				<use xlink:href="#SVGID_1_"  overflow="visible"/>
			</clipPath>
			<g transform="matrix(1 0 0 1 0 1.525879e-05)" clip-path="url(#SVGID_2_)">

				<image overflow="visible" width="1022" height="1022" xlink:href="img/jiro-ono.jpg"  transform="matrix(0.4994 -4.064564e-02 4.064564e-02 0.4994 356.6378 130.3687)"></image>
			</g>
		</g>
		<g>
			<path d="M550.1,643.1c0-0.4,0.4-0.5,0.8-0.5l0.3,0c0.9,0.7,2.7,0.9,5,0.7c9.9-0.8,29.9-8.3,35.8-8.8c6.1-0.5,7.7-0.4,11,3.1
			c1.2,1.2,2.7,2.7,2.8,2.9c0.1,0.1-0.5,0.2-1.1,0.2c-1.5,0.1-2.9,0-4.9,0.1c-5.7,0.5-15.3,1.8-20.3,4.1c1,12.1,1,31.5,2.3,47
			c0.9,11.6-8,22.3-18.1,23.1c-10.4,0.8-16.3-7-17-15.5c-0.6-7,2.3-14.5,9.1-18.2l-0.3,1c-3.9,2.8-5.7,9.5-5.2,16
			c0.6,8,4.9,15.6,13.3,14.9c9.1-0.7,10.5-11.4,10.4-13.8c0,0,0.1-14.8-0.2-21.1c-0.4-7.3,2.1-26.6,1.6-32.1c0-0.2,0-0.3-0.2-0.5
			c-0.1-0.1-0.3,0-0.7,0c-4.7,0.4-9.2,1.9-13.9,2.3c-1.9,0.2-3.7,0.1-5.6-0.2C554.1,647.4,550.2,644.1,550.1,643.1z"/>
			<path d="M603,670.8c-1,9.9-3.8,18.8-9.3,19.2c-3.7,0.3-5.3-4.5-5.7-10c-0.5-5.8,0.2-12.4,0.6-15.4c0,0,0.2-0.9,0.7-0.9
			c1.1-0.1,2.3-0.3,4-0.8c0.8-0.1,0.8,0.5,0.8,0.5c-0.9,9.8-1.6,13.7-1.1,20.4c0.2,2.1,1.2,3,2.3,3c3.9-0.3,5.1-9.3,5.6-17.1
			c-1.4-1.5-2.3-3.9-2.5-6.1c-0.2-2.3,0.5-4.3,2.3-4.5c2.1-0.2,2.6,1.1,2.7,2.7c0.1,1.3,0,2.8,0.1,4c0.1,1.1,0.3,1.6,0.7,1.5
			c0.3,0,0.8-0.3,1.4-0.8c2.2-1.7,5.4-5.7,6-5.8c0.9-0.1,2.3,1.6,2.4,2.5c0,0.5-0.1,0.9-0.1,0.9c-1.4,4.6-3.1,9.2-2.7,14.1
			c0.3,3.5,1.6,5.6,3.1,5.5c1.3-0.1,2.8-1.9,3.9-5.9c0.2-0.5,0-0.7,0.8-1.4c0.2-0.1,0.3-0.2,0.4-0.2c0.1,0,0.2,0.1,0.2,0.2
			s0,0.3,0,0.3c-0.1,4-2.1,11.6-7.2,12c-3.7,0.3-5-3.4-5.4-7.7c-0.3-4.3,0.3-9.1,0.8-11.3c-1,0.6-2.5,1-3.9,1.1
			C603.7,670.9,603.3,670.8,603,670.8z M596.4,648.1c0.2,2.5-1.5,5.9-3.8,6.1c-2.1,0.2-3.2-1.3-3.3-3.1c-0.2-2.5,1.3-5.5,4-5.7
			C595.3,645.1,596.2,646.4,596.4,648.1z"/>
			<path d="M638,664.8c0.3,0,0.4,0,0.4,0.3c-0.4,1.4-1.3,2.5-3,3.4c0.1,0.4,0.1,0.9,0.2,1.3c0.6,7.5-2.7,16.3-8.5,16.8
			c-5.9,0.5-8.8-4.7-9.3-10.8c-0.7-8.1,2.9-18,9.2-18.5c3-0.2,5.6,0.8,6,4.9c-1.1-0.4-2.1-0.5-3-0.4c-5.8,0.5-7.9,8.9-7.4,15.4
			c0.4,4.3,1.8,7.8,4.2,7.6c3.1-0.3,4.8-6.9,4.4-12.3c-0.3-3.2-1.2-5.9-3-6.8c0,0,2.1-1.3,3.6-2C634.3,665.1,635.2,665,638,664.8z"
			/>
			<path d="M665.9,629.8c1.9-1.7,4.3-3,7.1-3.2c13.3-1.1,20.6,11.5,21.7,25.3c1.3,15.8-5.4,33.3-20.2,34.5
			c-14.9,1.2-22.1-12.1-23.2-26.2c-1.2-14.5,4.1-29.8,14-30.6C665.6,629.5,665.7,629.7,665.9,629.8z M674.6,682.7
			c9.4-0.8,13.1-15.5,12-29.2c-1-12.6-6.1-24.4-14.5-23.7c-5.7,0.5-7.6,9.7-9,16.5c-0.3,0.1-0.7,0.2-0.9,0.2
			c-1.3,0.1-1.9-0.6-2.3-1.4c-0.5,4-0.7,8.8-0.3,13.6C660.7,671,665.2,683.5,674.6,682.7z"/>
			<path d="M695.8,659.7c-0.3,0-0.7-0.1-0.7-0.6c0-0.1,0-0.1,0-0.3c2-2.9,4.5-5.2,6.7-5.4c3-0.2,3.9,2.9,4.2,6.6
			c0.2,3.1,0.1,6.5,0.2,8.7c1.8-4.8,3.6-12.8,7.1-16.8c0.2-0.1,0.3-0.2,0.5-0.2c0.7-0.1,3.2,1.3,3.2,2.1c0,0.1,0,0.2,0,0.3
			c-1.4,3.9-1.5,9.8-1.2,13.8c0.3,3.9,1.7,6.6,3.7,6.4c0.9-0.1,1.8-0.7,2.9-2c0,0,0.1-0.1,0.3-0.1c0.1,0,0.2,0.1,0.2,0.2
			c0.2,2.7-2.4,5.6-5,5.8c-5.8,0.5-7.2-11.5-7.5-14.8c-2.9,3.7-3.8,13-4.9,17.5c0,0.5-0.4,0.7-0.9,0.7c-0.7,0.1-1.8-0.3-1.9-0.6
			c-0.3-0.6-1.3-0.2-1.3-0.9c0-0.1,0-0.4,0-0.6c0.2-1.4,0.1-5,0-9.3c0-2.9,0-8-0.2-11.2c-0.2-2-0.7-2.7-1.4-2.6
			c-1,0.1-2.3,1.5-3.4,3C696.2,659.6,696,659.7,695.8,659.7z"/>
			<path d="M738.4,658c7.5-1.1,15.8-4.2,21.8-7.2c0.4-0.2,0.7-0.3,0.8-0.3c0.1,0,0.2,0,0.2,0.1c0.1,0.7-1.6,1-1.6,1.9
			c-0.1,5.6-8.9,8.7-16.9,9.3c-1.3,0.1-2.7,0.2-3.9,0.2c0.1,7.2-2.8,15.5-8.5,16c-5.9,0.5-8.8-4.7-9.3-10.8
			c-0.7-8.1,2.9-18,9.2-18.5c5.1-0.4,5.8,3.1,5.9,4.4l0,0.5c-1.1-0.4-2.1-0.5-3-0.4c-5.8,0.5-7.9,8.9-7.4,15.4
			c0.4,4.3,1.8,7.8,4.2,7.6c2.9-0.2,4.8-6.6,4.4-11.6c-0.1-1.1-0.3-2.2-0.7-3.1c-1.5-0.4-3.6-1.2-3.7-3.1c-0.1-1.7,1-3.6,2.6-3.8
			C734.2,654.5,737.2,654.7,738.4,658z"/>
		</g>
	</g>
</svg>
