<?xml version="1.0" encoding="utf-8"?>
<!-- Generator: Adobe Illustrator 17.1.0, SVG Export Plug-In . SVG Version: 6.00 Build 0)  -->
<!DOCTYPE svg PUBLIC "-//W3C//DTD SVG 1.1//EN" "http://www.w3.org/Graphics/SVG/1.1/DTD/svg11.dtd">
<svg version="1.1" id="Layer_1" xmlns="http://www.w3.org/2000/svg" xmlns:xlink="http://www.w3.org/1999/xlink" x="0px" y="0px" viewBox="0 0 1280 800" enable-background="new 0 0 1280 800" xml:space="preserve">
	<g>
		<g>
			<polygon fill="#4D4D4D" points="935.8,417.8 521.1,485.2 324.8,443.6 704.3,379 		"/>
			<polygon fill="#1A1A1A" points="324.8,443.4 324.8,443.6 325.5,443.4 		"/>
			<polygon fill="#1A1A1A" points="933.9,419 520.7,485.7 324,443.6 324,461.3 520.8,503.1 936,435.7 936,419 		"/>
		</g>
		<g>
			<path fill="#FFFFFF" stroke="#1A1A1A" stroke-width="0.2983" stroke-miterlimit="10" d="M532.4,422.1c0,0,25.1,12.9,29.2,18.8
			c9.3,4.5,11.7,1.9,13.9,1.5c2.2-0.4,23.5-0.2,29-0.2c5.6,0,18.7-0.2,27.6-1.3c8.9-1.1,24.7-1.5,34-4.1c9.3-2.6,11.1-3.6,15.3-8.4
			c4.2-4.8,6-11.3,6.6-14.9c0.6-3.6,2-6,0-8.6c-2-2.6-15.9-4.4-29-5c-13.1-0.6-51.3-4.6-65.4-2.2c-14.1,2.4-24.3-1.6-34,2.8
			C549.9,405,532.4,416.9,532.4,422.1z"/>
			<path fill="#BF3413" d="M508.9,437.5l8-41c0,0,34.2-22.3,46.5-24.7c12.3-2.4,46.5-4,56.7-2.8c10.1,1.2,37.4,4,51.9,10.7
			s35.2,22.9,49.9,35c-4.6,4.6-7,5.4-13.9,5.2c-7-0.2-5.8-2.4-11.5-2.6c-5.8-0.2-8.9-0.6-8.9-0.6s1.2-3.4,1.2-6.8s-0.2-7-7.6-5.4
			c-7-2.6-5.4-3.2-8.9-3.2s-9.1,1.2-11.5,1.1c-2.4-0.1-26.8-3.3-31.8-3.3s-20.3,1.4-23.9,2c-3.6,0.6-13.3,0.8-16.7,1.9
			c-3.4,1.1-8.2,6.3-9.7,6.3c-1.6,0-18.1-4.6-24.1-2.6s-27.8,19.3-30.8,23.1S515.1,439.5,508.9,437.5z"/>
		</g>
	</g>
	<g>
		<g>
			<path fill="#1A1A1A" d="M429.2,258.5c0.6-0.1,1.3,0.1,1.4,0.7c0,0.1,0,0.3-0.2,0.8c-4.4,10.2-7.2,20.2-5.1,31.9
			c2.6,14.6,14.7,32.1,31.3,29.4c28.3-4.6,39-53.4,45.1-76.3c6-22.6,9.1-50.3,13.9-69.6c0.5-2.1,4.4-3.7,8-4c4.8-0.4,9.7,1,9.9,4.4
			c1.7,22.5,2.4,45.3,4.2,67.6c0.9,11.2,5.4,43.4,9.6,43.2c6-0.3,14.3-37.5,18.3-52.4c6.2-23.2,11.5-49.1,23-70.1
			c0.2-0.3,0.8-0.6,1.2-0.6c0.5,0,0.9,0.3,1.6,1c1.1,1.1,6.2,5.5,9.2,7.2c1.9,1.1,2.6,2.5,2.6,4c0,0.9-0.3,2-0.6,3.1
			c-5.5,20.3-6.8,42.9-6.2,63.5c0.5,16.2,0.9,40.9,14.7,52.3c0.9,0.7,2,1.8,2.3,2.2c0.1,0.1,0.2,0.3,0.2,0.4c0,0.4-0.4,0.6-1.1,0.6
			c-0.5,0-0.9-0.1-1.2-0.3c0,0-0.5,0.8-1.5,0.8c-12.3-0.7-23.6-14.6-26.6-26.8c-2.8-11.6-5-23.3-5.5-35.4c-0.4-9.5,0-18.4,0.4-27.3
			c0,0-0.2-0.6-0.5-0.6c-0.2,0-0.3,0.2-0.5,0.5c-10.2,24.3-13.2,54.9-24.3,80.8c-2.9,6.8-6.8,10.8-10,10.8
			c-19.5-0.5-22.3-57.4-23.7-72.9c-1.1-11.2-2.5-33.8-2.5-33.8c-0.5,0-9.3,128.3-59.7,136.4c-18.7,3-34.7-12.2-38-29.9
			c-2.7-14.9,1.9-29.6,8.9-40.9C428,258.8,428.7,258.5,429.2,258.5z"/>
			<path fill="#1A1A1A" d="M650.1,238c0.9,1,6.9,2.1,6.8,3.9c-0.6,9.2-2.5,19-2.8,28.4c-0.3,9.1,1.1,12.7,3,12.7
			c3.7,0.1,10.1-12.3,13.5-20c5.3-12,10.3-24.7,12.4-37.7c0.5-3.2,7.8-5.8,10.2-5.6c0.5,0,1.3,0.2,1.3,0.8c0,0.1-3.3,10.1-3.6,21.2
			c-0.3,15.2,7.7,31,7.1,46.4c-0.3,8.9-7.7,13.7-14.1,13.4c-5.5-0.3-10.5-4.2-10.2-12.2c0.2-4.3,2.3-8.1,2.9-8.1
			c0.2,0,0.1,0.2,0.1,0.5c-0.3,6.4,1.1,9.6,4.7,9.8c4.6,0.2,6.6-3.8,6.8-9.2c0.4-11.7-5.7-34.9-5.7-34.9c-0.2,0-4.6,10.5-8,18.2
			c-4.2,9.4-12.7,24.1-22.9,25c-3.8,0.3-8.5-17.3-8.5-17.3c-0.3-0.1-10.1,18-16,18c-11.8-0.1-15.6-13.9-15.6-23.6
			c0-14.7,6.4-41.2,24.8-41.6C644.7,225.8,648.1,235.8,650.1,238z M644.6,242.4c-0.7-2.5-5.5-5-7.6-4.8c-12.2,1-16.2,25.5-16.2,35.8
			c0,6,1.8,10.6,4.7,10.4C639.8,282.9,646.5,249,644.6,242.4z"/>
			<path fill="#1A1A1A" d="M723.4,188.7c0.2,0,0.5,0.1,0.7,0.2c3,2.6,11.4,2.9,11.1,6.1c-0.2,1.9-6.9,19.1-6.3,19.8
			c1.2,1.6,20.4-1.1,23.1-0.9c2,0.2,4.8,0.5,4.6,1.7c-0.1,1-2.1,0.8-2.6,1.5c-1.3,1.5-1.8,2.7-1.8,2.7c-2.9,0.9-22.2,1.9-26.4,5.5
			c-6,5.2-8.9,33.4-10.5,50.3c-0.9,9.5-0.5,19.8,3.6,28.7c0,0-0.9,2.4-2.3,1.9c-10.5-3.7-10.3-29.3-9.5-41.6
			c0.8-12.4,6.2-36.7,5.3-37.7c-0.5-0.5-7.2,0.3-10.4,0.1c-8.6-0.5-12.1-5.9-11.7-13.9c0.1-1.3,0.7-3.5,1.7-3.5c0.3,0,0.7,0.4,1,0.6
			c3.4,2.9,13,3.7,20.5,4.2c0.7,0,1,0.1,1.6,0.1c1.9-8.4,2.8-19.6,6.5-25.1C721.7,189.2,722.6,188.6,723.4,188.7z"/>
			<path fill="#1A1A1A" d="M796.3,260.4c-2.7,0.8-6.2,0.9-9.6,0.5c-0.6-0.1-1.8-0.5-1.9-0.4c-3.9,2-15.4,39.7-35.8,37.4
			c-13-1.4-17.6-24.3-20.4-27c-0.2-0.2-1.3-0.1-1.9-0.3c-0.9-0.3-0.2-1.7-1.7-3.6c-0.1-0.2-0.3-0.3-0.3-0.5c0-0.6,1.2-1.2,2-1.2
			c0.9,0.3,1.4,0.4,2.3,0.6c2-14.4,11.6-35.8,29-34.2c7,0.7,10.5,7.1,9.6,14.6c-1.8,13.5-23.9,23-26.8,26.6
			c-3.5,4.4,4.8,20.2,11.1,20.8c17.4,1.6,30.5-29.7,28.7-35.7c-0.7-2.4-5.2-9.7-4.5-15.2c0.8-6.1,4-11.2,9-10.6
			c4.8,0.6,5.6,3.9,5,7.6c-0.4,3.1-1.7,6.7-2.1,9.5c-0.3,2.5-0.2,3.6,0.9,3.7c0.8,0.1,2-0.3,3.7-1c6-2.4,15.8-9.6,17-9.4
			c2.1,0.3,4.7,4.7,4.4,6.7c-0.6,3.8-6.3,7.6-8,9.8c-1.6,2-1.9,7.9-2.6,11.5c-1.6,9-1.2,23.2,10.4,25.2c7.7,1.3,16-2.2,21.7-4.8
			c2.1-0.9,6.1-2.7,7.5-2.4c0.3,0.1,0.6,0.3,0.5,0.6c-0.1,0.7-1.4,2.3-4.5,5.1c0,1.2,0,1.8,0.1,3c-6.5,8.1-16.8,15.3-27.5,13.8
			c-17.3-2.6-19.7-24.8-17.6-38.8c0.6-3.8,1.4-7.8,2.5-12C796.6,260.4,796.5,260.4,796.3,260.4z M741.3,266.8
			c1.3,1.2,17.1-10.3,18.4-19.8c0.5-3.5-0.9-6.7-3-6.6C747,240.5,740.8,266.4,741.3,266.8z"/>
		</g>
	</g>
	<g>
		<g>
			<path fill="#1A1A1A" d="M341.4,552.9c-3.5-1.3-5.3-2-8.8-3.4c-0.7-0.3-1-1-0.7-1.6c1-2.6,1.5-3.8,2.5-6.4c0.2-0.6,0.9-0.9,1.6-0.7
			c9,3.6,18.1,6.9,27.2,10.2c0.7,0.2,1,0.9,0.8,1.5c-0.9,2.6-1.4,3.9-2.3,6.5c-0.2,0.6-0.9,1-1.6,0.7c-3.6-1.3-5.3-1.9-8.9-3.2
			c-3.9,10.6-7.7,21.2-11.6,31.7c-0.2,0.6-1,0.9-1.6,0.7c-3.1-1.1-4.7-1.7-7.8-2.9c-0.6-0.2-1-1-0.8-1.6
			C333.4,573.9,337.4,563.4,341.4,552.9z"/>
			<path fill="#1A1A1A" d="M370.2,554.7c0.2-0.6,0.9-0.9,1.6-0.7c2.9,1,4.4,1.5,7.4,2.5c0.7,0.2,1,0.9,0.8,1.5c-2,6.1-3,9.1-5,15.2
			c7.2,2.4,10.9,3.5,18.2,5.7c1.8-6.1,2.8-9.2,4.6-15.3c0.2-0.6,0.8-1,1.5-0.8c3,0.9,4.5,1.3,7.4,2.2c0.6,0.2,1,0.9,0.9,1.5
			c-3.9,13.4-7.7,26.8-11.6,40.2c-0.2,0.6-0.9,1-1.6,0.8c-3.1-0.9-4.7-1.4-7.8-2.3c-0.7-0.2-1.1-0.9-0.9-1.5
			c1.9-6.4,2.9-9.6,4.8-15.9c-7.4-2.2-11-3.4-18.4-5.8c-2.1,6.3-3.1,9.5-5.2,15.8c-0.2,0.6-0.9,1-1.6,0.7c-3.1-1-4.7-1.5-7.8-2.6
			c-0.7-0.2-1.1-1-0.9-1.6C361.1,581.1,365.6,567.9,370.2,554.7z"/>
			<path fill="#1A1A1A" d="M418.3,569.5c0.2-0.6,0.8-1,1.5-0.8c10.4,2.8,15.6,4.1,26.1,6.6c0.7,0.2,1.1,0.8,0.9,1.5
			c-0.6,2.7-0.9,4-1.6,6.7c-0.1,0.6-0.8,1.1-1.5,0.9c-7.1-1.7-10.6-2.5-17.7-4.4c-0.8,3-1.2,4.6-2,7.6c5.9,1.5,8.8,2.3,14.7,3.7
			c0.6,0.2,1.1,0.8,0.9,1.5c-0.6,2.7-1,4-1.6,6.7c-0.2,0.7-0.9,1-1.5,0.9c-5.9-1.4-8.9-2.2-14.8-3.7c-0.9,3.3-1.3,5-2.1,8.3
			c7.3,1.9,10.9,2.8,18.2,4.5c0.7,0.2,1.1,0.8,1,1.5c-0.6,2.7-0.9,4-1.6,6.7c-0.1,0.6-0.8,1-1.5,0.9c-9.2-2.2-18.4-4.5-27.5-7
			c-0.7-0.2-1.1-0.9-0.9-1.5C411,596.4,414.6,583,418.3,569.5z"/>
			<path fill="#1A1A1A" d="M459.3,617.4c1.7-1.8,2.5-2.7,4.2-4.5c0.7-0.7,1.9-0.3,2.3,0.1c0.2,0.2,4.4,4.4,8.7,5.3
			c2.7,0.5,4.9-0.7,5.3-2.9c0.5-2.6-1.5-5-5.6-7.6c-5.2-3.2-11.4-8.8-9.9-16.2c1.3-6.1,7.4-11.3,17.2-9.4c6.6,1.2,11.1,5.6,12.8,7.1
			c0.6,0.6,0.4,1.7,0,2.1c-1.6,1.7-2.5,2.5-4.1,4.2c-0.6,0.6-1.8,0.9-2.3,0.4c-0.5-0.4-4.6-4.7-8.5-5.4c-2.3-0.4-4.3,0.7-4.7,2.4
			c-0.4,2.3,1.1,4.5,5.9,7.4c4.7,2.9,12.2,8.1,10.7,16.6c-1.1,6.4-8.2,11.9-18.1,10.1c-8.7-1.6-12.9-6-14.1-7.8
			C458.7,618.5,458.5,618.2,459.3,617.4z"/>
			<path fill="#1A1A1A" d="M504.3,588c0.1-0.6,0.8-1.1,1.4-1c3.1,0.5,4.6,0.7,7.7,1.2c0.6,0.1,1.1,0.7,1,1.4c-2,13.8-4,27.6-6,41.4
			c-0.1,0.6-0.8,1.1-1.5,1c-3.2-0.5-4.9-0.7-8.1-1.2c-0.7-0.1-1.2-0.8-1.1-1.4C499.9,615.6,502.1,601.8,504.3,588z"/>
			<path fill="#1A1A1A" d="M529.9,590.8c0.1-0.6,0.8-0.9,1.3-0.9c0.4,0.1,0.6,0.1,1,0.1c0.3,0,0.9,0.4,1,0.8
			c3.9,9.7,7.9,19.3,12.1,28.9c0.1,0,0.1,0,0.1,0c6-8.5,11.9-17.1,17.7-25.8c0.2-0.4,0.8-0.6,1.1-0.5c0.4,0,0.6,0.1,1,0.1
			c0.5,0,1.1,0.5,1.1,1.1c1.3,14.3,2.8,28.6,4.3,43c0.1,0.8-0.6,1.4-1.4,1.3c-3.2-0.2-4.8-0.4-8-0.6c-0.6,0-1.2-0.6-1.2-1.1
			c-0.6-7.9-0.8-11.8-1.4-19.7c-0.1,0-0.1,0-0.1,0c-5.2,7.8-7.8,11.7-13.2,19.4c-0.2,0.4-0.9,0.6-1.2,0.6c-0.5,0-0.7-0.1-1.2-0.1
			c-0.4,0-0.9-0.4-1.1-0.8c-3.7-8.6-5.5-13-9-21.6c-0.1,0-0.1,0-0.1,0c-2.1,7.6-3.1,11.4-5.3,19.1c-0.1,0.5-0.7,0.9-1.4,0.8
			c-3.2-0.4-4.8-0.6-8-1c-0.8-0.1-1.3-0.8-1.1-1.6C521.4,618.3,525.7,604.6,529.9,590.8z"/>
			<path fill="#1A1A1A" d="M581.9,596.5c0-0.6,0.6-1.2,1.3-1.1c6.2,0.4,9.3,0.5,15.5,0.8c7.9,0.3,14.3,6.8,14.1,14.4
			c-0.2,7.8-7,14.1-15.2,13.8c-2.8-0.1-4.2-0.2-7-0.3c-0.3,5.9-0.4,8.9-0.7,14.9c0,0.6-0.7,1.2-1.3,1.1c-3.2-0.2-4.8-0.2-8-0.4
			c-0.7,0-1.3-0.6-1.2-1.3C580.2,624.3,581.1,610.4,581.9,596.5z M597.4,615.1c2.8,0.1,5.3-2,5.4-4.8c0.1-2.7-2.2-4.8-5-4.9
			c-2.5-0.1-3.7-0.2-6.2-0.3c-0.2,3.9-0.3,5.8-0.5,9.7C593.6,614.9,594.9,615,597.4,615.1z"/>
			<path fill="#1A1A1A" d="M619.7,597.9c0-0.6,0.5-1.2,1.2-1.2c3.1,0,4.6,0,7.7,0.1c0.6,0,1.2,0.6,1.2,1.2c0,11.3,0,22.5,0,33.8
			c6.4,0,9.6,0,16-0.1c0.7,0,1.3,0.5,1.3,1.2c0.1,2.8,0.1,4.1,0.1,6.9c0,0.6-0.5,1.2-1.3,1.2c-10.2,0.2-15.3,0.2-25.6,0.1
			c-0.7,0-1.3-0.6-1.3-1.2C619.3,625.8,619.5,611.8,619.7,597.9z"/>
			<path fill="#1A1A1A" d="M652.7,597.6c0-0.6,0.5-1.2,1.2-1.2c10.7-0.3,16-0.6,26.7-1.2c0.7,0,1.3,0.5,1.3,1.1
			c0.2,2.8,0.3,4.1,0.4,6.9c0,0.6-0.4,1.2-1.2,1.3c-7.2,0.5-10.8,0.6-18,0.9c0.1,3.1,0.2,4.7,0.3,7.8c6-0.2,9-0.4,15-0.7
			c0.7,0,1.3,0.5,1.3,1.1c0.2,2.8,0.2,4.1,0.4,6.9c0,0.7-0.5,1.2-1.2,1.3c-6.1,0.4-9.1,0.5-15.2,0.8c0.1,3.4,0.2,5.1,0.3,8.5
			c7.4-0.3,11.2-0.5,18.6-1c0.7,0,1.3,0.5,1.4,1.1c0.2,2.8,0.3,4.1,0.4,6.9c0,0.6-0.5,1.2-1.2,1.3c-9.4,0.6-18.8,1-28.1,1.3
			c-0.7,0-1.3-0.5-1.3-1.2C653.5,625.5,653.1,611.6,652.7,597.6z"/>
			<path fill="#1A1A1A" d="M711.3,602c-3.7,0.4-5.6,0.5-9.3,0.9c-0.7,0.1-1.3-0.5-1.3-1.1c-0.2-2.7-0.4-4.1-0.6-6.9
			c-0.1-0.6,0.4-1.2,1.1-1.3c9.5-0.8,19-1.9,28.5-3c0.7-0.1,1.3,0.4,1.4,1c0.3,2.7,0.5,4.1,0.9,6.8c0.1,0.6-0.4,1.3-1.1,1.3
			c-3.7,0.5-5.6,0.7-9.3,1.1c1.3,11.2,2.5,22.4,3.8,33.6c0.1,0.6-0.5,1.3-1.2,1.3c-3.2,0.4-4.9,0.5-8.1,0.9
			c-0.7,0.1-1.3-0.4-1.4-1.1C713.6,624.4,712.5,613.2,711.3,602z"/>
			<path fill="#1A1A1A" d="M737.5,590.8c-0.1-0.6,0.4-1.3,1.1-1.4c3-0.4,4.6-0.6,7.6-1.1c0.7-0.1,1.3,0.4,1.4,1
			c0.9,6.3,1.4,9.5,2.3,15.8c7.5-1.1,11.2-1.7,18.7-3c-1.1-6.3-1.6-9.4-2.7-15.7c-0.1-0.6,0.3-1.3,1-1.4c3-0.5,4.6-0.8,7.6-1.3
			c0.6-0.1,1.3,0.3,1.4,1c2.5,13.7,5.1,27.5,7.6,41.2c0.1,0.6-0.4,1.3-1.1,1.4c-3.2,0.6-4.8,0.9-8,1.4c-0.7,0.1-1.4-0.3-1.5-1
			c-1.1-6.6-1.7-9.8-2.8-16.4c-7.5,1.3-11.3,1.9-18.9,3c1,6.6,1.5,9.9,2.4,16.5c0.1,0.6-0.4,1.3-1.1,1.4c-3.2,0.5-4.8,0.7-8,1.1
			c-0.7,0.1-1.4-0.4-1.4-1C741.2,618.4,739.4,604.6,737.5,590.8z"/>
			<path fill="#1A1A1A" d="M786.8,582.6c-0.1-0.6,0.3-1.3,1-1.4c3-0.6,4.6-0.9,7.6-1.6c0.6-0.1,1.3,0.3,1.5,0.9
			c2.9,13.7,5.8,27.3,8.7,41c0.1,0.6-0.4,1.3-1,1.4c-3.2,0.7-4.8,1-8,1.6c-0.7,0.1-1.4-0.3-1.5-0.9
			C792.3,609.9,789.5,596.2,786.8,582.6z"/>
			<path fill="#1A1A1A" d="M807.6,577.4c-0.1-0.6,0.3-1.2,0.9-1.4c0.6-0.1,0.9-0.2,1.6-0.4c10.3,6,20.8,11.8,31.3,17.3c0,0,0,0,0.1,0
			c-2.3-8.7-3.4-13-5.7-21.7c-0.2-0.6,0.2-1.3,0.9-1.5c3-0.8,4.5-1.2,7.5-2c0.6-0.2,1.3,0.2,1.5,0.8c3.8,13.7,7.6,27.3,11.4,41
			c0.2,0.6-0.3,1.3-1,1.4c-0.4,0.1-0.6,0.2-1.1,0.3c-0.2,0.1-0.8,0-0.9-0.1c-10.8-5.6-21.5-11.5-32.1-17.7c0,0,0,0-0.1,0
			c2.2,9.2,3.3,13.8,5.5,22.9c0.1,0.6-0.3,1.3-1,1.5c-3.2,0.8-4.8,1.1-7.9,1.8c-0.7,0.2-1.4-0.3-1.5-0.9
			C813.9,605.1,810.7,591.3,807.6,577.4z"/>
			<path fill="#1A1A1A" d="M875.2,557.9c5.2-1.7,11.7-1.3,17,0.6c0.7,0.2,1,0.9,0.7,1.6c-1.3,2.7-1.9,4-3.2,6.7
			c-0.4,0.6-1.1,0.8-1.7,0.6c-3-1.1-6.1-1.2-9.2-0.2c-6.8,2.2-10.7,9.4-8.7,16.1c2,6.6,9.5,10.3,16.5,8c1.9-0.6,3.7-1.5,5.4-2.8
			c-0.5-1.4-0.7-2.1-1.1-3.5c-1.6,0.5-2.4,0.8-4.1,1.3c-0.7,0.2-1.4-0.1-1.6-0.7c-0.8-2.4-1.2-3.6-1.9-6c-0.2-0.7,0.1-1.3,0.8-1.5
			c5.1-1.7,7.7-2.5,12.8-4.3c0.6-0.2,1.3,0.1,1.5,0.7c2.2,6.4,3.4,9.6,5.6,16.1c0.1,0.3,0,0.9-0.2,1.1c0,0-5.4,6.2-14.9,9.3
			c-12.3,3.9-26.3-2-29.9-14.6C855.7,574.4,863.2,561.8,875.2,557.9z"/>
			<path fill="#1A1A1A" d="M909.9,587.2c0.5-2.4,0.8-3.6,1.3-6c0.2-1,1.5-1.2,2.1-1.1c0.3,0,6.1,1.5,10.3-0.1c2.6-1,3.9-3.1,3.1-5.2
			c-0.9-2.5-3.9-3.5-8.8-3.5c-6.2,0-14.4-1.6-17-8.7c-2.1-5.9,0.6-13.5,10-17c6.4-2.4,12.6-1,14.8-0.6c0.8,0.2,1.2,1.2,1.1,1.7
			c-0.5,2.3-0.8,3.5-1.4,5.8c-0.2,0.8-1.1,1.7-1.8,1.6c-0.6-0.1-6.4-1.6-10.2-0.2c-2.2,0.8-3.4,2.9-2.8,4.5c0.8,2.2,3.3,3.2,8.9,3.2
			c5.6,0,14.8,0.5,17.9,8.5c2.4,6.1-0.9,14.5-10.4,18c-8.4,3.1-14.3,1.6-16.2,0.7C910,588.3,909.7,588.2,909.9,587.2z"/>
		</g>
	</g>
	<g>
		<g>
			<g>
				<path fill="#999999" d="M190.2,172.5c14.9,6.8,32.2,16.6,47.1,23.5c18,8.2,37.1,17.9,54.7,26.9c-0.2,0.4-2,0.2-0.6,1.2
				c5.6,3.6,5.2,4.3,4.8,5.1c-0.2,0.4-4.4-2.2-3.1-1.1c-4.4-2.2-11.8-5.8-7.6-3.2c1.3,1.1,7.3,3.7,8.5,5.1c1.2,1.3-2.1,0.4-0.9,1.7
				c1.5,0.7,4.4,2.2,5.9,3c1.3,1.1-2.1,0.4-0.6,1.2c4.2,2.6,10.2,5.4,16,8.4c-0.2,0.4,1.1,1.5-2,0.2
				c-51.5-25.7-104.7-51.8-155.8-78.6c-5.8-3.2-1-1.7,3.7,0c-1.6-0.6-1.3-1.1-2.8-1.7c0.3-0.6,3.7,0,9.7,2.7
				c-1.5-0.7-2.9-1.5-4.4-2.2c-1.4-0.9,0.3-0.6,0.5-1c1.5,0.7,2.9,1.5,3,1.3c0.1-0.2,0.3-0.6,0.4-0.8c-1.5-0.7-4.4-2.2-5.9-3
				c1.5,0.7,2.9,1.5,3,1.3c0.1-0.2,0.3-0.6,0.4-0.8c3,1.3,7.2,3.9,10.3,5.2l0.3-0.6c-2.8-1.7-7.3-3.7-10.3-5.2
				c1.6,0.6,1.7,0.4,1.9,0c4.5,2,8.6,4.9,13.3,6.5c-1.5-0.7-2.9-1.5-4.4-2.2C178.8,166,185.7,170.5,190.2,172.5z"/>
			</g>
		</g>
	</g>
	<g>
		<g>
			<g>
				<path fill="#999999" d="M131.5,356.5c16.2,1.8,35.8,5.7,52.1,7.5c19.7,2.1,40.8,5.4,60.3,8.4c-0.1,0.4-1.8,0.8-0.2,1.3
				c6.4,1.6,6.3,2.5,6.1,3.3c-0.1,0.4-4.9-0.7-3.3-0.1c-4.9-0.7-13.1-1.8-8.2-0.6c1.6,0.7,8.1,1.2,9.7,2.1c1.5,0.9-1.8,1-0.3,1.9
				c1.6,0.2,4.9,0.7,6.5,1c1.6,0.7-1.8,1-0.2,1.3c4.8,1.2,11.4,2,17.9,3c-0.1,0.4,1.5,1.1-1.8,0.8c-57-8.3-115.7-16.4-172.5-25.7
				c-6.5-1.2-1.5-1.3,3.5-1.2c-1.7,0-1.6-0.7-3.2-0.7c0.1-0.6,3.5-1.2,10.1-0.4c-1.6-0.2-3.3-0.5-4.9-0.7c-1.6-0.5,0.1-0.6,0.2-1.1
				c1.6,0.2,3.3,0.5,3.3,0.3c0-0.2,0.1-0.6,0.1-0.9c-1.6-0.2-4.9-0.7-6.5-1c1.6,0.2,3.3,0.5,3.3,0.3c0-0.2,0.1-0.6,0.1-0.9
				c3.3,0.3,8.1,1.5,11.4,1.7l0.1-0.6c-3.2-0.7-8.1-1.2-11.4-1.7c1.7,0,1.7-0.2,1.8-0.6c4.9,0.5,9.7,1.9,14.7,2
				c-1.6-0.2-3.3-0.5-4.9-0.7C118.6,353.9,126.6,356,131.5,356.5z"/>
			</g>
		</g>
	</g>
	<g>
		<g>
			<g>
				<path fill="#999999" d="M168.1,566.3c11.4-6.5,26.1-12.8,37.6-19.3c13.8-7.9,29.1-15.5,43.3-22.6c0.2,0.4-0.7,1.6,0.6,1.2
				c5-1.8,5.4-1,5.8-0.2c0.2,0.4-3.5,1.8-2.2,1.6c-3.5,1.8-9.4,4.9-5.6,3.5c1.4-0.2,5.9-2.9,7.4-3c1.5,0-0.6,1.7,0.9,1.7
				c1.2-0.6,3.5-1.8,4.7-2.4c1.4-0.2-0.6,1.7,0.6,1.2c3.7-1.4,8.4-3.9,13.1-6.3c0.2,0.4,1.6,0.2-0.7,1.6
				c-41.1,21-83.2,43-124.8,63.1c-4.8,2.2-1.7-0.4,1.6-2.7c-1.1,0.8-1.4,0.2-2.5,1c-0.3-0.6,1.6-2.7,6.2-5.3
				c-1.2,0.6-2.4,1.2-3.5,1.8c-1.3,0.4-0.3-0.6-0.5-1c1.2-0.6,2.4-1.2,2.3-1.4c-0.1-0.2-0.3-0.6-0.4-0.8c-1.2,0.6-3.5,1.8-4.7,2.4
				c1.2-0.6,2.4-1.2,2.3-1.4c-0.1-0.2-0.3-0.6-0.4-0.8c2.3-1.4,6-2.8,8.3-4.1l-0.3-0.6c-2.5,1-5.9,3-8.3,4.1c1.1-0.8,1-1,0.8-1.4
				c3.4-2,7.3-3.2,10.5-5.5c-1.2,0.6-2.4,1.2-3.5,1.8C158.3,570.4,164.6,568.3,168.1,566.3z"/>
			</g>
		</g>
	</g>
	<g>
		<g>
			<g>
				<path fill="#999999" d="M1085.5,179.7c-14.2,8-32.4,16.2-46.7,24.3c-17.2,9.7-36.3,19.4-53.9,28.4c-0.2-0.4,1-1.7-0.6-1.2
				c-6.2,2.4-6.6,1.6-6.9,0.9c-0.2-0.4,4.4-2.2,2.7-1.9c4.4-2.2,11.6-6.2,7-4.3c-1.7,0.4-7.3,3.7-9.1,3.9c-1.8,0.2,0.9-1.9-0.9-1.7
				c-1.5,0.7-4.4,2.2-5.9,3c-1.7,0.4,0.9-1.9-0.6-1.2c-4.6,1.9-10.4,5-16.2,8c-0.2-0.4-1.9,0,1-1.7c51.1-26.5,103.6-54.2,155.2-79.7
				c6-2.8,2,0.2-2.2,3c1.4-0.9,1.7-0.4,3-1.3c0.3,0.6-2.2,3-7.9,6.2c1.5-0.7,2.9-1.5,4.4-2.2c1.6-0.6,0.3,0.6,0.5,1
				c-1.5,0.7-2.9,1.5-2.8,1.7c0.1,0.2,0.3,0.6,0.4,0.8c1.5-0.7,4.4-2.2,5.9-3c-1.5,0.7-2.9,1.5-2.8,1.7c0.1,0.2,0.3,0.6,0.4,0.8
				c-2.8,1.7-7.4,3.5-10.3,5.2l0.3,0.6c3-1.3,7.3-3.7,10.3-5.2c-1.4,0.9-1.3,1.1-1.1,1.5c-4.3,2.4-9,4.1-13.1,6.9
				c1.5-0.7,2.9-1.5,4.4-2.2C1097.5,174.3,1089.8,177.3,1085.5,179.7z"/>
			</g>
		</g>
	</g>
	<g>
		<g>
			<g>
				<path fill="#999999" d="M1141.8,364.5c-16,3.2-35.8,5.3-52,8.4c-19.4,3.8-40.5,7.1-60.1,10.1c-0.1-0.4,1.5-1.3-0.2-1.3
				c-6.6,0.4-6.7-0.5-6.9-1.3c-0.1-0.4,4.9-0.7,3.2-0.9c4.9-0.7,13-2.2,8-1.9c-1.7-0.2-8.1,1.2-9.9,0.9c-1.7-0.4,1.4-1.5-0.3-1.9
				c-1.6,0.2-4.9,0.7-6.5,1c-1.7-0.2,1.4-1.5-0.2-1.3c-4.9,0.3-11.4,1.5-17.9,2.5c-0.1-0.4-1.8-0.6,1.5-1.3
				c56.9-9.1,115.3-18.9,172.4-27c6.5-0.8,1.8,0.8-3,2.2c1.6-0.5,1.7,0.2,3.3-0.3c0.1,0.6-3,2.2-9.5,3.4c1.6-0.2,3.3-0.5,4.9-0.7
				c1.7,0,0.1,0.6,0.2,1.1c-1.6,0.2-3.3,0.5-3.2,0.7c0,0.2,0.1,0.6,0.1,0.9c1.6-0.2,4.9-0.7,6.5-1c-1.6,0.2-3.3,0.5-3.2,0.7
				c0,0.2,0.1,0.6,0.1,0.9c-3.2,0.7-8.2,1-11.4,1.7l0.1,0.6c3.3-0.3,8.1-1.2,11.4-1.7c-1.6,0.5-1.6,0.7-1.5,1.1
				c-4.8,1-9.8,1.1-14.6,2.5c1.6-0.2,3.3-0.5,4.9-0.7C1154.9,363.1,1146.6,363.5,1141.8,364.5z"/>
			</g>
		</g>
	</g>
	<g>
		<g>
			<g>
				<path fill="#999999" d="M1100.4,573.5c-12-5.2-25.9-13.2-38-18.5c-14.5-6.3-29.9-14-44.1-21.1c0.2-0.4,1.7-0.4,0.6-1.2
				c-4.4-2.9-4-3.7-3.7-4.5c0.2-0.4,3.5,1.8,2.6,0.8c3.5,1.8,9.5,4.5,6.2,2.4c-1-1-5.9-2.9-6.8-4.1c-0.9-1.2,1.8-0.6,0.9-1.7
				c-1.2-0.6-3.5-1.8-4.7-2.4c-1-1,1.8-0.6,0.6-1.2c-3.3-2.2-8.2-4.3-12.9-6.7c0.2-0.4-0.8-1.4,1.7-0.4
				c41.5,20.3,84.4,40.7,125.4,62c4.6,2.6,0.7,1.6-3.1,0.4c1.3,0.4,1,1,2.3,1.4c-0.3,0.6-3.1,0.4-8-1.8c1.2,0.6,2.4,1.2,3.5,1.8
				c1.1,0.8-0.3,0.6-0.5,1c-1.2-0.6-2.4-1.2-2.5-1c-0.1,0.2-0.3,0.6-0.4,0.8c1.2,0.6,3.5,1.8,4.7,2.4c-1.2-0.6-2.4-1.2-2.5-1
				c-0.1,0.2-0.3,0.6-0.4,0.8c-2.5-1-5.8-3.1-8.3-4.1l-0.3,0.6c2.3,1.4,5.9,3,8.3,4.1c-1.3-0.4-1.4-0.2-1.6,0.2
				c-3.6-1.6-6.9-3.9-10.7-5.1c1.2,0.6,2.4,1.2,3.5,1.8C1109.5,578.8,1104,575.1,1100.4,573.5z"/>
			</g>
		</g>
	</g>
</svg>
