<?xml version="1.0" encoding="utf-8"?>
<!-- Generator: Adobe Illustrator 17.1.0, SVG Export Plug-In . SVG Version: 6.00 Build 0)  -->
<!DOCTYPE svg PUBLIC "-//W3C//DTD SVG 1.1//EN" "http://www.w3.org/Graphics/SVG/1.1/DTD/svg11.dtd">
<svg version="1.1" id="Layer_1" xmlns="http://www.w3.org/2000/svg" xmlns:xlink="http://www.w3.org/1999/xlink" x="0px" y="0px" viewBox="0 0 1280 800" enable-background="new 0 0 1280 800" xml:space="preserve">
	<rect x="419.9" y="99.8" transform="matrix(0.9977 6.709237e-02 -6.709237e-02 0.9977 27.917 -43.259)" fill="#FFFFFF" stroke="#CCCCCC" stroke-width="2.1165" stroke-miterlimit="10" width="476.2" height="588.4"/>
	<g>
		<path d="M543,159.7c0.9,0.1,0.5,2.2,4.9,2.5c14.8,1,28.9-2.1,43.1-1.2c6.2,0.4,10.3,1.2,13.7,5.3c0,0,0.2,0.3,0.2,0.7
		c-0.1,1.5-2.4,1.5-3.3,1.8c-0.6,0.2-2.9,0.7-2.9,0.7s-0.9-0.1-0.8-0.5c0-0.5,0.6-0.6,1.3-1.2c0,0-0.6-0.5-3-0.6
		c-7.5-0.5-17.2,0.3-25.7,1.1c-1.3,10.1-4,24.7-4.6,34.5c0,0.7-0.5,1.2-1.1,1.2c-0.3,0-0.5-0.1-0.6-0.5c-0.5-1-2-1.3-1.9-3.3
		c0.3-4.3,3.3-21.3,5.2-31.6c-6.4,0.6-11.8,1.1-14.8,0.9c-5-0.3-10.8-3-10.5-8.5C542,159.9,542.5,159.7,543,159.7z"/>
		<path d="M576.4,197.4c-0.1,2,0.2,2.9,0.8,2.9c1.5,0.1,4.8-5.1,6.4-9c0.3-2.3,0.7-5,1.6-8c0.4,0.3,3.1,0.9,3.1,1.8
		c-0.1,1.5-1.4,6.9-1.7,11c-0.2,3.1,0.2,4.5,0.9,4.6c0.8,0.1,1.8-1.3,3.1-3.6c1.7-3.2,3.1-7.8,4.2-10.4c1-2.4,1.8-4.2,2.5-4.2
		c0.9,0.1,1.6-0.5,2-0.4s0.3,2.4,0.2,4.5c-0.3,4.5-0.5,6.8-0.6,8.1c1.9-3.5,4.2-9.4,7.4-12c0.2-0.1,0.3-0.1,0.4-0.1
		c0.6,0,2.3,1.3,2.2,2c0,0.1,0,0.2-0.1,0.3c-1.5,2.8-2.3,7.4-2.5,10.4c-0.2,2.7,0.3,5.5,1.4,5.5c0.6,0,1.5-0.8,2.4-3
		c0,0,0.1,0,0.2,0s0.2,0.1,0.1,0.2c-0.1,2.1-1.7,5.2-3.8,5c-4.5-0.3-4.2-9.1-4-11.7c-2.7,2.5-4.4,9.5-5.7,12.8
		c-0.1,0.4-0.4,0.5-0.8,0.5c-1.1-0.1-2.3-1.4-2.3-1.6c0-0.1,0.6-3.4,1.2-7.6c0.3-2.2,0.9-6.1,1.1-8.6c0-0.5,0-0.7-0.1-0.7
		c-0.6,0-2,7-4.5,12c-1.8,3.7-3.6,5.3-5.1,5.2c-2-0.1-3.3-3.4-3-9.4c-1.8,4-4.4,9.6-7.4,9.4c-2.8-0.2-3.4-4.3-3.1-8.9
		c0.3-4.8,1.7-10.2,2.5-12.4c0,0,0.2-0.7,0.7-0.6c0.9,0.1,1.8,0.1,3.2-0.1c0.6,0,0.6,0.5,0.6,0.5C579.8,182.3,577.1,188,576.4,197.4
		z"/>
		<path d="M623.9,187.4c0.9,0.3,2.2,0.8,2.1,1.4c-0.1,1.5-1.1,6.1-1.4,9.8c-0.2,2.6,0,4.7,1.3,4.8c1.1,0.1,2.6-0.9,3.2-2.1
		c0.6-0.1,0.7-0.8,0.9-0.8c0.2,0,0.2,0.3,0.2,0.5c-0.2,2.7-2.8,5-5.1,4.9c-2-0.1-3.9-2-4.1-6.7c-1.6,3.5-3.8,6.2-5.8,6
		c-3.6-0.2-4.8-4.1-4.6-8.5c0.4-6.4,4.2-14.1,9.1-13.8C622.4,183.1,623.7,185,623.9,187.4z M622,188.8c-0.8-1.2-1.6-1.8-2.4-1.8
		c-3.2-0.2-5.9,7.9-6.1,12c-0.1,2.1,0.3,3.6,1.3,3.7C619,203,621.3,192.8,622,188.8z"/>
		<path d="M651.9,189.2c0.9,0.3,2.2,0.8,2.1,1.4c-0.1,1.5-1.1,6.1-1.4,9.8c-0.2,2.6,0,4.7,1.3,4.8c1.1,0.1,2.6-0.9,3.2-2.1
		c0.6-0.1,0.7-0.8,0.9-0.8c0.2,0,0.2,0.3,0.2,0.5c-0.2,2.7-2.8,5-5.1,4.9c-2-0.1-3.8-2-4.1-6.7c-1.6,3.5-3.8,6.2-5.8,6
		c-3.6-0.2-4.8-4.1-4.6-8.5c0.4-6.4,4.2-14.1,9.1-13.8C650.5,185,651.7,186.8,651.9,189.2z M650,190.7c-0.8-1.2-1.6-1.8-2.4-1.8
		c-3.2-0.2-5.9,7.9-6.1,12c-0.1,2.1,0.3,3.6,1.3,3.7C647.1,204.9,649.3,194.7,650,190.7z"/>
		<path d="M657,199.8c0.7-10.2,6.1-14.1,10-13.9c2.4,0.2,4.2,1.9,4,4.7l0,0.1c-0.7-0.4-1.4-0.6-2.1-0.7c-4.8-0.3-8.7,7.1-9,11.6
		c-0.1,2.1,0.2,4.1,1.3,4.1c4.2,0.3,7.2-10.1,7.9-14.2c1.9,0.3,4.8,0.8,4.7,2.4c0,0.1,0,0.3-0.1,0.4c-5.1,14.3-2.7,37.7-17.4,36.7
		c-3.9-0.3-7-4.5-6.8-8.1c0-0.6,0.3-0.8,0.6-0.8c0.2,0,0.5,0.2,0.6,0.6c-0.1,1.9,1.3,5.4,4,5.5c11.1,0.7,12.1-20.9,12.8-26
		c0-0.1,0-0.2,0-0.2c-1.6,3.6-3.9,6.4-6,6.2C658,208.1,656.7,204.3,657,199.8z"/>
		<path d="M686.4,202c0.1-0.9,0-1.8-0.3-2.8c0-0.1,0-0.3,0.6-0.3c1.9,0.1,2.2,2.3,2.1,4.1c-0.2,3.7-3.3,7.1-7.1,6.8
		c-5.3-0.4-7.2-5.2-6.9-10.3c0.4-6.2,4.1-12.9,9.1-12.5c2.3,0.2,3.5,1.9,3.3,4.3c-0.2,3.2-2.9,7.4-8.5,10.1c0,4.3,1.5,6.1,3.2,6.2
		C683.9,207.6,686.2,205.3,686.4,202z M683.6,189.9c-2.3-0.2-4.3,4.7-4.7,9.3c2.2-1.3,5.2-5.7,5.4-8.2
		C684.3,190.4,684.2,189.9,683.6,189.9z"/>
		<path d="M706.2,170c0.1,0,0.2,0,0.2,0.1c1.1,0.8,3.5,0.9,3.4,2c-0.1,1.6-4.5,15.1-5.2,25.8c-0.4,5.6,0.2,10.4,3,12.4
		c0.1,0.1,0.2,0.2,0.2,0.4c0,0.3-0.2,0.5-0.4,0.5l-0.1,0c-3.6-1-5.2-4.4-5.7-9.1c-1.7,4.7-4.4,8.7-7,8.5c-3.9-0.3-5.2-3.9-4.9-8
		c0.4-6.2,4.4-13.6,9.4-13.3c1.3,0.1,2.3,0.6,3,1.3c0.9-7.7,2.8-15.6,3.6-20.3C705.7,170.2,705.9,170,706.2,170z M699.9,192.8
		c-2.3-0.2-6.5,4-7,11.5c-0.2,2.6,0.5,3.8,1.4,3.9c2.3,0.2,6.5-5.6,7-13.1C701.4,193.6,700.8,192.8,699.9,192.8z"/>
		<path d="M727.7,196.4c3.8,0.3,5.8,3.8,5.6,7.5c-0.3,4.4-3.8,9-11.4,8.4c-3.4-0.2-6.2-1.6-6-3.7c0.1-0.9,0.6-1.8,1.9-2.9
		c0.9,1.6,2.7,2.5,4.7,2.6c3.3,0.2,6.9-1.7,7.2-6c0.2-3.2-1.4-4.5-3.5-4.6c-2.1-0.1-4.6,0.9-5.8,2c-0.1,0-0.1,0-0.2,0
		c-0.2,0-0.4-0.3-0.4-0.6c0.1-0.8,0.2-2.4,0.7-2.9c0.4-0.3,0.8-0.3,1.1-0.3c3.7-0.3,8.5-1.2,8.7-5.4c0.1-1.5-1-2.2-2.6-2.3
		c-2.9-0.2-7.3,1.9-7.6,5.3c-2.2-1.1-3-2.3-2.9-3.6c0.2-3,5.7-5.9,9.9-5.6c3.7,0.2,5.4,2.8,5.2,5.5c-0.2,2.5-1.9,5.3-5,6.4
		L727.7,196.4z"/>
		<path d="M750.2,203.4c-0.6-0.1-1.2-0.2-1.8-0.2c-3.1-0.2-5.9,0.3-8,0.2c-2.2-0.1-3.8-1-4.7-3.9l0.1-0.3c0.9,1.1,2.4,1.5,4.2,1.6
		c3.1,0.2,6.9-0.5,9.1-0.4c1.2,0.1,2,0.4,2,1.4C751,202.6,750.6,203.4,750.2,203.4z"/>
		<path d="M760.1,186.3c0.1-0.3,0.2-0.4,0.4-0.4c0.5,0,1.6,0.7,1.5,1.1c-0.9,4.8-1.5,9.2-1.8,13.3c-0.3,4.3-0.3,8.5,0.1,12.7
		c0,0.4-2.2,1.8-3.5,1.7c-0.4,0-0.7-0.2-0.8-0.6c-0.3-1.1-0.4-2.8-0.2-5c0.4-5.7,2-14.1,3.4-19.4c-1.3,1.6-4,4-6.1,3.9
		c-0.4,0-0.5-0.2-0.4-0.3c0-0.2,0.2-0.4,0.3-0.5C755.5,191.6,759.7,187.3,760.1,186.3z"/>
		<path d="M770.9,215.7c-4.6-0.3-8.6-4-8.2-10.6c0.8-11.3,7.5-17.4,13.1-17c4.4,0.3,8.1,4.6,7.5,13.3
		C782.6,211.7,776.4,216.1,770.9,215.7z M772.1,214c2.9,0.2,6.1-3.5,6.7-11.4c0.5-8.1-1.9-12.3-4.6-12.5c-2.9-0.2-6.2,4.1-6.8,13.3
		C766.9,210.1,769.3,213.8,772.1,214z"/>
		<path d="M809.7,177c0.1,0,0.2,0,0.2,0.1c1.1,0.8,3.5,0.9,3.4,2c-0.1,1.6-4.5,15.1-5.2,25.8c-0.4,5.6,0.2,10.4,3,12.4
		c0.1,0.1,0.2,0.2,0.2,0.4c0,0.3-0.2,0.5-0.4,0.5l-0.1,0c-3.6-1-5.2-4.4-5.7-9.1c-1.7,4.7-4.4,8.7-7,8.5c-3.9-0.3-5.2-3.9-4.9-8
		c0.4-6.2,4.4-13.6,9.4-13.3c1.3,0.1,2.3,0.6,3,1.3c0.9-7.7,2.8-15.6,3.6-20.3C809.2,177.1,809.5,177,809.7,177z M803.4,199.7
		c-2.3-0.2-6.5,4-7,11.5c-0.2,2.6,0.5,3.8,1.4,3.9c2.3,0.2,6.5-5.6,7-13.1C804.9,200.6,804.3,199.8,803.4,199.7z"/>
		<path d="M824.5,200.8c0.9,0.3,2.2,0.8,2.1,1.4c-0.1,1.5-1.1,6.1-1.4,9.8c-0.2,2.6,0,4.7,1.3,4.8c1.1,0.1,2.6-0.9,3.2-2.1
		c0.6-0.1,0.7-0.8,0.9-0.8c0.2,0,0.2,0.3,0.2,0.5c-0.2,2.7-2.8,5-5.1,4.9c-2-0.1-3.8-2-4.1-6.7c-1.6,3.5-3.8,6.2-5.8,6
		c-3.6-0.2-4.8-4.1-4.5-8.5c0.4-6.4,4.2-14.1,9.1-13.8C823,196.6,824.3,198.5,824.5,200.8z M822.6,202.3c-0.8-1.2-1.6-1.8-2.4-1.8
		c-3.2-0.2-5.9,7.9-6.1,12c-0.1,2.1,0.3,3.6,1.3,3.7C819.6,216.5,821.9,206.3,822.6,202.3z"/>
		<path d="M844.1,199.1c0.8,0.1,3.7,0.5,3.7,0.8c-0.8,2.7-1.3,5.7-1.9,12.1c-0.7,8.4-2.9,21.8-10,26.5c-1.7,1.1-4,1.6-6.3,1.5
		c-4.2-0.3-8.5-2.8-9.2-7.4l0-0.1c0-0.3,0.3-0.5,0.5-0.8c0.1-0.2,0.1-0.5,0.2-0.5c0.1,0,0.2,0.2,0.3,0.5c1.3,3.5,4.3,5.7,7.6,5.9
		c1.8,0.1,3.5-0.3,5.2-1.4c6-4.2,6.6-16.4,7.7-21.7c-0.9,1.6-3.7,5.7-6.6,5.5c-3-0.2-3.5-3.7-3.3-7.6c0.3-4,1.3-8.5,1.5-10.1
		c0-0.4,0-0.6-0.1-0.6c-0.9-0.1-3.8,4.8-3.8,4.8c-0.2,0.4-0.5,0.7-0.8,0.7c-0.2,0-0.3-0.2-0.5-0.4c2-4,3.4-7.5,6.5-7.3
		c1.8,0.1,2.1,2.6,1.9,5.8c-0.2,3.2-1,7.2-1.2,9.8c-0.1,2.2,0.3,3,1,3.1c1.5,0.1,4.1-3.2,5.5-6.8c0.7-1.9,1.2-6.3,1.5-11.6
		C843.4,199.6,843.7,199.1,844.1,199.1z"/>
		<path d="M858.5,196.2c0.2,0,0.4,0.1,0.4,0.3c0,0.1-1,3.4-1.3,7.3c-0.2,3.7,2.4,9.6,2.1,13.8c-0.2,3.1-2.5,4.5-4.6,4.4
		c-1.9-0.1-3.7-1.6-3.5-4.4c0.1-1.5,0.7-2.8,1-2.7c0.1,0,0.1,0,0.1,0.1c0.7,1.9,0.5,3.8,1.8,3.9c1.1,0.1,1.6-1,1.7-2.5
		c0.2-3.5-1.3-9.4-1.3-10.6c-1.4,2.3-4.3,11.3-7.9,15.2c0,0-1.1-0.3-1.1-0.7c0-0.1,0-0.1,0.1-0.2c3.8-4.8,8.6-18.3,9.2-22
		C855.4,197,857.7,196.2,858.5,196.2z"/>
	</g>
	<g>
		<g>
			<g>
				<path fill="#A6A6A6" d="M492.6,202.3c0.1-0.2-0.2-1,0.4-0.1c0.9,1.3,1.6,2.7,2.3,4.2c0.7,1.5,1.5,3,2.3,4.3
				c0-0.1,0.1-0.2,0.1-0.3l0-0.8c0.9-2.2,1.8-4.4,2.7-6.7c0.8-2.3,1.6-4.7,2.5-7c0.5-1.3,0.9-2.6,1.4-3.9c-0.1,0-0.2,0-0.1-0.2
				c0.3-1,1-2.2,1.6-3.6c0.1-0.2,0.1-0.4,0.2-0.6c0-0.2,0-0.2-0.1-0.3c0.3-0.6,0.5-1.1,0.8-1.6c2.5-6.8,5.5-13.5,9.4-20.5
				c0.7-1.5,1.5-3.1,2.4-4.5c1.3-2,3.3-4.4,4.9-6.2c-1-0.3,2.5-5,1-4.7c1.1-1.2,2.7-2.9,2.6-3.2c-0.3-0.8-0.1-2.3,2.6-5.7
				c0.5-0.6,1.3-1.3,1.9-1.9c0.1-0.1,0.3-0.3,0.4-0.4c0.1-0.1,0.2-0.2,0.2-0.3c0,0,0-0.1,0.1-0.1l0,0l0,0l0,0l0.1,0.1
				c0.6,0.4,1.1,0.6,1.5,0.7c-3.4-1.4-0.9-0.4-1.7-0.7l0,0l0,0l0,0l0,0l0,0l0,0l0,0c0,0,0,0,0-0.1c0,0,0-0.1,0-0.1
				c0,0-0.1,0-0.1,0.1l0,0l0,0l0,0l0,0c-0.4-0.2,3.6,1.5,1.9,0.8l0,0l0,0l-0.1,0l-0.2-0.1c-0.3-0.1-0.5-0.2-0.8-0.4
				c-0.1-0.1-0.3-0.2-0.4-0.3l-0.2-0.2c-0.1,0-0.2-0.1-0.1-0.1l-0.1,0c-0.1,0-0.3,0.1-0.4,0.2c-0.1,0-0.2,0-0.1-0.2
				c-0.3,0.4-0.9,0.9-1.4,1.4l-1.6,1.6c-1.1,1.1-2.2,2.2-3.2,3.3c-2.1,2.3-4.2,4.6-6.1,7.1c-3.9,4.9-7.4,10.1-10.7,15.5
				c-0.8,1.7-4,7.4-7.1,14.2c-1.5,3.4-3.1,7-4.4,10.4c-0.1,0.3-0.3,0.6-0.4,1l-0.1,0.2c-0.1,0.1-0.1,0.3-0.2,0.4
				c-0.1,0.2-0.1,0.5-0.2,0.5c-0.1-0.2-0.2-0.4-0.3-0.5l0-0.1c-0.1-0.1-0.1-0.2-0.2-0.3c-0.3-0.4-0.7-0.9-1-1.3
				c-0.4-0.4-0.8-0.9-1.1-1.3c-0.7-0.9-1.6-1.6-2.3-2.4c-0.8-0.7-1.6-1.3-2.3-1.9c-0.7-0.5-1.4-0.9-2.1-1.3
				c-0.7-0.4-1.5-0.8-2.2-1.2c0.6,0.6,1,1.1,1.4,1.6c-1.3-1.1-2.7-2-3.3-2.2c-1.6-0.8-2.1-0.8-2-0.5c0.1,0.3,0.7,1,1,1.6
				c0.6,0.7-0.6,0.4,0.4,1.4c-0.9-0.6-1.3-0.9-2.2-1.4c-0.2,0.1,2.8,1.6,1.9,1.6c-0.8-0.6-1.8-1.1-2.7-1.6c0.2,0.4,3,2,2.6,2.2
				c-0.5-0.3-2.2-2-2.6-1.7c-0.1,0.1,0.8,0.6,1.2,0.9c-1.4-0.8-2.5-1.2-3-1.3c-0.5,0-0.3,0.3,0.8,1.1c-0.4-0.2-0.9-0.6-1.4-0.8
				c-0.5-0.3-1.1-0.6-1.4-0.7l0,0c0.3,0.1,1.1,0.6,1.5,0.8c-0.5-0.3-1-0.5-1.5-0.7c0,0.1,0.1,0.2,0.2,0.3c0.3,0.2,0.7,0.4,1.1,0.6
				c-0.3-0.2-0.7-0.3-1-0.5c0.2,0.2,0.4,0.5,0.7,0.7c1.1,0.8,2,1.8,2.6,2.2c2.4,1.6,4.7,3.5,6.7,5.6l1.5,1.6
				c0.5,0.6,0.9,1.1,1.4,1.7c0.2,0.3,0.5,0.6,0.7,0.9l1,1.4c0.5,0.6,0.9,1.3,1.3,2.1L492.6,202.3z"/>
			</g>
		</g>
	</g>
	<g>
		<path d="M527.6,296.7c0.2,0,0.4,0.1,0.4,0.3c0,0.1,0,0.1-0.1,0.3c-2.7,3.3-3.9,6.9-4.2,10.3c-0.4,6.5,3,12.1,7.9,12.4
		c15.2,1,28.2-46.7,27.8-45.9c0.4-0.7,1.5-1,2.6-1c1.4,0.1,2.8,0.8,2.8,2c-0.5,6.8-1.4,15.7-1.9,23.4c-0.6,8.5-0.6,15.2,1,15.3
		c3.3,0.2,12.7-32.6,17.9-40.5c0.1-0.1,0.3-0.2,0.4-0.2c0.2,0,0.3,0.1,0.4,0.4c0.3,0.4,1.7,2.1,2.6,2.8c0.5,0.5,0.7,0.9,0.7,1.4
		c0,0.3-0.1,0.7-0.3,1.1c-1.3,3.6-3.3,12.9-3.9,21.7c-0.5,7.9,0,15.5,3.2,18.5c0.3,0.3,0.6,0.7,0.7,0.8c0,0.1,0,0.1,0,0.2
		c0,0.2-0.2,0.2-0.4,0.2c-0.2,0-0.3-0.1-0.4-0.1c0,0-0.2,0.2-0.5,0.2c-1.9-0.1-7-3.3-8-10.1c-0.7-4.7-0.7-8.7-0.5-12.4
		c0.2-3.3,0.7-6.3,1.1-9.4c0,0,0-0.2-0.1-0.2c-0.1,0-0.1,0-0.2,0.1c-1.4,2.8-6.9,19.6-11.2,26.8c-1.3,2.2-2.7,3.3-3.8,3.2
		c-5.2-0.3-4.6-16.8-3.9-26.2c0.2-3.5,0.6-7.4,1-11.7c-1.8,3.6-10.5,43.7-27.8,42.6c-5.9-0.4-10.5-6-10-13.2c0.3-4,2.1-8.6,6.2-13
		C527.2,296.7,527.5,296.7,527.6,296.7z"/>
		<path d="M613,294.5c0.2,0,0.4,0.1,0.4,0.3c0,0.1-1,3.4-1.3,7.3c-0.1,2.1,0.9,4.6,1.8,7.1c3.1-1.8,6.1-3.7,6.8-5.7
		c0,0-0.3-1.6-0.2-3.5c0.1-0.9,0.2-1.8,0.5-2.8c0.3-1,2.6-2,4.2-1.9c0.2,0,0.3,0.1,0.4,0.1c0.2,0,0.4,0.1,0.4,0.3
		c0,0.1-1.6,3.3-2.7,5.7c-0.1,0.5-0.1,1.1-0.2,1.6c-0.3,4.8,3,9.2,2.7,13.6c-0.2,3.7-3.2,5.6-5.8,5.4c-2.1-0.1-3.8-1.7-3.6-4.7
		c0.2-2.5,1.3-4.9,3.2-4.8c0.6,0,0.6,0.3,0.6,0.4c-0.7,0.8-1.5,2.7-1.6,4.3c-0.1,1.5,0.6,2.2,1.4,2.3c1.1,0.1,2.5-1,2.6-2.5
		c0.3-3.9-1.4-7.4-1.8-11c-2,2-4.3,3.6-6.5,4.8c0.4,1.4,0.7,2.8,0.7,4.2c-0.3,3.8-3,5.5-5.3,5.4c-2-0.1-3.7-1.6-3.5-4.3
		c0.1-1.8,2.3-3.4,4.9-5.1c-0.6-2.9-1.7-6-1.6-6.8c-0.6,1-1.6,3.6-2.8,6.2c-2,4.2-5.5,8.5-8,8.4c-1.4-0.1-2.5-1.8-2.5-6.1
		c-1.6,3.4-3.7,6-5.7,5.9c-3.6-0.2-4.8-4.1-4.6-8.5c0.4-6.4,4.2-14.1,9.1-13.8c2.7,0.2,4,2,4.2,4.4c0.9,0.3,2.2,0.8,2.1,1.4
		c-0.1,1.5-1.1,6.1-1.4,9.8c-0.2,3.2,0.2,4.4,0.8,4.5c1.2,0.1,3.5-4.1,4.8-6.8c2.5-5.1,4-10.8,4.4-13
		C609.9,295.3,612.2,294.4,613,294.5z M597.2,301.9c-0.8-1.2-1.6-1.8-2.4-1.8c-3.2-0.2-5.9,7.9-6.1,12c-0.1,2.1,0.3,3.6,1.3,3.7
		C594.2,316.1,596.5,305.9,597.2,301.9z M609,317.1c1.6,0.1,2.3-1,2.5-2.6c0-0.7,0-1.4-0.2-2.2c-1.9,1.2-3.4,2.2-3.4,3.3
		C607.8,316.5,608.3,317.1,609,317.1z"/>
		<path d="M641.1,303.3c0.9,0.3,2.2,0.8,2.1,1.4c-0.1,1.5-1.1,6.1-1.4,9.8c-0.2,2.6,0,4.7,1.3,4.8c1.1,0.1,2.6-0.9,3.2-2.1
		c0.6-0.1,0.7-0.8,0.9-0.8c0.2,0,0.2,0.3,0.2,0.5c-0.2,2.7-2.8,5-5.1,4.9c-2-0.1-3.8-2-4.1-6.7c-1.6,3.5-3.8,6.2-5.8,6
		c-3.6-0.2-4.8-4.1-4.5-8.5c0.4-6.4,4.2-14.1,9.1-13.8C639.7,299,640.9,300.9,641.1,303.3z M639.2,304.7c-0.8-1.2-1.6-1.8-2.4-1.8
		c-3.2-0.2-5.9,7.9-6.1,12c-0.1,2.1,0.3,3.6,1.3,3.7C636.3,318.9,638.5,308.7,639.2,304.7z"/>
		<path d="M646.2,313.9c0.7-10.2,6.1-14.1,10-13.9c2.4,0.2,4.2,1.9,4,4.7l0,0.1c-0.7-0.4-1.4-0.6-2.1-0.7c-4.8-0.3-8.7,7.1-9,11.6
		c-0.1,2.1,0.2,4.1,1.3,4.1c4.2,0.3,7.2-10.1,7.9-14.2c1.9,0.3,4.8,0.8,4.7,2.4c0,0.1,0,0.3-0.1,0.4c-5.1,14.3-2.7,37.7-17.4,36.7
		c-3.9-0.3-7-4.5-6.8-8.1c0-0.6,0.3-0.8,0.6-0.8c0.2,0,0.5,0.2,0.6,0.6c-0.1,1.9,1.3,5.4,4,5.5c11.1,0.7,12.1-20.9,12.8-26
		c0-0.1,0-0.2,0-0.2c-1.6,3.6-3.9,6.4-6,6.2C647.2,322.1,645.9,318.3,646.2,313.9z"/>
		<path d="M675.2,316c0.1-0.9,0-1.8-0.3-2.8c0-0.1,0-0.3,0.6-0.3c1.9,0.1,2.2,2.3,2.1,4.1c-0.2,3.7-3.3,7.1-7.1,6.8
		c-5.3-0.4-7.2-5.2-6.9-10.3c0.4-6.2,4.1-12.9,9.1-12.5c2.3,0.2,3.5,1.9,3.3,4.3c-0.2,3.2-2.9,7.4-8.5,10.1c0,4.3,1.5,6.1,3.2,6.2
		C672.7,321.6,675,319.3,675.2,316z M672.4,303.9c-2.3-0.2-4.3,4.7-4.7,9.3c2.2-1.3,5.2-5.7,5.4-8.2
		C673.1,304.4,672.9,303.9,672.4,303.9z"/>
		<path d="M705,309.3c0.2,0,0.3,0.1,0.3,0.3c-0.4,1-1.3,1.7-2.7,2.3c0,0.3,0,0.7,0,1c-0.4,5.8-3.9,12.2-8.4,11.9
		c-4.6-0.3-6.2-4.6-5.9-9.4c0.4-6.3,4.3-13.4,9.2-13.1c2.3,0.2,4.2,1.3,4,4.4c-0.8-0.4-1.6-0.6-2.3-0.7c-4.5-0.3-7.1,5.9-7.4,10.9
		c-0.2,3.3,0.5,6.1,2.4,6.3c2.4,0.2,4.5-4.7,4.7-8.9c0.2-2.5-0.3-4.7-1.5-5.5c0,0,1.8-0.8,3-1.1C702.2,309.1,702.9,309.2,705,309.3z
		"/>
		<path d="M712.9,303.4c2.1,0.1,3.5,1.8,3.5,5.4c0,0.3,0.1,0.6,0,0.8c-0.1,1.6-1.5,2.8-3.3,2.7c-1.1-0.1-1.5-0.5-1.5-0.8
		c0-0.1,0.1-0.2,0.2-0.1c0.4,0,1.5-1.9,1.6-3.1c0-0.4-0.1-0.7-0.3-0.8c-2.8,0-6.2,6-6.5,10.8c-0.3,3.9,1.8,6.1,3.8,6.3
		c1.9,0.1,3.7-1.5,4-4.9c0.1-1.1-0.1-2.3-0.4-3.6c0-0.1,0-0.3,0.6-0.3c1.5,0.1,2.5,2.4,2.3,4.9c-0.3,4.4-3.3,6.5-6.4,6.2
		c-3.8-0.3-7.7-3.7-7.3-10C703.7,310.4,708,303,712.9,303.4z"/>
		<path d="M724.7,290.6c0.1,0,0.2,0,0.2,0.1c1.1,0.8,3.5,0.9,3.4,2c0,0.7-0.9,3.3-1.9,6.9c3.5-0.2,6.4-0.6,7.2-0.5
		c0.6,0,1.5,0.1,1.5,0.5c0,0.4-0.6,0.3-0.8,0.6c-0.4,0.5-0.5,0.9-0.5,0.9c-0.9,0.4-4.4,1.5-8.3,2.2c-1.4,5.3-2.9,11.9-3.3,17.5
		c-0.3,4,0,7.6,1.3,9.9c0,0-0.1,0.7-0.8,0.7c-3.1-1.8-3.7-7.7-3.2-14.4c0.3-4.2,1-8.9,1.8-13.1c-1.1,0.1-2.3,0.1-3.3,0
		c-2.7-0.2-3.8-2.1-3.6-4.8c0-0.5,0.2-1.2,0.5-1.2c0.1,0,0.2,0.1,0.3,0.2c1.8,0.9,4.1,1.3,6.4,1.5l0.5,0c0.6-2.9,1.2-5.5,2-8.7
		C724.2,290.7,724.5,290.5,724.7,290.6z"/>
		<path d="M742.8,311.9c0.2,0,0.3,0.1,0.3,0.3c-0.4,1-1.3,1.7-2.7,2.3c0,0.3,0,0.7,0,1c-0.4,5.8-3.9,12.2-8.4,11.9
		c-4.6-0.3-6.2-4.6-5.9-9.4c0.4-6.3,4.3-13.4,9.2-13.1c2.3,0.2,4.2,1.3,4,4.4c-0.8-0.4-1.6-0.6-2.3-0.7c-4.5-0.3-7.1,5.9-7.4,10.9
		c-0.2,3.3,0.5,6.1,2.4,6.3c2.4,0.2,4.5-4.7,4.7-8.9c0.2-2.5-0.3-4.7-1.5-5.5c0,0,1.8-0.8,3-1.1
		C739.9,311.7,740.6,311.7,742.8,311.9z"/>
		<path d="M779.1,321.8c-2,4.2-4.4,9.3-6.8,9.2c-3.1-0.2-3.9-4.5-3.8-9.1c-1.8,3.9-4.3,8.8-7,8.6c-2.3-0.2-2.8-3-2.6-6.7
		c0.3-4.2,1.6-9.4,2.5-12.8c-1.8,0.5-3.6,1.5-5.3,2.8c0,0.6,0,1.3,0,1.9c-0.4,6.1-3.8,13.3-8.6,13c-1.3-0.1-1.8-0.8-1.7-2
		c0.2-3.4,2.9-7.6,6.4-11.2c-0.1-2.2-0.8-3.8-2.3-3.9c-1.8-0.1-3.8,1.9-4.7,5.6c-0.5,4.3-1.2,9.8-1.2,10.3l0,0.1l-2.1,18.6
		c-0.1,1-0.4,1.4-0.8,1.4c-0.9-0.1-2.4-2.4-2.7-2.8c1.5-9.9,3-16.6,4.4-37.5c0,0,0.1-0.6,0.4-0.6c0.1,0,0.1,0.1,0.2,0.1
		c0.5,0.4,2.8,1.1,2.7,1.9c0,0.6-0.4,3.1-0.4,3.3c1.7-3.3,4-4.8,6.2-4.7c2.3,0.2,3.6,2.2,4.1,4.9c2-1.5,4.2-2.7,6.1-3.4
		c0.4-1.4,1.1-1.8,1.8-1.8c1.1,0.1,2.1,1.4,2.1,2.4c0,0.4-0.2,0.7-0.6,0.8c-0.8,1.3-3.1,9.8-3.5,14.5c-0.1,1.8,0.1,3,0.7,3
		c1.4,0.1,4.3-4.4,6-8.1c0.4-3.8,1.3-7.3,1.8-8.2c0.2-0.1,0.6-0.1,1-0.1c0.9,0.1,2,0.4,1.9,1.2c0,0.7-1.3,6.4-1.6,10.9
		c-0.2,2.9,0,5.3,1.3,5.4c1.2,0.1,3.5-5,4.8-7.7c2.5-5.1,4-10.8,4.4-13c0.2-1.1,2.5-2,3.3-1.9c0.2,0,0.4,0.1,0.4,0.3
		c0,0.1-1,3.4-1.3,7.3c-0.1,2.2,0.6,5,1.3,7.8c1.5-0.1,3-0.1,4.4,0c12.9,0.9,27.2,7.9,38.3,8.6c3.4,0.2,6.5-0.1,9.2-1.4
		c1-0.5,1.4-0.6,1.6-0.6c0.1,0,0.1,0,0.1,0.1c0,0.3-1.4,1.4-2.4,2.2c-2.1,1.8-5,5.8-14,5.2c-12.1-0.8-24.7-10.4-35.5-11.1
		c-0.4,0-0.8-0.1-1.1,0c0.2,1,0.3,2.1,0.2,3.1c-0.2,3.1-2.5,4.5-4.6,4.4c-1.9-0.1-3.7-1.6-3.5-4.4c0.2-3,2-4.6,4.3-5.4
		c-0.4-2.9-1.1-5.7-1-6.5C781.3,316.6,780.3,319.1,779.1,321.8z M747.7,326.9c2.1,0.1,4.2-5.6,4.5-9.5c-2.7,3.1-4.7,6.5-4.8,8.8
		C747.3,326.6,747.4,326.9,747.7,326.9z M781,328.8c0.9,0.1,2-0.6,2.1-2.5c0-0.4,0-0.9,0-1.3c-2.2,0.6-3.4,1.8-3.5,2.7
		C779.6,328.2,780.2,328.7,781,328.8z"/>
		<path d="M560.1,356.6c0.2,0.4,1.1,0.3,1.1,0.7c0,0.2-0.1,0.4-0.3,0.4c-0.9,0.4-4.9,0.4-7.5,0.2c-0.5,0-0.9-0.1-1.3-0.1
		c-0.4,0-0.5,0.4-0.5,0.4c2.5,4.8,3.4,13.7,2.9,21.6c-0.6,8.7-2.9,16.2-6.6,15.9c-3.9-0.3-4.8-4.3-4.5-9.9
		c0.5-8.1,3.8-19.8,4.6-28.2c0,0,0-0.7-0.7-0.7c-0.7,0-3.6-2.6-3.6-3.2c0-0.2,0.1-0.3,0.5-0.4c1-0.1,3.8-0.1,4.1-0.1
		c0.3,0,0.5-0.1,0.5-0.4c0,0,0.5-1.1,3.6-24.6c0-0.3,0-0.5,0.1-0.5c0.3,0,0.4,0,0.6,0.2c0.4,0.6,1.7,2.9,2.2,3.5
		c0.3,0.4,0.4,0.8,0.4,1.2c0,0.2,0,0.4-0.1,0.6c-1.4,6.9-2.8,13.7-4,20c2.1,0,4.9,0.1,4.9,0.1C557.9,353.4,559.2,355,560.1,356.6z
		 M546.7,392.8c1,0.1,3.6-10.2,4.2-19.3c0.3-4.5,0.1-8.7-1-11.2c-2.1,11.9-3.4,21-3.6,24.2C546,390.9,546.2,392.8,546.7,392.8z"/>
		<path d="M573.1,359.8c-0.6,5.7-4,11.6-8.4,11.3c-4.6-0.3-6.2-4.6-5.9-9.4c0.4-6.3,4.3-13.4,9.2-13.1c4,0.3,4.1,3.1,4,4l0,0.4
		c-0.8-0.4-1.6-0.6-2.3-0.7c-4.5-0.3-7.1,5.9-7.4,10.9c-0.2,3.3,0.5,6.1,2.4,6.3c2.4,0.2,4.5-4.7,4.7-8.9c0.2-2.5-0.3-4.7-1.5-5.5
		c0,0,1.8-0.8,3-1.1c1.5,2.6,2.8,3.6,3.8,3.7c0.7,0,1.3-0.2,1.8-0.8c-1.1-1.2-1.6-3.1-1.4-4.9c0.1-2.1,1.1-4,2.7-3.9
		c1.6,0.1,2.2,1.6,2,3.6c-0.1,1.4-0.6,3.1-1.4,4.5c0.3,0.2,0.7,0.3,1,0.3c2.8,0.2,5.9-4.9,6.4-4.9c0.7,0,1.6,1.5,1.6,2.2
		c0,0.4-0.2,0.7-0.2,0.7c-2.9,3.3-4.2,7.3-4.4,10.5c-0.2,3.7,0.8,5.7,2.2,5.8c1.3,0.1,3-1.6,4-5.3c0.1-0.4,0.1-0.6,0.8-1
		c0.2-0.1,0.3-0.1,0.3-0.1c0.1,0,0.1,0.1,0.1,0.2c0,0.1-0.1,0.3-0.1,0.3c-0.4,6.2-3.9,8.9-6.6,8.7c-2.5-0.2-5-2.2-4.7-6.7
		c0.2-2.4,1.1-5.4,3.2-9.2c-0.9,0.4-2,0.5-3.1,0.4c-0.5,0-1-0.2-1.3-0.3c-1.1,1.4-2.5,2.3-4.1,2.2L573.1,359.8z"/>
		<path d="M603.3,346c3.4,1.3,6.2,1.9,8.5,2c3.7,0.2,5.9-0.5,7-0.7c0.1,0,0.1,0.3,0.1,0.7c-0.1,1-0.5,2.8-1.7,3.1s-3.5,0.5-5.9,0.4
		c-2.5-0.2-5.3-0.7-7.2-1.6l-0.1,1.3c-0.2,2.7-0.3,6.1-0.4,7.7c0,0,2.5-1.2,4.8-1c5.7,0.4,8.2,4.3,8,8.3c-0.3,4.5-4.2,9-11,8.5
		c-5.5-0.4-6.8-5.2-6.8-5.2s0.1-0.6,0.4-0.6c0.1,0,0.1,0.1,0.2,0.1c0.4,0.4,2,1.9,5.7,2.1c5.1,0.3,7.8-2.8,8-5.8
		c0.2-2.5-1.5-5-5.2-5.3c-2.5-0.2-4.7,0.9-4.7,0.9s-0.1,0-0.2,0c-1.1-0.1-1.3-1.3-1.3-2.1c0.2-3.7,1.1-8.5,1.4-12.6
		C603,346.3,603,345.9,603.3,346z"/>
		<path d="M626.1,375.9c-4.6-0.3-8.6-4-8.2-10.6c0.8-11.3,7.5-17.4,13.1-17c4.4,0.3,8.1,4.6,7.5,13.3
		C637.8,371.8,631.5,376.2,626.1,375.9z M627.3,374.1c2.9,0.2,6.1-3.5,6.7-11.4c0.5-8.1-1.9-12.3-4.6-12.5
		c-2.9-0.2-6.2,4.1-6.8,13.3C622.1,370.2,624.5,373.9,627.3,374.1z"/>
		<path d="M661,356.7c2.2,0.1,2.8,1.4,2.6,3.5c-0.4,5.8-0.6,8.7-1.1,10.5c1.9-3.5,4.9-12.2,8.1-14.8c0.2-0.1,0.3-0.1,0.4-0.1
		c0.6,0,2.3,1.3,2.2,2c0,0.1,0,0.2-0.1,0.3c-1.5,2.8-2.3,7.4-2.5,10.4c-0.2,3,0.5,6.2,2.1,6.4c0.7,0,1.5-0.3,2.4-1.2
		c0,0,0.1,0,0.2,0c0.1,0,0.2,0.1,0.1,0.2c-0.1,2.1-2.4,4-4.5,3.9c-4.1-0.3-4.3-6-4-10.3c0.1-1.7,0.3-3.1,0.4-3.9
		c-1.7,2.4-4,10.2-5.3,13.6c0,0.4-0.4,0.5-0.8,0.5c-1.3-0.1-2.8-0.2-2.7-0.9l0-0.1c0.3-1.8,1-7.3,1.3-11.3c0.2-2.6,0.2-4.6-0.2-4.7
		c-1.3-0.1-3.8,6.2-5.5,15.1c-0.1,1.1-0.8,1.5-1.7,1.5c-1.2-0.1-2.5-1-2.4-2.3c0.2-1.1,2.3-9.2,2.6-13.6c0.1-1.8-0.1-3-0.7-3
		c-0.8-0.1-2.3,1.3-3.6,3.4c0,0-0.2,0-0.4,0c-0.4,0-1-0.2-0.9-0.9c1.6-2.6,3.8-4.9,6.5-4.7c2.1,0.1,2.6,2.5,2.4,5.4
		c-0.2,2.3-0.7,5-1.3,7.2C656.8,361.8,659.2,356.6,661,356.7z"/>
		<path d="M699.5,373.5c-0.2,2.9,0,5.3,1.3,5.4c1.2,0.1,3.5-5,4.8-7.7c2.5-5.1,4-10.8,4.4-13c0.2-1.1,2.5-2,3.3-1.9
		c0.2,0,0.4,0.1,0.4,0.3c0,0.1-1,3.3-1.3,7.3c-0.2,3.7,2.4,11.9,2.1,16.1c-0.2,3-2.8,4.4-5.3,4.3c-2.3-0.2-4.5-1.8-4.3-4.6
		c0.1-1.5,0.7-3.4,1.1-3.3c0.1,0,0.2,0,0.1,0.1l0,0.2c-0.2,2.9,1.4,4.8,2.8,4.8c1,0.1,2-0.8,2.1-2.8c0.3-4.2-1.4-11.5-1.3-12.8
		c-0.6,1-1.6,3.6-2.8,6.2c-2,4.2-4.4,9.3-6.8,9.2c-4.4-0.3-4.2-10.2-4.1-13.9c-2.7,2.5-4.4,9.5-5.7,12.8c-0.1,0.4-0.4,0.5-0.8,0.5
		c-1.1-0.1-2.3-1.4-2.3-1.6c0-0.1,0.6-3.4,1.2-7.6c0.3-2.2,0.9-6.1,1.1-8.6c0-0.5,0-0.7-0.1-0.7c-0.9-0.1-4,17.6-10.4,17.2
		c-2.9-0.2-3.5-4-3.2-8.3c0.3-5.2,2-12.4,2.9-12.4c0.9,0.1,1.8,0.1,3.2-0.1c0.6,0,0.6,0.5,0.6,0.5c-1.8,7.4-2.8,10.3-3.1,15.5
		c-0.1,1.7,0.3,2.4,0.8,2.4c3.8,0.3,6.2-9.6,8-14.1c1-2.4,1.8-4.2,2.5-4.2c0.9,0.1,1.6-0.5,2-0.4c0.4,0,0.3,2.4,0.2,4.5
		c-0.3,4.5-0.5,6.8-0.6,8.1c1.9-3.5,4.2-9.4,7.4-12c0.2-0.1,0.3-0.1,0.4-0.1c0.6,0,2.3,1.3,2.2,2c0,0.1,0,0.2-0.1,0.3
		c-1.5,2.8-2.2,7.4-2.4,10.5C699.6,372.1,699.5,372.8,699.5,373.5z M685.7,347.6c-0.1,2-1.8,4.3-3.6,4.2c-1.6-0.1-2.3-1.4-2.2-2.8
		c0.1-1.9,1.6-4.1,3.7-3.9C685.2,345.2,685.8,346.3,685.7,347.6z"/>
	</g>
	<g>
		<g>
			<g>
				<path fill="#A6A6A6" d="M481.6,316.3c0.1-0.2-0.2-1,0.4-0.1c0.9,1.3,1.6,2.7,2.3,4.2c0.7,1.5,1.5,3,2.3,4.3
				c0-0.1,0.1-0.2,0.1-0.3l0-0.8c0.9-2.2,1.8-4.4,2.7-6.7c0.8-2.3,1.6-4.7,2.5-7c0.5-1.3,0.9-2.6,1.4-3.9c-0.1,0-0.2,0-0.1-0.2
				c0.3-1,1-2.2,1.6-3.6c0.1-0.2,0.1-0.4,0.2-0.6c0-0.2,0-0.2-0.1-0.3c0.3-0.6,0.5-1.1,0.8-1.6c2.5-6.8,5.5-13.5,9.4-20.5
				c0.7-1.5,1.5-3.1,2.4-4.5c1.3-2,3.3-4.4,4.9-6.2c-1-0.3,2.5-5,1-4.7c1.1-1.2,2.7-2.9,2.6-3.2c-0.3-0.8-0.1-2.3,2.6-5.7
				c0.5-0.6,1.3-1.3,1.9-1.9c0.1-0.1,0.3-0.3,0.4-0.4c0.1-0.1,0.2-0.2,0.2-0.3c0,0,0-0.1,0.1-0.1l0,0l0,0l0,0l0.1,0.1
				c0.6,0.4,1.1,0.6,1.5,0.7c-3.4-1.4-0.9-0.4-1.7-0.7l0,0l0,0l0,0l0,0l0,0l0,0l0,0c0,0,0,0,0-0.1c0,0,0-0.1,0-0.1
				c0,0-0.1,0-0.1,0.1l0,0l0,0l0,0l0,0c-0.4-0.2,3.6,1.5,1.9,0.8l0,0l0,0l-0.1,0l-0.2-0.1c-0.3-0.1-0.5-0.2-0.8-0.4
				c-0.1-0.1-0.3-0.2-0.4-0.3l-0.2-0.2c-0.1,0-0.2-0.1-0.1-0.1l-0.1,0c-0.1,0-0.3,0.1-0.4,0.2c-0.1,0-0.2,0-0.1-0.2
				c-0.3,0.4-0.9,0.9-1.4,1.4l-1.6,1.6c-1.1,1.1-2.2,2.2-3.2,3.3c-2.1,2.3-4.2,4.6-6.1,7.1c-3.9,4.9-7.4,10.1-10.7,15.5
				c-0.8,1.7-4,7.4-7.1,14.2c-1.5,3.4-3.1,7-4.4,10.4c-0.1,0.3-0.3,0.6-0.4,1l-0.1,0.2c-0.1,0.1-0.1,0.3-0.2,0.4
				c-0.1,0.2-0.1,0.5-0.2,0.5c-0.1-0.2-0.2-0.4-0.3-0.5l0-0.1c-0.1-0.1-0.1-0.2-0.2-0.3c-0.3-0.4-0.7-0.9-1-1.3
				c-0.4-0.4-0.8-0.9-1.1-1.3c-0.7-0.9-1.6-1.6-2.3-2.4c-0.8-0.7-1.6-1.3-2.3-1.9c-0.7-0.5-1.4-0.9-2.1-1.3
				c-0.7-0.4-1.5-0.8-2.2-1.2c0.6,0.6,1,1.1,1.4,1.6c-1.3-1.1-2.7-2-3.3-2.2c-1.6-0.8-2.1-0.8-2-0.5c0.1,0.3,0.7,1,1,1.6
				c0.6,0.7-0.6,0.4,0.4,1.4c-0.9-0.6-1.3-0.9-2.2-1.4c-0.2,0.1,2.8,1.6,1.9,1.6c-0.8-0.6-1.8-1.1-2.7-1.6c0.2,0.4,3,2,2.6,2.2
				c-0.5-0.3-2.2-2-2.6-1.7c-0.1,0.1,0.8,0.6,1.2,0.9c-1.4-0.8-2.5-1.2-3-1.3c-0.5,0-0.3,0.3,0.8,1.1c-0.4-0.2-0.9-0.6-1.4-0.8
				c-0.5-0.3-1.1-0.6-1.4-0.7l0,0c0.3,0.1,1.1,0.6,1.5,0.8c-0.5-0.3-1-0.5-1.5-0.7c0,0.1,0.1,0.2,0.2,0.3c0.3,0.2,0.7,0.4,1.1,0.6
				c-0.3-0.2-0.7-0.3-1-0.5c0.2,0.2,0.4,0.5,0.7,0.7c1.1,0.8,2,1.8,2.6,2.2c2.4,1.6,4.7,3.5,6.7,5.6l1.5,1.6
				c0.5,0.6,0.9,1.1,1.4,1.7c0.2,0.3,0.5,0.6,0.7,0.9l1,1.4c0.5,0.6,0.9,1.3,1.3,2.1L481.6,316.3z"/>
			</g>
		</g>
	</g>
	<g>
		<path d="M528,472.5c0.2,0,0.4,0.1,0.4,0.3c0,0.1,0,0.1-0.1,0.3c-2.7,3.3-3.9,6.9-4.2,10.3c-0.4,6.5,3,12.1,7.9,12.4
		c15.2,1,28.2-46.7,27.8-45.9c0.4-0.7,1.5-1,2.6-1c1.4,0.1,2.8,0.8,2.8,2c-0.5,6.8-1.4,15.7-1.9,23.4c-0.6,8.5-0.6,15.2,1,15.3
		c3.3,0.2,12.7-32.6,17.9-40.5c0.1-0.1,0.3-0.2,0.4-0.2c0.2,0,0.3,0.1,0.4,0.4c0.3,0.4,1.7,2.1,2.6,2.8c0.5,0.5,0.7,0.9,0.7,1.4
		c0,0.3-0.1,0.7-0.3,1.1c-1.3,3.6-3.3,12.9-3.9,21.7c-0.5,7.9,0,15.5,3.2,18.5c0.3,0.3,0.6,0.7,0.7,0.8c0,0.1,0,0.1,0,0.2
		c0,0.2-0.2,0.2-0.4,0.2c-0.2,0-0.3-0.1-0.4-0.1c0,0-0.2,0.2-0.5,0.2c-1.9-0.1-7-3.3-8-10.1c-0.7-4.7-0.7-8.7-0.5-12.4
		c0.2-3.3,0.7-6.3,1.1-9.4c0,0,0-0.2-0.1-0.2c0,0-0.1,0-0.2,0.1c-1.4,2.8-6.9,19.6-11.2,26.8c-1.3,2.2-2.7,3.3-3.8,3.2
		c-5.2-0.3-4.6-16.8-3.9-26.2c0.2-3.5,0.6-7.4,1-11.7c-1.8,3.6-10.5,43.7-27.8,42.6c-5.9-0.4-10.5-6-10-13.2c0.3-4,2.1-8.6,6.2-13
		C527.6,472.6,527.8,472.5,528,472.5z"/>
		<path d="M599.4,476.3c0.9,0.3,2.2,0.8,2.1,1.4c-0.1,1.5-1.1,6.1-1.4,9.8c-0.2,2.6,0,4.7,1.3,4.8c1.1,0.1,2.6-0.9,3.2-2.1
		c0.6-0.1,0.7-0.8,0.9-0.8c0.2,0,0.2,0.3,0.2,0.5c-0.2,2.7-2.8,5-5.1,4.9c-2-0.1-3.9-2-4.1-6.7c-1.6,3.5-3.8,6.2-5.8,6
		c-3.6-0.2-4.8-4.1-4.6-8.5c0.4-6.4,4.2-14.1,9.1-13.8C597.9,472,599.2,473.9,599.4,476.3z M597.5,477.7c-0.8-1.2-1.6-1.8-2.4-1.8
		c-3.2-0.2-5.9,7.9-6.1,12c-0.1,2.1,0.3,3.6,1.3,3.7C594.5,491.9,596.8,481.7,597.5,477.7z"/>
		<path d="M617.7,473.7c1.6,0.1,2.4,1.3,2.3,2.9c-0.2,2.9-3.2,7.1-8.9,9c0.9,7.6,4.9,12.4,10,12.8c1.8,0.1,3.6-0.3,5.6-1.3
		c0,0,0.3-0.2,0.5-0.2l0,0.1c0,0.2-0.6,0.9-0.6,1c-3.2,1.5-1.8,6.1-7.6,5.8c-4.7-0.3-9.3-8.7-9.9-16.7c-0.1,0-0.3,0.4-0.3,0.5
		c-0.4,0.7-0.6,2.9-0.7,4.9c-0.1,1.9,0,3.6,0,3.6c0,0.5-0.2,0.9-0.4,0.9c-0.1,0-0.2-0.1-0.4-0.2c-0.8-0.7-2.6-1.8-3.1-2.3
		c0.2-2.3,1.1-8.9,2.3-16.5l-0.1,0c-0.2,0-0.4-0.1-0.4-0.1c-0.5-0.2-0.2-0.5-0.6-0.8c-0.4,0-0.5-0.1-0.5-0.2c-0.1,0,1.1-0.2,1.9-0.4
		c2.3-13.1,6-28.4,10-28.2c2.5,0.2,3.5,2.9,3.2,6.7c-0.5,7.1-5.1,17.6-10.7,21.7c-0.3,1.6-0.5,3.3-0.8,5
		C611.8,476.1,615.1,473.5,617.7,473.7z M616.2,478.3c0-0.5-0.3-0.8-0.9-0.9c-2.7-0.2-6.9,6.2-7,7.4
		C613.5,482.6,616.1,479.7,616.2,478.3z M616.6,454.9c-2.5-0.2-5,7.8-7.2,20c4.5-4.1,7.4-13.6,7.7-17.8
		C617.3,455.8,617.1,454.9,616.6,454.9z"/>
		<path d="M631,488.8c0.1-0.9,0-1.8-0.3-2.8c0-0.1,0-0.3,0.6-0.3c1.9,0.1,2.2,2.3,2.1,4.1c-0.2,3.7-3.3,7.1-7.1,6.8
		c-5.3-0.4-7.2-5.2-6.9-10.3c0.4-6.2,4.1-12.9,9.1-12.5c2.3,0.2,3.5,1.9,3.3,4.3c-0.2,3.2-2.9,7.4-8.5,10.1c0,4.3,1.5,6.1,3.2,6.2
		C628.5,494.4,630.8,492.1,631,488.8z M628.2,476.7c-2.3-0.2-4.3,4.7-4.7,9.3c2.2-1.3,5.2-5.7,5.4-8.2
		C628.9,477.3,628.7,476.7,628.2,476.7z"/>
		<path d="M648.4,479.3c-2.2-1.1-3-2.3-2.9-3.6c0.2-3,5.7-5.9,9.9-5.6c4.3,0.3,5.8,2.5,5.6,5.5c-0.4,5.5-6.5,13.7-11.3,17.1
		c0.7-0.2,1.4-0.2,2.2-0.2c3.1,0.2,6.6,2.2,8.5,4.8c0.1,0.1,0.1,0.3,0.1,0.4c0,0.3-0.2,0.5-0.4,0.5c-2-0.9-4.5-1.4-7.2-1.6
		c-3.4-0.2-7,0.2-9.9,1.4l-1.8-1.5c6.2-0.7,15.7-13.4,16.1-19.3c0.1-1.6-0.5-2.8-2.1-2.9C652.2,474.1,648.7,475.9,648.4,479.3z"/>
		<path d="M669.7,499.5c-4.6-0.3-8.6-4-8.2-10.6c0.8-11.3,7.5-17.4,13.1-17c4.4,0.3,8.1,4.6,7.5,13.3
		C681.4,495.4,675.2,499.8,669.7,499.5z M670.9,497.7c2.9,0.2,6.1-3.5,6.7-11.4c0.5-8.1-1.9-12.3-4.6-12.5
		c-2.9-0.2-6.2,4.1-6.8,13.3C665.7,493.9,668.1,497.6,670.9,497.7z"/>
		<path d="M691,500.9c-4.6-0.3-8.6-4-8.2-10.6c0.8-11.3,7.5-17.4,13.1-17c4.4,0.3,8.1,4.6,7.5,13.3
		C702.8,496.8,696.5,501.3,691,500.9z M692.2,499.2c2.9,0.2,6.1-3.5,6.7-11.4c0.5-8.1-1.9-12.3-4.6-12.5c-2.9-0.2-6.2,4.1-6.8,13.3
		C687,495.3,689.5,499,692.2,499.2z"/>
		<path d="M719.3,466c0.1,0,0.2,0,0.2,0.1c1.1,0.8,3.5,0.9,3.4,2c0,0.7-0.9,3.3-1.9,6.9c3.5-0.2,6.4-0.6,7.2-0.5
		c0.6,0,1.5,0.1,1.5,0.5c0,0.4-0.6,0.3-0.8,0.6c-0.4,0.5-0.5,0.9-0.5,0.9c-0.9,0.4-4.4,1.5-8.3,2.2c-1.4,5.3-2.9,11.9-3.3,17.5
		c-0.3,4,0,7.6,1.3,9.9c0,0-0.1,0.7-0.8,0.7c-3.1-1.8-3.7-7.7-3.2-14.4c0.3-4.2,1-8.9,1.8-13.1c-1.1,0.1-2.3,0.1-3.3,0
		c-2.7-0.2-3.8-2.1-3.6-4.8c0-0.5,0.2-1.2,0.5-1.2c0.1,0,0.2,0.1,0.3,0.2c1.8,0.9,4.1,1.3,6.4,1.5l0.5,0c0.6-2.9,1.2-5.5,2-8.7
		C718.8,466.2,719.1,466,719.3,466z"/>
		<path d="M733.3,485.3c0.9,0.3,2.2,0.8,2.1,1.4c-0.1,1.5-1.1,6.1-1.4,9.8c-0.2,2.6,0,4.7,1.3,4.8c1.1,0.1,2.6-0.9,3.2-2.1
		c0.6-0.1,0.7-0.8,0.9-0.8c0.2,0,0.2,0.3,0.2,0.5c-0.2,2.7-2.8,5-5.1,4.9c-2-0.1-3.8-2-4.1-6.7c-1.6,3.5-3.8,6.2-5.8,6
		c-3.6-0.2-4.8-4.1-4.6-8.5c0.4-6.4,4.2-14.1,9.1-13.8C731.9,481,733.1,482.9,733.3,485.3z M731.5,486.7c-0.8-1.2-1.6-1.8-2.4-1.8
		c-3.2-0.2-5.9,7.9-6.1,12c-0.1,2.1,0.3,3.6,1.3,3.7C728.5,500.9,730.8,490.7,731.5,486.7z"/>
		<path d="M750.8,483.4c2.2,0.1,2.8,1.4,2.6,3.5c-0.4,5.8-0.6,8.7-1.1,10.5c1.9-3.5,4.9-12.2,8.1-14.8c0.2-0.1,0.3-0.1,0.4-0.1
		c0.6,0,2.3,1.3,2.2,2c0,0.1,0,0.2-0.1,0.3c-1.5,2.8-2.3,7.4-2.5,10.4c-0.2,3,0.5,6.2,2.1,6.4c0.7,0,1.5-0.3,2.4-1.2
		c0,0,0.1,0,0.2,0s0.2,0.1,0.1,0.2c-0.1,2.1-2.4,4-4.5,3.9c-4.1-0.3-4.3-6-4-10.3c0.1-1.7,0.3-3.1,0.4-3.9c-1.7,2.4-4,10.2-5.3,13.6
		c0,0.4-0.4,0.5-0.8,0.5c-1.3-0.1-2.8-0.2-2.7-0.9l0-0.1c0.3-1.8,1-7.3,1.3-11.3c0.2-2.6,0.2-4.6-0.2-4.7c-1.3-0.1-3.8,6.2-5.5,15.1
		c-0.1,1.1-0.8,1.5-1.7,1.5c-1.2-0.1-2.5-1-2.4-2.3c0.2-1.1,2.3-9.2,2.6-13.6c0.1-1.8-0.1-3-0.7-3c-0.8-0.1-2.3,1.3-3.6,3.4
		c0,0-0.2,0-0.4,0c-0.4,0-1-0.2-0.9-0.9c1.6-2.6,3.8-4.9,6.5-4.7c2.1,0.1,2.6,2.5,2.4,5.4c-0.2,2.3-0.7,5-1.3,7.2
		C746.5,488.5,748.9,483.3,750.8,483.4z"/>
		<path d="M778.2,488.3c0.9,0.3,2.2,0.8,2.1,1.4c-0.1,1.5-1.1,6.1-1.4,9.8c-0.2,2.6,0,4.7,1.3,4.8c1.1,0.1,2.6-0.9,3.2-2.1
		c0.6-0.1,0.7-0.8,0.9-0.8c0.2,0,0.2,0.3,0.2,0.5c-0.2,2.7-2.8,5-5.1,4.9c-2-0.1-3.8-2-4.1-6.7c-1.6,3.5-3.8,6.2-5.8,6
		c-3.6-0.2-4.8-4.1-4.5-8.5c0.4-6.4,4.2-14.1,9.1-13.8C776.8,484,778,485.9,778.2,488.3z M776.3,489.7c-0.8-1.2-1.6-1.8-2.4-1.8
		c-3.2-0.2-5.9,7.9-6.1,12c-0.1,2.1,0.3,3.6,1.3,3.7C773.3,503.9,775.6,493.8,776.3,489.7z"/>
		<path d="M783.3,498.9c0.7-10.2,6.1-14.1,10-13.9c2.4,0.2,4.2,1.9,4,4.7l0,0.1c-0.7-0.4-1.4-0.6-2.1-0.7c-4.8-0.3-8.7,7.1-9,11.6
		c-0.1,2.1,0.2,4.1,1.3,4.1c4.2,0.3,7.2-10.1,7.9-14.2c1.9,0.3,4.8,0.8,4.7,2.4c0,0.1,0,0.3-0.1,0.4c-5.1,14.3-2.7,37.7-17.4,36.7
		c-3.9-0.3-7-4.5-6.8-8.1c0-0.6,0.3-0.8,0.6-0.8c0.2,0,0.5,0.2,0.6,0.6c-0.1,1.9,1.3,5.4,4,5.5c11.1,0.7,12.1-20.9,12.8-26
		c0-0.1,0-0.2,0-0.2c-1.6,3.6-3.9,6.4-6,6.2C784.3,507.2,783,503.3,783.3,498.9z"/>
		<path d="M814.8,493.6c5.8,0,12.6-1.4,17.5-3c0.3-0.1,0.6-0.1,0.7-0.1c0.1,0,0.2,0.1,0.1,0.1c0,0.6-1.3,0.6-1.4,1.3
		c-0.7,4.3-7.8,5.6-14,5.2c-1-0.1-2.1-0.1-3-0.3c-0.7,5.5-3.9,11.5-8.4,11.2c-4.6-0.3-6.2-4.6-5.9-9.4c0.4-6.3,4.3-13.4,9.2-13.1
		c4,0.3,4.1,3.1,4,4l0,0.4c-0.8-0.4-1.6-0.6-2.3-0.7c-4.5-0.3-7.1,5.9-7.4,10.9c-0.2,3.3,0.5,6.1,2.4,6.3c2.2,0.1,4.4-4.5,4.7-8.4
		c0.1-0.9,0-1.7-0.2-2.4c-1.1-0.5-2.6-1.3-2.5-2.8c0.1-1.3,1.2-2.7,2.4-2.6C812,490.4,814.2,490.9,814.8,493.6z"/>
		<path d="M535.8,502.4c0-0.2,0.2-0.2,0.3-0.2c0.1,0,0.3,0.1,0.4,0.1c1.2,1.4,3.2,1.9,3.1,3.9c-0.7,5.4-1.8,14.9-2.9,23.2
		c1.8-3.9,4.3-6.4,6.4-6.2c3.5,0.2,4.8,4.7,4.4,9.5c-0.6,8.7-6,13.3-10.2,13c-2.9-0.2-5.3-2.8-4.9-8.2c0-0.3,0.1-0.6,0.1-0.9
		c1.4-9.3,2.5-22.9,3.3-33.7L535.8,502.4z M535,539.5c-0.2,2.8,1.1,4.4,2.6,4.5c2.4,0.2,5.5-2.8,5.9-9.4c0.2-3.7-0.5-7-2.5-7.2
		c-2.3-0.2-5.5,5.4-5.9,11.2C535.1,539,535,539.2,535,539.5z"/>
		<path d="M560.5,539.2c0.1-0.9,0-1.8-0.3-2.8c0-0.1,0-0.3,0.6-0.3c1.9,0.1,2.2,2.3,2.1,4.1c-0.2,3.7-3.3,7.1-7.1,6.8
		c-5.3-0.4-7.2-5.2-6.9-10.3c0.4-6.2,4.1-12.9,9.1-12.5c2.3,0.2,3.5,1.9,3.3,4.3c-0.2,3.2-2.9,7.4-8.5,10.1c0,4.3,1.5,6.1,3.2,6.2
		C558.1,544.8,560.3,542.5,560.5,539.2z M557.7,527.1c-2.3-0.2-4.3,4.7-4.7,9.3c2.2-1.3,5.2-5.7,5.4-8.2
		C558.4,527.6,558.3,527.1,557.7,527.1z"/>
		<path d="M578.7,533.6c0.2,0.4,1.1,0.3,1.1,0.7c0,0.2-0.1,0.4-0.3,0.4c-0.9,0.4-4.9,0.4-7.5,0.2c-0.5,0-0.9-0.1-1.3-0.1
		c-0.4,0-0.5,0.4-0.5,0.4c2.5,4.8,3.4,13.7,2.9,21.6c-0.6,8.7-2.9,16.2-6.6,15.9c-3.9-0.3-4.8-4.3-4.5-9.9
		c0.5-8.1,3.8-19.8,4.6-28.2c0,0,0-0.7-0.7-0.7c-0.7,0-3.6-2.6-3.6-3.2c0-0.2,0.1-0.3,0.5-0.4c1-0.1,3.8-0.1,4.1-0.1
		c0.3,0,0.5-0.1,0.5-0.4c0,0,0.5-1.1,3.6-24.6c0-0.3,0-0.5,0.1-0.5c0.3,0,0.4,0,0.6,0.2c0.4,0.6,1.7,2.9,2.2,3.5
		c0.3,0.4,0.4,0.8,0.4,1.2c0,0.2,0,0.4-0.1,0.6c-1.4,6.9-2.8,13.7-4,20c2.1,0,4.9,0.1,4.9,0.1C576.5,530.5,577.9,532.1,578.7,533.6z
		 M565.3,569.9c1,0.1,3.6-10.2,4.2-19.3c0.3-4.5,0.1-8.7-1-11.2c-2.1,11.9-3.4,21-3.6,24.2C564.6,568,564.9,569.9,565.3,569.9z"/>
		<path d="M591.7,536.9c-0.6,5.7-4,11.6-8.4,11.3c-4.6-0.3-6.2-4.6-5.9-9.4c0.4-6.3,4.3-13.4,9.2-13.1c4,0.3,4.1,3.1,4,4l0,0.4
		c-0.8-0.4-1.6-0.6-2.3-0.7c-4.5-0.3-7.1,5.9-7.4,10.9c-0.2,3.3,0.5,6.1,2.4,6.3c2.4,0.2,4.5-4.7,4.7-8.9c0.2-2.5-0.3-4.7-1.5-5.5
		c0,0,1.8-0.8,3-1.1c1.5,2.6,2.8,3.6,3.8,3.7c0.7,0,1.3-0.2,1.8-0.8c-1.1-1.2-1.6-3.1-1.4-4.9c0.1-2.1,1.1-4,2.7-3.9
		c1.6,0.1,2.2,1.6,2,3.6c-0.1,1.4-0.6,3.1-1.4,4.5c0.3,0.2,0.7,0.3,1,0.3c2.8,0.2,5.9-4.9,6.4-4.9c0.7,0,1.6,1.5,1.6,2.2
		c0,0.4-0.2,0.7-0.2,0.7c-2.9,3.3-4.2,7.3-4.4,10.5c-0.2,3.7,0.8,5.7,2.2,5.8c1.3,0.1,3-1.6,4-5.3c0.1-0.4,0.1-0.6,0.8-1
		c0.2-0.1,0.3-0.1,0.3-0.1c0.1,0,0.1,0.1,0.1,0.2c0,0.1-0.1,0.3-0.1,0.3c-0.4,6.2-3.9,8.9-6.6,8.7c-2.5-0.2-5-2.2-4.7-6.7
		c0.2-2.4,1.1-5.4,3.2-9.2c-0.9,0.4-2,0.5-3.1,0.4c-0.5,0-1-0.2-1.3-0.3c-1.1,1.4-2.5,2.3-4.1,2.2L591.7,536.9z"/>
		<path d="M619,543.1c0.1-0.9,0-1.8-0.3-2.8c0-0.1,0-0.3,0.6-0.3c1.9,0.1,2.2,2.3,2.1,4.1c-0.2,3.7-3.3,7.1-7.1,6.8
		c-5.3-0.4-7.2-5.2-6.9-10.3c0.4-6.2,4.1-12.9,9.1-12.5c2.3,0.2,3.5,1.9,3.3,4.3c-0.2,3.2-2.9,7.4-8.5,10.1c0,4.3,1.5,6.1,3.2,6.2
		C616.5,548.7,618.8,546.5,619,543.1z M616.2,531c-2.3-0.2-4.3,4.7-4.7,9.3c2.2-1.3,5.2-5.7,5.4-8.2
		C616.9,531.6,616.8,531.1,616.2,531z"/>
		<path d="M647.6,511.7c0.1,0,0.2,0,0.2,0.1c1.1,0.8,3.5,0.9,3.4,2c-0.1,1.6-4.5,15.1-5.2,25.8c-0.4,5.6,0.2,10.4,3,12.4
		c0.1,0.1,0.2,0.2,0.2,0.4c0,0.3-0.2,0.5-0.4,0.5l-0.1,0c-3.6-1-5.2-4.4-5.7-9.1c-1.7,4.7-4.4,8.7-7,8.5c-3.9-0.3-5.2-3.9-4.9-8
		c0.4-6.2,4.4-13.6,9.4-13.3c1.3,0.1,2.3,0.6,3,1.3c0.9-7.7,2.8-15.6,3.6-20.3C647.1,511.9,647.3,511.7,647.6,511.7z M641.3,534.5
		c-2.3-0.2-6.5,4-7,11.5c-0.2,2.6,0.5,3.8,1.4,3.9c2.3,0.2,6.5-5.6,7-13.1C642.8,535.3,642.2,534.6,641.3,534.5z"/>
		<path d="M648.2,545.2l-0.1-0.3c-0.1-0.2-0.1-0.3-0.4-0.3c-0.3-0.2-0.4-0.3-0.5-0.3c0,0,0-0.1,0.1,0c0.4,0,1.4,0.2,2.2,0.3
		c0.1,0,0.2,0,0.4,0c-0.1-0.6,0-1.2,0-1.9c0.4-6,4-12.1,8.8-11.8c2.3,0.2,3.5,1.9,3.3,4.3c-0.2,3.1-2.7,7.1-8.1,9.9
		c0.4,3.5,1.9,6.5,5.2,6.7c2.2,0.1,4.2-0.5,5.9-1.7c-0.9-2.1-1.3-4.7-1.1-7.2c0.4-5.8,3.5-11.5,8.4-11.1c2.3,0.2,3.1,1.8,2.9,4.2
		c-0.2,3.7-2.9,9-6.7,12.9c0.6,2.1,1.8,3.6,3.5,3.7c1.1,0.1,3.2-1.1,3.8-2.3c0.6-0.1,0.7-0.8,0.9-0.8c0.2,0,0.2,0.3,0.2,0.5
		c-0.2,2.7-2,5.1-5.1,4.9c-2.8-0.2-4.8-1.6-6-3.6c-2.4,1.8-5,2.8-7.6,2.6c-4.9-0.3-7.4-3.7-8-7.8l-0.1,0c-0.6,0-1.1-0.1-1.3-0.2
		C648.3,545.7,648.2,545.4,648.2,545.2z M658.3,533.8c-2.3-0.2-4.1,4-4.4,8.3c0,0.5-0.1,1,0,1.5c2.7-1.5,5.3-5.8,5.5-8.2
		C659.4,534.5,659.1,533.9,658.3,533.8z M671.6,534c-2.1-0.1-3.5,3.8-3.8,8c-0.1,1.7-0.1,3.5,0.2,5c2.7-3.4,4.2-7.9,4.4-10.7
		C672.5,535,672.2,534.1,671.6,534z"/>
		<path d="M690.4,534.5c2.2,0.1,2.8,1.4,2.6,3.5c-0.4,5.8-0.6,8.7-1.1,10.5c1.9-3.5,4.9-12.2,8.1-14.8c0.2-0.1,0.3-0.1,0.4-0.1
		c0.6,0,2.3,1.3,2.2,2c0,0.1,0,0.2-0.1,0.3c-1.5,2.8-2.3,7.4-2.5,10.4c-0.2,3,0.5,6.2,2.1,6.4c0.7,0,1.5-0.3,2.4-1.2
		c0,0,0.1,0,0.2,0s0.2,0.1,0.1,0.2c-0.1,2.1-2.4,4-4.5,3.9c-4.1-0.3-4.3-6-4-10.3c0.1-1.7,0.3-3.1,0.4-3.9c-1.7,2.4-4,10.2-5.3,13.6
		c0,0.4-0.4,0.5-0.8,0.5c-1.3-0.1-2.8-0.2-2.7-0.9l0-0.1c0.3-1.8,1-7.3,1.3-11.3c0.2-2.6,0.2-4.6-0.2-4.7c-1.3-0.1-3.8,6.2-5.5,15.1
		c-0.1,1.1-0.8,1.5-1.7,1.5c-1.2-0.1-2.5-1-2.4-2.3c0.2-1.1,2.3-9.2,2.6-13.6c0.1-1.8-0.1-3-0.7-3c-0.8-0.1-2.3,1.3-3.6,3.4
		c0,0-0.2,0-0.4,0c-0.4,0-1-0.2-0.9-0.9c1.6-2.6,3.8-4.9,6.5-4.7c2.1,0.1,2.6,2.5,2.4,5.4c-0.2,2.3-0.7,5-1.3,7.2
		C686.2,539.5,688.5,534.4,690.4,534.5z"/>
		<path d="M715.6,549.6c0.1-0.9,0-1.8-0.3-2.8c0-0.1,0-0.3,0.6-0.3c1.9,0.1,2.2,2.3,2.1,4.1c-0.2,3.7-3.3,7.1-7.1,6.8
		c-5.3-0.4-7.2-5.2-6.9-10.3c0.4-6.2,4.1-12.9,9.1-12.5c2.3,0.2,3.5,1.9,3.3,4.3c-0.2,3.2-2.9,7.4-8.5,10.1c0,4.3,1.5,6.1,3.2,6.2
		C713.2,555.2,715.4,553,715.6,549.6z M712.8,537.5c-2.3-0.2-4.3,4.7-4.7,9.3c2.2-1.3,5.2-5.7,5.4-8.2
		C713.5,538.1,713.4,537.5,712.8,537.5z"/>
		<path d="M735.4,517.7c0.1,0,0.2,0,0.2,0.1c1.1,0.8,3.5,0.9,3.4,2c-0.5,2.8-4.6,15.2-5.3,24.5c-0.4,6,0.6,10.8,4.8,11
		c1.9,0.1,4.3-1,7.7-3.9c0.5-0.4,1.5-1.3,1.9-1.3c0.1,0,0.2,0.1,0.1,0.2c0,0.3-0.3,0.9-1,2.1l0.3,1c-2.2,5.1-5.5,7.4-8.6,7.2
		c-5.3-0.4-7.5-5-8.1-11.3c-1.6,4.8-4.5,9.1-7.2,8.9c-3.9-0.3-5.2-3.9-4.9-8c0.4-6.2,4.4-13.6,9.4-13.3c1.4,0.1,2.4,0.6,3.1,1.4
		c0.7-7.1,2.3-14.6,3.5-20.4C734.9,517.8,735.2,517.6,735.4,517.7z M729.1,540.4c-2.3-0.2-6.5,4-7,11.5c-0.2,2.6,0.5,3.8,1.4,3.9
		c2.3,0.2,6.5-5.6,7-13.1C730.6,541.2,730,540.5,729.1,540.4z"/>
		<path d="M541.6,582.6c0.9,0.3,2.2,0.8,2.1,1.4c-0.1,1.5-1.1,6.1-1.4,9.8c-0.2,2.6,0,4.7,1.3,4.8c1.1,0.1,2.6-0.9,3.2-2.1
		c0.6-0.1,0.7-0.8,0.9-0.8c0.2,0,0.2,0.3,0.2,0.5c-0.2,2.7-2.8,5-5.1,4.9c-2-0.1-3.9-2-4.1-6.7c-1.6,3.5-3.8,6.2-5.8,6
		c-3.6-0.2-4.8-4.1-4.6-8.5c0.4-6.4,4.2-14.1,9.1-13.8C540.2,578.4,541.4,580.2,541.6,582.6z M539.7,584.1c-0.8-1.2-1.6-1.8-2.4-1.8
		c-3.2-0.2-5.9,7.9-6.1,12c-0.1,2.1,0.3,3.6,1.3,3.7C536.8,598.2,539,588.1,539.7,584.1z"/>
		<path d="M557.1,579c2.1,0.1,3.5,1.8,3.5,5.4c0,0.3,0.1,0.6,0,0.8c-0.1,1.6-1.5,2.8-3.3,2.7c-1.1-0.1-1.5-0.5-1.4-0.8
		c0-0.1,0.1-0.2,0.2-0.1c0.4,0,1.5-1.9,1.6-3.1c0-0.4-0.1-0.7-0.3-0.8c-2.8,0-6.2,6-6.5,10.8c-0.3,3.9,1.8,6.1,3.8,6.3
		c1.9,0.1,3.7-1.5,4-4.9c0.1-1.1-0.1-2.3-0.4-3.6c0-0.1,0-0.3,0.6-0.3c1.5,0.1,2.5,2.4,2.3,4.9c-0.3,4.4-3.3,6.5-6.4,6.2
		c-3.8-0.3-7.7-3.7-7.3-10C547.8,585.9,552.1,578.6,557.1,579z"/>
		<path d="M589.3,599.4c0.6-0.1,0.7-0.8,0.9-0.8c0.2,0,0.2,0.3,0.2,0.5c-0.2,2.7-2,5.1-5.1,4.9c-2.6-0.2-4.6-1.4-5.8-3.3
		c-2.7,2-5.8,3.3-9,3.1c-6.2-0.4-8.4-5.5-8-10.9c0.4-6.5,4.5-13.4,9.6-13c2.1,0.1,3.5,1.8,3.5,5.4c0,0.3,0.1,0.6,0,0.8
		c-0.1,1.6-1.5,2.8-3.3,2.7c-1.1-0.1-1.5-0.5-1.4-0.8c0-0.1,0.1-0.2,0.2-0.1c0.4,0,1.5-1.9,1.6-3.1c0-0.4-0.1-0.7-0.3-0.8
		c-3,0.1-6,5.4-6.3,10.3c-0.3,3.9,1.2,7.4,5.7,7.7c2.7,0.2,5-0.8,7-2.4c-1-2.1-1.4-4.8-1.2-7.4c0.4-5.8,3.5-11.5,8.4-11.1
		c2.1,0.1,2.9,1.9,2.8,4.3c-0.2,3.7-2.7,9-6.5,13c0.6,2,1.7,3.3,3.4,3.4C586.6,601.9,588.7,600.6,589.3,599.4z M581.4,591.4
		c-0.1,1.7,0,3.5,0.2,5c2.6-3.6,4.1-8.1,4.2-10.8c0.1-1.3-0.1-2.2-0.7-2.3C583.1,583.2,581.7,587.1,581.4,591.4z"/>
		<path d="M593.9,602.1l-2.2,19.9c-0.1,1-0.4,1.4-0.8,1.4c-0.9-0.1-2.4-2.4-2.7-2.8c1.5-9.9,3-16.6,4.4-37.5c0,0,0.1-0.6,0.4-0.6
		c0.1,0,0.1,0.1,0.2,0.1c0.5,0.4,2.8,1.1,2.7,1.9c0,0.6-0.4,3.1-0.4,3.3c1.7-3.3,4.1-4.8,6.2-4.7c3.3,0.2,4.5,4.1,4.2,8.5
		c-0.4,6.1-3.8,13.3-8.6,13C595.8,604.5,594.6,603.6,593.9,602.1z M595.2,592.1l-0.8,6c0.1,2.7,0.8,4.3,2.4,4.5
		c2.8,0.2,4.8-5,5.1-9.3c0.2-3.1-0.4-5.8-2.3-5.9C598,587.3,596.2,588.9,595.2,592.1z"/>
		<path d="M612.8,569.1c0.1,0,0.2,0,0.2,0.1c1.1,0.8,3.5,0.9,3.4,2c0,0.7-0.9,3.3-1.9,6.9c3.5-0.2,6.4-0.6,7.2-0.5
		c0.6,0,1.5,0.1,1.5,0.5c0,0.4-0.6,0.3-0.8,0.6c-0.4,0.5-0.5,0.9-0.5,0.9c-0.9,0.4-4.4,1.5-8.3,2.2c-1.4,5.3-2.9,11.9-3.3,17.5
		c-0.3,4,0,7.6,1.3,9.9c0,0-0.1,0.7-0.8,0.7c-3.1-1.8-3.7-7.7-3.2-14.4c0.3-4.2,1-8.9,1.8-13.1c-1.1,0.1-2.3,0.1-3.3,0
		c-2.7-0.2-3.8-2.1-3.6-4.8c0-0.5,0.2-1.2,0.5-1.2c0.1,0,0.2,0.1,0.3,0.2c1.8,0.9,4.1,1.3,6.4,1.5l0.5,0c0.6-2.9,1.2-5.5,2-8.7
		C612.4,569.3,612.6,569.1,612.8,569.1z"/>
		<path d="M626.9,588.4c0.9,0.3,2.2,0.8,2.1,1.4c-0.1,1.5-1.1,6.1-1.4,9.8c-0.2,2.6,0,4.7,1.3,4.8c1.1,0.1,2.6-0.9,3.2-2.1
		c0.6-0.1,0.7-0.8,0.9-0.8c0.2,0,0.2,0.3,0.2,0.5c-0.2,2.7-2.8,5-5.1,4.9c-2-0.1-3.8-2-4.1-6.7c-1.6,3.5-3.8,6.2-5.8,6
		c-3.6-0.2-4.8-4.1-4.5-8.5c0.4-6.4,4.2-14.1,9.1-13.8C625.5,584.1,626.7,586,626.9,588.4z M625,589.8c-0.8-1.2-1.6-1.8-2.4-1.8
		c-3.2-0.2-5.9,7.9-6.1,12c-0.1,2.1,0.3,3.6,1.3,3.7C622,604,624.3,593.8,625,589.8z"/>
		<path d="M636.1,564.3c0-0.2,0.2-0.2,0.3-0.2c0.1,0,0.3,0.1,0.4,0.1c1.2,1.4,3.2,1.9,3.1,3.9c-0.7,5.4-1.8,14.9-2.9,23.2
		c1.8-3.9,4.3-6.4,6.4-6.2c3.5,0.2,4.8,4.7,4.4,9.5c-0.6,8.7-6,13.3-10.2,13c-2.9-0.2-5.3-2.8-4.9-8.2c0-0.3,0.1-0.6,0.1-0.9
		c1.4-9.3,2.5-22.9,3.3-33.7L636.1,564.3z M635.4,601.4c-0.2,2.8,1.1,4.4,2.7,4.5c2.4,0.2,5.5-2.8,5.9-9.4c0.2-3.7-0.5-7-2.5-7.2
		c-2.3-0.2-5.5,5.4-5.9,11.2C635.5,600.8,635.4,601.1,635.4,601.4z"/>
		<path d="M649.3,591.1c0.9-13,6.4-28.3,10.4-28c2.6,0.2,3.4,2.8,3.2,6.5c-0.5,7.6-5.6,20.1-10.7,27c0,5.7,1.4,10.2,5.1,10.4
		c1.5,0.1,2.9-0.3,4.1-1.1c-1.3-1.9-2-4.4-1.8-7.8c0.5-7.8,5.1-11.8,8.3-11.6c2.2,0.1,2.9,2.1,2.7,4.8c-0.2,3.5-2.7,9.9-6.4,14
		c0.9,1.7,2.3,2.2,3.8,2.3c5.3,0.4,13.5-5.5,17.4-12.9c0,0,0.2-0.2,0.4-0.2c0.2,0,0.3,0.1,0.2,0.5c0,0.2-0.1,0.5-0.2,0.8
		c0,0.5,0.4,0.6,0.3,1.1l0,0.1c-0.7,10-8.2,14.1-15.2,13.6c-3.2-0.2-6.5-1.3-8.7-3.6c-1.7,1.3-3.6,2.1-5.6,2
		C650.4,608.7,648.6,600.5,649.3,591.1z M659.7,569.6c-2.4-0.2-6.7,13-7.4,23.7l0,0.1c4.1-6.5,7.7-17.8,7.9-21.9
		C660.3,570.4,660.1,569.6,659.7,569.6z M667.7,589.6c-1.5-0.1-4,2.4-4.5,8.5c-0.2,2.6,0,4.6,0.4,6c3-3.5,4.7-9.1,4.9-11.9
		C668.7,590.6,668.5,589.6,667.7,589.6z"/>
	</g>
	<g>
		<g>
			<g>
				<path fill="#A6A6A6" d="M469.6,491.3c0.1-0.2-0.2-1,0.4-0.1c0.9,1.3,1.6,2.7,2.3,4.2c0.7,1.5,1.5,3,2.3,4.3
				c0-0.1,0.1-0.2,0.1-0.3l0-0.8c0.9-2.2,1.8-4.4,2.7-6.7c0.8-2.3,1.6-4.7,2.5-7c0.5-1.3,0.9-2.6,1.4-3.9c-0.1,0-0.2,0-0.1-0.2
				c0.3-1,1-2.2,1.6-3.6c0.1-0.2,0.1-0.4,0.2-0.6c0-0.2,0-0.2-0.1-0.3c0.3-0.6,0.5-1.1,0.8-1.6c2.5-6.8,5.5-13.5,9.4-20.5
				c0.7-1.5,1.5-3.1,2.4-4.5c1.3-2,3.3-4.4,4.9-6.2c-1-0.3,2.5-5,1-4.7c1.1-1.2,2.7-2.9,2.6-3.2c-0.3-0.8-0.1-2.3,2.6-5.7
				c0.5-0.6,1.3-1.3,1.9-1.9c0.1-0.1,0.3-0.3,0.4-0.4c0.1-0.1,0.2-0.2,0.2-0.3c0,0,0-0.1,0.1-0.1l0,0l0,0l0,0l0.1,0.1
				c0.6,0.4,1.1,0.6,1.5,0.7c-3.4-1.4-0.9-0.4-1.7-0.7l0,0l0,0l0,0l0,0l0,0l0,0l0,0c0,0,0,0,0-0.1c0,0,0-0.1,0-0.1
				c0,0-0.1,0-0.1,0.1l0,0l0,0l0,0l0,0c-0.4-0.2,3.6,1.5,1.9,0.8l0,0l0,0l-0.1,0l-0.2-0.1c-0.3-0.1-0.5-0.2-0.8-0.4
				c-0.1-0.1-0.3-0.2-0.4-0.3l-0.2-0.2c-0.1,0-0.2-0.1-0.1-0.1l-0.1,0c-0.1,0-0.3,0.1-0.4,0.2c-0.1,0-0.2,0-0.1-0.2
				c-0.3,0.4-0.9,0.9-1.4,1.4l-1.6,1.6c-1.1,1.1-2.2,2.2-3.2,3.3c-2.1,2.3-4.2,4.6-6.1,7.1c-3.9,4.9-7.4,10.1-10.7,15.5
				c-0.8,1.7-4,7.4-7.1,14.2c-1.5,3.4-3.1,7-4.4,10.4c-0.1,0.3-0.3,0.6-0.4,1l-0.1,0.2c-0.1,0.1-0.1,0.3-0.2,0.4
				c-0.1,0.2-0.1,0.5-0.2,0.5c-0.1-0.2-0.2-0.4-0.3-0.5l0-0.1c-0.1-0.1-0.1-0.2-0.2-0.3c-0.3-0.4-0.7-0.9-1-1.3
				c-0.4-0.4-0.8-0.9-1.1-1.3c-0.7-0.9-1.6-1.6-2.3-2.4c-0.8-0.7-1.6-1.3-2.3-1.9c-0.7-0.5-1.4-0.9-2.1-1.3
				c-0.7-0.4-1.5-0.8-2.2-1.2c0.6,0.6,1,1.1,1.4,1.6c-1.3-1.1-2.7-2-3.3-2.2c-1.6-0.8-2.1-0.8-2-0.5c0.1,0.3,0.7,1,1,1.6
				c0.6,0.7-0.6,0.4,0.4,1.4c-0.9-0.6-1.3-0.9-2.2-1.4c-0.2,0.1,2.8,1.6,1.9,1.6c-0.8-0.6-1.8-1.1-2.7-1.6c0.2,0.4,3,2,2.6,2.2
				c-0.5-0.3-2.2-2-2.6-1.7c-0.1,0.1,0.8,0.6,1.2,0.9c-1.4-0.8-2.5-1.2-3-1.3c-0.5,0-0.3,0.3,0.8,1.1c-0.4-0.2-0.9-0.6-1.4-0.8
				c-0.5-0.3-1.1-0.6-1.4-0.7l0,0c0.3,0.1,1.1,0.6,1.5,0.8c-0.5-0.3-1-0.5-1.5-0.7c0,0.1,0.1,0.2,0.2,0.3c0.3,0.2,0.7,0.4,1.1,0.6
				c-0.3-0.2-0.7-0.3-1-0.5c0.2,0.2,0.4,0.5,0.7,0.7c1.1,0.8,2,1.8,2.6,2.2c2.4,1.6,4.7,3.5,6.7,5.6l1.5,1.6
				c0.5,0.6,0.9,1.1,1.4,1.7c0.2,0.3,0.5,0.6,0.7,0.9l1,1.4c0.5,0.6,0.9,1.3,1.3,2.1L469.6,491.3z"/>
			</g>
		</g>
	</g>
</svg>
