<?xml version="1.0" encoding="utf-8"?>
<!-- Generator: Adobe Illustrator 17.1.0, SVG Export Plug-In . SVG Version: 6.00 Build 0)  -->
<!DOCTYPE svg PUBLIC "-//W3C//DTD SVG 1.1//EN" "http://www.w3.org/Graphics/SVG/1.1/DTD/svg11.dtd">
<svg version="1.1" id="Layer_1" xmlns="http://www.w3.org/2000/svg" xmlns:xlink="http://www.w3.org/1999/xlink" x="0px" y="0px" viewBox="0 0 1280 800" enable-background="new 0 0 1280 800" xml:space="preserve">
	<g>
		<path fill="#CCCCCC" d="M984.3,673H295.7c-13.1,0-23.8-11.1-23.8-24.8V151.8c0-13.7,10.7-24.8,23.8-24.8h688.5
		c13.1,0,23.8,11.1,23.8,24.8v496.5C1008.1,661.9,997.4,673,984.3,673z"/>
		<path fill="#F2F2F2" d="M943.1,631H336.9c-11.6,0-21-9.4-21-21V190c0-11.6,9.4-21,21-21h606.3c11.6,0,21,9.4,21,21V610
		C964.1,621.6,954.7,631,943.1,631z"/>
	</g>
	<g>
		<path d="M417.4,221.8c4.8,0,8.4,1.7,11.6,4.5c0.4,0.4,0.4,1,0,1.3l-1.3,1.3c-0.4,0.5-0.8,0.4-1.2,0c-2.5-2.2-5.9-3.6-9.2-3.6
		c-7.6,0-13.4,6.4-13.4,13.8c0,7.4,5.8,13.8,13.4,13.8c4.2,0,6.6-1.7,9.2-3.6c0.5-0.4,0.9-0.3,1.2-0.1l1.4,1.3c0.4,0.3,0.3,1,0,1.3
		c-3.3,3.2-7.4,4.7-11.7,4.7c-9.6,0-17.3-7.6-17.3-17.2C400,229.6,407.8,221.8,417.4,221.8z"/>
		<path d="M442.5,236.2c5.3,0,9.6,4.6,9.6,10c0,5.5-4.2,10.1-9.6,10.1c-5.3,0-9.6-4.6-9.6-10.1C433,240.9,437.2,236.2,442.5,236.2z
		 M442.5,253.3c3.5,0,6.2-3.1,6.2-7c0-3.8-2.7-6.9-6.2-6.9s-6.2,3.1-6.2,6.9C436.3,250.2,439,253.3,442.5,253.3z"/>
		<path d="M465.3,236.2c3.2,0,5.1,1.2,5.1,1.2v-14.3c0-0.5,0.4-0.9,0.9-0.9h1.5c0.5,0,0.9,0.4,0.9,0.9V255c0,0.5-0.4,0.9-0.9,0.9h-1
		c-0.4,0-0.7-0.3-0.8-0.8l-0.3-1.3c0,0-2.3,2.5-5.9,2.5c-4.9,0-8.7-4.6-8.7-10.1C456.1,240.7,459.6,236.2,465.3,236.2z M465.2,253.4
		c3.5,0,5.2-3.2,5.2-3.2v-9.6c0,0-2-1.2-4.7-1.2c-4.2,0-6.3,3-6.3,6.9C459.5,250.1,461.7,253.4,465.2,253.4z"/>
		<path d="M488.7,236.2c5,0,8.7,3.7,8.7,8.8c0,0.3,0,1-0.1,1.3c0,0.5-0.4,0.8-0.9,0.8h-13.8c0.2,3.2,3,6.2,6.4,6.2
		c2,0,3.6-0.8,4.8-1.4c0.7-0.4,1-0.6,1.3-0.1c0.3,0.4,0.5,0.7,0.8,1.1c0.3,0.4,0.5,0.7-0.2,1.2c-1.2,0.9-3.7,2.2-7.1,2.2
		c-5.8,0-9.4-4.6-9.4-10.1C479.2,240.9,482.8,236.2,488.7,236.2z M494,244.5c-0.1-2.8-2.4-5.3-5.4-5.3c-3.2,0-5.7,2.3-6,5.3H494z"/>
		<path d="M514.5,249.5c0,0-1.5-2-1.5-4.8c0-4.5,3.1-8.4,8.1-8.4h8.1c0.5,0,0.9,0.4,0.9,0.9v0.8c0,0.3-0.2,0.8-0.5,0.8l-2.6,0.5
		c0,0,2.2,1.6,2.2,5.4c0,4.4-3.1,8.2-8.1,8.2c-3.1,0-4.6-1.2-4.6-1.2s-2.1,1-2.1,2.9c0,1.2,0.9,2.4,2.6,2.4h6.9c4,0,7.2,2,7.2,6.1
		c0,4-4.1,7.8-9.9,7.8c-6.4,0-9.2-3.5-9.2-6.6c0-2.9,2.3-4.2,2.8-4.5v-0.1c-1.2-0.3-3.5-1.6-3.5-4.6
		C511.3,251.4,514.5,249.5,514.5,249.5z M521.2,267.7c3.2,0,6.4-1.8,6.4-4.6c0-0.6-0.3-3.1-3.6-3.1c-1.8,0-3.6,0-5.3,0
		c0,0-3.2,0.9-3.2,3.7C515.4,266,517.9,267.7,521.2,267.7z M526,244.6c0-3.2-1.9-5.4-4.8-5.4c-2.9,0-5,2.2-5,5.4
		c0,3.2,2.1,5.4,5,5.4C524,250,526,247.8,526,244.6z"/>
		<path d="M535,237.6c0-0.5,0.4-0.9,0.9-0.9h1.5c0.5,0,0.9,0.4,0.9,0.9v10.1c0,3.6,1.6,5.4,4.3,5.4c3.6,0,5.7-2.7,5.7-2.7
		c0-1.1,0-2.2,0-12.8c0-0.5,0.4-0.9,0.9-0.9h1.5c0.5,0,0.9,0.4,0.9,0.9V255c0,0.5-0.4,0.9-0.9,0.9h-0.9c-0.5,0-0.7-0.3-0.9-0.8
		l-0.3-1.2c0,0-2.3,2.5-6.2,2.5c-5.6,0-7.4-3.6-7.4-8.7V237.6z"/>
		<path d="M557.9,225.6c0-1.3,1-2.3,2.3-2.3c1.3,0,2.3,1,2.3,2.3c0,1.2-1,2.3-2.3,2.3C558.9,227.8,557.9,226.8,557.9,225.6z
		 M558.5,237.6c0-0.5,0.4-0.9,0.9-0.9h1.5c0.5,0,0.9,0.4,0.9,0.9V255c0,0.5-0.4,0.9-0.9,0.9h-1.5c-0.5,0-0.9-0.4-0.9-0.9V237.6z"/>
		<path d="M576.5,236.2c3.2,0,5.1,1.2,5.1,1.2v-14.3c0-0.5,0.4-0.9,0.9-0.9h1.5c0.5,0,0.9,0.4,0.9,0.9V255c0,0.5-0.4,0.9-0.9,0.9h-1
		c-0.4,0-0.7-0.3-0.8-0.8l-0.3-1.3c0,0-2.3,2.5-5.9,2.5c-4.9,0-8.7-4.6-8.7-10.1C567.3,240.7,570.7,236.2,576.5,236.2z M576.4,253.4
		c3.5,0,5.2-3.2,5.2-3.2v-9.6c0,0-2-1.2-4.7-1.2c-4.2,0-6.3,3-6.3,6.9C570.6,250.1,572.8,253.4,576.4,253.4z"/>
		<path d="M599.8,236.2c5,0,8.7,3.7,8.7,8.8c0,0.3,0,1-0.1,1.3c0,0.5-0.4,0.8-0.9,0.8h-13.8c0.2,3.2,3,6.2,6.4,6.2
		c2,0,3.6-0.8,4.8-1.4c0.7-0.4,1-0.6,1.3-0.1c0.3,0.4,0.5,0.7,0.8,1.1c0.3,0.4,0.5,0.7-0.2,1.2c-1.2,0.9-3.7,2.2-7.1,2.2
		c-5.8,0-9.4-4.6-9.4-10.1C590.4,240.9,594,236.2,599.8,236.2z M605.2,244.5c-0.1-2.8-2.4-5.3-5.4-5.3c-3.2,0-5.7,2.3-6,5.3H605.2z"
		/>
		<path d="M613.8,223.2c0-0.5,0.4-0.9,0.9-0.9h1.5c0.5,0,0.9,0.4,0.9,0.9V255c0,0.5-0.4,0.9-0.9,0.9h-1.5c-0.5,0-0.9-0.4-0.9-0.9
		V223.2z"/>
		<path d="M623.3,225.6c0-1.3,1-2.3,2.3-2.3c1.3,0,2.3,1,2.3,2.3c0,1.2-1,2.3-2.3,2.3C624.3,227.8,623.3,226.8,623.3,225.6z
		 M624,237.6c0-0.5,0.4-0.9,0.9-0.9h1.5c0.5,0,0.9,0.4,0.9,0.9V255c0,0.5-0.4,0.9-0.9,0.9h-1.5c-0.5,0-0.9-0.4-0.9-0.9V237.6z"/>
		<path d="M634.1,237.6c0-0.5,0.4-0.9,0.9-0.9h0.9c0.4,0,0.7,0.2,0.8,0.6l0.4,1.5c0,0,2.7-2.5,6.7-2.5c5.6,0,7.4,3.6,7.4,8.6V255
		c0,0.5-0.4,0.9-0.9,0.9h-1.5c-0.5,0-0.9-0.4-0.9-0.9v-10.1c0-3.6-1.6-5.4-4.3-5.4c-3.6,0-6.2,2.7-6.2,2.7V255
		c0,0.5-0.4,0.9-0.9,0.9H635c-0.5,0-0.9-0.4-0.9-0.9V237.6z"/>
		<path d="M665.9,236.2c5,0,8.7,3.7,8.7,8.8c0,0.3,0,1-0.1,1.3c0,0.5-0.4,0.8-0.9,0.8h-13.8c0.2,3.2,3,6.2,6.4,6.2
		c2,0,3.6-0.8,4.8-1.4c0.7-0.4,1-0.6,1.3-0.1c0.3,0.4,0.5,0.7,0.8,1.1c0.3,0.4,0.5,0.7-0.2,1.2c-1.2,0.9-3.7,2.2-7.1,2.2
		c-5.8,0-9.4-4.6-9.4-10.1C656.5,240.9,660.1,236.2,665.9,236.2z M671.2,244.5c-0.1-2.8-2.4-5.3-5.4-5.3c-3.2,0-5.7,2.3-6,5.3H671.2
		z"/>
		<path d="M678.6,253.2c0.2-0.3,0.5-1,0.7-1.2c0.2-0.4,0.8-0.5,1.3-0.1c0,0,2.1,1.7,4.5,1.7c2,0,3.1-1,3.1-2.3c0-1.7-1.4-2.4-4.2-3.8
		c-2.5-1.2-5.5-2.9-5.5-6.2c0-2,1.6-5,6.1-5c2.5,0,4.4,0.9,5.3,1.5c0.4,0.3,0.6,1,0.3,1.5l-0.4,0.8c-0.3,0.5-1,0.7-1.4,0.4
		c0,0-2.1-1.2-3.8-1.2c-2.2,0-2.7,1.1-2.7,1.9c0,1.6,1.6,2.3,3.6,3.3c3.3,1.6,6.3,3.1,6.3,6.5c0,2.8-2.7,5.4-6.6,5.4
		c-3.2,0-5.2-1.3-6.2-2.2C678.6,254.1,678.5,253.6,678.6,253.2z"/>
	</g>
	<circle fill="#B3B3B3" cx="372.3" cy="240.7" r="9.3"/>
	<g>
		<path d="M402.5,317.2c0-0.5,0.4-0.9,0.9-0.9H414c5.9,0,10.8,4.8,10.8,10.6c0,6-4.8,10.8-10.7,10.8h-7.9V349c0,0.5-0.4,0.9-0.9,0.9
		h-1.8c-0.5,0-0.9-0.4-0.9-0.9V317.2z M413.8,334.2c3.9,0,7.3-3.2,7.3-7.3c0-3.9-3.4-6.9-7.3-6.9h-7.6v14.2H413.8z"/>
		<path d="M435.8,330.2c5,0,8.7,3.7,8.7,8.8c0,0.3,0,1-0.1,1.3c0,0.5-0.4,0.8-0.9,0.8h-13.8c0.2,3.2,3,6.2,6.4,6.2
		c2,0,3.6-0.8,4.8-1.4c0.7-0.4,1-0.6,1.3-0.1c0.3,0.4,0.5,0.7,0.8,1.1c0.3,0.4,0.5,0.7-0.2,1.2c-1.2,0.9-3.7,2.2-7.1,2.2
		c-5.8,0-9.4-4.6-9.4-10.1C426.4,334.9,430,330.2,435.8,330.2z M441.1,338.5c-0.1-2.8-2.4-5.3-5.4-5.3c-3.2,0-5.7,2.3-6,5.3H441.1z"
		/>
		<path d="M449.7,331.6c0-0.5,0.4-0.9,0.9-0.9h0.9c0.4,0,0.7,0.2,0.8,0.7l0.4,1.4c0,0,1.8-2.5,5.8-2.5c1.4,0,3.8,0.2,3.4,1.6
		l-0.6,1.6c-0.2,0.6-0.7,0.6-1.2,0.4c-0.4-0.2-1.2-0.4-1.9-0.4c-3.6,0-5.2,2.7-5.2,2.7V349c0,0.5-0.4,0.9-0.9,0.9h-1.5
		c-0.5,0-0.9-0.4-0.9-0.9V331.6z"/>
		<path d="M464.6,347.2c0.2-0.3,0.5-1,0.7-1.2c0.2-0.4,0.8-0.5,1.3-0.1c0,0,2.1,1.7,4.5,1.7c2,0,3.1-1,3.1-2.3c0-1.7-1.4-2.4-4.2-3.8
		c-2.5-1.2-5.5-2.9-5.5-6.2c0-2,1.6-5,6.1-5c2.5,0,4.4,0.9,5.3,1.5c0.4,0.3,0.6,1,0.3,1.5l-0.4,0.8c-0.3,0.5-1,0.7-1.4,0.4
		c0,0-2.1-1.2-3.8-1.2c-2.2,0-2.7,1.1-2.7,1.9c0,1.6,1.6,2.3,3.6,3.3c3.3,1.6,6.3,3.1,6.3,6.5c0,2.8-2.7,5.4-6.6,5.4
		c-3.2,0-5.2-1.3-6.2-2.2C464.6,348.1,464.4,347.6,464.6,347.2z"/>
		<path d="M491,330.2c5.3,0,9.6,4.6,9.6,10c0,5.5-4.2,10.1-9.6,10.1c-5.3,0-9.6-4.6-9.6-10.1C481.4,334.9,485.6,330.2,491,330.2z
		 M491,347.3c3.5,0,6.2-3.1,6.2-7c0-3.8-2.7-6.9-6.2-6.9s-6.2,3.1-6.2,6.9C484.7,344.2,487.5,347.3,491,347.3z"/>
		<path d="M505.9,331.6c0-0.5,0.4-0.9,0.9-0.9h0.9c0.4,0,0.7,0.2,0.8,0.6l0.4,1.5c0,0,2.7-2.5,6.7-2.5c5.6,0,7.4,3.6,7.4,8.6V349
		c0,0.5-0.4,0.9-0.9,0.9h-1.5c-0.5,0-0.9-0.4-0.9-0.9v-10.1c0-3.6-1.6-5.4-4.3-5.4c-3.6,0-6.2,2.7-6.2,2.7V349
		c0,0.5-0.4,0.9-0.9,0.9h-1.5c-0.5,0-0.9-0.4-0.9-0.9V331.6z"/>
		<path d="M536,337.7c2.1,0,4.1,0.6,4.1,0.6c0-3.6-0.4-5.2-3.1-5.2c-2.6,0-4.9,0.7-5.8,1.1c-0.5,0.2-0.8,0-0.9-0.5l-0.4-1.2
		c-0.2-0.6,0.1-0.9,0.5-1.1c0.3-0.1,3.1-1.2,6.7-1.2c4.9,0,6.1,2.5,6.1,8.1V349c0,0.5-0.4,0.9-0.9,0.9h-0.9c-0.5,0-0.7-0.3-0.8-0.7
		l-0.4-1.3c-1,1-3,2.5-6,2.5c-3.4,0-5.9-2.4-5.9-6.3C528.3,340.5,531,337.7,536,337.7z M534.7,347.5c2.4,0,4.5-1.5,5.3-2.7V341
		c-0.6-0.3-1.9-0.8-4-0.8c-2.7,0-4.6,1.3-4.6,3.8C531.4,346,532.7,347.5,534.7,347.5z"/>
		<path d="M549.9,317.2c0-0.5,0.4-0.9,0.9-0.9h1.5c0.5,0,0.9,0.4,0.9,0.9V349c0,0.5-0.4,0.9-0.9,0.9h-1.5c-0.5,0-0.9-0.4-0.9-0.9
		V317.2z"/>
		<path d="M570.8,317.2c0-0.5,0.4-0.9,0.9-0.9h1.5c0.5,0,0.9,0.4,0.9,0.9v14.3c0,0,2-1.2,5.1-1.2c5.8,0,9.2,4.4,9.2,10
		c0,5.5-3.8,10.1-8.7,10.1c-3.6,0-5.9-2.5-5.9-2.5l-0.3,1.3c-0.1,0.4-0.4,0.8-0.8,0.8h-1c-0.5,0-0.9-0.4-0.9-0.9V317.2z
		 M579.4,347.4c3.5,0,5.7-3.3,5.7-7.1c0-3.8-2.1-6.9-6.3-6.9c-2.6,0-4.7,1.2-4.7,1.2v9.6C574.1,344.2,575.9,347.4,579.4,347.4z"/>
		<path d="M602,330.2c5.3,0,9.6,4.6,9.6,10c0,5.5-4.2,10.1-9.6,10.1c-5.3,0-9.6-4.6-9.6-10.1C592.5,334.9,596.7,330.2,602,330.2z
		 M602,347.3c3.5,0,6.2-3.1,6.2-7c0-3.8-2.7-6.9-6.2-6.9s-6.2,3.1-6.2,6.9C595.8,344.2,598.5,347.3,602,347.3z"/>
		<path d="M616.3,319.6c0-1.3,1-2.3,2.3-2.3c1.3,0,2.3,1,2.3,2.3c0,1.2-1,2.3-2.3,2.3C617.3,321.8,616.3,320.8,616.3,319.6z
		 M617,331.6c0-0.5,0.4-0.9,0.9-0.9h1.5c0.5,0,0.9,0.4,0.9,0.9V349c0,0.5-0.4,0.9-0.9,0.9h-1.5c-0.5,0-0.9-0.4-0.9-0.9V331.6z"/>
		<path d="M627.2,317.2c0-0.5,0.4-0.9,0.9-0.9h1.5c0.5,0,0.9,0.4,0.9,0.9V349c0,0.5-0.4,0.9-0.9,0.9h-1.5c-0.5,0-0.9-0.4-0.9-0.9
		V317.2z"/>
		<path d="M645.4,330.2c5,0,8.7,3.7,8.7,8.8c0,0.3,0,1-0.1,1.3c0,0.5-0.4,0.8-0.9,0.8h-13.8c0.2,3.2,3,6.2,6.4,6.2
		c2,0,3.6-0.8,4.8-1.4c0.7-0.4,1-0.6,1.3-0.1c0.3,0.4,0.5,0.7,0.8,1.1c0.3,0.4,0.5,0.7-0.2,1.2c-1.2,0.9-3.7,2.2-7.1,2.2
		c-5.8,0-9.4-4.6-9.4-10.1C636,334.9,639.6,330.2,645.4,330.2z M650.8,338.5c-0.1-2.8-2.4-5.3-5.4-5.3c-3.2,0-5.7,2.3-6,5.3H650.8z"
		/>
		<path d="M659.3,331.6c0-0.5,0.4-0.9,0.9-0.9h0.9c0.4,0,0.7,0.2,0.8,0.7l0.4,1.4c0,0,1.8-2.5,5.8-2.5c1.4,0,3.8,0.2,3.4,1.6
		l-0.6,1.6c-0.2,0.6-0.7,0.6-1.2,0.4c-0.4-0.2-1.2-0.4-1.9-0.4c-3.6,0-5.2,2.7-5.2,2.7V349c0,0.5-0.4,0.9-0.9,0.9h-1.5
		c-0.5,0-0.9-0.4-0.9-0.9V331.6z"/>
		<path d="M678.7,363.4c0,0.5-0.4,0.9-0.9,0.9h-1.5c-0.5,0-0.9-0.4-0.9-0.9v-31.8c0-0.5,0.4-0.9,0.9-0.9h1c0.4,0,0.6,0.1,0.8,0.6
		l0.3,0.9c0,0,2.1-2,5.6-2c5.2,0,9.1,4.6,9.1,10.1c0,5.6-3.9,10-9.2,10c-3.2,0-5.1-1.6-5.1-1.6V363.4z M683.4,347.2
		c3.7,0,6.3-3,6.3-6.9c0-3.7-2.2-7.1-6-7.1c-3.1,0-4.9,2.4-4.9,2.4v9.9C678.7,345.5,680.8,347.2,683.4,347.2z"/>
		<path d="M698.5,317.2c0-0.5,0.4-0.9,0.9-0.9h1.5c0.5,0,0.9,0.4,0.9,0.9V349c0,0.5-0.4,0.9-0.9,0.9h-1.5c-0.5,0-0.9-0.4-0.9-0.9
		V317.2z"/>
		<path d="M715,337.7c2.1,0,4.1,0.6,4.1,0.6c0-3.6-0.4-5.2-3.1-5.2c-2.6,0-4.9,0.7-5.8,1.1c-0.5,0.2-0.8,0-0.9-0.5l-0.4-1.2
		c-0.2-0.6,0.1-0.9,0.5-1.1c0.3-0.1,3.1-1.2,6.7-1.2c4.9,0,6.1,2.5,6.1,8.1V349c0,0.5-0.4,0.9-0.9,0.9h-0.9c-0.5,0-0.7-0.3-0.8-0.7
		l-0.4-1.3c-1,1-3,2.5-6,2.5c-3.4,0-5.9-2.4-5.9-6.3C707.3,340.5,710,337.7,715,337.7z M713.7,347.5c2.4,0,4.5-1.5,5.3-2.7V341
		c-0.6-0.3-1.9-0.8-4-0.8c-2.7,0-4.6,1.3-4.6,3.8C710.4,346,711.7,347.5,713.7,347.5z"/>
		<path d="M730.1,333.6h-2.4c-0.5,0-0.9-0.4-0.9-0.9v-1.1c0-0.5,0.4-0.9,0.9-0.9h2.4v-5.3c0-0.5,0.4-0.9,0.9-0.9l1.5-0.1
		c0.5,0,0.9,0.4,0.9,0.9v5.4h5.6c0.5,0,0.9,0.4,0.9,0.9v1.1c0,0.5-0.4,0.9-0.9,0.9h-5.6v11.2c0,1.9,0.5,2.3,1.6,2.3
		c1.2,0,2.9-0.7,3.5-1.1c0.7-0.4,0.9-0.1,1.2,0.3l0.7,1.2c0.3,0.6,0.2,0.9-0.3,1.2c-0.7,0.4-3.3,1.6-5.5,1.6c-3.8,0-4.4-2.3-4.4-5.3
		V333.6z"/>
		<path d="M753.3,330.2c5,0,8.7,3.7,8.7,8.8c0,0.3,0,1-0.1,1.3c0,0.5-0.4,0.8-0.9,0.8h-13.8c0.2,3.2,3,6.2,6.4,6.2
		c2,0,3.6-0.8,4.8-1.4c0.7-0.4,1-0.6,1.3-0.1c0.3,0.4,0.5,0.7,0.8,1.1c0.3,0.4,0.5,0.7-0.2,1.2c-1.2,0.9-3.7,2.2-7.1,2.2
		c-5.8,0-9.4-4.6-9.4-10.1C743.9,334.9,747.5,330.2,753.3,330.2z M758.7,338.5c-0.1-2.8-2.4-5.3-5.4-5.3c-3.2,0-5.7,2.3-6,5.3H758.7
		z"/>
		<path d="M407.3,386.7c2.1,0,4.1,0.6,4.1,0.6c0-3.6-0.4-5.2-3.1-5.2c-2.6,0-4.9,0.7-5.8,1.1c-0.5,0.2-0.8,0-0.9-0.5l-0.4-1.2
		c-0.2-0.6,0.1-0.9,0.5-1.1c0.3-0.1,3.1-1.2,6.7-1.2c4.9,0,6.1,2.5,6.1,8.1V398c0,0.5-0.4,0.9-0.9,0.9h-0.9c-0.5,0-0.7-0.3-0.8-0.7
		l-0.4-1.3c-1,1-3,2.5-6,2.5c-3.4,0-5.9-2.4-5.9-6.3C399.6,389.5,402.4,386.7,407.3,386.7z M406,396.5c2.4,0,4.5-1.5,5.3-2.7V390
		c-0.6-0.3-1.9-0.8-4-0.8c-2.7,0-4.6,1.3-4.6,3.8C402.7,395,404,396.5,406,396.5z"/>
		<path d="M421.2,380.6c0-0.5,0.4-0.9,0.9-0.9h0.9c0.4,0,0.7,0.2,0.8,0.6l0.4,1.5c0,0,2.7-2.5,6.7-2.5c5.6,0,7.4,3.6,7.4,8.6V398
		c0,0.5-0.4,0.9-0.9,0.9h-1.5c-0.5,0-0.9-0.4-0.9-0.9v-10.1c0-3.6-1.6-5.4-4.3-5.4c-3.6,0-6.2,2.7-6.2,2.7V398
		c0,0.5-0.4,0.9-0.9,0.9h-1.5c-0.5,0-0.9-0.4-0.9-0.9V380.6z"/>
		<path d="M452.8,379.2c3.2,0,5.1,1.2,5.1,1.2v-14.3c0-0.5,0.4-0.9,0.9-0.9h1.5c0.5,0,0.9,0.4,0.9,0.9V398c0,0.5-0.4,0.9-0.9,0.9h-1
		c-0.4,0-0.7-0.3-0.8-0.8l-0.3-1.3c0,0-2.3,2.5-5.9,2.5c-4.9,0-8.7-4.6-8.7-10.1C443.5,383.7,447,379.2,452.8,379.2z M452.6,396.4
		c3.5,0,5.2-3.2,5.2-3.2v-9.6c0,0-2-1.2-4.7-1.2c-4.2,0-6.3,3-6.3,6.9C446.9,393.1,449.1,396.4,452.6,396.4z"/>
		<path d="M482.1,412.4c0,0.5-0.4,0.9-0.9,0.9h-1.5c-0.5,0-0.9-0.4-0.9-0.9v-31.8c0-0.5,0.4-0.9,0.9-0.9h1c0.4,0,0.6,0.1,0.8,0.6
		l0.3,0.9c0,0,2.1-2,5.6-2c5.2,0,9.1,4.6,9.1,10.1c0,5.6-3.9,10-9.2,10c-3.2,0-5.1-1.6-5.1-1.6V412.4z M486.8,396.2
		c3.7,0,6.3-3,6.3-6.9c0-3.7-2.2-7.1-6-7.1c-3.1,0-4.9,2.4-4.9,2.4v9.9C482.1,394.5,484.1,396.2,486.8,396.2z"/>
		<path d="M508.1,386.7c2.1,0,4.1,0.6,4.1,0.6c0-3.6-0.4-5.2-3.1-5.2c-2.6,0-4.9,0.7-5.8,1.1c-0.5,0.2-0.8,0-0.9-0.5l-0.4-1.2
		c-0.2-0.6,0.1-0.9,0.5-1.1c0.3-0.1,3.1-1.2,6.7-1.2c4.9,0,6.1,2.5,6.1,8.1V398c0,0.5-0.4,0.9-0.9,0.9h-0.9c-0.5,0-0.7-0.3-0.8-0.7
		l-0.4-1.3c-1,1-3,2.5-6,2.5c-3.4,0-5.9-2.4-5.9-6.3C500.5,389.5,503.2,386.7,508.1,386.7z M506.9,396.5c2.4,0,4.5-1.5,5.3-2.7V390
		c-0.6-0.3-1.9-0.8-4-0.8c-2.7,0-4.6,1.3-4.6,3.8C503.5,395,504.8,396.5,506.9,396.5z"/>
		<path d="M523.3,382.6h-2.4c-0.5,0-0.9-0.4-0.9-0.9v-1.1c0-0.5,0.4-0.9,0.9-0.9h2.4v-5.3c0-0.5,0.4-0.9,0.9-0.9l1.5-0.1
		c0.5,0,0.9,0.4,0.9,0.9v5.4h5.6c0.5,0,0.9,0.4,0.9,0.9v1.1c0,0.5-0.4,0.9-0.9,0.9h-5.6v11.2c0,1.9,0.5,2.3,1.6,2.3
		c1.2,0,2.9-0.7,3.5-1.1c0.7-0.4,0.9-0.1,1.2,0.3l0.7,1.2c0.3,0.6,0.2,0.9-0.3,1.2c-0.7,0.4-3.3,1.6-5.5,1.6c-3.8,0-4.4-2.3-4.4-5.3
		V382.6z"/>
		<path d="M539.7,382.6h-2.4c-0.5,0-0.9-0.4-0.9-0.9v-1.1c0-0.5,0.4-0.9,0.9-0.9h2.4v-5.3c0-0.5,0.4-0.9,0.9-0.9l1.5-0.1
		c0.5,0,0.9,0.4,0.9,0.9v5.4h5.6c0.5,0,0.9,0.4,0.9,0.9v1.1c0,0.5-0.4,0.9-0.9,0.9H543v11.2c0,1.9,0.5,2.3,1.6,2.3
		c1.2,0,2.9-0.7,3.5-1.1c0.7-0.4,0.9-0.1,1.2,0.3l0.7,1.2c0.3,0.6,0.2,0.9-0.3,1.2c-0.7,0.4-3.3,1.6-5.5,1.6c-3.8,0-4.4-2.3-4.4-5.3
		V382.6z"/>
		<path d="M562.9,379.2c5,0,8.7,3.7,8.7,8.8c0,0.3,0,1-0.1,1.3c0,0.5-0.4,0.8-0.9,0.8h-13.8c0.2,3.2,3,6.2,6.4,6.2
		c2,0,3.6-0.8,4.8-1.4c0.7-0.4,1-0.6,1.3-0.1c0.3,0.4,0.5,0.7,0.8,1.1c0.3,0.4,0.5,0.7-0.2,1.2c-1.2,0.9-3.7,2.2-7.1,2.2
		c-5.8,0-9.4-4.6-9.4-10.1C553.5,383.9,557.1,379.2,562.9,379.2z M568.2,387.5c-0.1-2.8-2.4-5.3-5.4-5.3c-3.2,0-5.7,2.3-6,5.3H568.2
		z"/>
		<path d="M576.8,380.6c0-0.5,0.4-0.9,0.9-0.9h0.9c0.4,0,0.7,0.2,0.8,0.7l0.4,1.4c0,0,1.8-2.5,5.8-2.5c1.4,0,3.8,0.2,3.4,1.6
		l-0.6,1.6c-0.2,0.6-0.7,0.6-1.2,0.4c-0.4-0.2-1.2-0.4-1.9-0.4c-3.6,0-5.2,2.7-5.2,2.7V398c0,0.5-0.4,0.9-0.9,0.9h-1.5
		c-0.5,0-0.9-0.4-0.9-0.9V380.6z"/>
		<path d="M592.8,380.6c0-0.5,0.4-0.9,0.9-0.9h0.9c0.4,0,0.7,0.2,0.8,0.6l0.4,1.5c0,0,2.7-2.5,6.7-2.5c5.6,0,7.4,3.6,7.4,8.6V398
		c0,0.5-0.4,0.9-0.9,0.9h-1.5c-0.5,0-0.9-0.4-0.9-0.9v-10.1c0-3.6-1.6-5.4-4.3-5.4c-3.6,0-6.2,2.7-6.2,2.7V398
		c0,0.5-0.4,0.9-0.9,0.9h-1.5c-0.5,0-0.9-0.4-0.9-0.9V380.6z"/>
		<path d="M615.4,396.2c0.2-0.3,0.5-1,0.7-1.2c0.2-0.4,0.8-0.5,1.3-0.1c0,0,2.1,1.7,4.5,1.7c2,0,3.1-1,3.1-2.3c0-1.7-1.4-2.4-4.2-3.8
		c-2.5-1.2-5.5-2.9-5.5-6.2c0-2,1.6-5,6.1-5c2.5,0,4.4,0.9,5.3,1.5c0.4,0.3,0.6,1,0.3,1.5l-0.4,0.8c-0.3,0.5-1,0.7-1.4,0.4
		c0,0-2.1-1.2-3.8-1.2c-2.2,0-2.7,1.1-2.7,1.9c0,1.6,1.6,2.3,3.6,3.3c3.3,1.6,6.3,3.1,6.3,6.5c0,2.8-2.7,5.4-6.6,5.4
		c-3.2,0-5.2-1.3-6.2-2.2C615.4,397.1,615.3,396.6,615.4,396.2z"/>
	</g>
	<circle fill="#B3B3B3" cx="372.3" cy="334.7" r="9.3"/>
	<g>
		<path d="M402.1,450.2c0-0.5,0.4-0.9,0.9-0.9h1.8c0.5,0,0.9,0.4,0.9,0.9v20c0,5.5,3.4,9.7,9,9.7c5.7,0,9.1-4.2,9.1-9.6v-20.1
		c0-0.5,0.4-0.9,0.9-0.9h1.8c0.5,0,0.9,0.4,0.9,0.9v20.3c0,7.3-5.2,12.9-12.8,12.9c-7.5,0-12.7-5.6-12.7-12.9V450.2z"/>
		<path d="M443.5,465.7l-9.4-15c-0.4-0.6,0-1.3,0.8-1.3h2.6c0.3,0,0.7,0.2,0.8,0.4l7.4,12.7h0l7.5-12.7c0.1-0.2,0.4-0.4,0.8-0.4h2.6
		c0.8,0,1.2,0.7,0.8,1.3l-9.4,15l9.7,15.9c0.4,0.7,0,1.3-0.8,1.3h-2.2c-0.4,0-0.7-0.2-0.8-0.4l-8.2-13.6h0l-8.1,13.6
		c-0.1,0.2-0.4,0.4-0.8,0.4h-2.2c-0.9,0-1.2-0.7-0.9-1.3L443.5,465.7z"/>
		<path d="M475.4,450.2c0-0.5,0.4-0.9,0.9-0.9h1.9c0.5,0,0.9,0.4,0.9,0.9v29.5h13.8c0.5,0,0.9,0.4,0.9,0.9v1.4c0,0.5-0.4,0.9-0.9,0.9
		h-16.6c-0.5,0-0.9-0.4-0.9-0.9V450.2z"/>
		<path d="M496.8,452.6c0-1.3,1-2.3,2.3-2.3c1.3,0,2.3,1,2.3,2.3c0,1.2-1,2.3-2.3,2.3C497.8,454.8,496.8,453.8,496.8,452.6z
		 M497.4,464.6c0-0.5,0.4-0.9,0.9-0.9h1.5c0.5,0,0.9,0.4,0.9,0.9V482c0,0.5-0.4,0.9-0.9,0.9h-1.5c-0.5,0-0.9-0.4-0.9-0.9V464.6z"/>
		<path d="M507.6,450.2c0-0.5,0.4-0.9,0.9-0.9h1.5c0.5,0,0.9,0.4,0.9,0.9v14.3c0,0,2-1.2,5.1-1.2c5.8,0,9.2,4.4,9.2,10
		c0,5.5-3.8,10.1-8.7,10.1c-3.6,0-5.9-2.5-5.9-2.5l-0.3,1.3c-0.1,0.4-0.4,0.8-0.8,0.8h-1c-0.5,0-0.9-0.4-0.9-0.9V450.2z
		 M516.2,480.4c3.5,0,5.7-3.3,5.7-7.1c0-3.8-2.1-6.9-6.3-6.9c-2.6,0-4.7,1.2-4.7,1.2v9.6C511,477.2,512.8,480.4,516.2,480.4z"/>
		<path d="M530.7,464.6c0-0.5,0.4-0.9,0.9-0.9h0.9c0.4,0,0.7,0.2,0.8,0.7l0.4,1.4c0,0,1.8-2.5,5.8-2.5c1.4,0,3.8,0.2,3.4,1.6
		l-0.6,1.6c-0.2,0.6-0.7,0.6-1.2,0.4c-0.4-0.2-1.2-0.4-1.9-0.4c-3.6,0-5.2,2.7-5.2,2.7V482c0,0.5-0.4,0.9-0.9,0.9h-1.5
		c-0.5,0-0.9-0.4-0.9-0.9V464.6z"/>
		<path d="M553,470.7c2.1,0,4.1,0.6,4.1,0.6c0-3.6-0.4-5.2-3.1-5.2c-2.6,0-4.9,0.7-5.8,1.1c-0.5,0.2-0.8,0-0.9-0.5l-0.4-1.2
		c-0.2-0.6,0.1-0.9,0.5-1.1c0.3-0.1,3.1-1.2,6.7-1.2c4.9,0,6.1,2.5,6.1,8.1V482c0,0.5-0.4,0.9-0.9,0.9h-0.9c-0.5,0-0.7-0.3-0.8-0.7
		l-0.4-1.3c-1,1-3,2.5-6,2.5c-3.4,0-5.9-2.4-5.9-6.3C545.3,473.5,548.1,470.7,553,470.7z M551.8,480.5c2.4,0,4.5-1.5,5.3-2.7V474
		c-0.6-0.3-1.9-0.8-4-0.8c-2.7,0-4.6,1.3-4.6,3.8C548.4,479,549.7,480.5,551.8,480.5z"/>
		<path d="M566.9,464.6c0-0.5,0.4-0.9,0.9-0.9h0.9c0.4,0,0.7,0.2,0.8,0.7l0.4,1.4c0,0,1.8-2.5,5.8-2.5c1.4,0,3.8,0.2,3.4,1.6
		l-0.6,1.6c-0.2,0.6-0.7,0.6-1.2,0.4c-0.4-0.2-1.2-0.4-1.9-0.4c-3.6,0-5.2,2.7-5.2,2.7V482c0,0.5-0.4,0.9-0.9,0.9h-1.5
		c-0.5,0-0.9-0.4-0.9-0.9V464.6z"/>
		<path d="M580.5,464.8c-0.3-0.6,0-1.1,0.7-1.1h2.1c0.4,0,0.7,0.2,0.8,0.5l7.1,14.7h0l6.7-14.7c0.1-0.3,0.5-0.5,0.8-0.5h1.8
		c0.7,0,1.1,0.5,0.7,1.1l-14.7,31.9c-0.1,0.3-0.5,0.6-0.8,0.6h-1.8c-0.7,0-1.1-0.5-0.8-1.2l6.1-13.2L580.5,464.8z"/>
	</g>
	<circle fill="#B3B3B3" cx="372.3" cy="467.7" r="9.3"/>
</svg>
