<?xml version="1.0" encoding="utf-8"?>
<!-- Generator: Adobe Illustrator 17.1.0, SVG Export Plug-In . SVG Version: 6.00 Build 0)  -->
<!DOCTYPE svg PUBLIC "-//W3C//DTD SVG 1.1//EN" "http://www.w3.org/Graphics/SVG/1.1/DTD/svg11.dtd">
<svg version="1.1" id="Layer_1" xmlns="http://www.w3.org/2000/svg" xmlns:xlink="http://www.w3.org/1999/xlink" x="0px" y="0px" viewBox="0 0 1280 800" enable-background="new 0 0 1280 800" xml:space="preserve">
	<g>
		<g id="_x38_d5avG.tif_1_">
			<g>
				<path fill="#344759" d="M907.8,692c3.7-7.3,6.6-14.9,11-21.4c5.4-8.1,11.4-15.8,18.2-22.8c10.9-11.4,23-21.2,37.5-28.2
				c8.4-4.1,15.8-10.3,23.6-15.6c3.4-2.3,6.9-4.6,9.8-7.5c1.1-1.1,1-3.7,1.1-5.6c0.1-1.5-0.3-3.1-0.4-4.6c-0.1-1.7-0.2-3.3-0.2-5
				c0-1.9,0.2-3.7,0.1-5.6c-0.1-1.4-0.4-2.9-0.8-4.3c-0.4-1.7-1-3.4-1.6-5c-0.4-1-0.7-2.3-1.4-2.7c-3.8-1.9-2.6-4-1-6.8
				c0.6-1.1-0.7-3.4-1.2-5.2c-0.8-2.5-1.9-4.9-2.6-7.4c-0.4-1.3,0.5-3.6-0.1-4.1c-3.4-2.7-6.8-5.1-3.6-10.1c0.1-0.1-0.3-0.8-0.5-0.8
				c-7.4-0.3-5.2-4.1-3.3-8.2c0.1-0.3-2.4-1.7-3.4-2.8c-1.1-1.2-2.3-2.5-2.6-3.9c-0.9-4.2-1.4-8.5-2.1-12.7c0-0.2-0.7-0.4-0.7-0.4
				c-4,6.8-8.9,0.8-12.7,0.2c-10.4-1.8-19.2,0.4-27.4,6.7c-6,4.6-12.1,9-18.2,13.4c-0.5,0.3-1.7,0.4-1.9,0.1
				c-0.5-0.8-0.9-1.8-0.8-2.7c1-10.2,5.2-19.1,11.5-27.2c7.2-9.2,14.5-18.4,21-28.2c3.5-5.3,6.2-11.4,7.8-17.6
				c0.8-3.2-1.7-7.3-2.4-11c-3.7-17.8-8.2-35.6-10.6-53.6c-2.2-16.2-2.6-32.6-2.6-49c0-16.1,1.6-32.2,2.5-48.2
				c0-0.6-0.2-1.1-0.2-1.7c-0.2,0.5-0.4,1-0.5,1.5c-2,5.4-3.9,10.8-6.1,16.1c-0.3,0.8-2.2,1.3-3.3,1.4c-5,0.6-10.1,1.9-15.1,1.4
				c-10.7-1.1-21.5-2.9-30.4-9.8c-0.8-0.6-0.1-4.9,1.1-5.9c5-4,10.1-8.3,15.9-10.8c11.4-4.9,23-9.3,34.9-12.6
				c6.1-1.7,7.7-3.9,7.7-10.1c0-6.7,1.9-13.4,3.7-20c4.6-16.4,8.9-33,14.6-49c3.9-11,9.8-21.4,15.2-31.8c7-13.4,14.3-26.5,21.7-39.7
				c2.1-3.7,4.6-7.2,7.4-10.2c0.9-0.9,3.7-0.3,5.5,0.2c0.6,0.2,0.9,2.3,0.8,3.4c-0.2,4.9-0.6,9.9-0.9,14.8c0,0.3,0.3,0.6,0.4,0.9
				c0.4-0.4,1.1-0.7,1.3-1.2c1.9-4,3.8-8,5.6-12c2.6-5.9,7.3-7.1,11.4-2c5.1,6.4,10,13.2,13.9,20.5c7.8,14.3,15.1,29,22.2,43.6
				c12.6,25.7,24.4,51.9,29.3,80.2c1.7,9.8,6.7,12.8,13.9,15.9c6.9,2.9,14.1,5.4,20.6,9.1c11.2,6.4,22,13.6,32.9,20.6
				c0.6,0.4,0.7,1.5,1,2.3c-0.7,0-1.5-0.2-2.2-0.1c-3,0.8-6,1.7-9,2.7c-0.3,0.1-0.7,1.2-0.5,1.6c1.4,3.6,0.3,5.1-4.4,5.7
				c-0.9,0.1-2.4,0.9-2.4,1.2c0.3,4.7-3.1,4.6-6.2,5.7c-2.7,0.9-4.7,3.7-7.3,5.4c-1.8,1.2-6.8-0.9-4.4,4.6c0.1,0.3-3.2,1.5-4.2,2.9
				c-3.4,4.6-8,7.1-13.3,8.7c2.9,5.5-10.4,6.7-3.7,13.5c0.1,0.1-2.8,2.9-4,4.7c-0.6,0.8-1.2,2.3-0.9,3.1c1.3,3.1,5.3,6.3-1.4,8.2
				c-0.6,0.2-1.2,4.1-0.3,5.1c2.3,2.9,6.4,5.3-0.6,7.5c-0.4,0.1-0.1,3.5,0.5,5.2c0.5,1.7,1.8,3.2,2.7,4.7c-1.7,0.5-3.4,0.8-5,1.5
				c-1.4,0.6-2.8,1.3-3.7,2.3c-0.3,0.4,0.6,2.1,1.3,3c2.4,3.5,6.1,7.1-1.9,8.3c-0.5,0.1-1.3,2.6-1,3c4.6,4.9,2.4,7.5-2.9,9
				c-4.1,1.2-4.5,2.3-1.9,6.2c11.1,16.4,21.9,33,32.3,49.8c5.5,8.8,9.9,18.2,14.8,27.4c0.5,1,1.2,2.1,1.3,3.2c0.1,1.5-0.2,3-0.4,4.4
				c-1-1.1-1.8-2.2-2.9-3.2c-4.6-4.5-9-9.2-13.8-13.4c-5.1-4.4-10.3-8.9-16-12.5c-6.3-4-13-7.4-19.9-10.2c-5.8-2.3-7.1,3.6-10,6.7
				c-0.9,1-3.1,0.8-4.8,1c-0.6,0.1-1.3-0.3-2-0.4c-0.6,4.3-0.9,8.6-1.8,12.9c-0.4,1.8-1.5,3.5-2.8,4.9c-0.8,1-3.1,1-3.4,2
				c-0.6,1.5-0.6,3.7,0.1,5.1c1.9,4.1,4.2,7.8-3.5,7.7c-0.7,0-2.6,4.4-2.1,6.2c1.4,4.5,3.1,8.1-4.2,7.7c-0.3,0-1.7,3.8-1,5
				c2,3.9,1.2,5.4-3.1,5.4c-3.5,0.1-5.6,5.2-3.4,8.9c2,3.5,0.8,4.8-2.7,6.1c-1.2,0.4-1.8,3.4-2,5.3c-0.2,1.7,1.2,3.6,0.8,5.1
				c-0.2,0.7-2.9,0.6-4.3,1.4c-0.9,0.5-2,1.8-2,2.7c0,3,3.6,6.2-0.9,9.2c-1.1,0.7-0.6,3.8-1,5.8c-0.2,1.2-0.7,2.4-0.9,3.7
				c-0.4,2.5-0.8,5.1-0.8,7.6c0,1.1,1.5,2.9,1.3,3.1c-7.3,5.5,0.6,8.7,2.6,10.7c5.8,5.7,12.9,10.1,19.3,15.2
				c11.3,9.1,23.3,17.4,33.3,27.7c13.9,14.4,25.8,30.5,33.9,49.1c0.2,0.4,0.6,0.8,0.5,1.2c-0.2,2.5-0.4,5-0.6,7.5
				c-1.3-1.4-2.6-2.8-3.9-4.2c-8.3-9.3-15.9-19.5-25.1-27.7c-9.2-8.1-19.4-15.5-30.4-21c-9-4.5-19.5-5.7-29.4-8.3
				c-7.2-1.9-14.3-4.6-21.6-5.3c-7.1-0.7-14.5,0.2-21.7,1.1c-17.6,2.1-32.6,11.3-47.6,19.7c-7.7,4.4-13.7,12-20.1,18.5
				c-4.2,4.3-7.7,9.3-11.5,14.1c-0.6,0.8-0.4,2.2-1.1,2.9c-1.5,1.5-3.3,2.6-5,3.9C909.9,695.4,909.1,694,907.8,692z"/>
			</g>
		</g>
		<path fill="#1A1A1A" d="M1062.2,96.6c0,0-1.1,12.4-3.5,15.9c2.1-1.4,2.1-1.4,2.1-1.4s2.9,12-3.7,16.8c-6.6,4.8-14.8,2.9-17.6,1.5
		c-2.7-1.4-13.8-9.4-10.6-23.2s9.2-37.3,9.3-38s1.9-4.4,2.8-7.7c0.9-3.3-0.8-3.9-1.8-3.3c-1.1,0.6-2.3,0.7-3.9,9.1
		c-1.6,8.4-9.4,38.9-9.8,40.4c-0.3,1.6-2.1,11.6,5.1,19.5c7.2,7.9,17.2,10.8,26.5,5.4c9.3-5.5,7.4-14.7,6.6-20.1
		c-0.8-5.5,0.5-6-0.4-11.3C1062.2,95,1062.8,97.4,1062.2,96.6z"/>
		<path fill="#344759" d="M1042,122l-0.6,8.1c0,0-0.5,0.2-0.7,1.5c-0.2,1.2,0.5,1.8,0.5,1.8l-0.5,6.4l-17.8-17.8l7.3-14.7L1042,122z"
		/>
		<circle fill="#FFFFFF" cx="1043.3" cy="156" r="9.6"/>
		<circle fill="#1A1A1A" cx="1043.8" cy="155.2" r="4.8"/>

		<ellipse transform="matrix(-0.6133 -0.7899 0.7899 -0.6133 1564.2222 1076.7255)" fill="#FFFFFF" cx="1045.7" cy="155.4" rx="1.4" ry="1.9"/>

		<ellipse fill="#1A1A1A" stroke="#000000" stroke-width="3.7852" stroke-miterlimit="10" cx="1039.1" cy="-45.2" rx="0.1" ry="102.3"/>
	</g>
	<g>
		<g>
			<path d="M107.5,269c-5.9-32.5,21.6-80.9,55.6-86.9c16.3-2.9,27.4,7.5,28.9,23c2.1,20.8-0.2,42.5,2.3,63.4
			c1,8.6,4.8,27.5,15.9,26.1c25.9-3.3,32-71.6,34-94c0.7-7.8,1.1-15.3,2.2-17.8c1.1-2.5,3.1-2.5,3.1-2.5s4.5-1.2,7-1.5
			c1.5-0.1,2.3,0.4,2.3,1.2c0,0.3,0.1,0.6,0,1.4c-0.2,1.7-0.2,3.8-0.4,6.3c-2,22.7-2.8,46.4-0.7,69.3c0.9,9.8,3.5,34.3,17.4,33.4
			c9-0.5,13.2-7.6,14.3-7.7c0.6-0.1,1,1.4,0.9,1.6c-1,8.3-13,17.2-23.2,18.1c-18.3,1.7-22.4-27-23.8-39.9c-1-9.1-1.3-23.3-1.3-23.3
			c-0.1,0-12.3,64.1-39.5,68.5c-17.4,2.8-23.9-16.5-25.8-30c-3.6-26.6,1.1-53.9-2.4-80.2c-0.8-6-2.6-11.4-7-10.6
			c-31.4,5-56.7,55.8-51.6,84.9c0.5,3,1.6,5.7,3,8c0,0,1.9,2.2,2.1,3.6c0.1,0.6-0.5,0.7-1,0.8C114.5,285.2,108.6,274.8,107.5,269z"
			/>
			<path d="M279.1,243.9c-0.8,0.1-1.7-0.3-1.8-1.4c0-0.2,0-0.4,0.1-0.6c3.6-6.5,10.9-12.2,16.3-12.7c7.4-0.6,9.6,6.8,10.2,15.3
			c0.5,7.2,0.2,20.3,0.2,20.3c0.3,0,8.4-30.4,18-39.1c0.4-0.3,0.8-0.5,1.3-0.5c1.8-0.1,7.8,3.1,7.9,5c0,0.3,0,0.5-0.1,0.8
			c-3.9,9.7-4.4,21.5-3.8,32.3c0.5,9,3.8,15.4,8.6,15.1c2.1-0.1,4.4-1.5,6.9-4.4c0,0,0.3-0.2,0.6-0.2c0.3,0,0.5,0.1,0.5,0.4
			c0.3,6.4-6.6,13.6-12.3,13.4c-13.4-0.5-17.3-34.9-17.3-34.9c-0.8-0.2-11.3,29-12.1,40.8c-0.1,0.9-1,1.6-2.2,1.7
			c-1.7,0.1-4.2-0.6-4.6-1.5c-0.7-1.5-3-0.4-3.2-2.1c0-0.3,0-1,0-1.4c0.5-2.9,0.2-11.8,0.1-21.8c0-6.7,0.1-18.7-0.5-26.1
			c-0.4-4.7-1.7-6.3-3.5-6.1c-2.4,0.2-5.6,3.8-8.2,7.1C280.1,243.6,279.6,243.8,279.1,243.9z"/>
			<path d="M381.9,164.4c0.2,0,0.5,0,0.7,0.1c3.2,2.3,12,2,11.8,5.2c-1.2,24.8-9.7,52.2-9.2,79.1c0.2,12,1.4,29.2,12.7,36.4
			c0.5,0.3,0.6,0.6,0.7,1.1c0,0.8-0.6,1.6-1.2,1.6c-0.1,0-0.1,0-0.2,0c-12.2-2.3-20.1-25.7-20.1-25.7c-0.2,0-8.1,26.5-18.9,27.9
			c-11.2,1.5-17.7-12.1-18-22.4c-0.5-15.1,5.9-42.1,24.6-43.2c4.2-0.2,9.8,3.1,9.8,3.1c1.8-0.8-0.5-49.9,5.4-62.2
			C380.2,165.1,381.1,164.4,381.9,164.4z M368.9,234.8c-13.4,2-18.7,24.2-18,37c0.4,7.9,3.3,11.7,5.8,11.1
			c12.5-2.8,17.8-28.2,17.3-41.6C373.9,236.8,371.5,234.4,368.9,234.8z"/>
			<path d="M472.2,288.9c-8.3,0.3-11.2-9.1-11.1-19.3c0.2-9.7,4.3-25.5,4.3-25.5c-0.2-0.2-6.2,1.8-9.6,1.7c-0.6,0-1,0-1.6,0
			c-2.6,17.1-10.7,43.1-32,43.2c-13.6,0-20.8-23.3-23.9-25.8c-0.2-0.1-1.3,0-1.9-0.1c-0.9-0.2-0.4-1.8-2.2-3.5
			c-0.2-0.2-0.3-0.3-0.3-0.5c0-0.6,1.1-1.4,1.9-1.4c1,0.2,1.5,0.3,2.4,0.4c0.5-14.9,7.5-38.5,25.6-38.9c7.1-0.2,11.4,6.2,11.3,14
			c-0.2,14.1-21.5,26.7-24.1,30.9c-3.1,5,7.2,20.5,13.7,20.3c18-0.4,27.5-34.6,25-40.4c-1.1-2.4-6.8-9.6-6.7-15.5
			c0-6.4,2.7-12.2,7.8-12.1c4.9,0.1,6.1,3.4,6,7.3c0,3.3-0.9,7.2-1,10.1c0,2.7,0.3,3.8,1.4,3.8c0.8,0,2-0.6,3.6-1.5
			c5.7-3.3,14.6-12,16-12c2.1,0.1,5.3,4.2,5.2,6.4c0,1.1-0.5,2-0.5,2s-3.1,7.3-4.3,9.9c-3.8,8.2-5.4,15.6-5.5,21.6
			c-0.2,8.3,3.2,14.1,6.2,13.7c14.2-1.9,23-44.4,25.6-58.2c0.6-3.2,7.9-6.1,10.3-6c0.5,0,1.3,0.2,1.3,0.8c0,0.2-3.5,10.7-3.5,22.2
			c0,14.8,9.2,29.8,8.9,44.8c-0.2,10.6-9.5,15.9-17.7,15.6c-7.4-0.3-14.2-4.9-13.9-13.3c0.2-4.5,2.7-9.3,3.7-9.3
			c0.2,0,0.5,0,0.5,0.3c0,0.6-0.2,1.4-0.2,2c-0.3,7.2,4.2,11.9,8.6,12.1c4,0.2,8.1-3.6,8.3-12.5c0.3-11.5-6.6-33.9-6.6-33.9
			c-0.3,0-4.9,11-8.2,19.1C490.8,271.7,484.7,288.4,472.2,288.9z M410.8,257.5c1.5,1,16.2-12.8,16.3-22.8c0.1-3.7-1.7-6.8-3.8-6.5
			C413.5,229.6,410.2,257.1,410.8,257.5z"/>
			<path d="M545.1,180.9c0.2,0,0.5,0.1,0.7,0.2c3,2.6,11.5,2.8,11.2,6.2c-0.1,2-6.7,20.1-6.1,20.9c1.3,1.6,20.6-1.6,23.3-1.4
			c2,0.2,4.8,0.4,4.7,1.6c-0.1,1.1-2.1,0.9-2.6,1.7c-1.3,1.6-1.7,2.8-1.7,2.8c-2.9,1-22.5,2.6-26.7,6.3c-6.2,5.6-9.3,35.4-10.1,52.9
			c-0.4,10.2-0.5,20.3,4.1,30c0,0-0.9,2.5-2.3,2c-10.9-3.8-10.8-30.4-10.3-43.5c0.5-13.1,5.9-38.6,5-39.6c-0.5-0.5-7.3,0.4-10.6,0.2
			c-8.7-0.5-12.2-6.1-11.9-14.5c0.1-1.4,0.7-3.7,1.7-3.7c0.3,0,0.7,0.4,1,0.7c3.4,3,13.1,3.8,20.7,4.2c0.7,0,1,0.1,1.7,0.1
			c1.9-8.8,2.6-20.5,6.3-26.4C543.4,181.5,544.3,180.9,545.1,180.9z"/>
			<path d="M654.8,236.4c0.4-0.3,0.9-0.4,1.4-0.3c1.3,0.2,4.2,2.4,5.7,4.4c0.4,0.5,1.3,1.4,1.2,2.2c0,0.2-0.3,0.4-0.4,0.6
			c-9.2,8.1-11.5,24.4-13.7,37c-1.5,9-1.4,23.5,6.4,26.2c1.9,0.7,5.7-0.8,10-3.8c0,0,0.3-0.1,0.7-0.1s0.4,0.2,0.4,0.5
			c-1.2,8.4-8.7,11.6-15.8,10.5c-14.6-2.4-13-25.2-11.6-36.1c0.9-7.1,3.1-16,3.1-16c-0.4-0.2-16.6,26.3-19.6,37.8
			c-0.2,0.9-1.3,1.4-2.5,1.3c-1.7-0.2-4-1.4-4.2-2.4c-0.4-1.6-2.9-0.9-2.7-2.7c0-0.3,0.1-0.9,0.3-1.4c1.1-2.8,2.8-11.9,4.2-21.4
			c0.1-0.9,3.7-18.8,4.4-25.4c0.2-1.6,0-2.6-0.1-2.5c-7.7,3.1-11.1,51.5-29.5,51.3c-5.7-0.1-12-20.5-12-20.5
			c-0.3-0.1-12,18.5-18.1,17.9c-12.2-1.1-14.8-16-13.9-25.9c1.3-14.8,9.8-42.6,28.7-41.4c8.5,0.5,11.1,11.2,13,13.7
			c0.8,1.1,6.9,2.7,6.6,4.5c-1.2,9.6-4.1,19.6-5.1,29.5c-0.8,7.9,0.5,14.9,3.7,14.6c14.6-1.1,17.8-47.3,27.1-54.7
			c1.5-1.2,5.5-1.8,7.9-1.5c2,0.2,3.4,1.2,3.3,3.2c-0.2,5.1-1,11.5-1.7,17.6c-0.8,7.3-2.3,18.3-2.3,18.3
			C629.9,271.5,643.7,243.1,654.8,236.4z M584.1,244c-0.5-2.7-5.2-5.7-7.4-5.6c-12.5,0.1-18.6,25.4-19.5,36.1
			c-0.5,6.3,1.1,11.3,4,11.3C575.6,285.3,585.6,251.8,584.1,244z"/>
			<path d="M722.7,187.1c0.2,0,0.5,0.1,0.6,0.3c2.8,2.9,11.5,4.3,10.7,7.3c-6,22.2-19.3,47.2-23.8,72.2c-2,11.1-3.8,32.1,11.7,34.7
			c5.7,1,13.5-1.4,24.9-9c1.7-1.1,5.2-3.5,6.4-3.2c0.3,0.1,0.4,0.2,0.4,0.7c-0.2,0.9-1.3,2.6-3.7,5.8c0.3,1.3,0.4,1.9,0.7,3.2
			c-7.1,9.7-15.3,20.7-28.8,18.7c-17.3-2.6-21.6-36.5-21.6-36.5c-0.3-0.1-12.6,25.5-24.3,24.9c-11.3-0.6-15.1-15.2-13.5-25.4
			c2.4-14.9,13.8-40.3,32.4-37.8c4.3,0.6,9.3,5.2,9.3,5.2c1.8-0.4,8.3-49.4,16.7-60.4C720.8,187.5,721.8,187,722.7,187.1z
			 M696.6,253.8c-13.6-0.6-22.9,20.2-24.7,33c-1.1,7.9,1.1,12.1,3.6,12c12.8-0.4,22.8-24.3,24.9-37.6
			C701.1,256.7,699.2,253.9,696.6,253.8z"/>
		</g>
	</g>
	<g>
		<g>
			<path d="M214.3,378.7c0.3,3.1-1.9,7.3-7.2,7.9c-2.1,0.2-4-0.3-4.3-2.4c0-0.1,1.7-0.3,1.7-0.5c-0.1-0.7-2.4-0.6-3.1-0.6
			c-5.5,0.6-18.6,8.9-18.2,12.6c0.2,1.5,2.6,2.3,8.5,1.6c3.6-0.4,7.1-1,9.2-1.4c0.4-0.1,1.1-0.1,1.4,0.3c0.9,1.3,3.2,3.8,3.2,4.2
			c0,0-0.1,0.1-0.1,0.1c-8.7,1.9-23.7,8.5-23.3,18.5c0.2,4.1,5.7,5.5,12.1,4.7c9.4-1.1,23.8-7.3,24.7-11c0-0.1,0.1-0.2,0.1-0.3
			c0-0.3-0.6-1.6-0.7-2.2c0-0.1,0-0.2,0.1-0.2c1.1-0.1,3.8,2.4,3.9,3.5c0,0.1,0,0.2-0.1,0.3c-5.7,7.5-21.6,14.5-23.2,17.2
			c-0.9,1.4,1.9,10.7,1.9,10.7c0.1,0.9,0,1.6-0.5,1.6c-0.1,0-5.8-2.5-6.6-3.2c-0.2-0.2-0.4-1.3-0.5-2.6c-0.2-1.5-0.2-4.8-0.5-5
			c-0.2-0.1-1.6,0.3-2.2,0.4c-10.9,1.3-18.1-3.3-19-10.1c-0.7-5.6,12-19.5,12-19.5c-0.1-0.3-9.1-3.7-9.5-7.5
			c-0.7-5.5,14.5-11.5,16.7-14.9c3-4.7-0.8-23.2-0.8-23.2c1.4-0.2,6.8,3.9,6.9,5.5c0,0.3,0,0.7,0,1c0.3,2.8-0.4,14,0,14.3
			c0.9,0.6,10.3-3,13.4-3.4C212.8,375.1,214.1,376.6,214.3,378.7z"/>
			<path d="M321.5,346.6c0.7,12.8-7.3,23-9.7,23.1c-0.2,0-0.4-0.1-0.4-0.2c0-0.7,1.4-2.4,1.3-2.6c0-0.6-1-0.9-1-1.7
			c-0.1-2,2.1-5.9,1.5-15.4c-0.5-9.1-6.6-15.5-9.3-15c-9.3,1.5-7.3,20.1-6.6,27.4c1.4,16.2-4.1,44.3-1.8,49.7
			c2.2,5.2,25.6,16.7,40.8,16.1c5-0.2,9.4-1.1,13.4-2.7c0.6-0.3,1.2-0.4,1.4-0.4c0.2,0,0.3,0.1,0.3,0.2c0.1,1.2-2.4,1.7-2.8,3.1
			c-1.9,7.5-16.7,10.7-23,10.9c-13.4,0.6-33.2-14.7-36.6-14.2c-2.6,0.4-12.8,10.6-24.3,11.7c-11.3,1.1-29.7-2.6-30.8-14.2
			c-1.1-11.6,17.3-17.8,28.3-18.6c8.8-0.6,22.5,4.1,23.6,3.5c3.8-2-7-76.5,19.7-78.3C316.1,328.2,320.9,337,321.5,346.6z
			 M238.2,419.7c0.6,6,9.3,12.3,22.6,11.1c9.7-0.8,20.4-9.6,20.1-11.3c-0.6-2.9-18.9-9.9-29.3-9.2
			C241.9,411,237.8,415.3,238.2,419.7z"/>
			<path d="M337.3,402.3c-0.1-1.9-0.9-4.1-1.3-5.9c0-0.1,0-0.7,1.3-0.7c4.2-0.2,5.3,4.3,5.5,8.2c0.4,7.9-5.5,15.9-13.7,16.4
			c-11.4,0.6-17.2-10.4-17.7-20.3c-0.5-11.2,4-27.9,16.6-29.2c4.9-0.5,8.3,3.4,8.5,8.4c0.2,9.9-14.2,20-16,23.8
			c-1.8,3.8,4.8,12.5,8.5,12.3C333.4,414.9,337.7,409.5,337.3,402.3z M328.1,377.2c-5,0.3-7.9,21-7.9,21c0.6,0.3,10-13.6,9.7-19
			C329.8,378.2,329.3,377.1,328.1,377.2z"/>
			<path d="M394.4,387.3c-0.6,0-1.1-0.1-1.1-0.1c-2.5,2.3-4.7,29.6-16,30.9c-4,0.5-10.2-13.4-10.2-13.4c-0.2,0-6.8,14-11.2,14.2
			c-7.7,0.3-11.5-7.7-11.9-17.2c-0.5-11,3.6-30.5,16.6-31.6c5.8-0.5,8.6,6.9,10.2,8.5c0.7,0.7,5,1.3,5,2.6
			c0.1,3.2-1.2,13.4-0.9,21.3c0.2,5.7,1.5,10.4,3.9,10c8.9-1.3,12.9-23,11.2-26.4c-0.9-1.7-5-6.7-5.1-10.9c-0.1-4.6,1.6-8.7,5.2-8.8
			c3.4-0.1,4.3,2.2,4.4,5c0.1,2.3-0.5,5.1-0.4,7.2c0,1.9,0.3,2.7,1.1,2.6c0.6,0,1.4-0.5,2.5-1.2c3.9-2.5,9.9-9,10.8-9
			c1.5,0,3.8,2.8,3.8,4.4c0,0.8-0.3,1.4-0.3,1.4s-2,5.3-2.7,7.2c-2.5,6.1-3.4,12.3-3.4,17.3c0.2,9.1,2.7,14.8,5.6,14.8
			c1.9,0,4.1-2.7,5.7-8.3c0.2-0.8,0.1-1.2,1.6-2.2c0.3-0.2,0.6-0.3,0.7-0.3c0.2,0,0.3,0.2,0.3,0.4c0,0.2-0.1,0.6-0.1,0.6
			c-0.4,9.2-6.1,15.1-11.5,15.2c-4.8,0.1-9.4-4.4-9.6-15.3c-0.2-8,2.4-20.5,2.4-20.5C400.6,385.5,395.9,387.2,394.4,387.3z
			 M366.9,382c-0.6-1.8-4.3-3.7-5.6-3.4c-7.9,2-10.9,17.8-10.6,27.1c0.1,4.5,1.9,8,3.7,7.6C364,411.4,368.8,388,366.9,382z"/>
			<path d="M416.3,380.7c-0.6,0-1.1-0.3-1.2-1.1c0-0.1,0-0.3,0.1-0.4c2.8-4.4,8.3-8.1,12.1-8.1c5.2,0,6.3,5.3,6.4,11.4
			c0,5.1-0.8,14.4-0.8,14.4c0.2,0,7.4-21.1,14.4-26.9c0.3-0.2,0.6-0.3,0.9-0.3c1.3,0,5.3,2.6,5.3,3.9c0,0.2,0,0.3-0.1,0.6
			c-3,6-4.1,16.1-4.1,22.8c0,6.4,2,11.1,5.4,11.1c1.5,0,3.2-0.9,5.1-2.9c0,0,0.2-0.1,0.5-0.1c0.2,0,0.3,0.1,0.3,0.3
			c0,4.6-5.2,9.3-9.3,8.9c-9.6-0.8-10.6-25.6-10.6-25.6c-0.5-0.2-9.4,19.9-10.5,28.4c-0.1,0.7-0.8,1.1-1.7,1.1
			c-1.2,0-2.9-0.7-3.2-1.3c-0.4-1.1-2.1-0.4-2.1-1.6c0-0.2,0-0.7,0.1-1c0.5-2.1,0.7-8.4,1.2-15.5c0.3-4.8,1-13.2,1-18.6
			c0-3.3-0.8-4.5-2.1-4.5c-1.7,0-4.1,2.4-6.1,4.6C417,380.5,416.6,380.7,416.3,380.7z"/>
			<path d="M485.1,373c0,0-0.8-1.2-0.8-1.9c0-0.2,0.1-0.4,0.4-0.4c7.8-0.5,11.7-0.8,19.4-1.2c1.6-9.6,2.5-14.4,4.2-24
			c-7.1,0.5-14.1,0.5-21.1,0.5c-9.6-0.1-25.5-1.8-25.3-14.8c0-1.4,0.8-2.1,1.7-2.1c1.4,0,0.8,3.6,3.7,5.4c2.5,1.6,6.7,1.9,11.6,1.9
			c34.1,0.3,68.2-10.6,102.4-8.7c8.3,0.5,19.3,4.3,23.2,9.8c1.1,1.5,2.6,3.2,2.5,4.7c-0.1,1.8-1.8,3.4-5.4,4
			c-2.9,0.5-5.1,0.6-6.6,0.5c-1.4-0.1-4.9-1.9-4.8-2.9c0-0.3,0.5-0.6,1.6-0.7c0.7,0,2.2-0.3,2.3-0.6c0.1-0.8-5.8-1.2-7-1.2
			c-24.1-1.2-48.7,1.8-73.1,3.8c-1,9.6-1.5,14.4-2.5,24c6.6-0.5,20.2-1.5,27.6-1.2c14.2,0.6,14.5,6.1,18.4,10.6
			c0.2,0.2,0.3,0.6,0.3,0.9c0,0.4-0.3,1-1.3,0.9c-15.2-0.4-42.9-2.1-46.5,1.3c-2.8,2.7-2.7,21.9-3.2,32.7c-0.3,7.1,3.9,4.9,3.8,7.1
			c-0.1,2.7-1.2,10.3-5,10.2c-4.9-0.1-7.5-8.9-7.4-13.1c0.5-12,5.3-35.2,4.1-36.5c-0.8-0.8-8.7,0.6-10.3,0.5c-0.9,0-2.1-0.1-3.3-0.7
			c-1.4-0.7-4.6-4.3-4.6-6.6c0-0.6,0.3-1.1,0.6-1.3C484.9,373.6,485.1,373,485.1,373z"/>
			<path d="M547.9,420.9c-1.2-0.1-2.7-0.4-2.6-1.2c0-0.2,0.1-0.4,0.3-0.7c7.3-7.7,15.8-25.6,14.2-31.3c-0.5-1.8-3.4-6.6-3.2-10.4
			c0.2-4.5,2.3-8.6,5.8-8.4c3.4,0.2,4.1,2.6,4,5.3c-0.1,2.3-0.9,5.1-1,7.2c-0.1,1.9,0.1,2.7,0.9,2.7c0.6,0,1.4-0.4,2.6-1
			c4.1-2.2,10.6-8.2,11.5-8.1c1.5,0.1,3.6,3.1,3.5,4.7c0,0.8-0.4,1.4-0.4,1.4c-3.6,6-7.6,17-7.9,22.5c-0.4,5.9,1.3,9.7,3.9,9.8
			c2.3,0.1,5.1-2.7,8-8.7c0.4-0.7,0.2-1.2,1.7-2.1c0.3-0.2,0.6-0.3,0.7-0.3c0.2,0,0.3,0.2,0.3,0.5c0,0.2-0.2,0.5-0.2,0.5
			c-1.2,6.5-6.3,18.5-15,18c-6.2-0.4-7.6-6.8-7.2-13.9c0.4-7.1,3.9-18.5,3.9-18.5c-0.1-0.1-4.4,1.1-6.8,0.9c-0.6,0-1.6-0.3-1.7-0.2
			c-2.5,1.5-11,23.3-13.6,30.9C549.5,420.8,548.8,421,547.9,420.9z"/>
			<path d="M617.5,385.5c10,0.8,11.9-6.7,15.2-6.7c0.3,0,0.7-0.1,0.9,0c3.9,0.3,4.6,5.3,4.1,11.4c-0.5,5.1-3.1,15.8-3.1,15.8
			c0,0,8.1-23.8,14.7-25.3c3.3-0.8,6,3.1,5.6,7.7c-0.3,2.9-0.4,4.3-0.7,7.2c-0.5,5.2-2.4,15.3-2.4,15.3c0,0,8.6-25.5,17.1-31.4
			c0.3-0.2,0.6-0.3,0.9-0.2c1.3,0.1,5,3.1,4.9,4.4c0,0.2,0,0.3-0.2,0.5c-2.5,4-5.8,14-6.8,23.1c-0.9,9.1,0.7,17.6,7.6,18.1
			c16,1.2,31.1-12.8,39.7-25.6c0,0,0.5-0.4,1-0.3c0.3,0,0.5,0.3,0.4,1.2c-0.1,0.4-0.3,1.1-0.4,1.7c-0.1,1,0.7,1.4,0.6,2.4
			c-1.3,11-7.8,21.2-18.3,25.4c-5.6,2.3-11.6,3-17,2.5c-15.6-1.5-22.7-16.2-21.1-30.5c0.2-1.9,0.9-6,0.9-6
			c-0.1,0-10.2,19.8-12.3,28.2c-0.2,0.6-0.9,1-1.8,0.9c-1-0.1-1.8-0.1-2.5-0.1c-0.9-0.1-1.7-0.6-1.7-1.4c-0.1-3.3,2.5-15.9,3.3-24.6
			c0.5-5.8,0.3-10.4-0.1-10.3c-6.4,2-11.4,22.6-12.8,32.2c-0.3,2.3-1.9,3.3-3.8,3.1c-2.6-0.2-5.6-2.7-5.2-5.1
			c1.3-8.6,5.1-18.9,6.1-28.4c0.4-3.6,0-6.1-1.4-6.3c-1.7-0.1-2.5,7.1-10.1,9.8c-0.1,0.8-0.1,1.2-0.2,2
			c-0.9,10.3-7.1,25.4-18.6,25.3c-9.4-0.1-13.6-10-12.9-20.2c0.8-11,7.4-28.5,20.3-28.1c8.5,0.3,9,6.7,8.9,8.8c0,0.3,0,0.5-0.1,0.8
			c-1.8-0.9-3.5-1.5-5.1-1.5c-10.9-0.3-15.8,14-16.5,23.4c-0.5,7.2,1.1,13.2,5.1,13.5c5.3,0.4,9.8-10.1,10.5-19.2
			c0.4-5.3-0.5-10.1-3.3-12c0,0,4.5-2.3,6.6-2.3C614.8,384.8,616.4,385.4,617.5,385.5z"/>
		</g>
	</g>
	<g>
		<path d="M396.1,501.7l-10.2-15.4c-0.4-0.6,0-1.3,0.7-1.3h6c0.4,0,0.6,0.2,0.7,0.4l6.4,9.5l6.4-9.5c0.1-0.2,0.3-0.4,0.7-0.4h6
		c0.7,0,1.1,0.7,0.7,1.3l-10.3,15.4v14.7c0,0.5-0.4,0.9-0.9,0.9h-5.5c-0.5,0-0.9-0.4-0.9-0.9V501.7z"/>
		<path d="M429.1,484.5c9.2,0,16.6,7.4,16.6,16.6c0,9.2-7.4,16.6-16.6,16.6c-9.2,0-16.6-7.3-16.6-16.6
		C412.5,491.9,419.8,484.5,429.1,484.5z M429.1,510.3c5.1,0,9.2-4.2,9.2-9.2c0-5.1-4.1-9.3-9.2-9.3c-5,0-9.2,4.2-9.2,9.3
		C419.9,506.1,424,510.3,429.1,510.3z"/>
		<path d="M449.9,485.8c0-0.5,0.4-0.9,0.9-0.9h5.7c0.5,0,0.9,0.4,0.9,0.9v18.7c0,3.2,2.4,5.8,5.7,5.8c3.3,0,5.8-2.6,5.8-5.8v-18.7
		c0-0.5,0.4-0.9,0.9-0.9h5.7c0.5,0,0.9,0.4,0.9,0.9v19c0,7-5.9,12.8-13.2,12.8c-7.2,0-13.1-5.8-13.1-12.8V485.8z"/>
		<path d="M480.8,485.8c0-0.5,0.4-0.9,0.9-0.9h13.8c5.5,0,10.1,4.5,10.1,10c0,4.2-2.8,7.7-6.8,9.3l6.3,11.7c0.3,0.6,0,1.3-0.8,1.3
		h-6.1c-0.4,0-0.6-0.2-0.7-0.4l-6.1-12.2H488v11.8c0,0.5-0.4,0.9-0.9,0.9h-5.5c-0.5,0-0.9-0.4-0.9-0.9V485.8z M494.9,498.7
		c1.9,0,3.5-1.8,3.5-3.7c0-1.9-1.6-3.5-3.5-3.5H488v7.2H494.9z"/>
	</g>
	<g>
		<g>
			<path d="M156.8,533.1c0.1-0.8,0.8-1.5,1.6-1.4c8.1,0.6,12.1,0.9,20.1,1.5c15.7,1.3,28.1,15,27.1,30.7c-1,15.9-15.4,27.9-31.3,26.8
			c-8.2-0.6-12.3-0.9-20.4-1.5c-0.8-0.1-1.4-0.9-1.4-1.7C153.9,569.3,155.4,551.2,156.8,533.1z M174.4,578.5
			c9.4,0.7,16.8-6.2,17.4-15.5c0.6-9.3-5.6-17.1-15-17.8c-3.2-0.2-4.8-0.4-7.9-0.6c-0.8,11.1-1.7,22.2-2.5,33.3
			C169.6,578.1,171.2,578.2,174.4,578.5z"/>
			<path d="M217.5,537.4c0.1-0.8,0.8-1.5,1.7-1.5c11.4,0.7,22.8,1.4,34.2,2c0.9,0,1.5,0.8,1.5,1.6c-0.2,3.6-0.3,5.4-0.5,9
			c0,0.8-0.7,1.5-1.7,1.5c-9.2-0.5-13.8-0.8-22.9-1.3c-0.2,4.1-0.4,6.1-0.6,10.2c7.6,0.5,11.4,0.7,18.9,1.1c0.8,0,1.5,0.8,1.5,1.6
			c-0.2,3.6-0.3,5.4-0.5,9c0,0.9-0.8,1.5-1.7,1.5c-7.6-0.4-11.4-0.6-19-1.1c-0.3,4.4-0.4,6.7-0.7,11.1c9.3,0.6,13.9,0.8,23.1,1.3
			c0.9,0,1.5,0.8,1.5,1.6c-0.2,3.6-0.3,5.4-0.5,9c0,0.8-0.8,1.5-1.7,1.5c-11.6-0.6-23.1-1.3-34.7-2c-0.9-0.1-1.5-0.8-1.5-1.7
			C215.2,573.7,216.3,555.5,217.5,537.4z"/>
			<path d="M265.9,540.1c0-0.8,0.7-1.5,1.6-1.5c8,0.4,11.9,0.6,19.9,0.9c10,0.6,18.2,9,17.8,19c-0.4,10-9.1,18-19.3,17.7
			c-3.5-0.2-5.3-0.2-8.8-0.4c-0.4,7.7-0.5,11.6-0.9,19.3c0,0.8-0.8,1.5-1.7,1.5c-4-0.2-5.9-0.3-9.9-0.5c-0.9,0-1.6-0.8-1.5-1.6
			C264.1,576.4,265,558.3,265.9,540.1z M285.6,564.2c3.6,0.2,6.7-2.5,6.9-6.2c0.1-3.5-2.7-6.2-6.3-6.4c-3.1-0.1-4.7-0.2-7.9-0.4
			c-0.2,5-0.4,7.6-0.6,12.6C280.9,564,282.4,564.1,285.6,564.2z"/>
			<path d="M314.3,542.3c0-0.8,0.7-1.5,1.6-1.5c11.4,0.4,22.8,0.8,34.2,1.1c0.9,0,1.5,0.8,1.5,1.6c-0.1,3.6-0.2,5.4-0.3,9
			c0,0.8-0.7,1.5-1.6,1.5c-9.2-0.3-13.8-0.4-23-0.7c-0.1,4.1-0.2,6.1-0.4,10.2c7.6,0.3,11.4,0.4,19,0.6c0.8,0,1.6,0.8,1.5,1.6
			c-0.1,3.6-0.2,5.4-0.3,9c0,0.9-0.8,1.5-1.6,1.5c-7.6-0.2-11.4-0.3-19-0.6c-0.2,4.4-0.2,6.7-0.4,11.1c9.3,0.3,13.9,0.5,23.2,0.7
			c0.9,0,1.6,0.8,1.5,1.6c-0.1,3.6-0.2,5.4-0.3,9c0,0.8-0.7,1.5-1.6,1.5c-11.6-0.3-23.2-0.7-34.7-1.1c-0.9,0-1.6-0.8-1.5-1.6
			C313,578.6,313.6,560.4,314.3,542.3z"/>
			<path d="M362.7,542.9c0-0.8,0.8-1.5,1.6-1.4c0.8,0,1.2,0,2.1,0.1c10.8,10.8,21.6,21.6,32.5,32.3c0,0,0,0,0.1,0
			c0.2-9.7,0.3-19.5,0.5-29.2c0-0.8,0.7-1.6,1.6-1.5c4,0.1,6,0.1,9.9,0.1c0.8,0,1.6,0.8,1.6,1.6c-0.2,18.5-0.5,37-0.7,55.4
			c0,0.8-0.8,1.5-1.6,1.5c-0.5,0-0.8,0-1.3,0c-0.3,0-0.9-0.3-1.1-0.4c-10.9-11-21.7-22.1-32.4-33.3c0,0,0,0-0.1,0
			c-0.2,10.2-0.4,20.5-0.7,30.7c0,0.8-0.7,1.6-1.6,1.5c-4-0.1-6-0.1-10-0.2c-0.8,0-1.6-0.8-1.6-1.6
			C361.8,579.8,362.3,561.4,362.7,542.9z"/>
			<path d="M426.7,544.9c0-0.8,0.7-1.6,1.5-1.6c8.1,0.1,12.1,0.1,20.2,0.1c15.7,0.2,29.1,13,29.1,28.7c0.1,15.9-13.4,28.9-29.3,28.9
			c-8.2,0-12.3,0-20.5-0.1c-0.8,0-1.5-0.8-1.5-1.6C426.4,581.2,426.5,563.1,426.7,544.9z M447.4,588.9c9.5,0,16.3-7.3,16.3-16.7
			c0-9.3-6.8-16.6-16.2-16.7c-3.2,0-4.8,0-8,0c-0.1,11.1-0.1,22.2-0.2,33.4C442.6,588.9,444.2,588.9,447.4,588.9z"/>
			<path d="M487.5,544.9c0-0.8,0.7-1.6,1.6-1.6c11.4-0.1,22.8-0.2,34.2-0.4c0.9,0,1.6,0.7,1.6,1.5c0.1,3.6,0.1,5.4,0.1,9
			c0,0.8-0.6,1.6-1.6,1.6c-9.2,0.1-13.8,0.2-23,0.3c0,4.1,0.1,6.1,0.1,10.2c7.6-0.1,11.4-0.1,19-0.2c0.8,0,1.6,0.7,1.6,1.5
			c0.1,3.6,0.1,5.4,0.1,9c0,0.9-0.7,1.6-1.6,1.6c-7.6,0.1-11.4,0.2-19,0.2c0,4.4,0.1,6.7,0.1,11.1c9.3-0.1,13.9-0.2,23.2-0.3
			c0.9,0,1.6,0.7,1.6,1.5c0.1,3.6,0.1,5.4,0.1,9c0,0.8-0.6,1.6-1.6,1.6c-11.6,0.2-23.2,0.3-34.7,0.4c-0.9,0-1.6-0.7-1.6-1.6
			C487.8,581.3,487.6,563.1,487.5,544.9z"/>
			<path d="M535.9,543.4c0-0.8,0.7-1.5,1.5-1.5c0.8,0,1.2,0,2.1,0c11.2,10.3,22.5,20.6,33.9,30.8c0,0,0.1,0,0.1,0
			c-0.3-9.7-0.6-19.5-0.8-29.2c0-0.8,0.6-1.6,1.5-1.6c4-0.1,6-0.2,9.9-0.3c0.8,0,1.6,0.7,1.6,1.5c0.6,18.5,1.2,36.9,1.8,55.4
			c0,0.8-0.7,1.5-1.5,1.5c-0.5,0-0.8,0-1.3,0c-0.3,0-0.9-0.2-1.1-0.4c-11.3-10.5-22.6-21.1-33.9-31.8c0,0,0,0-0.1,0
			c0.2,10.2,0.5,20.5,0.7,30.7c0,0.8-0.6,1.6-1.6,1.6c-4,0.1-6,0.1-10,0.2c-0.8,0-1.6-0.7-1.6-1.5
			C536.6,580.4,536.3,561.9,535.9,543.4z"/>
			<path d="M625.4,539.1c8.3-0.4,14.5,2,20.4,6.7c0.8,0.6,0.8,1.6,0.2,2.3c-2.5,2.8-3.7,4.2-6.2,7c-0.6,0.6-1.5,0.6-2.1,0.1
			c-3-2.6-7.3-3.9-11.4-3.7c-9.4,0.4-15.9,8.4-15.6,17.6c0.4,9.1,7.7,16.4,17.1,16c3.9-0.2,8.1-1.8,11-4.4c0.6-0.5,1.6-0.6,2.2,0
			c2.7,2.6,4.1,3.9,6.8,6.5c0.6,0.5,0.6,1.6,0,2.2c-5.3,5.7-12.5,8.6-20,8.9c-16.3,0.7-30.8-11.9-31.3-28.4
			C596.1,553.7,609.2,539.9,625.4,539.1z"/>
			<path d="M655.5,540.1c0-0.8,0.7-1.6,1.5-1.6c4-0.2,5.9-0.3,9.9-0.5c0.8,0,1.6,0.7,1.7,1.5c1,18.2,2,36.3,2.9,54.5
			c0,0.8-0.7,1.6-1.5,1.6c-4,0.2-6,0.3-10.1,0.5c-0.8,0-1.6-0.7-1.7-1.5C657.3,576.5,656.4,558.3,655.5,540.1z"/>
			<path d="M681.1,538.8c0-0.8,0.6-1.6,1.5-1.7c11.4-0.7,22.8-1.4,34.2-2.1c0.9-0.1,1.6,0.6,1.7,1.5c0.2,3.6,0.4,5.4,0.6,9
			c0.1,0.8-0.6,1.6-1.5,1.7c-9.2,0.6-13.8,0.9-22.9,1.5c0.2,4.1,0.4,6.1,0.6,10.2c7.6-0.5,11.4-0.7,18.9-1.2
			c0.8-0.1,1.6,0.6,1.7,1.5c0.2,3.6,0.4,5.4,0.6,9c0.1,0.9-0.6,1.6-1.5,1.7c-7.6,0.5-11.4,0.7-19,1.2c0.3,4.4,0.4,6.7,0.7,11.1
			c9.3-0.6,13.9-0.9,23.1-1.5c0.9-0.1,1.6,0.6,1.7,1.5c0.2,3.6,0.4,5.4,0.6,9c0.1,0.8-0.6,1.6-1.5,1.7c-11.6,0.7-23.1,1.5-34.7,2.1
			c-0.9,0.1-1.6-0.6-1.7-1.5C683.2,575.1,682.2,556.9,681.1,538.8z"/>
			<path d="M729.5,584.1c1.4-2.8,2.1-4.3,3.5-7.1c0.6-1.1,2.2-1,2.8-0.7c0.3,0.2,6.7,4.1,12.2,3.7c3.3-0.2,5.6-2.5,5.4-5.4
			c-0.3-3.5-3.4-5.9-9.2-7.7c-7.4-2.3-16.8-7.2-17.4-17c-0.6-10.1,8.4-17.1,17.9-17.7c8.5-0.5,15.6,3.4,18.1,4.8c1,0.5,1,2,0.7,2.6
			c-1.5,2.7-2.2,4-3.7,6.7c-0.5,0.9-2,1.7-2.7,1.3c-0.7-0.4-7.2-4.4-12.2-4c-3,0.2-5.1,2.4-4.9,4.6c0.2,3,2.9,5.2,9.6,7.3
			c6.6,2.1,17.5,6.4,18.2,17.4c0.7,10.3-8.6,17.8-18.4,18.5c-10.8,0.7-17.2-3.2-19.3-5C729.2,585.6,728.9,585.3,729.5,584.1z"/>
		</g>
	</g>
</svg>
